<svg width="32" height="32" viewBox="0 0 32 32" fill="none" xmlns="http://www.w3.org/2000/svg">
<path d="M24.5182 10.8646C24.2125 8.04242 21.874 7.13733 18.9369 6.92119L18.8717 3L16.5998 3.04191L16.6634 6.85974C16.0661 6.87078 15.4558 6.89438 14.8495 6.91822L14.786 3.07508L12.5153 3.11665L12.5796 7.03673C12.0879 7.0563 11.605 7.07477 11.134 7.08374L11.1335 7.07158L8 7.12791L8.04296 9.67707C8.04296 9.67707 9.72009 9.6127 9.69275 9.64567C10.613 9.62909 10.9218 10.1849 11.017 10.6676L11.0914 15.1346C11.1549 15.1338 11.2378 15.1351 11.3318 15.1469C11.2561 15.1484 11.1751 15.1493 11.0918 15.1516L11.1952 21.4095C11.1599 21.7145 10.9977 22.2027 10.3548 22.2157C10.3843 22.2422 8.70332 22.2455 8.70332 22.2455L8.29927 25.1043L11.2558 25.0499C11.806 25.0405 12.3475 25.0404 12.879 25.0342L12.9459 29L15.2154 28.9588L15.1501 25.0349C15.7734 25.037 16.3766 25.0311 16.9653 25.0198L17.0292 28.9256L19.3011 28.8837L19.236 24.9249C23.0517 24.6246 25.7082 23.5647 25.9775 19.7904C26.1951 16.7513 24.814 15.4223 22.6368 14.9151C23.9423 14.1863 24.7452 12.9296 24.5182 10.8646ZM21.4806 19.4028C21.5311 22.3664 16.6952 22.1179 15.1555 22.1477L15.0688 16.8932C16.6089 16.8653 21.4294 16.3116 21.4806 19.4028ZM20.3008 12.0088C20.3449 14.7051 16.3112 14.4644 15.0287 14.488L14.9497 9.72241C16.2322 9.69879 20.2538 9.19642 20.3008 12.0088Z" fill="white"/>
</svg>
