<svg width="32" height="32" viewBox="0 0 32 32" fill="none" xmlns="http://www.w3.org/2000/svg">
<g clip-path="url(#clip0)">
<path fill-rule="evenodd" clip-rule="evenodd" d="M6 16.5655L15.9841 22.4641L25.9642 16.5655L15.9841 0L6 16.5655ZM6 18.4572L15.9841 32.5228L25.972 18.4572L15.9841 24.3558L6 18.4572ZM16.8608 8.80978C18.1662 8.90954 19.2056 9.32727 19.3414 10.6298C19.4423 11.5829 19.0855 12.1629 18.5052 12.4993C19.4729 12.7334 20.0867 13.3467 19.99 14.7494C19.8703 16.4914 18.6896 16.9806 16.9938 17.1192L17.0227 18.9463L16.013 18.9657L15.9846 17.163C15.7229 17.1682 15.4549 17.1709 15.1778 17.1699L15.2068 18.981L14.1982 19L14.1685 17.1696C14.0741 17.1708 13.979 17.1715 13.8832 17.1722C13.7393 17.1732 13.5939 17.1743 13.447 17.1769L12.133 17.202L12.3126 15.8826C12.3126 15.8826 13.0597 15.881 13.0466 15.8688C13.3323 15.8628 13.4044 15.6375 13.4201 15.4967L13.3741 12.6084C13.3988 12.6077 13.4231 12.6073 13.4465 12.6069C13.4581 12.6067 13.4696 12.6065 13.4808 12.6062C13.439 12.6008 13.4022 12.6002 13.374 12.6006L13.3409 10.5389C13.2986 10.3161 13.1613 10.0596 12.7523 10.0672C12.7645 10.052 12.0191 10.0817 12.0191 10.0817L12 8.90519L13.3927 8.87919L13.3929 8.8848C13.6022 8.88066 13.8168 8.87214 14.0354 8.86311L14.0068 7.05384L15.016 7.03465L15.0442 8.80841C15.3137 8.7974 15.5849 8.78651 15.8504 8.78142L15.8221 7.01934L16.8318 7L16.8608 8.80978ZM15.3776 15.8357C16.2046 15.8325 18.012 15.8254 17.9914 14.5705C17.9709 13.2872 16.2355 13.365 15.3886 13.403C15.294 13.4072 15.2105 13.4109 15.1417 13.4122L15.1802 15.8374C15.2367 15.8362 15.3032 15.836 15.3776 15.8357ZM15.29 12.3011C15.98 12.3003 17.485 12.2987 17.467 11.1579C17.4482 9.99113 16.0022 10.0605 15.2959 10.0944C15.2165 10.0982 15.1464 10.1015 15.0887 10.1027L15.1239 12.3021C15.1714 12.3012 15.2273 12.3012 15.29 12.3011Z" fill="white"/>
</g>
<defs>
<clipPath id="clip0">
<path d="M0 0H32V32H0V0Z" fill="white"/>
</clipPath>
</defs>
</svg>
