<svg width="153" height="132" viewBox="0 0 153 132" fill="none" xmlns="http://www.w3.org/2000/svg">
<path d="M145.75 127.249H40.3193C38.9313 127.249 37.8209 126.084 37.932 124.696L42.2625 55.7965C42.3735 54.4086 43.5949 53.2427 44.9829 53.2427H150.413C151.801 53.2427 152.912 54.4086 152.801 55.7965L148.47 124.696C148.359 126.139 147.138 127.249 145.75 127.249Z" fill="#263238"/>
<path opacity="0.6" d="M145.75 127.249H40.3193C38.9313 127.249 37.8209 126.084 37.932 124.696L42.2625 55.7965C42.3735 54.4086 43.5949 53.2427 44.9829 53.2427H150.413C151.801 53.2427 152.912 54.4086 152.801 55.7965L148.47 124.696C148.359 126.139 147.138 127.249 145.75 127.249Z" fill="black"/>
<path d="M144.972 127.249H39.5419C38.154 127.249 37.0436 126.084 37.1546 124.696L41.4851 55.7965C41.5961 54.4086 42.8176 53.2427 44.2055 53.2427H149.636C151.024 53.2427 152.134 54.4086 152.023 55.7965L147.693 124.696C147.582 126.139 146.36 127.249 144.972 127.249Z" fill="#3B445B"/>
<path d="M144.806 128.138H19.3883C18.1669 128.138 17.112 128.859 16.6124 129.859C16.3348 130.414 16.7789 131.136 17.3896 131.136H146.693C147.36 131.136 147.804 130.469 147.471 129.859C147.082 128.859 146.027 128.138 144.806 128.138Z" fill="#3B445B"/>
<path opacity="0.6" d="M144.806 128.138H126.984C125.763 128.138 124.708 128.859 124.208 129.859C123.93 130.414 124.375 131.136 124.985 131.136H146.693C147.359 131.136 147.804 130.469 147.471 129.859C147.082 128.859 146.027 128.138 144.806 128.138Z" fill="black"/>
<path d="M133.757 130.303H129.149C128.927 130.303 128.761 130.137 128.761 129.915C128.761 129.692 128.927 129.526 129.149 129.526H133.757C133.98 129.526 134.146 129.692 134.146 129.915C134.146 130.137 133.98 130.303 133.757 130.303Z" fill="url(#paint0_linear)"/>
<path opacity="0.7" d="M74.5187 130.303H69.9106C69.6885 130.303 69.522 130.137 69.522 129.915C69.522 129.692 69.6885 129.526 69.9106 129.526H74.5187C74.7408 129.526 74.9073 129.692 74.9073 129.915C74.9073 130.137 74.7408 130.303 74.5187 130.303Z" fill="white"/>
<path d="M138.532 130.303H135.534C135.367 130.303 135.201 130.136 135.201 129.97V129.803C135.201 129.637 135.367 129.47 135.534 129.47H138.532C138.698 129.47 138.865 129.637 138.865 129.803V129.97C138.865 130.136 138.698 130.303 138.532 130.303Z" fill="url(#paint1_linear)"/>
<path d="M39.5418 122.198L43.5392 58.2952C43.5947 57.7401 44.0389 57.2959 44.594 57.2959H148.692C149.247 57.2959 149.636 57.7401 149.636 58.2952L145.583 122.198C145.528 122.753 145.083 123.197 144.528 123.197H40.4301C39.9305 123.197 39.4863 122.753 39.5418 122.198Z" fill="white"/>
<path opacity="0.1" d="M98.7249 55.3525L64.0255 121.254H38.4868C37.9316 121.254 37.543 120.809 37.543 120.254L41.5959 56.3519C41.6514 55.7967 42.0955 55.3525 42.6507 55.3525H98.7249Z" fill="#407BFF"/>
<path opacity="0.1" d="M129.094 55.3525L94.45 121.254H86.3442L120.988 55.3525H129.094Z" fill="#407BFF"/>
<path opacity="0.1" d="M147.637 56.3519L143.584 120.254C143.529 120.809 143.084 121.254 142.529 121.254H103.111L137.755 55.3525H146.638C147.248 55.3525 147.693 55.7967 147.637 56.3519Z" fill="#407BFF"/>
<path opacity="0.4" d="M97.5034 55.408C97.5034 55.7966 97.1148 56.1297 96.7261 56.1297C96.3375 56.1297 96.0044 55.7966 96.0044 55.408C96.0044 55.0193 96.393 54.6862 96.7817 54.6862C97.2258 54.6307 97.5589 54.9638 97.5034 55.408Z" fill="white"/>
<path d="M80.2928 40.0847C77.2393 43.5824 75.5182 54.1865 77.739 59.4608C80.0152 64.6796 53.9213 69.9539 75.4072 78.4483C96.9485 86.9427 114.159 77.1158 107.941 68.2883C101.723 59.4608 108.608 44.8038 101.39 41.084C94.8943 37.6974 86.3999 33.1448 80.2928 40.0847Z" fill="#18172B"/>
<path d="M73.908 83.0007C72.7422 86.8871 71.5762 90.7734 70.2993 94.6597C69.0224 98.546 67.7454 102.377 66.3575 106.263L65.8578 107.707L65.5802 108.428L65.5247 108.65L65.4136 108.984C65.3581 109.206 65.1916 109.428 65.0805 109.65C64.5809 110.538 63.7481 111.482 62.7487 112.037C61.7494 112.592 60.6945 112.759 59.8618 112.814C58.1407 112.814 56.8637 112.426 55.6978 111.982C54.5319 111.537 53.5326 110.982 52.5888 110.427C48.758 108.151 45.6489 105.43 42.6509 102.377L45.0382 99.5454C45.871 100.045 46.7038 100.6 47.5365 101.1C48.3693 101.6 49.2576 102.099 50.0904 102.599C51.8115 103.598 53.5326 104.487 55.1982 105.208C56.0309 105.597 56.8637 105.875 57.641 106.097C58.4183 106.319 59.14 106.374 59.4731 106.319C59.6397 106.263 59.5842 106.208 59.4731 106.263C59.3621 106.319 59.1955 106.43 59.1955 106.43C59.1955 106.43 59.1955 106.43 59.1955 106.374C59.1955 106.374 59.1955 106.374 59.1955 106.319L59.251 106.152L59.4731 105.43L59.9173 103.987L63.3039 92.3279C64.4698 88.4416 65.6357 84.5553 66.8571 80.6689L73.908 83.0007Z" fill="#F09959"/>
<path d="M44.7605 99.4342L38.3203 97.0469L40.8742 103.876C40.8742 103.876 45.4267 104.542 47.2033 102.155L45.7599 100.211C45.5378 99.8783 45.1491 99.6007 44.7605 99.4342Z" fill="#E38540"/>
<path d="M32.6021 99.0456L35.1004 104.653L40.8744 103.876L38.3205 97.0469L32.6021 99.0456Z" fill="#E38540"/>
<path d="M69.1891 72.9518C66.2466 73.7291 64.1924 85.8322 64.1924 85.8322L72.2981 91.3841C72.2981 91.3841 80.0708 79.1144 77.85 75.8943C75.4627 72.5077 73.464 71.8414 69.1891 72.9518Z" fill="#407BFF"/>
<path d="M69.1891 72.9518C66.2466 73.7291 64.1924 85.8322 64.1924 85.8322L72.2981 91.3841C72.2981 91.3841 80.0708 79.1144 77.85 75.8943C75.4627 72.5077 73.464 71.8414 69.1891 72.9518Z" fill="url(#paint2_linear)"/>
<path opacity="0.2" d="M68.9115 77.3379L75.2406 78.7814L75.8513 84.944C74.1858 88.3306 72.2981 91.3287 72.2981 91.3287L67.3569 87.9975C67.579 85.1661 68.0787 79.2811 68.9115 77.3379Z" fill="black"/>
<path d="M69.1889 72.952C69.1889 72.952 65.8022 74.1734 72.6311 116.146C84.179 116.146 96.1156 116.146 101.723 116.146C101.223 104.32 101.223 96.9917 106.886 72.7299C106.886 72.7299 100.779 71.3974 94.5611 71.1198C89.6754 70.8978 85.678 70.7312 81.3475 71.1198C75.6291 71.6195 69.1889 72.952 69.1889 72.952Z" fill="#407BFF"/>
<path d="M69.1889 72.952C69.1889 72.952 65.8022 74.1734 72.6311 116.146C84.179 116.146 96.1156 116.146 101.723 116.146C101.223 104.32 101.223 96.9917 106.886 72.7299C106.886 72.7299 100.779 71.3974 94.5611 71.1198C89.6754 70.8978 85.678 70.7312 81.3475 71.1198C75.6291 71.6195 69.1889 72.952 69.1889 72.952Z" fill="url(#paint3_linear)"/>
<path opacity="0.2" d="M100.002 84L103.777 87.2201C103 91.4395 102.445 94.9928 102.112 98.1573C101.334 94.9928 99.5577 86.3873 100.002 84Z" fill="black"/>
<path d="M93.1731 56.2407C92.3403 60.5157 91.5076 68.2883 94.5056 71.1198C94.5056 71.1198 91.7296 77.5045 84.3456 77.5045C76.9616 77.5045 81.2921 71.1198 81.2921 71.1198C86.0112 70.0094 85.9001 66.4562 85.0674 63.1806L93.1731 56.2407Z" fill="#F09959"/>
<path d="M93.5062 69.5094C92.7844 70.9529 90.5637 74.173 84.2345 75.3389C84.068 75.3944 83.9014 75.3389 83.7349 75.2279C82.569 74.3951 81.8472 72.674 82.3469 70.6753C82.5134 70.1201 81.9582 69.6205 81.4031 69.8425C80.7923 70.1201 80.2372 70.3977 80.0151 70.5643C79.904 70.6198 79.8485 70.7308 79.793 70.8419C79.3489 71.7302 77.4612 75.9496 83.1241 78.559C83.2352 78.6145 83.2907 78.6145 83.4017 78.6145C86.7329 78.6701 92.5624 78.0038 96.2266 71.3971C96.3377 71.175 96.3377 70.8419 96.1711 70.6198C95.7825 70.1201 95.0052 69.565 94.45 69.2318C94.1724 69.0098 93.7283 69.1208 93.5062 69.5094Z" fill="#FAFAFA"/>
<path d="M95.061 86.9981L87.5659 86.776C87.2328 86.776 87.0107 86.4984 87.0107 86.1653L87.0663 85.2215C87.0663 84.8884 87.3994 84.6108 87.7325 84.6663L95.2275 84.8884C95.5607 84.8884 95.7827 85.166 95.7827 85.4991L95.7272 86.4429C95.6717 86.7205 95.3941 86.9981 95.061 86.9981Z" fill="#FAFAFA"/>
<path opacity="0.2" d="M89.842 59.0718L85.0674 63.1802C85.2895 63.9574 85.4005 64.7347 85.456 65.512C87.2881 65.2344 89.731 63.2912 89.9531 61.3481C90.0641 60.4042 90.0086 59.5159 89.842 59.0718Z" fill="#E38540"/>
<path d="M98.7804 48.1904C97.4479 55.1858 97.0038 58.1283 93.0064 61.2928C86.9548 66.012 78.6825 62.8474 77.9052 55.6299C77.239 49.1342 79.5153 38.8077 86.7883 36.8645C93.8947 35.0324 100.113 41.2505 98.7804 48.1904Z" fill="#F09959"/>
<path d="M94.7832 43.0269C93.8949 47.4129 93.7283 53.1868 97.7257 53.1868C101.723 53.1868 104.888 46.358 101.39 41.0282C98.0033 35.6984 95.2828 40.473 94.7832 43.0269Z" fill="#263238"/>
<path d="M101.723 43.5821C101.723 48.3568 95.7271 45.9695 93.0622 43.9153C90.3973 41.8611 90.2863 42.0831 85.4006 42.0831C80.5149 42.0831 79.5156 41.75 78.0721 39.4182C76.6286 37.0864 76.7396 35.5319 80.0153 36.0316C83.2909 36.5312 80.5149 33.2001 82.9578 31.368C85.4006 29.5359 88.2876 29.98 91.6187 34.1994C94.8943 38.3634 101.723 35.3098 101.723 43.5821Z" fill="#18172B"/>
<path d="M99.9566 54.386C100.586 52.2381 99.9756 50.1682 98.5927 49.7629C97.2098 49.3575 95.5783 50.7701 94.9487 52.918C94.319 55.0659 94.9297 57.1358 96.3126 57.5412C97.6955 57.9465 99.327 56.5339 99.9566 54.386Z" fill="white"/>
<path d="M88.8423 59.794C87.5654 59.794 86.2885 59.5164 85.1226 59.0167C85.0115 58.9612 84.956 58.8502 85.0115 58.7391C85.067 58.6281 85.1781 58.5726 85.2891 58.6281C87.5654 59.5719 90.0638 59.6274 92.34 58.6836C94.5608 57.7398 96.2819 56.0187 97.2257 53.7979C98.8913 49.0233 100.612 43.0828 98.6137 39.363C97.8364 37.9195 96.5595 36.9757 94.7829 36.5316C94.6718 36.476 94.6163 36.365 94.6163 36.254C94.6718 36.1429 94.7273 36.0874 94.8939 36.0874C96.7815 36.5871 98.1695 37.5864 99.0023 39.1409C101.057 42.9718 99.3354 49.0233 97.6143 53.909C96.6705 56.2408 94.8384 58.0174 92.5066 59.0167C91.2852 59.5164 90.0637 59.794 88.8423 59.794Z" fill="white"/>
<path opacity="0.6" d="M99.7827 54.434C100.274 52.7569 99.9334 51.1805 99.0213 50.9131C98.1092 50.6457 96.9712 51.7886 96.4796 53.4657C95.9879 55.1429 96.3288 56.7192 97.2409 56.9866C98.153 57.254 99.291 56.1111 99.7827 54.434Z" fill="#407BFF"/>
<path d="M85.4003 59.5722L83.235 59.1281C82.8464 59.0725 82.6243 58.6839 82.6798 58.2953V58.1842C82.7353 57.7956 83.124 57.5735 83.5126 57.629L85.6779 58.0732C86.0665 58.1287 86.2886 58.5173 86.233 58.906V59.017C86.122 59.4057 85.7334 59.6832 85.4003 59.5722Z" fill="white"/>
<path d="M71.0004 123.106C71.0004 123.106 70.9449 119.109 72.1108 116C74.6647 116 101.203 116 101.203 116C101.203 116 103.812 120.219 104.478 123.106C101.203 123.106 71.0004 123.106 71.0004 123.106Z" fill="url(#paint4_linear)"/>
<path d="M102.112 114.424L102.334 117.034C102.445 117.256 102.223 117.422 101.834 117.422H72.4091C72.1315 117.422 71.9094 117.311 71.9094 117.145L71.6318 114.535C71.6318 114.369 71.8539 114.202 72.1315 114.202H101.557C101.834 114.202 102.056 114.313 102.112 114.424Z" fill="#407BFF"/>
<path d="M102.112 114.424L102.334 117.034C102.445 117.256 102.223 117.422 101.834 117.422H72.4091C72.1315 117.422 71.9094 117.311 71.9094 117.145L71.6318 114.535C71.6318 114.369 71.8539 114.202 72.1315 114.202H101.557C101.834 114.202 102.056 114.313 102.112 114.424Z" fill="url(#paint5_linear)"/>
<path d="M98.1695 117.7H98.9468C99.1133 117.7 99.2244 117.645 99.2244 117.534L98.8357 114.147C98.8357 114.036 98.6692 113.98 98.5581 113.98H97.7253C97.5588 113.98 97.4478 114.036 97.4478 114.147L97.8364 117.534C97.8364 117.645 98.0029 117.7 98.1695 117.7Z" fill="url(#paint6_linear)"/>
<path d="M74.6853 117.7H75.4625C75.6291 117.7 75.7401 117.645 75.7401 117.534L75.3515 114.147C75.3515 114.036 75.1849 113.98 75.0739 113.98H74.2966C74.1301 113.98 74.019 114.036 74.019 114.147L74.4077 117.534C74.3522 117.645 74.5187 117.7 74.6853 117.7Z" fill="url(#paint7_linear)"/>
<path d="M86.3996 117.7H87.1769C87.3435 117.7 87.4545 117.645 87.4545 117.534L87.0659 114.147C87.0659 114.036 86.8993 113.98 86.7883 113.98H86.011C85.8444 113.98 85.7334 114.036 85.7334 114.147L86.122 117.534C86.122 117.645 86.2331 117.7 86.3996 117.7Z" fill="url(#paint8_linear)"/>
<path d="M109.329 80.9468C110.606 85.1107 111.827 89.2746 112.993 93.4385L114.77 99.7122L115.658 102.821L115.88 103.599L115.991 103.987V104.098L115.88 103.987C115.825 103.876 115.714 103.71 115.381 103.487C115.103 103.265 114.492 102.988 113.881 102.988C113.326 102.988 112.882 103.099 112.716 103.21C112.327 103.432 112.382 103.487 112.382 103.432C112.438 103.376 112.549 103.321 112.66 103.154C112.882 102.877 113.16 102.488 113.382 102.099C113.881 101.322 114.381 100.378 114.825 99.4901C115.769 97.658 116.602 95.7148 117.49 93.7161C118.323 91.773 119.156 89.7743 119.989 87.7756C120.821 85.7769 121.599 83.7782 122.431 81.7796L125.985 82.8344C125.041 87.1649 123.986 91.4399 122.653 95.6593C121.987 97.769 121.266 99.8787 120.433 102.044C119.989 103.099 119.544 104.154 118.989 105.264C118.712 105.819 118.379 106.374 117.99 106.985C117.768 107.318 117.546 107.596 117.213 107.985C116.88 108.318 116.491 108.762 115.603 109.206C115.158 109.428 114.492 109.65 113.659 109.595C112.827 109.595 111.938 109.206 111.439 108.762C110.883 108.373 110.606 107.985 110.384 107.651C110.162 107.318 110.051 107.041 109.94 106.819C109.884 106.708 109.829 106.541 109.773 106.485L109.662 106.208L109.495 105.819L109.218 105.042C108.829 103.987 108.441 102.988 108.108 101.933C107.386 99.8787 106.664 97.769 105.998 95.7148C104.665 91.5509 103.388 87.387 102.167 83.1675L109.329 80.9468Z" fill="#F09959"/>
<path d="M106.831 72.7299C109.718 73.6182 114.215 85.0551 114.215 85.0551L102.889 93.1609C102.889 93.1609 97.781 83.3895 99.058 79.6142C100.335 75.6724 103.499 71.7305 106.831 72.7299Z" fill="#407BFF"/>
<path d="M106.831 72.7299C109.718 73.6182 114.215 85.0551 114.215 85.0551L102.889 93.1609C102.889 93.1609 97.781 83.3895 99.058 79.6142C100.335 75.6724 103.499 71.7305 106.831 72.7299Z" fill="url(#paint9_linear)"/>
<path d="M122.542 83.2229L120.988 76.394L127.428 79.7807C127.428 79.7807 127.484 84.3888 124.93 85.8323L122.542 83.2229Z" fill="#E38540"/>
<path d="M123.708 70.9531L127.817 73.8401L127.428 79.7806L120.988 76.394L123.708 70.9531Z" fill="#E38540"/>
<path d="M8.34007 36.5869H53.3104C56.9747 36.5869 59.8061 39.5849 59.5841 43.2492L58.3626 63.6246C58.1406 67.2889 54.976 70.2869 51.3117 70.2869H46.093L48.2027 77.2823L38.0427 70.2869H6.28586C2.62161 70.2869 -0.209854 67.2889 0.0122222 63.6246L1.23364 43.2492C1.51123 39.5849 4.67581 36.5869 8.34007 36.5869Z" fill="url(#paint10_linear)"/>
<path d="M49.2022 47.2467H11.1717C10.5055 47.2467 9.95027 46.6916 10.0058 45.9698C10.0613 45.3036 10.672 44.6929 11.3382 44.6929H49.3687C50.035 44.6929 50.5901 45.2481 50.5346 45.9698C50.4791 46.6916 49.8684 47.2467 49.2022 47.2467Z" fill="white"/>
<path d="M26.6613 54.6862H10.7273C10.0611 54.6862 9.50593 54.131 9.56145 53.4093C9.61697 52.743 10.2277 52.1323 10.8939 52.1323H26.8834C27.5496 52.1323 28.1048 52.6875 28.0493 53.4093C27.9937 54.131 27.383 54.6862 26.6613 54.6862Z" fill="white"/>
<path d="M40.3191 62.1256H10.2278C9.56161 62.1256 9.00642 61.5705 9.06194 60.8487C9.11746 60.1825 9.72817 59.5718 10.3944 59.5718H40.4857C41.1519 59.5718 41.7071 60.127 41.6516 60.8487C41.596 61.5705 41.0409 62.1256 40.3191 62.1256Z" fill="white"/>
<path d="M38.376 54.6862H32.1023C31.4361 54.6862 30.8809 54.131 30.9365 53.4093C30.992 52.743 31.6027 52.1323 32.2689 52.1323H38.5425C39.2088 52.1323 39.764 52.6875 39.7084 53.4093C39.6529 54.131 39.0422 54.6862 38.376 54.6862Z" fill="white"/>
<path d="M70.9656 0H46.4262C43.5948 0 41.0964 2.3318 40.9299 5.16326L39.986 21.0417C39.8195 23.8732 41.9847 26.2049 44.8717 26.2049H48.8691L46.5928 31.6458L55.1982 26.2049H69.4111C72.2426 26.2049 74.7409 23.8732 74.9075 21.0417L75.8513 5.21878C76.0179 2.3318 73.7971 0 70.9656 0Z" fill="url(#paint11_linear)"/>
<path d="M59.1401 15.7119C58.9736 16.4336 58.3073 16.9333 57.5856 16.9333H56.1421C56.1421 16.5447 56.1976 16.2671 56.1976 16.156C56.2531 15.2122 56.4752 14.4905 56.8083 13.8798C57.1414 13.2691 57.8077 12.6028 58.7515 11.8811C59.6953 11.1593 60.306 10.6597 60.4726 10.3821C60.7502 9.99345 60.9167 9.60481 60.9722 9.16066C61.0278 8.54995 60.8057 7.99476 60.306 7.60613C59.8619 7.16198 59.1956 6.9399 58.3629 6.9399C57.5856 6.9399 56.8638 7.16198 56.3087 7.60613C55.9755 7.88373 55.6979 8.21684 55.4759 8.66099C55.1428 9.2717 54.532 9.66033 53.8658 9.54929C52.8665 9.43826 52.3113 8.32788 52.8665 7.38406C53.1996 6.82887 53.5882 6.3292 54.1434 5.88504C55.2538 4.94122 56.6973 4.49707 58.4184 4.49707C60.2505 4.49707 61.6385 4.99674 62.6378 5.94056C63.6372 6.88438 64.1368 7.99476 64.0258 9.2717C63.9703 9.99345 63.7482 10.6042 63.304 11.2704C62.8599 11.8811 61.9716 12.7139 60.6391 13.8243C59.9174 14.3794 59.4732 14.8236 59.3067 15.1567C59.2512 15.2677 59.1956 15.4343 59.1401 15.7119ZM55.9755 19.7093V19.5427C56.0311 18.7099 56.7528 18.0437 57.5856 18.0437H57.7521C58.5849 18.0437 59.1956 18.7099 59.1401 19.5427V19.7093C59.0846 20.542 58.3629 21.2083 57.5301 21.2083H57.3635C56.5307 21.1528 55.92 20.4865 55.9755 19.7093Z" fill="white"/>
<defs>
<linearGradient id="paint0_linear" x1="131.453" y1="129.526" x2="131.453" y2="130.303" gradientUnits="userSpaceOnUse">
<stop stop-color="#F8BC28"/>
<stop offset="1" stop-color="#FF6C39"/>
</linearGradient>
<linearGradient id="paint1_linear" x1="137.033" y1="129.47" x2="137.033" y2="130.303" gradientUnits="userSpaceOnUse">
<stop stop-color="#F8BC28"/>
<stop offset="1" stop-color="#FF6C39"/>
</linearGradient>
<linearGradient id="paint2_linear" x1="71.2207" y1="72.457" x2="71.2207" y2="91.3841" gradientUnits="userSpaceOnUse">
<stop stop-color="#49DE60"/>
<stop offset="1" stop-color="#46CEA2"/>
</linearGradient>
<linearGradient id="paint3_linear" x1="87.6177" y1="70.8867" x2="87.6177" y2="116.146" gradientUnits="userSpaceOnUse">
<stop stop-color="#49DE60"/>
<stop offset="1" stop-color="#46CEA2"/>
</linearGradient>
<linearGradient id="paint4_linear" x1="70.9905" y1="119.506" x2="104.527" y2="119.506" gradientUnits="userSpaceOnUse">
<stop stop-color="#725DF7"/>
<stop offset="0.2902" stop-color="#6652EA"/>
<stop offset="0.4459" stop-color="#5B45E7"/>
<stop offset="0.7052" stop-color="#5F4CD2"/>
<stop offset="0.8975" stop-color="#4C3BB7"/>
<stop offset="1" stop-color="#4D3BC0"/>
</linearGradient>
<linearGradient id="paint5_linear" x1="86.9971" y1="114.202" x2="86.9971" y2="117.422" gradientUnits="userSpaceOnUse">
<stop stop-color="#FA5976"/>
<stop offset="1" stop-color="#E631BE"/>
</linearGradient>
<linearGradient id="paint6_linear" x1="97.4472" y1="115.816" x2="99.227" y2="115.816" gradientUnits="userSpaceOnUse">
<stop stop-color="#725DF7"/>
<stop offset="0.2902" stop-color="#6652EA"/>
<stop offset="0.4459" stop-color="#5B45E7"/>
<stop offset="0.7052" stop-color="#5F4CD2"/>
<stop offset="0.8975" stop-color="#4C3BB7"/>
<stop offset="1" stop-color="#4D3BC0"/>
</linearGradient>
<linearGradient id="paint7_linear" x1="74.0186" y1="115.816" x2="75.7426" y2="115.816" gradientUnits="userSpaceOnUse">
<stop stop-color="#725DF7"/>
<stop offset="0.2902" stop-color="#6652EA"/>
<stop offset="0.4459" stop-color="#5B45E7"/>
<stop offset="0.7052" stop-color="#5F4CD2"/>
<stop offset="0.8975" stop-color="#4C3BB7"/>
<stop offset="1" stop-color="#4D3BC0"/>
</linearGradient>
<linearGradient id="paint8_linear" x1="85.7329" y1="115.816" x2="87.457" y2="115.816" gradientUnits="userSpaceOnUse">
<stop stop-color="#725DF7"/>
<stop offset="0.2902" stop-color="#6652EA"/>
<stop offset="0.4459" stop-color="#5B45E7"/>
<stop offset="0.7052" stop-color="#5F4CD2"/>
<stop offset="0.8975" stop-color="#4C3BB7"/>
<stop offset="1" stop-color="#4D3BC0"/>
</linearGradient>
<linearGradient id="paint9_linear" x1="106.534" y1="72.5728" x2="106.534" y2="93.1609" gradientUnits="userSpaceOnUse">
<stop stop-color="#49DE60"/>
<stop offset="1" stop-color="#46CEA2"/>
</linearGradient>
<linearGradient id="paint10_linear" x1="29.7981" y1="36.5869" x2="29.7981" y2="77.2823" gradientUnits="userSpaceOnUse">
<stop stop-color="#F8BC28"/>
<stop offset="1" stop-color="#FF6C39"/>
</linearGradient>
<linearGradient id="paint11_linear" x1="57.9186" y1="0" x2="57.9186" y2="31.6458" gradientUnits="userSpaceOnUse">
<stop stop-color="#F8BC28"/>
<stop offset="1" stop-color="#FF6C39"/>
</linearGradient>
</defs>
</svg>
