<svg width="20" height="20" viewBox="0 0 20 20" fill="none" xmlns="http://www.w3.org/2000/svg">
<path d="M2.5 14V9C2.5 7.01088 3.29018 5.10322 4.6967 3.6967C6.10322 2.29018 8.01088 1.5 10 1.5C11.9891 1.5 13.8968 2.29018 15.3033 3.6967C16.7098 5.10322 17.5 7.01088 17.5 9V14M17.5 14.8333C17.5 15.2754 17.3244 15.6993 17.0118 16.0118C16.6993 16.3244 16.2754 16.5 15.8333 16.5H15C14.558 16.5 14.134 16.3244 13.8215 16.0118C13.5089 15.6993 13.3333 15.2754 13.3333 14.8333V12.3333C13.3333 11.8913 13.5089 11.4674 13.8215 11.1548C14.134 10.8423 14.558 10.6667 15 10.6667H17.5V14.8333ZM2.5 14.8333C2.5 15.2754 2.67559 15.6993 2.98816 16.0118C3.30072 16.3244 3.72464 16.5 4.16667 16.5H5C5.44203 16.5 5.86595 16.3244 6.17851 16.0118C6.49107 15.6993 6.66667 15.2754 6.66667 14.8333V12.3333C6.66667 11.8913 6.49107 11.4674 6.17851 11.1548C5.86595 10.8423 5.44203 10.6667 5 10.6667H2.5V14.8333Z" stroke="black" stroke-width="2" stroke-linecap="round" stroke-linejoin="round"/>
<path d="M14.5 16C14.1667 16.3333 13 18 10.5 18" stroke="black" stroke-width="2"/>
<rect x="8" y="16" width="4" height="3" rx="1.5" fill="black"/>
</svg>
