<svg width="107" height="30" viewBox="0 0 107 30" fill="none" xmlns="http://www.w3.org/2000/svg">
<path d="M44.912 22.288C43.12 22.288 41.648 21.72 40.496 20.584C39.344 19.448 38.768 17.984 38.768 16.192C38.768 14.416 39.344 12.96 40.496 11.824C41.648 10.688 43.12 10.12 44.912 10.12C46.96 10.12 48.488 10.816 49.496 12.208L47.504 14.08C46.944 13.248 46.128 12.832 45.056 12.832C44.128 12.832 43.368 13.144 42.776 13.768C42.2 14.376 41.912 15.184 41.912 16.192C41.912 17.2 42.2 18.016 42.776 18.64C43.368 19.264 44.128 19.576 45.056 19.576C46.096 19.576 46.912 19.16 47.504 18.328L49.496 20.176C48.488 21.584 46.96 22.288 44.912 22.288ZM54.5366 22H51.4886V10.408H54.5366V11.992C54.9686 11.448 55.5206 11 56.1926 10.648C56.8646 10.296 57.5446 10.12 58.2326 10.12V13.096C58.0246 13.048 57.7446 13.024 57.3926 13.024C56.8806 13.024 56.3366 13.152 55.7606 13.408C55.1846 13.664 54.7766 13.976 54.5366 14.344V22ZM59.729 26.536L60.185 23.8C60.473 23.928 60.793 23.992 61.145 23.992C61.961 23.992 62.497 23.712 62.753 23.152L63.185 22.168L58.481 10.408H61.745L64.769 18.472L67.793 10.408H71.081L65.633 23.896C65.233 24.92 64.673 25.632 63.953 26.032C63.233 26.448 62.329 26.672 61.241 26.704C60.681 26.704 60.177 26.648 59.729 26.536ZM79.0657 22.288C77.6097 22.288 76.4177 21.696 75.4897 20.512V26.416H72.4417V10.408H75.4897V11.872C76.4017 10.704 77.5937 10.12 79.0657 10.12C80.5857 10.12 81.8177 10.664 82.7617 11.752C83.7217 12.824 84.2017 14.304 84.2017 16.192C84.2017 18.08 83.7217 19.568 82.7617 20.656C81.8177 21.744 80.5857 22.288 79.0657 22.288ZM78.1057 19.576C78.9857 19.576 79.6897 19.264 80.2177 18.64C80.7617 18.016 81.0337 17.2 81.0337 16.192C81.0337 15.2 80.7617 14.392 80.2177 13.768C79.6897 13.144 78.9857 12.832 78.1057 12.832C77.6097 12.832 77.1137 12.96 76.6177 13.216C76.1217 13.472 75.7457 13.784 75.4897 14.152V18.256C75.7457 18.624 76.1217 18.936 76.6177 19.192C77.1297 19.448 77.6257 19.576 78.1057 19.576ZM90.3219 22.288C89.2499 22.288 88.4339 22.016 87.8739 21.472C87.3139 20.928 87.0339 20.144 87.0339 19.12V13.072H85.1139V10.408H87.0339V7.24H90.1059V10.408H92.4579V13.072H90.1059V18.304C90.1059 18.672 90.2019 18.976 90.3939 19.216C90.5859 19.456 90.8419 19.576 91.1619 19.576C91.6419 19.576 91.9939 19.464 92.2179 19.24L92.8659 21.544C92.3059 22.04 91.4579 22.288 90.3219 22.288ZM104.383 20.536C103.263 21.704 101.775 22.288 99.9193 22.288C98.0633 22.288 96.5753 21.704 95.4553 20.536C94.3513 19.352 93.7993 17.904 93.7993 16.192C93.7993 14.48 94.3513 13.04 95.4553 11.872C96.5753 10.704 98.0633 10.12 99.9193 10.12C101.775 10.12 103.263 10.704 104.383 11.872C105.503 13.04 106.063 14.48 106.063 16.192C106.063 17.904 105.503 19.352 104.383 20.536ZM97.7593 18.616C98.2873 19.256 99.0073 19.576 99.9193 19.576C100.831 19.576 101.551 19.256 102.079 18.616C102.623 17.96 102.895 17.152 102.895 16.192C102.895 15.248 102.623 14.456 102.079 13.816C101.551 13.16 100.831 12.832 99.9193 12.832C99.0073 12.832 98.2873 13.16 97.7593 13.816C97.2313 14.456 96.9673 15.248 96.9673 16.192C96.9673 17.152 97.2313 17.96 97.7593 18.616Z" fill="white"/>
<path d="M14.0001 30C14.2157 30 14.4169 30 14.6325 29.9856C14.7188 29.9856 14.7906 29.9713 14.8769 29.9713C15.0062 29.9569 15.1212 29.9569 15.2506 29.9425C15.3512 29.9281 15.4374 29.9281 15.5381 29.9138C15.6962 29.8994 15.8687 29.8706 16.0268 29.8563C16.0411 29.8563 16.0411 29.8563 16.0555 29.8563C9.74545 28.7495 4.88713 23.4168 4.49904 16.8768C4.48467 16.6612 4.47029 16.4456 4.47029 16.23C4.47029 16.1581 4.47029 16.0719 4.47029 16C4.47029 15.9713 4.47029 15.9569 4.47029 15.9281C4.47029 15.7988 4.47029 15.6838 4.48467 15.5544C4.48467 15.5113 4.48467 15.4682 4.48467 15.4251C4.48467 15.3963 4.48467 15.3532 4.48467 15.3244C4.49904 15.1663 4.51341 15.0082 4.52779 14.8501C5.08836 8.36756 10.0617 3.1499 16.4436 2.22998C16.2567 2.20123 16.0699 2.17248 15.883 2.14374C15.8543 2.14374 15.8399 2.14374 15.8112 2.12936C15.6387 2.10062 15.4662 2.08624 15.2937 2.07187C15.2218 2.07187 15.15 2.05749 15.0637 2.05749C14.9344 2.04312 14.805 2.04312 14.6756 2.02875C14.4457 2 14.2301 2 14.0144 2L14.0001 2C7.71875 2 2.40048 6.13963 0.632511 11.8316C0.560642 12.0472 0.503147 12.2772 0.445653 12.4928C0.158178 13.614 6.61986e-05 14.7782 6.61459e-05 15.9856C6.58072e-05 23.7331 6.26701 30 14.0001 30Z" fill="white"/>
<path d="M16.5585 3.12118C13.6694 3.53802 10.9528 4.94665 8.94045 7.08833C8.30801 7.76389 7.74743 8.51133 7.25873 9.30188C8.86858 7.69203 11.0246 6.614 13.3532 6.45589C18.1109 6.13966 22.1786 9.31626 23.271 13.6715C23.4292 14.3039 22.9405 14.922 22.2793 14.922L20.0082 14.922C19.1314 14.922 18.3265 14.4333 17.8809 13.6715C17.0472 12.2916 15.4661 11.3717 13.6982 11.4867C11.3696 11.6448 9.5154 13.5996 9.48665 15.9282C9.44353 18.4579 11.4846 20.5134 14 20.5134C15.6674 20.5134 17.1191 19.6078 17.8953 18.2711C18.3409 17.5093 19.1745 17.0637 20.0513 17.0637L22.2793 17.0637C22.9405 17.0637 23.4292 17.6818 23.271 18.3286C22.2361 22.4826 18.4702 25.5586 14 25.5586C11.3409 25.5586 8.92608 24.4662 7.18686 22.6982C7.6037 23.4169 8.10678 24.0924 8.65298 24.7249C10.6078 26.9384 13.2813 28.4333 16.1848 28.9364L18.3121 29.3101C23.9322 27.499 28 22.2239 28 16C28 9.91995 24.1191 4.74541 18.7002 2.81934L16.5585 3.12118Z" fill="white"/>
</svg>
