<svg width="142" height="124" viewBox="0 0 142 124" fill="none" xmlns="http://www.w3.org/2000/svg">
<g clip-path="url(#clip0)">
<path d="M21.7649 96.9744C22.589 95.1727 23.244 93.3497 23.7089 91.4844C9.4878 82.8574 0 67.1932 0 49.3032C0 22.0656 21.9973 0 49.1506 0C76.3039 0 98.3012 22.0656 98.3012 49.3032C98.3012 76.5409 76.3039 98.6065 49.1506 98.6065C45.4527 98.6065 41.8393 98.1826 38.3527 97.4195C31.95 105.411 22.0185 109.692 11.9601 108.972C16.0595 105.962 19.4827 101.913 21.7649 96.9744Z" fill="url(#paint0_linear)"/>
<path d="M8.74817 54.136C8.74817 30.0991 28.1886 10.5982 52.1511 10.5982C66.161 10.5982 78.6282 17.2539 86.5523 27.5979C79.0508 14.5408 65.0199 5.76538 48.9181 5.76538C24.9556 5.76538 5.51514 25.2662 5.51514 49.3032C5.51514 59.2868 8.87496 68.5073 14.5169 75.8413C10.8613 69.4399 8.74817 62.0211 8.74817 54.136Z" fill="#FF8DBD"/>
<path d="M98.2801 47.7558C98.2801 47.7346 98.2801 47.6922 98.2801 47.671C97.6884 30.629 88.4964 15.7914 74.9092 7.4187C79.7905 15.0707 82.622 24.164 82.622 33.9356C82.622 61.1308 60.6458 83.1541 33.5559 83.1541C24.1527 83.1541 15.3411 80.4833 7.88184 75.8837C11.8967 82.1578 17.2851 87.457 23.6033 91.3572C23.5821 91.3784 23.5821 91.3996 23.561 91.4207C23.6033 91.4419 23.6455 91.4843 23.6878 91.5055C23.2229 93.3496 22.5679 95.1937 21.7437 96.9955C19.4616 101.934 16.0384 105.983 11.9601 108.972C22.0184 109.692 31.95 105.41 38.3527 97.4194C38.3738 97.4194 38.3949 97.4194 38.4161 97.4406V97.4194C41.9027 98.2037 45.5161 98.6276 49.214 98.6276C58.7229 98.6276 68.1262 95.8084 76.0926 90.5729C83.108 85.952 88.8979 79.5295 92.7649 72.0683C95.8077 66.1968 97.6461 59.7319 98.1533 53.1185C98.3012 51.3804 98.3435 49.5151 98.2801 47.7558Z" fill="#DC3C98"/>
<path d="M120.235 111.939C119.411 110.137 118.756 108.315 118.291 106.449C132.512 97.8011 142 82.1368 142 64.2681C142 37.0305 120.003 14.9648 92.8493 14.9648C65.6961 14.9648 43.6987 37.0305 43.6987 64.2681C43.6987 91.5057 65.6961 113.571 92.8493 113.571C96.5472 113.571 100.161 113.147 103.647 112.384C110.05 120.375 119.981 124.657 130.04 123.936C125.94 120.927 122.517 116.878 120.235 111.939Z" fill="url(#paint1_linear)"/>
<path d="M120.235 111.939C119.411 110.159 118.756 108.336 118.291 106.492C132.512 97.8646 142 82.2215 142 64.3528C142 46.6113 132.639 31.053 118.608 22.4048C123.489 30.0568 126.321 39.1501 126.321 48.9217C126.321 76.1169 104.345 98.1402 77.2547 98.1402C67.8514 98.1402 59.0398 95.4694 51.5806 90.8698C60.3077 104.52 75.5642 113.571 92.9338 113.571C96.6106 113.571 100.203 113.169 103.647 112.384C110.05 120.375 119.981 124.636 130.019 123.915C125.94 120.926 122.517 116.878 120.235 111.939Z" fill="#D32E8D"/>
<path d="M52.4469 69.1008C52.4469 45.0639 71.8874 25.563 95.8499 25.563C109.86 25.563 122.327 32.2188 130.251 42.5627C122.75 29.5056 108.719 20.7302 92.6168 20.7302C68.6543 20.7302 49.2139 40.2311 49.2139 64.268C49.2139 74.2516 52.5737 83.4721 58.2157 90.8061C54.56 84.4047 52.4469 77.0071 52.4469 69.1008Z" fill="#FF8DBD"/>
<path d="M74.7613 70.0335C77.3054 70.0335 79.3679 67.9646 79.3679 65.4126C79.3679 62.8606 77.3054 60.7917 74.7613 60.7917C72.2172 60.7917 70.1548 62.8606 70.1548 65.4126C70.1548 67.9646 72.2172 70.0335 74.7613 70.0335Z" fill="white"/>
<path d="M92.8495 70.0335C95.3936 70.0335 97.456 67.9646 97.456 65.4126C97.456 62.8606 95.3936 60.7917 92.8495 60.7917C90.3053 60.7917 88.2429 62.8606 88.2429 65.4126C88.2429 67.9646 90.3053 70.0335 92.8495 70.0335Z" fill="white"/>
<path d="M110.494 70.0335C113.038 70.0335 115.1 67.9646 115.1 65.4126C115.1 62.8606 113.038 60.7917 110.494 60.7917C107.95 60.7917 105.887 62.8606 105.887 65.4126C105.887 67.9646 107.95 70.0335 110.494 70.0335Z" fill="white"/>
</g>
<defs>
<linearGradient id="paint0_linear" x1="49.1506" y1="0" x2="49.1506" y2="109.05" gradientUnits="userSpaceOnUse">
<stop stop-color="#FA5976"/>
<stop offset="1" stop-color="#E631BE"/>
</linearGradient>
<linearGradient id="paint1_linear" x1="92.8493" y1="14.9648" x2="92.8493" y2="124.015" gradientUnits="userSpaceOnUse">
<stop stop-color="#FA5976"/>
<stop offset="1" stop-color="#E631BE"/>
</linearGradient>
<clipPath id="clip0">
<rect width="142" height="124" fill="white"/>
</clipPath>
</defs>
</svg>
