<svg width="107" height="73" viewBox="0 0 107 73" fill="none" xmlns="http://www.w3.org/2000/svg">
<path d="M14.8403 0H94.8602C101.38 0 106.419 5.33466 106.023 11.8548L103.85 48.1107C103.455 54.6309 97.8239 59.9655 91.3037 59.9655H82.0175L85.7715 72.4131L67.6929 59.9655H11.185C4.66488 59.9655 -0.373412 54.6309 0.0217481 48.1107L2.19513 11.8548C2.68908 5.33466 8.32011 0 14.8403 0Z" fill="url(#paint0_linear)"/>
<path d="M87.5499 18.9677H19.8788C18.6933 18.9677 17.7054 17.9798 17.8042 16.6955C17.903 15.51 18.9897 14.4233 20.1751 14.4233H87.8463C89.0318 14.4233 90.0197 15.4112 89.9209 16.6955C89.8221 17.9798 88.7354 18.9677 87.5499 18.9677Z" fill="white"/>
<path d="M47.441 32.2057H19.0882C17.9028 32.2057 16.9149 31.2178 17.0137 29.9335C17.1124 28.7481 18.1991 27.6614 19.3846 27.6614H47.8361C49.0216 27.6614 50.0095 28.6493 49.9107 29.9335C49.8119 31.2178 48.7253 32.2057 47.441 32.2057Z" fill="white"/>
<path d="M71.7438 45.4435H18.1996C17.0141 45.4435 16.0262 44.4556 16.125 43.1713C16.2238 41.9859 17.3105 40.8992 18.4959 40.8992H72.0401C73.2256 40.8992 74.2135 41.8871 74.1147 43.1713C74.0159 44.4556 73.028 45.4435 71.7438 45.4435Z" fill="white"/>
<path d="M68.2862 32.2057H57.1229C55.9374 32.2057 54.9495 31.2178 55.0483 29.9335C55.1471 28.7481 56.2338 27.6614 57.4193 27.6614H68.5826C69.768 27.6614 70.7559 28.6493 70.6572 29.9335C70.5584 31.2178 69.4717 32.2057 68.2862 32.2057Z" fill="white"/>
<defs>
<linearGradient id="paint0_linear" x1="53.0226" y1="0" x2="53.0226" y2="72.4131" gradientUnits="userSpaceOnUse">
<stop stop-color="#49DE60"/>
<stop offset="1" stop-color="#46CEA2"/>
</linearGradient>
</defs>
</svg>
