<svg width="134" height="32" viewBox="0 0 134 32" fill="none" xmlns="http://www.w3.org/2000/svg">
<path d="M58.8795 3.52C56.6058 1.28 53.52 0 50.2719 0H32.4882V32H44.6688V12H48.5666C49.6222 12 50.6779 12.4 51.4087 13.2L55.6313 17.36C56.3622 18.08 56.8494 19.12 56.8494 20.16V32H69.03V18.48C69.03 15.28 67.7307 12.24 65.457 10L58.8795 3.52ZM121.813 0V11.84C121.813 12.88 121.407 13.92 120.595 14.64L116.372 18.8C115.641 19.52 114.585 20 113.53 20H107.683C108.901 18.08 109.632 15.84 109.632 13.52V0H97.4514V11.84C97.4514 12.88 97.0454 13.92 96.2333 14.64L92.0107 18.8C91.2799 19.52 90.2242 20 89.1686 20H85.2708V0H73.0902V32H90.8739C94.122 32 97.2078 30.72 99.4815 28.48L103.542 24.48V32H115.235C118.483 32 121.569 30.72 123.843 28.48L130.42 22C132.694 19.76 133.993 16.72 133.993 13.52V0H121.813ZM0.0065918 12H8.12699V32H20.3076V12H28.428V0H0.0065918V12Z" fill="#3B445B"/>
</svg>
