<svg width="131" height="33" viewBox="0 0 131 33" fill="none" xmlns="http://www.w3.org/2000/svg">
<path d="M27.8849 0H12.3777L11.094 6.85041L25.0833 6.86829C31.9702 6.86829 34.0128 9.2561 33.9472 13.2179C33.9191 15.248 32.9915 18.6821 32.598 19.7911C31.5392 22.7602 29.356 26.1406 21.176 26.1317L7.58027 26.1228L6.29659 32.9821H21.7663C27.2196 32.9821 29.5434 32.374 31.9983 31.2919C37.4422 28.8951 40.6842 23.7618 41.9866 17.0634C43.9168 7.09187 41.5088 0 27.8849 0ZM75.8214 33L76.9177 27.0439H90.1574C91.1975 27.0439 91.9283 26.4447 92.0782 25.452C92.2844 24.4594 91.769 23.8602 90.729 23.8602H84.3949C79.4007 23.8602 77.0114 21.0789 77.8922 16.3122C78.7729 11.5455 82.2117 8.76423 87.2059 8.76423H101.589L100.446 14.7203H87.7681C86.728 14.7203 85.9971 15.3195 85.8472 16.3122C85.6411 17.3049 86.1564 17.9041 87.1965 17.9041H93.5306C98.5247 17.9041 100.914 20.6854 100.033 25.452C99.1525 30.2187 95.77 33 90.7758 33H75.8214ZM55.6573 32.9911C47.4399 32.9911 43.7388 28.7163 45.2005 20.8732C46.606 13.0301 51.9094 8.75528 60.1362 8.75528H74.7064L70.2276 32.9911H55.6573ZM65.121 14.7203H61.373C56.8942 14.7203 54.2519 16.6073 53.4741 20.8732C52.6402 25.148 54.3081 27.035 58.7775 27.035H62.8816L65.121 14.7203ZM119.645 32.9911L122.249 18.8878C122.718 16.1065 121.537 14.9171 118.623 14.9171H114.482L111.146 32.9911H102.713L108.813 0H117.246L115.625 8.76423H121.94C129.324 8.76423 131.985 11.8406 130.682 18.8967L128.077 33L119.645 32.9911Z" fill="#3B445B"/>
<path d="M5.68755 13.048C1.63037 13.048 1.04943 15.5699 0.665265 17.0992C0.159289 19.1025 0 19.9073 0 19.9073H15.8727C19.9298 19.9073 20.5108 17.3854 20.8949 15.8561C21.4009 13.8529 21.5602 13.048 21.5602 13.048H5.68755Z" fill="#3B445B"/>
</svg>
