<svg width="220" height="52" viewBox="0 0 220 52" fill="none" xmlns="http://www.w3.org/2000/svg">
<path fill-rule="evenodd" clip-rule="evenodd" d="M25.7486 51.017C39.9747 51.017 51.4971 39.6019 51.4971 25.5085C51.4971 11.415 39.9747 0 25.7486 0C11.5225 0 0 11.415 0 25.5085C0 39.6019 11.5225 51.017 25.7486 51.017ZM21.8862 25.5085H29.1817C31.3059 25.5085 33.044 23.7867 33.044 21.6822C33.044 19.5778 31.3059 17.8559 29.1817 17.8559H21.8862V25.5085ZM16.7365 12.7542H29.1817C34.1597 12.7542 38.1937 16.7506 38.1937 21.6822C38.1937 26.6139 34.1597 30.6102 29.1817 30.6102H21.8862V38.2627H16.7365V12.7542Z" fill="#3B445B"/>
<path d="M78.5546 22.3837C78.5546 20.9807 77.4603 20.1304 76.0441 20.1304H72.2462V24.6156H76.0441C77.4603 24.6156 78.5546 23.7654 78.5546 22.3837ZM68.6628 34.0113V17.0056H76.5591C80.2282 17.0056 82.2237 19.4502 82.2237 22.3837C82.2237 25.2959 80.2068 27.7404 76.5591 27.7404H72.2676V34.0113H68.6628Z" fill="#3B445B"/>
<path d="M84.3909 34.0114V21.6185H87.6094V23.2553C88.4892 22.2137 89.9912 21.3209 91.5146 21.3209V24.4245C91.2786 24.3819 90.9997 24.3607 90.6349 24.3607C89.562 24.3607 88.1459 24.9559 87.6309 25.7424V34.0327H84.3909V34.0114Z" fill="#3B445B"/>
<path d="M102.308 27.6555C102.308 25.7849 101.192 24.1481 99.1749 24.1481C97.1794 24.1481 96.0636 25.7849 96.0636 27.6555C96.0636 29.5687 97.1794 31.1842 99.1749 31.1842C101.192 31.1842 102.308 29.5474 102.308 27.6555ZM92.7163 27.6555C92.7163 24.2331 95.141 21.3209 99.1535 21.3209C103.209 21.3209 105.634 24.2331 105.634 27.6555C105.634 31.0779 103.209 34.0114 99.1535 34.0114C95.141 34.0114 92.7163 31.0779 92.7163 27.6555Z" fill="#3B445B"/>
<path d="M116.448 29.8024V25.5297C115.911 24.7219 114.753 24.148 113.701 24.148C111.856 24.148 110.59 25.5722 110.59 27.6554C110.59 29.7599 111.856 31.1841 113.701 31.1841C114.753 31.1841 115.911 30.6101 116.448 29.8024ZM116.448 34.0113V32.1619C115.482 33.3736 114.173 34.0113 112.671 34.0113C109.603 34.0113 107.264 31.7155 107.264 27.6554C107.264 23.7229 109.56 21.3208 112.671 21.3208C114.109 21.3208 115.482 21.916 116.448 23.1702V17.0056H119.688V34.0113H116.448Z" fill="#3B445B"/>
<path d="M131.103 34.0113V32.1832C130.266 33.076 128.807 34.0113 126.812 34.0113C124.13 34.0113 122.864 32.5658 122.864 30.2063V21.6184H126.082V28.9521C126.082 30.6314 126.962 31.1841 128.335 31.1841C129.58 31.1841 130.567 30.5039 131.125 29.8024V21.6184H134.343V34.0113H131.103Z" fill="#3B445B"/>
<path d="M136.725 27.6555C136.725 23.9568 139.45 21.3209 143.205 21.3209C145.715 21.3209 147.217 22.405 148.033 23.5104L145.93 25.4661C145.351 24.6158 144.471 24.1694 143.355 24.1694C141.402 24.1694 140.051 25.5723 140.051 27.6768C140.051 29.7812 141.424 31.2055 143.355 31.2055C144.471 31.2055 145.351 30.6953 145.93 29.8875L148.033 31.8432C147.217 32.9486 145.715 34.0539 143.205 34.0539C139.45 34.0114 136.725 31.3755 136.725 27.6555Z" fill="#3B445B"/>
<path d="M150.801 30.674V24.3819H148.784V21.5972H150.801V18.3024H154.019V21.6185H156.487V24.4032H154.019V29.845C154.019 30.6315 154.427 31.2054 155.135 31.2054C155.607 31.2054 156.079 31.0354 156.251 30.8228L156.938 33.2461C156.466 33.6712 155.607 34.0326 154.256 34.0326C151.981 34.0114 150.801 32.8635 150.801 30.674Z" fill="#3B445B"/>
<path d="M177.043 34.0113V26.6776H169.082V34.0113H165.499V17.0056H169.082V23.5741H177.043V17.0056H180.669V34.0113H177.043Z" fill="#3B445B"/>
<path d="M192.149 34.0113V32.1832C191.312 33.076 189.853 34.0113 187.857 34.0113C185.175 34.0113 183.909 32.5658 183.909 30.2063V21.6184H187.128V28.9521C187.128 30.6314 188.007 31.1841 189.381 31.1841C190.625 31.1841 191.612 30.5039 192.17 29.8024V21.6184H195.389V34.0113H192.149Z" fill="#3B445B"/>
<path d="M206.782 34.0114V26.4014C206.782 24.7221 205.903 24.1481 204.529 24.1481C203.264 24.1481 202.298 24.8496 201.74 25.5511V34.0114H198.521V21.6185H201.74V23.1703C202.534 22.2775 204.036 21.3209 206.01 21.3209C208.714 21.3209 210.001 22.8302 210.001 25.1685V34.0114H206.782Z" fill="#3B445B"/>
<path d="M213.863 30.674V24.3819H211.846V21.5972H213.863V18.3024H217.082V21.6185H219.549V24.4032H217.082V29.845C217.082 30.6315 217.49 31.2054 218.198 31.2054C218.67 31.2054 219.142 31.0354 219.313 30.8228L220 33.2461C219.528 33.6712 218.67 34.0326 217.318 34.0326C215.044 34.0114 213.863 32.8635 213.863 30.674Z" fill="#3B445B"/>
</svg>
