<svg width="120" height="120" viewBox="0 0 120 120" fill="none" xmlns="http://www.w3.org/2000/svg">
<path d="M44.1379 0H37.8683V6.26959H44.1379H50.5329V0H44.1379Z" fill="white"/>
<path d="M82.0062 0H75.7366V6.26959H82.0062V0Z" fill="white"/>
<path d="M69.467 6.26959H63.1974V0H56.8025V6.26959H50.5329V12.6646V18.9342H44.1379V25.2038H50.5329V31.5988H56.8025H63.1974V25.2038H56.8025V18.9342V12.6646H63.1974H69.467H75.7366V6.26959H69.467Z" fill="white"/>
<path d="M82.1316 18.9342V12.6646H75.7366V18.9342V25.2038H82.1316V18.9342Z" fill="white"/>
<path d="M37.8683 31.5988V37.8684H44.1379V31.5988V25.2038H37.8683V31.5988Z" fill="white"/>
<path d="M75.7366 25.2038H69.467V31.4734H75.7366V25.2038Z" fill="white"/>
<path d="M50.4075 69.467H44.1379V75.7366H50.4075V69.467Z" fill="white"/>
<path d="M6.26959 37.8684H0V44.138H6.26959V37.8684Z" fill="white"/>
<path d="M69.4671 44.138H75.7367V50.533H82.1317V44.138H88.4013V37.8684H82.1317V31.5988H75.7367V37.8684H69.4671H63.1975H56.8025H50.5329V44.138H56.8025H63.1975V50.533H69.4671V44.138Z" fill="white"/>
<path d="M113.605 44.138V37.8684H107.335V44.138V50.533H113.605V44.138Z" fill="white"/>
<path d="M6.26959 50.5328H0V56.8024H6.26959V50.5328Z" fill="white"/>
<path d="M31.5988 56.8026H37.8684V50.533H44.138V44.138H37.8684H31.5988V37.8684H25.2038V44.138V50.533H31.5988V56.8026Z" fill="white"/>
<path d="M63.0721 50.5328H56.8025V56.8024H63.0721V50.5328Z" fill="white"/>
<path d="M101.066 50.533V44.138V37.8684H94.6708V44.138V50.533H88.4012H82.1317V56.8026H88.4012H94.6708V63.1976H101.066V56.8026H107.335V50.533H101.066Z" fill="white"/>
<path d="M31.5987 56.8026H25.2038V50.533H18.9342V44.138V37.8684H12.6646V44.138H6.26959V50.533H12.6646V56.8026H18.9342V63.1976H25.2038V69.4672H31.5987V63.1976V56.8026Z" fill="white"/>
<path d="M44.1379 63.1974H50.5329V69.467H56.8025V63.1974V56.8024H50.5329V50.5328H44.1379V56.8024V63.1974Z" fill="white"/>
<path d="M113.605 56.8024H107.335V63.1974V69.467H101.066V75.7366H107.335V82.1316H113.605V88.4012V94.6708H120V88.4012V82.1316V75.7366H113.605V69.467H120V63.1974H113.605V56.8024Z" fill="white"/>
<path d="M6.26959 63.1974H0V69.467V75.7366H6.26959V82.1316H12.6646V75.7366V69.467H6.26959V63.1974Z" fill="white"/>
<path d="M18.9342 63.1974H12.6646V69.467H18.9342V63.1974Z" fill="white"/>
<path d="M82.1316 63.1974V56.8024H75.7366H69.467H63.1974V63.1974V69.467H69.467V63.1974H75.7366V69.467H82.1316V75.7366H88.4012V69.467H94.6708V63.1974H88.4012H82.1316Z" fill="white"/>
<path d="M25.2038 69.467H18.9342V75.7366H25.2038V69.467Z" fill="white"/>
<path d="M37.8683 69.467H31.5987V75.7366V82.1316H37.8683V88.4012V94.6708H44.1379V88.4012V82.1316V75.7366H37.8683V69.467Z" fill="white"/>
<path d="M63.0721 69.467H56.8025V75.7366H63.0721V69.467Z" fill="white"/>
<path d="M56.8025 75.7367H50.5329V82.0062H56.8025V75.7367Z" fill="white"/>
<path d="M75.7366 88.4012V82.1316V75.7367H69.467V82.1316H63.1974V88.4012H69.467H75.7366Z" fill="white"/>
<path d="M56.8025 88.4013H50.5329V94.6709H56.8025V88.4013Z" fill="white"/>
<path d="M69.467 94.6708H63.1974V100.94H69.467V94.6708Z" fill="white"/>
<path d="M101.191 94.6708V75.7367H75.7366V101.066H82.0062V107.21H88.2758V101.066H94.5454V107.21H100.815V101.066H100.94V100.94H107.085V107.21H113.354H119.624V100.94H113.354V94.6708H107.085H101.191ZM80.6269 80.6269H96.4263V96.4263H80.6269V80.6269Z" fill="white"/>
<path d="M44.1379 107.335V113.605H50.5329V107.335V101.066V94.6708H44.1379V101.066V107.335Z" fill="white"/>
<path d="M69.467 107.335V113.605H75.7366H82.1316V107.335H75.7366H69.467Z" fill="white"/>
<path d="M44.1379 113.605H37.8683V119.875H44.1379V113.605Z" fill="white"/>
<path d="M56.8025 120H63.1975V113.605H56.8025H50.5329V120H56.8025Z" fill="white"/>
<path d="M107.335 113.605V120H113.605H120V113.605H113.605H107.335Z" fill="white"/>
<path d="M91.6615 85.3919H85.3919V91.6615H91.6615V85.3919Z" fill="white"/>
<path d="M31.5988 0H0V31.5988H31.5988V0ZM26.8339 26.8339H4.76489V4.76489H26.8339V26.8339Z" fill="white"/>
<path d="M22.1944 9.52983H9.52985V22.1944H22.1944V9.52983Z" fill="white"/>
<path d="M88.4012 0V31.5988H120V0H88.4012ZM115.235 26.8339H93.1661V4.76489H115.235V26.8339Z" fill="white"/>
<path d="M110.47 9.52983H97.8057V22.1944H110.47V9.52983Z" fill="white"/>
<path d="M0 120H31.5988V88.5267H0V120ZM4.76489 93.1662H26.8339V115.361H4.76489V93.1662Z" fill="white"/>
<path d="M22.1944 97.9311H9.52985V110.596H22.1944V97.9311Z" fill="white"/>
</svg>
