<svg width="93" height="66" viewBox="0 0 93 66" fill="none" xmlns="http://www.w3.org/2000/svg">
<path d="M0.572112 33.5184L11.8057 44.6026C12.5685 45.3553 13.782 45.3553 14.5447 44.6026C15.3075 43.85 15.3075 42.6526 14.5447 41.9L4.69802 32.15L14.5447 22.4342C15.3075 21.6816 15.3075 20.4842 14.5447 19.7316C13.782 18.9789 12.5685 18.9789 11.8057 19.7316L0.572112 30.7816C-0.190662 31.5342 -0.190662 32.7658 0.572112 33.5184Z" fill="url(#paint0_linear)"/>
<path d="M12.6907 33.5184L18.6889 39.4026C19.4516 40.1553 20.6651 40.1553 21.4279 39.4026C22.1907 38.65 22.1907 37.4526 21.4279 36.7L16.8166 32.15L21.4626 27.6C22.2254 26.8474 22.2254 25.65 21.4626 24.8974C20.6998 24.1447 19.4863 24.1447 18.7235 24.8974L12.6907 30.7816C11.9279 31.5342 11.9279 32.7658 12.6907 33.5184Z" fill="url(#paint1_linear)"/>
<path d="M27.3174 32.55C27.3174 29.55 28.7174 26.75 30.8174 24.95L53.0174 2.85C56.8174 -0.949996 63.1174 -0.949996 66.9174 2.85C67.5174 3.45 68.0174 4.05 68.4174 4.75L48.1174 25.05C45.9174 26.85 44.6174 29.55 44.6174 32.65C44.6174 35.85 46.1174 38.65 48.4174 40.45L68.4174 60.45C68.0174 61.15 67.5174 61.75 66.9174 62.35C63.1174 66.15 56.9174 66.15 53.0174 62.25L31.1174 40.35C28.8174 38.55 27.3174 35.75 27.3174 32.55Z" fill="url(#paint2_linear)"/>
<path d="M54.1173 38.95L76.4173 61.25C78.1173 62.95 80.4173 63.95 82.8173 63.95C85.2173 63.95 87.5173 63.05 89.2173 61.25C90.9173 59.55 91.9173 57.25 91.9173 54.85C91.9173 52.45 91.0173 50.15 89.2173 48.45L73.3173 32.55L89.3173 16.55C91.0173 14.85 92.0173 12.55 92.0173 10.15C92.0173 7.75 91.1173 5.45 89.3173 3.75C87.6173 2.05 85.3173 1.05 82.9173 1.05C80.5173 1.05 78.2173 1.95 76.5173 3.75L54.1173 26.15C52.4173 27.85 51.4173 30.15 51.4173 32.55C51.5173 35.05 52.4173 37.25 54.1173 38.95Z" fill="url(#paint3_linear)"/>
<defs>
<linearGradient id="paint0_linear" x1="7.55843" y1="45.1671" x2="7.55842" y2="19.1671" gradientUnits="userSpaceOnUse">
<stop stop-color="#49DE60"/>
<stop offset="1" stop-color="#46CEA2"/>
</linearGradient>
<linearGradient id="paint1_linear" x1="17.0766" y1="39.9671" x2="17.0766" y2="24.3329" gradientUnits="userSpaceOnUse">
<stop stop-color="#49DE60"/>
<stop offset="1" stop-color="#46CEA2"/>
</linearGradient>
<linearGradient id="paint2_linear" x1="47.8674" y1="65.1876" x2="47.8674" y2="1.79654e-06" gradientUnits="userSpaceOnUse">
<stop stop-color="#49DE60"/>
<stop offset="1" stop-color="#46CEA2"/>
</linearGradient>
<linearGradient id="paint3_linear" x1="71.7173" y1="63.95" x2="71.7173" y2="1.05" gradientUnits="userSpaceOnUse">
<stop stop-color="#49DE60"/>
<stop offset="1" stop-color="#46CEA2"/>
</linearGradient>
</defs>
</svg>
