<svg width="16" height="16" viewBox="0 0 16 16" fill="none" xmlns="http://www.w3.org/2000/svg">
<path d="M7.99998 8.88393L14.933 15.817C15.1771 16.061 15.5729 16.061 15.8169 15.817C16.061 15.5729 16.061 15.1771 15.8169 14.933L8.88388 7.99999L15.8169 1.06697C16.061 0.822882 16.061 0.427132 15.8169 0.18307C15.5728 -0.0609921 15.1771 -0.0610234 14.933 0.18307L8.00001 7.11609L1.06696 0.183069C0.822865 -0.061024 0.427116 -0.061024 0.183054 0.183069C0.0610226 0.3051 2.28679e-05 0.465069 2.28609e-05 0.625037C2.28539e-05 0.785006 0.0610226 0.944943 0.183054 1.06701L7.11607 7.99999L0.183053 14.933C0.0610219 15.055 2.22231e-05 15.215 2.22161e-05 15.375C2.22091e-05 15.5349 0.0610219 15.6949 0.183053 15.8169C0.427146 16.061 0.822896 16.061 1.06696 15.8169L7.99998 8.88393Z" fill="white"/>
</svg>
