<svg width="24" height="24" viewBox="0 0 24 24" fill="none" xmlns="http://www.w3.org/2000/svg">
<g clip-path="url(#clip0)">
<path d="M23.7143 22.3349L18.1208 16.7414C17.7397 16.3603 17.1224 16.3603 16.7413 16.7414C16.3602 17.1222 16.3602 17.7401 16.7413 18.121L22.3348 23.7144C22.5253 23.905 22.7748 24.0003 23.0246 24.0003C23.274 24.0003 23.5237 23.905 23.7143 23.7144C24.0955 23.3336 24.0955 22.7157 23.7143 22.3349Z" fill="white"/>
<path d="M10.5691 0C4.74145 0 0 4.74145 0 10.5691C0 16.3971 4.74145 21.1382 10.5691 21.1382C16.3971 21.1382 21.1382 16.3971 21.1382 10.5691C21.1382 4.74145 16.3971 0 10.5691 0ZM10.5691 19.187C5.81723 19.187 1.95122 15.321 1.95122 10.5691C1.95122 5.81728 5.81723 1.95122 10.5691 1.95122C15.321 1.95122 19.187 5.81723 19.187 10.5691C19.187 15.321 15.321 19.187 10.5691 19.187Z" fill="white"/>
</g>
<defs>
<clipPath id="clip0">
<rect width="24" height="24" fill="white"/>
</clipPath>
</defs>
</svg>
