<svg width="270" height="56" viewBox="0 0 270 56" fill="none" xmlns="http://www.w3.org/2000/svg">
<mask id="mask0" mask-type="alpha" maskUnits="userSpaceOnUse" x="0" y="0" width="270" height="56">
<path d="M35.1962 39.8512C35.1962 42.9675 34.4056 45.7401 32.8246 48.169C31.2435 50.575 28.9635 52.454 25.9847 53.8059C23.0058 55.1349 19.5114 55.7995 15.5014 55.7995C12.156 55.7995 9.34898 55.5703 7.08048 55.112C4.81198 54.6308 2.45182 53.8059 0 52.6373V40.5386C2.5893 41.8676 5.28172 42.9102 8.07725 43.6664C10.8728 44.3997 13.4392 44.7663 15.7764 44.7663C17.7929 44.7663 19.2708 44.4226 20.2103 43.7351C21.1498 43.0248 21.6195 42.1197 21.6195 41.0198C21.6195 40.3324 21.4248 39.7366 21.0352 39.2325C20.6686 38.7055 20.0614 38.1785 19.2135 37.6514C18.3886 37.1244 16.1659 36.0474 12.5455 34.4205C9.26878 32.9311 6.80551 31.4875 5.15569 30.0898C3.52878 28.692 2.31433 27.088 1.51234 25.2778C0.733254 23.4676 0.343713 21.3251 0.343713 18.8503C0.343713 14.2217 2.0279 10.6127 5.39629 8.0234C8.76467 5.4341 13.3933 4.13945 19.2823 4.13945C24.4838 4.13945 29.7884 5.34244 35.1962 7.74843L31.0372 18.2317C26.3398 16.0777 22.284 15.0008 18.8698 15.0008C17.1054 15.0008 15.8222 15.3101 15.0202 15.9288C14.2182 16.5475 13.8172 17.3151 13.8172 18.2317C13.8172 19.217 14.3214 20.0992 15.3296 20.8783C16.3607 21.6573 19.1333 23.078 23.6474 25.1403C27.9782 27.088 30.98 29.1846 32.6527 31.4302C34.3483 33.6529 35.1962 36.4599 35.1962 39.8512Z" fill="#373737"/>
<path d="M64.7692 45.1787C66.5794 45.1787 68.7448 44.7319 71.2654 43.8383V53.6341C69.4552 54.4131 67.7251 54.9631 66.0753 55.2839C64.4484 55.6276 62.5351 55.7995 60.3353 55.7995C55.8212 55.7995 52.5674 54.6996 50.5739 52.4998C48.5803 50.2771 47.5836 46.8744 47.5836 42.2915V26.2402H42.8747V20.7751L48.8553 16.5475L52.3268 8.36711H61.1258V16.1694H70.6811V26.2402H61.1258V41.3979C61.1258 43.9185 62.3403 45.1787 64.7692 45.1787Z" fill="#373737"/>
<path d="M106.991 55.112L104.413 49.9563H104.138C102.328 52.2019 100.483 53.7372 98.6043 54.5621C96.7253 55.387 94.2964 55.7995 91.3176 55.7995C87.6513 55.7995 84.7641 54.6996 82.656 52.4998C80.5479 50.3001 79.4939 47.2066 79.4939 43.2196C79.4939 39.0721 80.9374 35.9902 83.8246 33.9737C86.7118 31.9343 90.8937 30.7886 96.3701 30.5366L102.866 30.3304V29.7804C102.866 26.5724 101.285 24.9684 98.1231 24.9684C95.2817 24.9684 91.6727 25.9308 87.2961 27.8556L83.4122 18.9878C87.9492 16.6506 93.6777 15.482 100.598 15.482C105.593 15.482 109.454 16.7193 112.181 19.1941C114.931 21.6688 116.305 25.1288 116.305 29.5742V55.112H106.991ZM97.0232 46.313C98.6501 46.313 100.036 45.7974 101.182 44.7663C102.351 43.7351 102.935 42.3947 102.935 40.7448V37.7202L99.8416 37.8577C95.4192 38.0181 93.208 39.645 93.208 42.7384C93.208 45.1214 94.4797 46.313 97.0232 46.313Z" fill="#373737"/>
<path d="M153.543 55.112V33.8706C153.543 31.2813 153.165 29.3336 152.409 28.0275C151.676 26.6985 150.484 26.0339 148.834 26.0339C146.566 26.0339 144.928 26.9391 143.919 28.7493C142.911 30.5595 142.407 33.6644 142.407 38.0639V55.112H128.968V16.1694H139.107L140.792 20.9814H141.582C142.728 19.1482 144.309 17.7734 146.325 16.8568C148.365 15.9402 150.702 15.482 153.337 15.482C157.645 15.482 160.99 16.7308 163.373 19.2284C165.779 21.7261 166.982 25.2434 166.982 29.7804V55.112H153.543Z" fill="#373737"/>
<path d="M192.672 33.2175C194.298 30.6282 195.685 28.6118 196.83 27.1682L205.561 16.1694H220.547L207.039 32.7363L221.406 55.112H206.042L197.518 41.1573L193.153 44.4913V55.112H179.645V1.63035H193.153V22.6656C193.153 26.2631 192.901 29.7804 192.397 33.2175H192.672Z" fill="#373737"/>
<path d="M243.074 55.112H229.634V16.1694H243.074V55.112ZM229.291 6.47669C229.291 4.46025 229.852 2.95937 230.975 1.97406C232.098 0.988748 233.908 0.496094 236.406 0.496094C238.903 0.496094 240.725 1.00021 241.871 2.00843C243.016 3.01665 243.589 4.50607 243.589 6.47669C243.589 10.4179 241.195 12.3886 236.406 12.3886C231.662 12.3886 229.291 10.4179 229.291 6.47669Z" fill="#373737"/>
<path d="M269.484 55.112H256.045V16.1694H269.484V55.112ZM255.702 6.47669C255.702 4.46025 256.263 2.95937 257.386 1.97406C258.509 0.988748 260.319 0.496094 262.816 0.496094C265.314 0.496094 267.136 1.00021 268.281 2.00843C269.427 3.01665 270 4.50607 270 6.47669C270 10.4179 267.605 12.3886 262.816 12.3886C258.073 12.3886 255.702 10.4179 255.702 6.47669Z" fill="#373737"/>
</mask>
<g mask="url(#mask0)">
<path d="M-4.22363 14.2843V-4.72168H214.697L223.144 14.2843H279.458V33.2902V62.151H-4.22363V14.2843Z" fill="#373737"/>
<rect x="216.808" y="-5.42578" width="53.4982" height="19.7099" fill="#00AAFF"/>
</g>
</svg>
