<svg width="27" height="40" viewBox="0 0 27 40" fill="none" xmlns="http://www.w3.org/2000/svg">
<path d="M13.5 0C6.05027 0 0 6.0446 0 15C0 22.6165 7.96205 32.1294 13.5 40C19.0379 32.1294 27 22.6165 27 15C27 6.0446 20.9497 0 13.5 0Z" fill="#E87D40"/>
<path d="M20.8154 15.1813L18.27 12.6813C18.2105 12.6233 18.14 12.5775 18.0625 12.5464C17.9849 12.5153 17.9019 12.4995 17.8182 12.5H15.9091V10.625C15.9091 10.4592 15.842 10.3003 15.7227 10.1831C15.6034 10.0658 15.4415 10 15.2727 10H7.63636C7.46759 10 7.30573 10.0658 7.18639 10.1831C7.06705 10.3003 7 10.4592 7 10.625V18.125C7 18.2908 7.06705 18.4497 7.18639 18.5669C7.30573 18.6842 7.46759 18.75 7.63636 18.75H9.02363C9.1574 19.112 9.4014 19.4247 9.72247 19.6457C10.0435 19.8667 10.4261 19.9853 10.8182 19.9853C11.2103 19.9853 11.5928 19.8667 11.9139 19.6457C12.235 19.4247 12.479 19.112 12.6127 18.75H16.0236C16.1574 19.112 16.4014 19.4247 16.7225 19.6457C17.0435 19.8667 17.4261 19.9853 17.8182 19.9853C18.2102 19.9853 18.5928 19.8667 18.9139 19.6457C19.235 19.4247 19.479 19.112 19.6127 18.75H20.3636C20.5324 18.75 20.6943 18.6842 20.8136 18.5669C20.9329 18.4497 21 18.2908 21 18.125V15.625C21.0005 15.5427 20.9844 15.4612 20.9528 15.3851C20.9211 15.3089 20.8744 15.2397 20.8154 15.1813ZM10.8182 18.75C10.6923 18.75 10.5693 18.7133 10.4646 18.6447C10.36 18.576 10.2784 18.4784 10.2303 18.3642C10.1821 18.25 10.1695 18.1243 10.194 18.0031C10.2186 17.8818 10.2792 17.7705 10.3682 17.6831C10.4572 17.5957 10.5706 17.5361 10.694 17.512C10.8175 17.4879 10.9454 17.5003 11.0617 17.5476C11.178 17.5949 11.2774 17.675 11.3473 17.7778C11.4172 17.8805 11.4545 18.0014 11.4545 18.125C11.4545 18.2908 11.3875 18.4497 11.2682 18.5669C11.1488 18.6842 10.987 18.75 10.8182 18.75ZM17.8182 18.75C17.6923 18.75 17.5693 18.7133 17.4646 18.6447C17.36 18.576 17.2784 18.4784 17.2303 18.3642C17.1821 18.25 17.1695 18.1243 17.194 18.0031C17.2186 17.8818 17.2792 17.7705 17.3682 17.6831C17.4572 17.5957 17.5706 17.5361 17.694 17.512C17.8175 17.4879 17.9454 17.5003 18.0617 17.5476C18.178 17.5949 18.2774 17.675 18.3473 17.7778C18.4172 17.8805 18.4545 18.0014 18.4545 18.125C18.4545 18.2908 18.3875 18.4497 18.2682 18.5669C18.1488 18.6842 17.9869 18.75 17.8182 18.75Z" fill="white"/>
</svg>
