<svg width="14" height="13" viewBox="0 0 14 13" fill="none" xmlns="http://www.w3.org/2000/svg">
<path fill-rule="evenodd" clip-rule="evenodd" d="M13.962 0.334019C14.0016 0.42045 14.0065 0.513183 13.9937 0.605016V5.23176C13.9937 5.52977 13.7284 5.77196 13.4009 5.77196C13.0723 5.77196 12.8071 5.52977 12.8071 5.23176V1.85736L8.72572 5.56939C8.49414 5.78006 8.11807 5.78006 7.88649 5.56939C7.65392 5.35871 7.65392 5.01659 7.88649 4.80501L11.9807 1.08039H8.25662C7.92904 1.08039 7.66382 0.839099 7.66382 0.540193C7.66382 0.242186 7.92904 0 8.25662 0H13.4137C13.4167 0 13.4187 0.00180063 13.4207 0.00180063C13.4959 0.00270095 13.5701 0.0153055 13.6414 0.0414148C13.7858 0.0963344 13.9016 0.202572 13.962 0.334019ZM5.7509 11.6632C6.07947 11.6632 6.3447 11.9054 6.3447 12.2034C6.3447 12.5014 6.07947 12.7436 5.7509 12.7436H0.593795C0.516602 12.7436 0.439408 12.7292 0.367163 12.7022C0.221683 12.6473 0.105893 12.5419 0.0455243 12.4096C0.0168242 12.3438 0 12.2745 0 12.2052V12.2034C0 12.1818 0.0108862 12.1602 0.0138552 12.1386V7.51183C0.0138552 7.21382 0.280073 6.97163 0.60765 6.97163C0.935227 6.97163 1.20145 7.21382 1.20145 7.51183V10.8862L5.28478 7.17151C5.51735 6.96083 5.89342 6.96083 6.125 7.17151C6.35658 7.38308 6.35658 7.7243 6.125 7.93588L2.02781 11.6632H5.7509Z" fill="white"/>
</svg>
