<svg width="14" height="14" viewBox="0 0 14 14" fill="none" xmlns="http://www.w3.org/2000/svg">
<path fill-rule="evenodd" clip-rule="evenodd" d="M8.02839 5.53988C7.99085 5.45183 7.98616 5.35736 7.99836 5.2638V0.55032C7.99836 0.246727 8.24984 0 8.56043 0C8.87196 0 9.12343 0.246727 9.12343 0.55032V3.98798L12.9932 0.20637C13.2127 -0.00825464 13.5693 -0.00825464 13.7889 0.20637C14.0094 0.420994 14.0094 0.76953 13.7889 0.985072L9.90695 4.77952H13.4379C13.7485 4.77952 14 5.02533 14 5.32984C14 5.63343 13.7485 5.88016 13.4379 5.88016H8.54823C8.54541 5.88016 8.54166 5.87833 8.54166 5.87833C8.47035 5.87741 8.39997 5.86457 8.33241 5.83797C8.19541 5.78202 8.08562 5.67379 8.02839 5.53988ZM0.563006 9.22048C0.251476 9.22048 0 8.97375 0 8.67016C0 8.36657 0.251476 8.11984 0.563006 8.11984H5.45271C5.5259 8.11984 5.59909 8.13452 5.66759 8.16204C5.80553 8.21799 5.91531 8.3253 5.97255 8.46012C5.99976 8.52708 6.01572 8.5977 6.01572 8.66833V8.67016C6.01572 8.69217 6.00539 8.71419 6.00258 8.7362V13.4497C6.00258 13.7533 5.75016 14 5.43957 14C5.12898 14 4.87657 13.7533 4.87657 13.4497V10.012L1.00497 13.7964C0.784455 14.011 0.427884 14.011 0.208312 13.7964C-0.0112601 13.5808 -0.0112601 13.2332 0.208312 13.0177L4.09305 9.22048H0.563006Z" fill="white"/>
</svg>
