<svg width="12" height="22" viewBox="0 0 12 22" fill="none" xmlns="http://www.w3.org/2000/svg">
<path fill-rule="evenodd" clip-rule="evenodd" d="M11.0407 0.467979C10.4366 -0.136079 9.45056 -0.113692 8.87454 0.517157L1.0362 9.10157C0.817834 9.17205 0.61223 9.29405 0.438298 9.46798C0.109598 9.79668 -0.035346 10.2417 0.00641922 10.6729C-0.0353459 11.1041 0.109598 11.5491 0.438297 11.8778C0.61223 12.0517 0.817834 12.1737 1.0362 12.2442L8.87454 20.8286C9.45056 21.4595 10.4366 21.4819 11.0407 20.8778C11.6072 20.3113 11.6279 19.3995 11.0877 18.8078L3.65972 10.6729L11.0877 2.53794C11.6279 1.94633 11.6072 1.03446 11.0407 0.467979Z" fill="#A6A6A6"/>
</svg>
