<svg width="48" height="48" viewBox="0 0 48 48" fill="none" xmlns="http://www.w3.org/2000/svg">
<path fill-rule="evenodd" clip-rule="evenodd" d="M16 48H32C35.3137 48 38 45.3137 38 42V6C38 2.68629 35.3137 0 32 0H16C12.6863 0 10 2.68629 10 6V42C10 45.3137 12.6863 48 16 48ZM14 6C14 4.89543 14.8954 4 16 4H32C33.1046 4 34 4.89543 34 6V42C34 43.1046 33.1046 44 32 44H16C14.8954 44 14 43.1046 14 42V6Z" fill="#1A7EF7"/>
<rect x="12" y="12" width="24" height="4" fill="#1A7EF7"/>
<rect x="12" y="32" width="24" height="4" fill="#1A7EF7"/>
<path d="M19 22C20.1046 22 21 21.1046 21 20C21 18.8954 20.1046 18 19 18C17.8954 18 17 18.8954 17 20C17 21.1046 17.8954 22 19 22Z" fill="#A6C7FF"/>
<path d="M29 22C30.1046 22 31 21.1046 31 20C31 18.8954 30.1046 18 29 18C27.8954 18 27 18.8954 27 20C27 21.1046 27.8954 22 29 22Z" fill="#A6C7FF"/>
<path d="M19 30C20.1046 30 21 29.1046 21 28C21 26.8954 20.1046 26 19 26C17.8954 26 17 26.8954 17 28C17 29.1046 17.8954 30 19 30Z" fill="#A6C7FF"/>
<path d="M29 30C30.1046 30 31 29.1046 31 28C31 26.8954 30.1046 26 29 26C27.8954 26 27 26.8954 27 28C27 29.1046 27.8954 30 29 30Z" fill="#A6C7FF"/>
<path d="M24 26C25.1046 26 26 25.1046 26 24C26 22.8954 25.1046 22 24 22C22.8954 22 22 22.8954 22 24C22 25.1046 22.8954 26 24 26Z" fill="#A6C7FF"/>
</svg>
