<svg width="24" height="24" viewBox="0 0 24 24" fill="none" xmlns="http://www.w3.org/2000/svg">
<path fill-rule="evenodd" clip-rule="evenodd" d="M0.100098 9.80005C0.100098 15.2 4.5001 19.55 9.8501 19.55C15.2001 19.55 19.5501 15.2 19.6001 9.80005C19.6001 4.40005 15.2501 0.0500488 9.8501 0.0500488C4.4501 0.0500488 0.100098 4.45005 0.100098 9.80005ZM1.5001 9.85005C1.5001 5.25005 5.2501 1.50005 9.8501 1.50005C14.4001 1.50005 18.1501 5.25005 18.2001 9.85005C18.2001 14.45 14.4501 18.2001 9.8501 18.2001C5.2501 18.2001 1.5001 14.45 1.5001 9.85005Z" fill="#1D1B1B"/>
<path d="M22.85 23.9L16.05 17.15L17.15 16.05L23.9 22.85L22.85 23.9Z" fill="#1D1B1B"/>
</svg>
