<svg width="35" height="54" viewBox="0 0 35 54" fill="none" xmlns="http://www.w3.org/2000/svg">
<path fill-rule="evenodd" clip-rule="evenodd" d="M2.24241 44.7C2.24792 44.7778 3.00295 52 10.4319 52C17.7477 52 18.2412 44.0211 18.2625 43.6779C18.2629 43.6713 18.2631 43.6675 18.2632 43.6667C18.2633 43.6658 18.2636 43.6623 18.2641 43.6563C18.2873 43.36 18.7901 36.9414 23.8349 34.0556C34.1754 28.1853 32.762 17.0435 32.7092 16.6273C32.7085 16.622 32.708 16.6185 32.7078 16.6167C32.6913 16.4722 30.6191 2 17.7176 2C5.03 2 2.18668 15.9695 2.06444 16.57C2.06238 16.5802 2.0611 16.5865 2.06055 16.5889V16.6389L2.24241 44.65V44.7ZM10.4319 50.8889C4.14926 50.8889 3.39424 45.0944 3.33912 44.6222L3.16277 16.7444C3.33912 15.8889 6.08366 3.11111 17.7176 3.11111C29.6657 3.11111 31.5395 16.2056 31.6166 16.7778C31.6332 16.8833 33.1101 27.5056 23.2949 33.0778C17.6294 36.3111 17.1775 43.3333 17.1665 43.6333C17.1555 43.9333 16.8358 50.8889 10.4319 50.8889Z" fill="black"/>
<path d="M2.24241 44.7H0.742414V44.7531L0.746165 44.806L2.24241 44.7ZM18.2625 43.6779L19.7596 43.7705L19.7596 43.7704L18.2625 43.6779ZM18.2641 43.6563L16.7687 43.5391L16.7686 43.5392L18.2641 43.6563ZM23.8349 34.0556L23.0944 32.7511L23.0902 32.7535L23.8349 34.0556ZM32.7092 16.6273L34.1972 16.4385L34.1972 16.4383L32.7092 16.6273ZM32.7078 16.6167L34.1981 16.4463L34.1981 16.4461L32.7078 16.6167ZM2.06444 16.57L0.594581 16.2709L0.59458 16.2709L2.06444 16.57ZM2.06055 16.5889L0.598373 16.2542L0.560547 16.4194V16.5889H2.06055ZM2.06055 16.6389H0.560515L0.560578 16.6486L2.06055 16.6389ZM2.24241 44.65H3.74245L3.74238 44.6403L2.24241 44.65ZM3.33912 44.6222L1.83915 44.6317L1.83968 44.7142L1.84924 44.7961L3.33912 44.6222ZM3.16277 16.7444L1.69366 16.4416L1.6618 16.5962L1.6628 16.7539L3.16277 16.7444ZM31.6166 16.7778L30.1301 16.9782L30.1322 16.9941L30.1347 17.0099L31.6166 16.7778ZM23.2949 33.0778L22.5543 31.7733L22.5514 31.775L23.2949 33.0778ZM17.1665 43.6333L18.6655 43.6884V43.6884L17.1665 43.6333ZM10.4319 50.5C7.31989 50.5 5.72137 49.0389 4.83055 47.5925C3.88356 46.055 3.7315 44.4929 3.73866 44.594L0.746165 44.806C0.758839 44.9849 0.987046 47.0728 2.27619 49.1658C3.6215 51.35 6.11498 53.5 10.4319 53.5V50.5ZM16.7653 43.5853C16.7581 43.7028 16.6431 45.5302 15.7467 47.2855C14.8934 48.9566 13.3888 50.5 10.4319 50.5V53.5C14.7908 53.5 17.1909 51.0539 18.4185 48.6498C19.6032 46.3299 19.7456 43.9962 19.7596 43.7705L16.7653 43.5853ZM16.7748 43.4806C16.7713 43.5086 16.7694 43.5306 16.7689 43.5359C16.7681 43.5448 16.7676 43.5519 16.7673 43.5557C16.7667 43.5634 16.7663 43.5696 16.7662 43.5721C16.7658 43.5774 16.7655 43.5832 16.7653 43.5854L19.7596 43.7704C19.7599 43.766 19.7598 43.7666 19.7597 43.7681C19.7597 43.7687 19.7594 43.7735 19.7589 43.78C19.7587 43.7832 19.7582 43.7898 19.7574 43.7983C19.757 43.8027 19.7565 43.8091 19.7557 43.817C19.7549 43.8241 19.7536 43.8368 19.7516 43.8527L16.7748 43.4806ZM16.7686 43.5392C16.7683 43.5433 16.7683 43.543 16.7684 43.542C16.7685 43.5416 16.7688 43.5379 16.7692 43.5328C16.7694 43.5302 16.7699 43.5251 16.7705 43.5187C16.7709 43.5154 16.7713 43.5107 16.7719 43.505C16.7725 43.4997 16.7735 43.4912 16.7748 43.4806L19.7516 43.8527C19.754 43.8336 19.7555 43.8186 19.756 43.8137C19.7567 43.8069 19.7572 43.8014 19.7574 43.7983C19.758 43.7921 19.7584 43.7869 19.7586 43.7848C19.7589 43.7803 19.7593 43.7753 19.7595 43.7733L16.7686 43.5392ZM23.0902 32.7535C20.1573 34.4312 18.5932 37.1076 17.7638 39.2952C16.9323 41.4884 16.7852 43.3276 16.7687 43.5391L19.7595 43.7734C19.7661 43.6887 19.8821 42.1704 20.5689 40.3588C21.2579 38.5416 22.4677 36.5657 24.5797 35.3576L23.0902 32.7535ZM31.2211 16.8161C31.2699 17.2012 32.5401 27.3888 23.0944 32.7511L24.5755 35.36C35.8108 28.9818 34.254 16.8858 34.1972 16.4385L31.2211 16.8161ZM31.2175 16.787C31.2187 16.7969 31.2198 16.8056 31.22 16.8072C31.2204 16.8105 31.2208 16.814 31.2211 16.8162L34.1972 16.4383C34.197 16.437 34.1969 16.436 34.1968 16.4352C34.1967 16.4344 34.1967 16.4341 34.1967 16.4341C34.1967 16.4341 34.1967 16.4344 34.1968 16.4347C34.1968 16.4351 34.1969 16.4357 34.197 16.4365C34.1971 16.4376 34.1976 16.4413 34.1981 16.4463L31.2175 16.787ZM17.7176 3.5C23.4755 3.5 26.7946 6.67811 28.7507 10.0131C30.7397 13.404 31.2227 16.832 31.2176 16.7872L34.1981 16.4461C34.1765 16.2569 33.6151 12.3766 31.3384 8.49525C29.029 4.558 24.8613 0.5 17.7176 0.5V3.5ZM3.53431 16.8692C3.58358 16.6271 4.27983 13.2052 6.43777 9.87561C8.57005 6.58556 12.0376 3.5 17.7176 3.5V0.5C10.71 0.5 6.41209 4.39918 3.92026 8.244C1.45408 12.0492 0.66755 15.9124 0.594581 16.2709L3.53431 16.8692ZM3.52272 16.9236C3.52573 16.9105 3.528 16.8997 3.52867 16.8966C3.52967 16.8918 3.53054 16.8876 3.5311 16.8849C3.53218 16.8797 3.53342 16.8736 3.53431 16.8692L0.59458 16.2709C0.593406 16.2766 0.592976 16.2788 0.592761 16.2798C0.592669 16.2802 0.592984 16.2787 0.593529 16.2761C0.593815 16.2748 0.594328 16.2724 0.595003 16.2693C0.595614 16.2664 0.596797 16.261 0.598373 16.2542L3.52272 16.9236ZM3.56055 16.6389V16.5889H0.560547V16.6389H3.56055ZM3.74238 44.6403L3.56052 16.6292L0.560578 16.6486L0.742445 44.6597L3.74238 44.6403ZM3.74241 44.7V44.65H0.742414V44.7H3.74241ZM1.84924 44.7961C1.88618 45.1127 2.12356 46.9536 3.29291 48.7507C4.51767 50.633 6.72548 52.3889 10.4319 52.3889V49.3889C7.8557 49.3889 6.54467 48.2475 5.80747 47.1146C5.01487 45.8964 4.84718 44.604 4.82901 44.4483L1.84924 44.7961ZM1.6628 16.7539L1.83915 44.6317L4.83909 44.6127L4.66274 16.735L1.6628 16.7539ZM17.7176 1.61111C11.2401 1.61111 7.23136 5.20865 4.8888 8.78505C2.57184 12.3224 1.79504 15.9498 1.69366 16.4416L4.63188 17.0473C4.70685 16.6836 5.39049 13.4943 7.39838 10.4288C9.38067 7.40246 12.5611 4.61111 17.7176 4.61111V1.61111ZM33.1032 16.5773C33.055 16.2204 32.5336 12.5696 30.411 8.96822C28.2543 5.30916 24.3706 1.61111 17.7176 1.61111V4.61111C23.0127 4.61111 26.0399 7.46029 27.8265 10.4915C29.6471 13.5804 30.1011 16.763 30.1301 16.9782L33.1032 16.5773ZM24.0354 34.3822C29.3752 31.3508 31.6644 26.9133 32.5964 23.2474C33.5183 19.6216 33.1261 16.7214 33.0986 16.5457L30.1347 17.0099C30.1237 16.9397 30.4783 19.4034 29.6889 22.5082C28.9098 25.5728 27.0298 29.2325 22.5543 31.7733L24.0354 34.3822ZM18.6655 43.6884C18.6652 43.6954 18.6702 43.5894 18.692 43.387C18.7132 43.1904 18.7493 42.9122 18.8092 42.5726C18.9294 41.8913 19.1427 40.9762 19.5151 39.9814C20.2641 37.9805 21.6134 35.7645 24.0384 34.3805L22.5514 31.775C19.3109 33.6244 17.6015 36.5362 16.7055 38.9297C15.8114 41.3182 15.6771 43.317 15.6675 43.5783L18.6655 43.6884ZM10.4319 52.3889C12.3224 52.3889 13.8494 51.8696 15.0492 51.023C16.2335 50.1872 17.0195 49.0894 17.5401 48.0405C18.5644 45.9771 18.6574 43.9076 18.6655 43.6884L15.6675 43.5783C15.6645 43.659 15.5922 45.2174 14.853 46.7067C14.4918 47.4342 13.9965 48.0941 13.3194 48.5718C12.6578 49.0387 11.7434 49.3889 10.4319 49.3889V52.3889Z" fill="#1A7EF7"/>
<path d="M11.1635 32.5521L11.1186 31.5869C11.3162 31.5869 15.9108 31.2587 15.9108 26.9055C15.9108 22.5524 11.3476 22.48 11.1635 22.48H10.7144V18.0979C10.7261 16.5498 11.2792 15.0631 12.2639 13.933C13.4855 12.572 15.3135 11.8771 17.6894 11.8771C19.9081 11.8771 21.6238 12.5624 22.7871 13.9185C24.5836 15.9889 24.3635 18.846 24.3545 18.9666L23.4563 18.8894C23.4563 18.8653 23.6269 16.3219 22.1089 14.5459C21.1253 13.4021 19.6341 12.823 17.6804 12.823C15.556 12.823 13.9481 13.4166 12.9016 14.5797C12.0826 15.5336 11.6231 16.7808 11.6126 18.0786V21.5341C13.6382 21.7078 16.8271 22.9819 16.8271 26.9055C16.8226 32.1805 11.2354 32.5472 11.1635 32.5521Z" fill="black" stroke="#1A7EF7" stroke-width="3"/>
<path d="M11.185 28.9881C12.4532 28.9881 13.4813 27.9641 13.4813 26.7009C13.4813 25.4378 12.4532 24.4138 11.185 24.4138C9.91676 24.4138 8.88867 25.4378 8.88867 26.7009C8.88867 27.9641 9.91676 28.9881 11.185 28.9881Z" fill="#A6C7FF"/>
</svg>
