<svg width="48" height="48" viewBox="0 0 48 48" fill="none" xmlns="http://www.w3.org/2000/svg">
<path d="M22 16C20.8954 16 20 15.1046 20 14V4H18C16.8954 4 16 3.10457 16 2C16 0.89543 16.8954 0 18 0H22C23.1046 0 24 0.89543 24 2V14C24 15.1046 23.1046 16 22 16Z" fill="#1A7EF7"/>
<path d="M41 34C43.7614 34 46 31.7614 46 29C46 26.2386 43.7614 24 41 24C38.2386 24 36 26.2386 36 29C36 31.7614 38.2386 34 41 34Z" fill="#A6C7FF"/>
<path fill-rule="evenodd" clip-rule="evenodd" d="M34 29C34 32.866 37.134 36 41 36C44.866 36 48 32.866 48 29C48 25.134 44.866 22 41 22C37.134 22 34 25.134 34 29ZM38 29C38 27.3431 39.3431 26 41 26C42.6569 26 44 27.3431 44 29C44 30.6569 42.6569 32 41 32C39.3431 32 38 30.6569 38 29Z" fill="#1A7EF7"/>
<path d="M2 16C0.89543 16 0 15.1046 0 14V2C0 0.89543 0.89543 0 2 0H6C7.10457 0 8 0.89543 8 2C8 3.10457 7.10457 4 6 4H4V14C4 15.1046 3.10457 16 2 16Z" fill="#1A7EF7"/>
<path d="M12 26C5.37258 26 0 20.6274 0 14C0 12.8954 0.89543 12 2 12C3.10457 12 4 12.8954 4 14C4 18.4183 7.58172 22 12 22C16.4183 22 20 18.4183 20 14C20 12.8954 20.8954 12 22 12C23.1046 12 24 12.8954 24 14C24 20.6274 18.6274 26 12 26Z" fill="#1A7EF7"/>
<path d="M37 48H16C12.6863 48 10 45.3137 10 42V25H14V42C14 43.1046 14.8954 44 16 44H37C38.1046 44 39 43.1046 39 42V34H43V42C43 45.3137 40.3137 48 37 48Z" fill="#1A7EF7"/>
</svg>
