<svg width="24" height="24" viewBox="0 0 24 24" fill="none" xmlns="http://www.w3.org/2000/svg">
<path fill-rule="evenodd" clip-rule="evenodd" d="M12 0C18.6172 0 24 5.3833 24 12C24 15.3836 22.5868 18.4387 20.3264 20.6223C20.2734 20.6912 20.2108 20.747 20.1374 20.7941C17.9962 22.7769 15.1417 24 12 24C8.85828 24 6.00385 22.7769 3.86261 20.7941C3.78925 20.747 3.72656 20.6912 3.67365 20.6223C1.41321 18.4387 0 15.3836 0 12C0 5.3833 5.38281 0 12 0ZM22.5 12C22.5 6.21045 17.79 1.5 12 1.5C6.20996 1.5 1.5 6.21045 1.5 12C1.5 14.455 2.35327 16.7108 3.77026 18.5009C4.42078 16.403 6.27789 14.7607 8.7984 14.0051C7.4248 13.011 6.52637 11.4005 6.52637 9.58057C6.52637 6.56641 8.98145 4.11426 12 4.11426C15.0186 4.11426 17.4736 6.56641 17.4736 9.58057C17.4736 11.4005 16.5752 13.011 15.2016 14.0051C17.7221 14.7607 19.5792 16.403 20.2297 18.5009C21.6467 16.7108 22.5 14.455 22.5 12ZM8.02637 9.58057C8.02637 7.39355 9.80859 5.61426 12 5.61426C14.1914 5.61426 15.9736 7.39355 15.9736 9.58057C15.9736 11.7676 14.1914 13.5469 12 13.5469C9.80859 13.5469 8.02637 11.7676 8.02637 9.58057ZM12 15.0469C8.17236 15.0469 5.25623 17.082 5.03076 19.832C6.8869 21.4855 9.32428 22.5 12 22.5C14.6757 22.5 17.1131 21.4855 18.9692 19.832C18.7438 17.082 15.8276 15.0469 12 15.0469Z" fill="#1D1D1B"/>
</svg>
