<svg width="48" height="48" viewBox="0 0 48 48" fill="none" xmlns="http://www.w3.org/2000/svg">
<path fill-rule="evenodd" clip-rule="evenodd" d="M29.6701 43.4732C30.3358 46.1323 32.7357 47.999 35.4901 48H36.0801C39.2107 47.6479 41.5654 44.9957 41.5301 41.8614V22.4311C41.4901 21.1139 41.8377 19.8137 42.5301 18.6903C44.074 16.338 44.7394 13.5213 44.4101 10.7311C43.8477 6.19852 40.7356 2.38229 36.3935 0.900677C32.0514 -0.580934 27.2402 0.531716 24.0001 3.7668C21.4252 1.17017 17.7924 -0.103078 14.1501 0.314504C8.83207 1.15453 4.61777 5.22787 3.62012 10.4923C3.15057 13.7108 4.02898 16.9799 6.05012 19.5359C6.99381 20.7451 7.50419 22.2334 7.50012 23.7642V42.1102C7.60662 44.301 8.87452 46.2709 10.8301 47.2836C12.698 48.2647 14.9542 48.158 16.7201 47.0051C18.0685 46.1306 19.014 44.7606 19.3501 43.1946L19.4201 42.8663C19.5347 42.2415 19.6849 41.6236 19.8701 41.0158L22.2101 33.9421C22.2472 33.8286 22.274 33.7121 22.2901 33.5938C22.3911 32.5689 23.1849 31.7463 24.2101 31.604C25.3938 31.5546 26.4149 32.4229 26.5501 33.5938C26.5794 33.7576 26.6263 33.9177 26.6901 34.0714C26.7501 34.1709 27.0801 35.0663 29.0001 40.8964C29.1832 41.3883 29.3077 41.9303 29.4348 42.4841C29.4466 42.5351 29.4583 42.5863 29.4701 42.6375C29.5051 42.7767 29.5376 42.916 29.5701 43.0553C29.6026 43.1946 29.6351 43.3339 29.6701 43.4732ZM32.8301 39.6926C31.1901 34.7181 30.6801 33.2257 30.4901 32.7283H30.4701C30.0019 29.7563 27.4223 27.5699 24.3986 27.5824C21.375 27.5948 18.8136 29.8023 18.3701 32.778L16.0801 39.7423C15.8451 40.4932 15.6547 41.2573 15.5101 42.0306L15.4401 42.329C15.3402 42.8895 15.0199 43.3871 14.5501 43.712C13.9895 44.0891 13.2643 44.1236 12.6701 43.8015C11.9957 43.4553 11.552 42.7838 11.5001 42.0306V23.7642C11.5037 21.343 10.6942 18.9899 9.20012 17.0785C7.84512 15.3554 7.26283 13.1532 7.59012 10.9898C8.32036 7.52652 11.0894 4.85031 14.5901 4.22445C17.6801 3.88735 20.6867 5.36161 22.3001 8.00506C22.6648 8.5905 23.3078 8.94667 24.0001 8.94667C24.6924 8.94667 25.3354 8.5905 25.7001 8.00506C27.1279 5.39951 29.8941 3.8006 32.8763 3.85707C35.8586 3.91353 38.5616 5.61599 39.8887 8.27369C41.2158 10.9314 40.9465 14.1029 39.1901 16.5015C38.0482 18.2823 37.4603 20.3589 37.5001 22.4709V41.8714C37.5371 42.939 36.7623 43.8641 35.7001 44.0204C34.729 44.1182 33.8287 43.5043 33.5701 42.5678L33.3901 41.7918C33.3768 41.7356 33.3635 41.6792 33.3502 41.6226C33.203 40.9979 33.0502 40.3494 32.8301 39.6926Z" fill="#1A7EF7"/>
<path d="M16 17.1582C17.1046 17.1582 18 16.2673 18 15.1684C18 14.0695 17.1046 13.1786 16 13.1786C14.8954 13.1786 14 14.0695 14 15.1684C14 16.2673 14.8954 17.1582 16 17.1582Z" fill="#A6C7FF"/>
<path d="M23 17.1582C24.1046 17.1582 25 16.2673 25 15.1684C25 14.0695 24.1046 13.1786 23 13.1786C21.8954 13.1786 21 14.0695 21 15.1684C21 16.2673 21.8954 17.1582 23 17.1582Z" fill="#A6C7FF"/>
<path d="M16 24.1224C17.1046 24.1224 18 23.2316 18 22.1326C18 21.0337 17.1046 20.1428 16 20.1428C14.8954 20.1428 14 21.0337 14 22.1326C14 23.2316 14.8954 24.1224 16 24.1224Z" fill="#A6C7FF"/>
<path d="M23 24.1224C24.1046 24.1224 25 23.2316 25 22.1326C25 21.0337 24.1046 20.1428 23 20.1428C21.8954 20.1428 21 21.0337 21 22.1326C21 23.2316 21.8954 24.1224 23 24.1224Z" fill="#A6C7FF"/>
</svg>
