<svg width="53" height="53" viewBox="0 0 53 53" fill="none" xmlns="http://www.w3.org/2000/svg">
<path fill-rule="evenodd" clip-rule="evenodd" d="M0.88334 27.3943C5.1123 36.9122 15.1602 43.0625 26.5 43.0625C37.8288 43.0625 47.8877 36.9122 52.1167 27.3943L52.5142 26.5L52.1167 25.6056C48.8151 18.5051 42.555 13.2184 35.0021 11.152C29.0959 9.44621 22.813 9.55779 16.971 11.4722C9.8652 13.7214 4.02895 18.8486 0.88334 25.6056L0.48584 26.5L0.88334 27.3943ZM26.5 38.6458C17.2802 38.6458 9.0873 33.9089 5.34417 26.5C8.0932 21.3179 12.7686 17.4237 18.3623 15.657C23.3496 14.0259 28.7118 13.9297 33.7544 15.381C39.7262 17.0059 44.7586 21.031 47.6558 26.5C43.9127 33.9089 35.7198 38.6458 26.5 38.6458Z" fill="#1A7EF7"/>
<path d="M26.4998 35.3333C20.6732 35.3343 15.5298 31.5289 13.8264 25.9568C12.1231 20.3848 14.2596 14.3539 19.0908 11.0969L21.5642 14.7517C18.3249 16.9353 16.9046 20.9873 18.0718 24.7154C19.239 28.4436 22.7165 30.9622 26.6226 30.9087C30.5288 30.8552 33.936 28.2422 35.0006 24.4835C36.0653 20.7249 34.5346 16.7132 31.2367 14.6192L33.6106 10.8871C38.5977 14.0432 40.8961 20.1172 39.2477 25.7841C37.5993 31.451 32.4016 35.3446 26.4998 35.3333Z" fill="#1A7EF7"/>
<path d="M26.5002 26.5C28.9394 26.5 30.9168 24.5226 30.9168 22.0833C30.9168 19.644 28.9394 17.6666 26.5002 17.6666C24.0609 17.6666 22.0835 19.644 22.0835 22.0833C22.0835 24.5226 24.0609 26.5 26.5002 26.5Z" fill="#A6C7FF"/>
</svg>
