<svg width="25" height="25" viewBox="0 0 25 25" fill="none" xmlns="http://www.w3.org/2000/svg">
<path fill-rule="evenodd" clip-rule="evenodd" d="M21.5714 14.7534L24.2457 17.4409L24.2484 17.4462C24.8965 18.0974 24.8965 19.15 24.2484 19.8013L20.5323 23.5174C20.2202 23.8269 19.7983 24.0004 19.3587 24H18.8655C17.5046 23.942 15.7692 23.3275 13.8387 22.204C11.581 20.8515 9.50454 19.2173 7.65934 17.3407C5.77509 15.4885 4.13542 13.403 2.78022 11.1349C1.6567 9.19649 1.04484 7.4611 1 6.10286V5.64132C0.999848 5.1992 1.17536 4.77512 1.48791 4.46242L5.19868 0.75165C5.85058 0.100036 6.90722 0.100036 7.55912 0.75165L10.2492 3.4444C10.8991 4.096 10.8991 5.1506 10.2492 5.8022L7.46418 8.58462L16.4154 17.5358L19.211 14.7534C19.8629 14.1018 20.9195 14.1018 21.5714 14.7534ZM20.0101 22.9899L23.7182 19.287L23.7235 19.2844C23.8994 19.1101 23.9983 18.8727 23.9983 18.6251C23.9983 18.3774 23.8994 18.14 23.7235 17.9657L21.044 15.2782C20.87 15.1017 20.6325 15.0023 20.3846 15.0023C20.1368 15.0023 19.8993 15.1017 19.7253 15.2782L16.9455 18.0607L16.418 18.5881L15.8905 18.0607L6.93934 9.11473L6.41187 8.58725L6.93934 8.05978L9.72176 5.27473C9.89764 5.1004 9.99658 4.86302 9.99658 4.61539C9.99658 4.36775 9.89764 4.13038 9.72176 3.95605L7.03956 1.27649C6.86523 1.10061 6.62786 1.00167 6.38022 1.00167C6.13258 1.00167 5.89521 1.10061 5.72088 1.27649L2.00747 4.98725C1.91167 5.08372 1.83789 5.19978 1.79121 5.32747C1.76278 5.42951 1.75208 5.53567 1.75956 5.64132V6.07912C1.79912 7.31605 2.38462 8.93539 3.43956 10.7657C4.75808 12.9762 6.35339 15.0094 8.18681 16.8158C9.98621 18.6473 12.0112 20.2426 14.2132 21.5631C16.033 22.6207 17.6549 23.2088 18.8919 23.2589H19.356C19.464 23.2591 19.5711 23.2403 19.6725 23.2035C19.7992 23.1575 19.9143 23.0846 20.0101 22.9899Z" fill="black"/>
<path d="M24.2457 17.4409L24.4693 17.329L24.4513 17.2931L24.4229 17.2645L24.2457 17.4409ZM21.5714 14.7534L21.7486 14.5771L21.7482 14.5766L21.5714 14.7534ZM24.2484 17.4462L24.0248 17.558L24.0428 17.594L24.0711 17.6225L24.2484 17.4462ZM24.2484 19.8013L24.4251 19.9781L24.4256 19.9777L24.2484 19.8013ZM20.5323 23.5174L20.7084 23.6949L20.7091 23.6941L20.5323 23.5174ZM19.3587 24L19.3589 23.75H19.3587V24ZM18.8655 24L18.8548 24.25H18.8655V24ZM13.8387 22.204L13.7102 22.4184L13.7129 22.42L13.8387 22.204ZM7.65934 17.3407L7.83763 17.1654L7.83459 17.1624L7.65934 17.3407ZM2.78022 11.1349L2.5639 11.2603L2.56561 11.2632L2.78022 11.1349ZM1 6.10286H0.749864L0.750136 6.11111L1 6.10286ZM1 5.64132H1.25L1.25 5.64123L1 5.64132ZM1.48791 4.46242L1.31114 4.28564L1.31109 4.28569L1.48791 4.46242ZM5.19868 0.75165L5.02194 0.574835L5.0219 0.574874L5.19868 0.75165ZM7.55912 0.75165L7.73598 0.57496L7.73586 0.574835L7.55912 0.75165ZM10.2492 3.4444L10.4262 3.26786L10.4261 3.26771L10.2492 3.4444ZM10.2492 5.8022L10.4259 5.97906L10.4262 5.97874L10.2492 5.8022ZM7.46418 8.58462L7.28748 8.40776L7.11054 8.58453L7.2874 8.76139L7.46418 8.58462ZM16.4154 17.5358L16.2386 17.7126L16.415 17.889L16.5917 17.713L16.4154 17.5358ZM19.211 14.7534L19.3873 14.9306L19.3877 14.9302L19.211 14.7534ZM23.7182 19.287L23.6064 19.0634L23.5702 19.0815L23.5416 19.1101L23.7182 19.287ZM20.0101 22.9899L20.1859 23.1677L20.1868 23.1668L20.0101 22.9899ZM23.7235 19.2844L23.8354 19.508L23.8711 19.4901L23.8995 19.462L23.7235 19.2844ZM23.7235 17.9657L23.5465 18.1422L23.5475 18.1433L23.7235 17.9657ZM21.044 15.2782L20.8659 15.4537L20.8669 15.4548L21.044 15.2782ZM19.7253 15.2782L19.9021 15.4549L19.9033 15.4537L19.7253 15.2782ZM16.9455 18.0607L17.1223 18.2374L17.1224 18.2374L16.9455 18.0607ZM16.418 18.5881L16.2412 18.7649L16.418 18.9417L16.5948 18.7649L16.418 18.5881ZM15.8905 18.0607L16.0673 17.8839L16.0673 17.8838L15.8905 18.0607ZM6.93934 9.11473L6.76256 9.2915L6.76262 9.29156L6.93934 9.11473ZM6.41187 8.58725L6.23509 8.41048L6.05831 8.58725L6.23509 8.76403L6.41187 8.58725ZM6.93934 8.05978L7.11612 8.23656L7.1162 8.23647L6.93934 8.05978ZM9.72176 5.27473L9.54576 5.09717L9.5449 5.09803L9.72176 5.27473ZM9.72176 3.95605L9.54507 4.13291L9.54576 4.1336L9.72176 3.95605ZM7.03956 1.27649L6.862 1.45248L6.86287 1.45335L7.03956 1.27649ZM5.72088 1.27649L5.89759 1.45333L5.89844 1.45248L5.72088 1.27649ZM2.00747 4.98725L1.83076 4.81041L1.83009 4.81108L2.00747 4.98725ZM1.79121 5.32747L1.55641 5.24164L1.55302 5.25089L1.55038 5.26038L1.79121 5.32747ZM1.75956 5.64132H2.00956V5.63248L2.00894 5.62366L1.75956 5.64132ZM1.75956 6.07912H1.50943L1.50969 6.08711L1.75956 6.07912ZM3.43956 10.7657L3.22294 10.8906L3.22485 10.8938L3.43956 10.7657ZM8.18681 16.8158L8.36517 16.6406L8.36228 16.6377L8.18681 16.8158ZM14.2132 21.5631L14.0846 21.7775L14.0876 21.7792L14.2132 21.5631ZM18.8919 23.2589L18.8817 23.5089H18.8919V23.2589ZM19.356 23.2589L19.3565 23.0089H19.356V23.2589ZM19.6725 23.2035L19.7578 23.4385L19.7579 23.4385L19.6725 23.2035ZM24.4229 17.2645L21.7486 14.5771L21.3942 14.9297L24.0685 17.6172L24.4229 17.2645ZM24.4719 17.3343L24.4693 17.329L24.0221 17.5527L24.0248 17.558L24.4719 17.3343ZM24.4256 19.9777C25.1707 19.2288 25.1707 18.0186 24.4256 17.2698L24.0711 17.6225C24.6222 18.1763 24.6222 19.0712 24.0711 19.625L24.4256 19.9777ZM20.7091 23.6941L24.4251 19.9781L24.0716 19.6245L20.3555 23.3406L20.7091 23.6941ZM19.3584 24.25C19.8641 24.2505 20.3494 24.0509 20.7084 23.6949L20.3563 23.3399C20.091 23.6029 19.7325 23.7504 19.3589 23.75L19.3584 24.25ZM18.8655 24.25H19.3587V23.75H18.8655V24.25ZM13.7129 22.42C15.6595 23.5529 17.436 24.1893 18.8548 24.2498L18.8761 23.7502C17.5732 23.6947 15.879 23.1021 13.9644 21.9879L13.7129 22.42ZM7.48108 17.5159C9.34114 19.4077 11.4343 21.055 13.7102 22.4184L13.9672 21.9895C11.7277 20.6479 9.66793 19.0269 7.8376 17.1654L7.48108 17.5159ZM2.56561 11.2632C3.93174 13.5496 5.58464 15.6519 7.48409 17.519L7.83459 17.1624C5.96554 15.3252 4.33909 13.2565 2.99483 11.0067L2.56561 11.2632ZM0.750136 6.11111C0.796936 7.52886 1.43143 9.30637 2.56392 11.2603L2.99652 11.0096C1.88197 9.08661 1.29273 7.39334 1.24986 6.09461L0.750136 6.11111ZM0.75 5.64132V6.10286H1.25V5.64132H0.75ZM1.31109 4.28569C0.95166 4.64529 0.749826 5.13297 0.75 5.64141L1.25 5.64123C1.24987 5.26542 1.39906 4.90496 1.66473 4.63915L1.31109 4.28569ZM5.0219 0.574874L1.31114 4.28564L1.66469 4.6392L5.37546 0.928427L5.0219 0.574874ZM7.73586 0.574835C6.98634 -0.174359 5.77147 -0.174359 5.02194 0.574835L5.37542 0.928466C5.9297 0.374431 6.8281 0.374431 7.38238 0.928466L7.73586 0.574835ZM10.4261 3.26771L7.73598 0.57496L7.38226 0.92834L10.0724 3.62109L10.4261 3.26771ZM10.4262 5.97874C11.1734 5.22956 11.1734 4.01703 10.4262 3.26786L10.0722 3.62094C10.6248 4.17496 10.6248 5.07164 10.0722 5.62566L10.4262 5.97874ZM7.64087 8.76148L10.4259 5.97906L10.0725 5.62534L7.28748 8.40776L7.64087 8.76148ZM16.5922 17.359L7.64095 8.40784L7.2874 8.76139L16.2386 17.7126L16.5922 17.359ZM19.0346 14.5762L16.239 17.3586L16.5917 17.713L19.3873 14.9306L19.0346 14.5762ZM21.7482 14.5766C20.9986 13.8274 19.7838 13.8274 19.0343 14.5766L19.3877 14.9302C19.942 14.3762 20.8404 14.3762 21.3947 14.9302L21.7482 14.5766ZM23.5416 19.1101L19.8335 22.813L20.1868 23.1668L23.8949 19.4639L23.5416 19.1101ZM23.6117 19.0608L23.6064 19.0634L23.8301 19.5106L23.8354 19.508L23.6117 19.0608ZM23.7483 18.6251C23.7483 18.806 23.676 18.9795 23.5475 19.1068L23.8995 19.462C24.1228 19.2407 24.2483 18.9394 24.2483 18.6251H23.7483ZM23.5475 18.1433C23.676 18.2707 23.7483 18.4441 23.7483 18.6251H24.2483C24.2483 18.3107 24.1228 18.0094 23.8995 17.7882L23.5475 18.1433ZM20.8669 15.4548L23.5465 18.1422L23.9006 17.7892L21.221 15.1017L20.8669 15.4548ZM20.3846 15.2523C20.5655 15.2523 20.7389 15.3249 20.8659 15.4537L21.222 15.1028C21.0011 14.8786 20.6994 14.7523 20.3846 14.7523V15.2523ZM19.9033 15.4537C20.0303 15.3249 20.2037 15.2523 20.3846 15.2523V14.7523C20.0698 14.7523 19.7682 14.8786 19.5472 15.1028L19.9033 15.4537ZM17.1224 18.2374L19.9021 15.4549L19.5484 15.1016L16.7686 17.884L17.1224 18.2374ZM16.5948 18.7649L17.1223 18.2374L16.7687 17.8839L16.2412 18.4114L16.5948 18.7649ZM15.7138 18.2374L16.2412 18.7649L16.5948 18.4114L16.0673 17.8839L15.7138 18.2374ZM6.76262 9.29156L15.7138 18.2375L16.0673 17.8838L7.11607 8.9379L6.76262 9.29156ZM6.23509 8.76403L6.76256 9.2915L7.11612 8.93795L6.58864 8.41048L6.23509 8.76403ZM6.76256 7.88301L6.23509 8.41048L6.58864 8.76403L7.11612 8.23656L6.76256 7.88301ZM9.5449 5.09803L6.76248 7.88309L7.1162 8.23647L9.89862 5.45142L9.5449 5.09803ZM9.74658 4.61539C9.74658 4.79634 9.67428 4.96979 9.54576 5.09717L9.89775 5.45228C10.121 5.23101 10.2466 4.92971 10.2466 4.61539H9.74658ZM9.54576 4.1336C9.67428 4.26099 9.74658 4.43444 9.74658 4.61539H10.2466C10.2466 4.30106 10.121 3.99976 9.89775 3.77849L9.54576 4.1336ZM6.86287 1.45335L9.54507 4.13291L9.89845 3.77918L7.21625 1.09962L6.86287 1.45335ZM6.38022 1.25167C6.56117 1.25167 6.73462 1.32396 6.862 1.45248L7.21712 1.10049C6.99584 0.87725 6.69454 0.751668 6.38022 0.751668V1.25167ZM5.89844 1.45248C6.02582 1.32396 6.19927 1.25167 6.38022 1.25167V0.751668C6.06589 0.751668 5.7646 0.87725 5.54332 1.10049L5.89844 1.45248ZM2.18419 5.16409L5.89759 1.45332L5.54417 1.09965L1.83076 4.81042L2.18419 5.16409ZM2.02601 5.41331C2.0603 5.31952 2.11449 5.23428 2.18485 5.16343L1.83009 4.81108C1.70885 4.93316 1.61548 5.08004 1.55641 5.24164L2.02601 5.41331ZM2.00894 5.62366C2.00347 5.54654 2.01129 5.46905 2.03204 5.39457L1.55038 5.26038C1.51428 5.38997 1.50068 5.52479 1.51019 5.65898L2.00894 5.62366ZM2.00956 6.07912V5.64132H1.50956V6.07912H2.00956ZM3.65616 10.6409C2.60861 8.82338 2.04704 7.24692 2.00943 6.07113L1.50969 6.08711C1.5512 7.38517 2.16062 9.04739 3.22296 10.8906L3.65616 10.6409ZM8.36228 16.6377C6.54401 14.8462 4.96188 12.8299 3.65427 10.6376L3.22485 10.8938C4.55427 13.1226 6.16277 15.1725 8.01135 16.9939L8.36228 16.6377ZM14.3418 21.3487C12.158 20.0391 10.1497 18.457 8.36515 16.6406L8.00848 16.991C9.82273 18.8377 11.8645 20.4461 14.0846 21.7775L14.3418 21.3487ZM18.902 23.0091C17.7249 22.9614 16.1449 22.3966 14.3388 21.3469L14.0876 21.7792C15.921 22.8447 17.585 23.4562 18.8817 23.5087L18.902 23.0091ZM19.356 23.0089H18.8919V23.5089H19.356V23.0089ZM19.5872 22.9685C19.5133 22.9954 19.4352 23.009 19.3565 23.0089L19.3556 23.5089C19.4928 23.5091 19.6289 23.4853 19.7578 23.4385L19.5872 22.9685ZM19.8343 22.8121C19.7642 22.8815 19.6799 22.9349 19.5871 22.9686L19.7579 23.4385C19.9184 23.3801 20.0644 23.2878 20.1859 23.1677L19.8343 22.8121Z" fill="#1D1B1B"/>
</svg>
