<svg width="24" height="24" viewBox="0 0 24 24" fill="none" xmlns="http://www.w3.org/2000/svg">
<path fill-rule="evenodd" clip-rule="evenodd" d="M11.9418 0C18.5368 0 23.8832 5.34638 23.8832 11.9416C23.8832 18.5368 18.5368 23.8832 11.9418 23.8832C5.34638 23.8832 0 18.5368 0 11.9416C0 5.34638 5.34638 0 11.9418 0ZM22.0482 11.9416C22.0482 17.5243 17.5232 22.0499 11.9418 22.0499C6.36 22.0499 1.8354 17.5243 1.8354 11.9416C1.8354 6.35898 6.36 1.83336 11.9418 1.83336C17.5232 1.83336 22.0482 6.35898 22.0482 11.9416ZM19.2895 11.9474C19.2895 11.4419 18.8849 11.0323 18.3862 11.0323H12.8584V5.51268V5.51251C12.8584 5.00528 12.4468 4.59387 11.9399 4.59387C11.4327 4.59387 11.0211 5.00528 11.0211 5.51251V11.9438C11.0211 12.4512 11.4327 12.8626 11.9399 12.8626H18.3867C18.8849 12.8626 19.2895 12.4529 19.2895 11.9474Z" fill="black"/>
</svg>
