<svg width="24" height="24" viewBox="0 0 24 24" fill="none" xmlns="http://www.w3.org/2000/svg">
<path d="M21.12 24H2.34667C1.06667 24 0 22.9333 0 21.6533V4.42662C0 3.14662 0.853333 2.07996 1.97333 2.07996H3.14667V3.62662H1.97333C1.81333 3.62662 1.6 3.94662 1.6 4.42662V21.6533C1.6 22.08 1.97333 22.4533 2.4 22.4533H21.1733C21.6 22.4533 21.9733 22.08 21.9733 21.6533V4.42662C21.9733 3.94662 21.7067 3.62662 21.6 3.62662H20.4267V2.07996H21.6C22.6667 2.07996 23.5733 3.14662 23.5733 4.42662V21.6533C23.4667 22.9333 22.4 24 21.12 24Z" fill="#1D1B1B"/>
<path d="M5.49336 5.22665C5.06669 5.22665 4.69336 4.85331 4.69336 4.42665V1.27998C4.69336 0.853314 5.06669 0.47998 5.49336 0.47998C5.92003 0.47998 6.29336 0.853314 6.29336 1.27998V4.42665C6.24003 4.85331 5.92003 5.22665 5.49336 5.22665Z" fill="#1D1B1B"/>
<path d="M17.9733 5.22665C17.5467 5.22665 17.1733 4.85331 17.1733 4.42665V1.27998C17.1733 0.853314 17.5467 0.47998 17.9733 0.47998C18.4 0.47998 18.7733 0.853314 18.7733 1.27998V4.42665C18.7733 4.85331 18.4 5.22665 17.9733 5.22665Z" fill="#1D1B1B"/>
<path d="M7.83984 2.07996H15.6265V3.67996H7.83984V2.07996Z" fill="#1D1B1B"/>
<path d="M1.54688 6.77332H21.9202V8.37332H1.54688V6.77332Z" fill="#1D1B1B"/>
<path d="M18.7734 9.92004H20.3201V11.4667H18.7734V9.92004Z" fill="#1D1B1B"/>
<path d="M15.6265 9.92004H17.2265V11.4667H15.6265V9.92004Z" fill="#1D1B1B"/>
<path d="M12.5332 9.92004H14.0799V11.4667H12.5332V9.92004Z" fill="#1D1B1B"/>
<path d="M9.38672 9.92004H10.9334V11.4667H9.38672V9.92004Z" fill="#1D1B1B"/>
<path d="M6.24023 9.92004H7.84023V11.4667H6.24023V9.92004Z" fill="#1D1B1B"/>
<path d="M18.7734 13.0667H20.3201V14.6133H18.7734V13.0667Z" fill="#1D1B1B"/>
<path d="M15.6265 13.0667H17.2265V14.6133H15.6265V13.0667Z" fill="#1D1B1B"/>
<path d="M12.5332 13.0667H14.0799V14.6133H12.5332V13.0667Z" fill="#1D1B1B"/>
<path d="M9.38672 13.0667H10.9334V14.6133H9.38672V13.0667Z" fill="#1D1B1B"/>
<path d="M6.24023 13.0667H7.84023V14.6133H6.24023V13.0667Z" fill="#1D1B1B"/>
<path d="M3.14648 13.0667H4.69315V14.6133H3.14648V13.0667Z" fill="#1D1B1B"/>
<path d="M18.7734 16.16H20.3201V17.76H18.7734V16.16Z" fill="#1D1B1B"/>
<path d="M15.6265 16.16H17.2265V17.76H15.6265V16.16Z" fill="#1D1B1B"/>
<path d="M12.5332 16.16H14.0799V17.76H12.5332V16.16Z" fill="#1D1B1B"/>
<path d="M9.38672 16.16H10.9334V17.76H9.38672V16.16Z" fill="#1D1B1B"/>
<path d="M6.24023 16.16H7.84023V17.76H6.24023V16.16Z" fill="#1D1B1B"/>
<path d="M3.14648 16.16H4.69315V17.76H3.14648V16.16Z" fill="#1D1B1B"/>
<path d="M15.6265 19.3066H17.2265V20.8533H15.6265V19.3066Z" fill="#1D1B1B"/>
<path d="M12.5332 19.3066H14.0799V20.8533H12.5332V19.3066Z" fill="#1D1B1B"/>
<path d="M9.38672 19.3066H10.9334V20.8533H9.38672V19.3066Z" fill="#1D1B1B"/>
<path d="M6.24023 19.3066H7.84023V20.8533H6.24023V19.3066Z" fill="#1D1B1B"/>
<path d="M3.14648 19.3066H4.69315V20.8533H3.14648V19.3066Z" fill="#1D1B1B"/>
</svg>
