<svg width="17" height="24" viewBox="0 0 17 24" fill="none" xmlns="http://www.w3.org/2000/svg">
<path fill-rule="evenodd" clip-rule="evenodd" d="M8.0501 23.3L8.5001 23.85L8.9501 23.3C9.2501 22.95 16.9001 13.95 16.9001 8.59995C16.9001 3.99995 13.1001 0.199951 8.5001 0.199951C3.9001 0.199951 0.100098 3.94995 0.100098 8.59995C0.100098 13.5624 6.68187 21.6221 7.87489 23.083C7.96806 23.1971 8.02836 23.271 8.0501 23.3ZM1.3001 8.54995C1.3001 4.59995 4.5001 1.34995 8.5001 1.34995C12.5001 1.34995 15.7001 4.59995 15.7001 8.54995C15.7001 12.8 10.1501 19.9 8.5001 21.95C6.8501 19.9 1.3001 12.75 1.3001 8.54995Z" fill="#1D1B1B"/>
<path fill-rule="evenodd" clip-rule="evenodd" d="M5.30005 8.60002C5.30005 10.35 6.75005 11.8 8.50005 11.8C10.25 11.8 11.7 10.35 11.7 8.60002C11.7 6.85002 10.25 5.40002 8.50005 5.40002C6.75005 5.40002 5.30005 6.85002 5.30005 8.60002ZM6.50005 8.60002C6.50005 7.50002 7.40005 6.60002 8.50005 6.60002C9.60005 6.60002 10.5 7.50002 10.5 8.60002C10.5 9.70002 9.60005 10.6 8.50005 10.6C7.40005 10.6 6.50005 9.70002 6.50005 8.60002Z" fill="#1D1B1B"/>
</svg>
