<svg width="36" height="52" viewBox="0 0 36 52" fill="none" xmlns="http://www.w3.org/2000/svg">
<path fill-rule="evenodd" clip-rule="evenodd" d="M17.7296 32.9677C26.4169 32.9677 33.4593 26.0354 33.4593 17.4839C33.4593 8.93236 26.4169 2 17.7296 2C9.0424 2 2 8.93236 2 17.4839C2 26.0354 9.0424 32.9677 17.7296 32.9677Z" stroke="#1A7EF7" stroke-width="4" stroke-linejoin="round"/>
<path d="M17.7296 32.9678V50" stroke="#1A7EF7" stroke-width="4" stroke-linecap="round" stroke-linejoin="round"/>
<path d="M9.86475 42.2581H25.5944" stroke="#1A7EF7" stroke-width="4" stroke-linecap="round" stroke-linejoin="round"/>
<path d="M11.6509 13.3724C12.773 13.3724 13.6826 12.4816 13.6826 11.3826C13.6826 10.2837 12.773 9.39282 11.6509 9.39282C10.5288 9.39282 9.61914 10.2837 9.61914 11.3826C9.61914 12.4816 10.5288 13.3724 11.6509 13.3724Z" fill="#A6C7FF"/>
</svg>
