<svg width="28" height="24" viewBox="0 0 28 24" fill="none" xmlns="http://www.w3.org/2000/svg">
<path fill-rule="evenodd" clip-rule="evenodd" d="M23.7532 11.1055C26.4036 6.70976 27.7288 4.49604 27.7288 4.46438C27.7288 4.42216 27.7082 4.3905 27.6668 4.36939L19.2815 0.0949868C19.1575 0.0316623 19.0232 0 18.8785 0C18.5169 0 18.2482 0.147757 18.0726 0.443272L13.0507 8.78628L19.0955 18.8232C19.5502 18.0739 21.1027 15.5013 23.7532 11.1055ZM9.25328 23.0501V4.48021C9.25328 4.4591 9.23778 4.43272 9.20678 4.40106L1.28647 0.348285C0.976477 0.189974 0.749149 0.110818 0.604486 0.110818C0.408157 0.110818 0.258327 0.184697 0.154996 0.332454C0.0516654 0.480211 0 0.659631 0 0.870712V18.9182C0 19.1609 0.0749149 19.4063 0.224745 19.6544C0.374574 19.9024 0.557987 20.0792 0.774981 20.1847L7.98231 23.8734C8.14764 23.9578 8.31814 24 8.4938 24C8.74179 24 8.93037 23.9077 9.05953 23.723C9.1887 23.5383 9.25328 23.314 9.25328 23.0501ZM18.5221 19.7889L10.2453 6.07916V15.5778L18.5221 19.7889ZM27.7753 6.36412V23.0501C27.7753 23.314 27.703 23.5277 27.5583 23.6913C27.4137 23.8549 27.2174 23.9367 26.9694 23.9367C26.7214 23.9367 26.4785 23.8681 26.2409 23.7309L19.4055 20.248L27.7753 6.36412Z" fill="#BCE0F5"/>
</svg>
