<svg width="27" height="22" viewBox="0 0 27 22" fill="none" xmlns="http://www.w3.org/2000/svg">
<path d="M26.254 0.405593C25.1836 1.04249 23.9986 1.50467 22.7364 1.75411C21.7264 0.674825 20.2865 0 18.6932 0C15.6344 0 13.1544 2.48665 13.1544 5.55414C13.1544 5.98886 13.2032 6.4125 13.298 6.81975C8.69406 6.58783 4.61199 4.37712 1.87982 1.01668C1.40304 1.83659 1.13008 2.79059 1.13008 3.80936C1.13008 5.73601 2.10782 7.43624 3.59425 8.432C2.6866 8.40288 1.83217 8.15283 1.08513 7.73686C1.08461 7.75997 1.08461 7.78359 1.08461 7.80722C1.08461 10.4977 2.99408 12.742 5.52842 13.2531C5.06364 13.3795 4.57425 13.4476 4.06886 13.4476C3.71155 13.4476 3.3646 13.413 3.02643 13.3476C3.73181 15.5539 5.7772 17.1603 8.20084 17.2047C6.30502 18.6945 3.91703 19.5826 1.32139 19.5826C0.874693 19.5826 0.433477 19.5562 0 19.5045C2.45208 21.0811 5.36346 22 8.49136 22C18.6807 22 24.2519 13.5372 24.2519 6.19767C24.2519 5.95695 24.247 5.71683 24.2366 5.47838C25.3185 4.69692 26.2579 3.71825 27 2.60435C26.0074 3.04674 24.9392 3.34509 23.8184 3.47866C24.9628 2.79163 25.8403 1.70363 26.254 0.405593Z" fill="#BCE0F5"/>
</svg>
