<svg width="12" height="10" viewBox="0 0 12 10" fill="none" xmlns="http://www.w3.org/2000/svg">
<path d="M1.03609 0.776294L3.40961 2.95132L5.52426 0.239684C5.58348 0.163877 5.65835 0.102959 5.7433 0.0614664C5.82826 0.0199741 5.92111 -0.00102313 6.01494 3.83299e-05C6.10876 0.00109979 6.20115 0.0241928 6.28522 0.0675972C6.36929 0.111002 6.44288 0.173599 6.5005 0.250728L8.51846 2.95067L10.9687 0.744461C11.0649 0.657999 11.1842 0.604208 11.3106 0.590288C11.437 0.576367 11.5644 0.60298 11.6759 0.666567C11.7874 0.730153 11.8775 0.827678 11.9343 0.946088C11.9911 1.0645 12.0118 1.19815 11.9936 1.32914L11.0579 8.05105H0.956864L0.00682991 1.35968C-0.0120415 1.22795 0.00841739 1.09337 0.0654354 0.974156C0.122453 0.854944 0.213275 0.756862 0.3256 0.693196C0.437925 0.62953 0.566324 0.603357 0.693408 0.61822C0.820492 0.633084 0.940118 0.688266 1.03609 0.776294ZM1.00552 8.7007H10.9862V9.35035C10.9862 9.52265 10.9205 9.68789 10.8035 9.80972C10.6865 9.93156 10.5278 10 10.3624 10H1.62931C1.46387 10 1.30521 9.93156 1.18822 9.80972C1.07124 9.68789 1.00552 9.52265 1.00552 9.35035V8.7007Z" fill="url(#paint0_linear)"/>
<defs>
<linearGradient id="paint0_linear" x1="1.44512e-07" y1="1.5" x2="11" y2="8.5" gradientUnits="userSpaceOnUse">
<stop stop-color="#FF624D"/>
<stop offset="1" stop-color="#FB9E14"/>
</linearGradient>
</defs>
</svg>
