<svg width="27" height="21" viewBox="0 0 27 21" fill="none" xmlns="http://www.w3.org/2000/svg">
<path d="M24.9011 20.2424H24.4702V9.0051C25.4432 8.379 26.0896 7.28725 26.0896 6.04667C26.0896 5.98076 26.0724 5.91596 26.0397 5.85874L23.034 0.598828C22.8229 0.229491 22.4275 0 22.0021 0H4.3189C3.89351 0 3.49811 0.22944 3.287 0.598828L0.281343 5.85874C0.248667 5.91596 0.231445 5.98081 0.231445 6.04667C0.231445 7.28725 0.877798 8.379 1.85081 9.0051V20.2424H1.41991C1.21072 20.2424 1.04113 20.412 1.04113 20.6212C1.04113 20.8304 1.21072 21 1.41991 21H24.9011C25.1104 21 25.2799 20.8304 25.2799 20.6212C25.2799 20.412 25.1103 20.2424 24.9011 20.2424ZM1.01512 6.42545H2.22944C2.43863 6.42545 2.60822 6.25585 2.60822 6.04667C2.60822 5.83748 2.43863 5.66788 2.22944 5.66788H1.26294L3.94477 0.97468C4.02133 0.840743 4.16466 0.757563 4.3189 0.757563H22.0021C22.1564 0.757563 22.2998 0.840743 22.3763 0.97468L25.0581 5.66788H24.0914C23.8821 5.66788 23.7126 5.83748 23.7126 6.04667C23.7126 6.25585 23.8821 6.42545 24.0914 6.42545H25.3059C25.1207 7.76805 23.9659 8.80546 22.5732 8.80546C21.1805 8.80546 20.0263 7.76795 19.8411 6.42545H22.4721C22.6814 6.42545 22.8509 6.25585 22.8509 6.04667C22.8509 5.83748 22.6814 5.66788 22.4721 5.66788H3.84911C3.63992 5.66788 3.47033 5.83748 3.47033 6.04667C3.47033 6.25585 3.63992 6.42545 3.84911 6.42545H6.47993C6.29468 7.76795 5.1404 8.80546 3.7478 8.80546C2.3551 8.80546 1.20032 7.76805 1.01512 6.42545ZM19.0302 6.42545C18.845 7.76795 17.6907 8.80546 16.2981 8.80546C14.9054 8.80546 13.7512 7.76795 13.566 6.42545H19.0302ZM12.7551 6.42545C12.5698 7.76795 11.4156 8.80546 10.0229 8.80546C8.63035 8.80546 7.47607 7.76795 7.29082 6.42545H12.7551ZM21.6884 20.2425H17.5878V18.9758H21.6884V20.2425ZM21.6884 18.2182H17.5878V11.2836H21.6884V18.2182ZM23.7127 20.2425H22.446V10.9049C22.446 10.6957 22.2764 10.5261 22.0672 10.5261H17.209C16.9998 10.5261 16.8303 10.6957 16.8303 10.9049V20.2424H2.60838V9.37247C2.966 9.49535 3.34902 9.56302 3.7478 9.56302C5.11621 9.56302 6.30453 8.77738 6.88537 7.63341C7.46622 8.77733 8.65454 9.56302 10.0229 9.56302C11.3914 9.56302 12.5797 8.77738 13.1605 7.63341C13.7414 8.77733 14.9297 9.56302 16.2981 9.56302C17.6665 9.56302 18.8548 8.77738 19.4357 7.63341C20.0165 8.77733 21.2048 9.56302 22.5732 9.56302C22.972 9.56302 23.355 9.49535 23.7127 9.37252V20.2425Z" fill="#1678FF"/>
<path d="M15.1847 10.5261H4.25378C4.04459 10.5261 3.875 10.6957 3.875 10.9049V18.597C3.875 18.8062 4.04459 18.9758 4.25378 18.9758H15.1847C15.3939 18.9758 15.5635 18.8062 15.5635 18.597V10.9049C15.5635 10.6956 15.3939 10.5261 15.1847 10.5261ZM14.8059 18.2182H4.63256V11.2837H14.8059V18.2182Z" fill="#1678FF"/>
</svg>
