<svg width="27" height="27" viewBox="0 0 27 27" fill="none" xmlns="http://www.w3.org/2000/svg">
<path d="M0.250977 13.1894V13.8991C0.433945 20.6855 5.90081 26.1358 12.4045 26.6459H14.406C20.9485 26.1302 26.3211 20.6301 26.4986 13.888V13.1894C26.3211 6.32532 20.76 0.758652 14.0623 0.414894C6.85446 0.0489575 0.450578 5.83186 0.250977 13.1894Z" fill="url(#paint0_radial)"/>
<path d="M13.4357 6.99071C15.526 6.99071 15.7755 6.99625 16.6016 7.03507C17.3668 7.06833 17.7771 7.2014 18.0543 7.30675C18.4202 7.4509 18.6808 7.62278 18.9525 7.9C19.2242 8.17723 19.3961 8.44336 19.5402 8.81485C19.6456 9.09761 19.7731 9.51899 19.8119 10.2952C19.8507 11.138 19.8563 11.3875 19.8563 13.5166C19.8563 15.6457 19.8507 15.8952 19.8119 16.7379C19.7786 17.5141 19.6511 17.9355 19.5402 18.2183C19.3961 18.5898 19.2297 18.8559 18.9525 19.1331C18.6808 19.4104 18.4202 19.5822 18.0543 19.7264C17.7771 19.8373 17.3612 19.9648 16.6016 19.9981C15.7755 20.0369 15.526 20.0424 13.4357 20.0424C11.3455 20.0424 11.096 20.0369 10.2698 19.9981C9.50471 19.9648 9.09441 19.8317 8.81719 19.7264C8.45125 19.5822 8.19066 19.4104 7.91898 19.1331C7.6473 18.8559 7.47543 18.5898 7.33127 18.2183C7.22592 17.9355 7.0984 17.5141 7.05959 16.7379C7.02078 15.8952 7.01523 15.6457 7.01523 13.5166C7.01523 11.3875 7.02078 11.138 7.05959 10.2952C7.09286 9.51899 7.22038 9.09761 7.33127 8.81485C7.47543 8.44336 7.64176 8.17723 7.91898 7.9C8.19066 7.62278 8.45125 7.4509 8.81719 7.30675C9.09441 7.19586 9.51025 7.06833 10.2698 7.03507C11.096 7.0018 11.3455 6.99071 13.4357 6.99071ZM13.4357 5.55469C11.3067 5.55469 11.0405 5.56578 10.2089 5.60459C9.37718 5.6434 8.8061 5.77647 8.3071 5.97607C7.79146 6.18121 7.35345 6.45289 6.92098 6.89645C6.48296 7.34001 6.21683 7.78357 6.01723 8.3103C5.82317 8.81485 5.6901 9.39702 5.65129 10.2453C5.61248 11.0936 5.60693 11.3653 5.60693 13.5277C5.60693 15.69 5.61802 15.9617 5.65129 16.81C5.6901 17.6583 5.82317 18.2349 6.01723 18.745C6.21683 19.2662 6.48296 19.7153 6.92098 20.1589C7.35899 20.6024 7.79146 20.8741 8.3071 21.0792C8.8061 21.2789 9.37718 21.4119 10.2089 21.4507C11.0461 21.4895 11.3122 21.5006 13.4357 21.5006C15.5593 21.5006 15.831 21.4895 16.6626 21.4507C17.4943 21.4119 18.0654 21.2789 18.5644 21.0792C19.08 20.8741 19.518 20.6024 19.9505 20.1589C20.3885 19.7153 20.6547 19.2717 20.8543 18.745C21.0483 18.2405 21.1814 17.6583 21.2202 16.81C21.259 15.9617 21.2646 15.69 21.2646 13.5277C21.2646 11.3653 21.2535 11.0936 21.2202 10.2453C21.1814 9.39702 21.0483 8.82039 20.8543 8.3103C20.6547 7.78912 20.3885 7.34001 19.9505 6.89645C19.5125 6.45289 19.08 6.18121 18.5644 5.97607C18.0654 5.77647 17.4943 5.6434 16.6626 5.60459C15.831 5.56578 15.5593 5.55469 13.4357 5.55469Z" fill="white"/>
<path d="M13.4357 9.43033C11.2124 9.43033 9.41599 11.26 9.41599 13.5222C9.41599 15.7843 11.2179 17.614 13.4357 17.614C15.6535 17.614 17.4555 15.7843 17.4555 13.5222C17.4555 11.26 15.6535 9.43033 13.4357 9.43033ZM13.4357 16.178C11.9942 16.178 10.8243 14.9915 10.8243 13.5222C10.8243 12.0529 11.9942 10.8664 13.4357 10.8664C14.8773 10.8664 16.0472 12.0529 16.0472 13.5222C16.0472 14.9915 14.8773 16.178 13.4357 16.178Z" fill="white"/>
<path d="M17.6163 10.2231C18.1338 10.2231 18.5533 9.79615 18.5533 9.26947C18.5533 8.74278 18.1338 8.31581 17.6163 8.31581C17.0988 8.31581 16.6793 8.74278 16.6793 9.26947C16.6793 9.79615 17.0988 10.2231 17.6163 10.2231Z" fill="white"/>
<defs>
<radialGradient id="paint0_radial" cx="0" cy="0" r="1" gradientUnits="userSpaceOnUse" gradientTransform="translate(0.730367 24.2387) rotate(-86.9999) scale(37.9478 32.2553)">
<stop stop-color="#FED576"/>
<stop offset="0.2634" stop-color="#F47133"/>
<stop offset="0.6091" stop-color="#BC3081"/>
<stop offset="1" stop-color="#4C63D2"/>
</radialGradient>
</defs>
</svg>
