<svg width="185" height="56" viewBox="0 0 185 56" fill="none" xmlns="http://www.w3.org/2000/svg">
<g filter="url(#filter0_d)">
<path d="M33.373 23.0322C33.373 26.5316 32.7546 29.5996 31.5176 32.2363C30.2806 34.873 28.5065 36.9076 26.1953 38.3398C23.9004 39.7721 21.2637 40.4883 18.2852 40.4883C15.3392 40.4883 12.7106 39.7803 10.3994 38.3643C8.08822 36.9482 6.29785 34.93 5.02832 32.3096C3.75879 29.6729 3.11589 26.6455 3.09961 23.2275V21.4697C3.09961 17.9704 3.72624 14.8942 4.97949 12.2412C6.24902 9.57194 8.03125 7.5293 10.3262 6.11328C12.6374 4.68099 15.2741 3.96484 18.2363 3.96484C21.1986 3.96484 23.8271 4.68099 26.1221 6.11328C28.4333 7.5293 30.2155 9.57194 31.4688 12.2412C32.7383 14.8942 33.373 17.9622 33.373 21.4453V23.0322ZM25.9512 21.4209C25.9512 17.6937 25.2839 14.8617 23.9492 12.9248C22.6146 10.988 20.7103 10.0195 18.2363 10.0195C15.7786 10.0195 13.8825 10.9798 12.5479 12.9004C11.2132 14.8047 10.5378 17.6042 10.5215 21.2988V23.0322C10.5215 26.6618 11.1888 29.4775 12.5234 31.4795C13.8581 33.4814 15.7786 34.4824 18.2852 34.4824C20.7428 34.4824 22.6309 33.5221 23.9492 31.6016C25.2676 29.6647 25.9349 26.849 25.9512 23.1543V21.4209ZM62.0107 27.0361C62.0107 31.1051 61.083 34.3685 59.2275 36.8262C57.3883 39.2676 54.8981 40.4883 51.7568 40.4883C49.0876 40.4883 46.931 39.5605 45.2871 37.7051V50.1562H38.2314V13.584H44.7744L45.0186 16.1719C46.7275 14.1211 48.9574 13.0957 51.708 13.0957C54.9632 13.0957 57.4941 14.3001 59.3008 16.709C61.1074 19.1178 62.0107 22.4382 62.0107 26.6699V27.0361ZM54.9551 26.5234C54.9551 24.0658 54.5156 22.1696 53.6367 20.835C52.7741 19.5003 51.5127 18.833 49.8525 18.833C47.639 18.833 46.1172 19.6794 45.2871 21.3721V32.1875C46.1497 33.929 47.6878 34.7998 49.9014 34.7998C53.2705 34.7998 54.9551 32.041 54.9551 26.5234ZM74.8525 7.08984V13.584H79.3691V18.7598H74.8525V31.9434C74.8525 32.9199 75.0397 33.6198 75.4141 34.043C75.7884 34.4661 76.5046 34.6777 77.5625 34.6777C78.3438 34.6777 79.0355 34.6208 79.6377 34.5068V39.8535C78.2542 40.2767 76.8301 40.4883 75.3652 40.4883C70.4173 40.4883 67.8945 37.9899 67.7969 32.9932V18.7598H63.9395V13.584H67.7969V7.08984H74.8525ZM94.8965 25.7422L91.0879 29.8438V40H83.7637V4.45312H91.0879V20.5664L94.3105 16.1475L103.368 4.45312H112.377L99.7549 20.249L112.743 40H104.027L94.8965 25.7422ZM122.484 40H115.404V13.584H122.484V40ZM114.989 6.74805C114.989 5.6901 115.339 4.81934 116.039 4.13574C116.755 3.45215 117.724 3.11035 118.944 3.11035C120.149 3.11035 121.109 3.45215 121.825 4.13574C122.541 4.81934 122.899 5.6901 122.899 6.74805C122.899 7.82227 122.533 8.70117 121.801 9.38477C121.085 10.0684 120.132 10.4102 118.944 10.4102C117.756 10.4102 116.796 10.0684 116.063 9.38477C115.347 8.70117 114.989 7.82227 114.989 6.74805ZM136.767 7.08984V13.584H141.283V18.7598H136.767V31.9434C136.767 32.9199 136.954 33.6198 137.328 34.043C137.702 34.4661 138.419 34.6777 139.477 34.6777C140.258 34.6777 140.95 34.6208 141.552 34.5068V39.8535C140.168 40.2767 138.744 40.4883 137.279 40.4883C132.331 40.4883 129.809 37.9899 129.711 32.9932V18.7598H125.854V13.584H129.711V7.08984H136.767ZM160.521 40C160.196 39.3652 159.96 38.5758 159.813 37.6318C158.104 39.5361 155.883 40.4883 153.148 40.4883C150.561 40.4883 148.412 39.7396 146.703 38.2422C145.01 36.7448 144.164 34.8568 144.164 32.5781C144.164 29.7786 145.198 27.6302 147.265 26.1328C149.348 24.6354 152.351 23.8786 156.273 23.8623H159.521V22.3486C159.521 21.1279 159.203 20.1514 158.568 19.4189C157.95 18.6865 156.965 18.3203 155.614 18.3203C154.426 18.3203 153.49 18.6051 152.807 19.1748C152.139 19.7445 151.806 20.5257 151.806 21.5186H144.75C144.75 19.9886 145.222 18.5726 146.166 17.2705C147.11 15.9684 148.445 14.9512 150.17 14.2188C151.895 13.4701 153.832 13.0957 155.98 13.0957C159.236 13.0957 161.815 13.9176 163.72 15.5615C165.64 17.1891 166.601 19.484 166.601 22.4463V33.8965C166.617 36.403 166.967 38.2992 167.65 39.585V40H160.521ZM154.687 35.0928C155.728 35.0928 156.688 34.8649 157.567 34.4092C158.446 33.9372 159.097 33.3105 159.521 32.5293V27.9883H156.884C153.352 27.9883 151.472 29.209 151.244 31.6504L151.22 32.0654C151.22 32.9443 151.529 33.6686 152.147 34.2383C152.766 34.8079 153.612 35.0928 154.687 35.0928ZM179.467 40H172.387V13.584H179.467V40ZM171.972 6.74805C171.972 5.6901 172.322 4.81934 173.021 4.13574C173.738 3.45215 174.706 3.11035 175.927 3.11035C177.131 3.11035 178.091 3.45215 178.808 4.13574C179.524 4.81934 179.882 5.6901 179.882 6.74805C179.882 7.82227 179.516 8.70117 178.783 9.38477C178.067 10.0684 177.115 10.4102 175.927 10.4102C174.739 10.4102 173.778 10.0684 173.046 9.38477C172.33 8.70117 171.972 7.82227 171.972 6.74805Z" fill="#C4C4C4"/>
<path d="M33.373 23.0322C33.373 26.5316 32.7546 29.5996 31.5176 32.2363C30.2806 34.873 28.5065 36.9076 26.1953 38.3398C23.9004 39.7721 21.2637 40.4883 18.2852 40.4883C15.3392 40.4883 12.7106 39.7803 10.3994 38.3643C8.08822 36.9482 6.29785 34.93 5.02832 32.3096C3.75879 29.6729 3.11589 26.6455 3.09961 23.2275V21.4697C3.09961 17.9704 3.72624 14.8942 4.97949 12.2412C6.24902 9.57194 8.03125 7.5293 10.3262 6.11328C12.6374 4.68099 15.2741 3.96484 18.2363 3.96484C21.1986 3.96484 23.8271 4.68099 26.1221 6.11328C28.4333 7.5293 30.2155 9.57194 31.4688 12.2412C32.7383 14.8942 33.373 17.9622 33.373 21.4453V23.0322ZM25.9512 21.4209C25.9512 17.6937 25.2839 14.8617 23.9492 12.9248C22.6146 10.988 20.7103 10.0195 18.2363 10.0195C15.7786 10.0195 13.8825 10.9798 12.5479 12.9004C11.2132 14.8047 10.5378 17.6042 10.5215 21.2988V23.0322C10.5215 26.6618 11.1888 29.4775 12.5234 31.4795C13.8581 33.4814 15.7786 34.4824 18.2852 34.4824C20.7428 34.4824 22.6309 33.5221 23.9492 31.6016C25.2676 29.6647 25.9349 26.849 25.9512 23.1543V21.4209ZM62.0107 27.0361C62.0107 31.1051 61.083 34.3685 59.2275 36.8262C57.3883 39.2676 54.8981 40.4883 51.7568 40.4883C49.0876 40.4883 46.931 39.5605 45.2871 37.7051V50.1562H38.2314V13.584H44.7744L45.0186 16.1719C46.7275 14.1211 48.9574 13.0957 51.708 13.0957C54.9632 13.0957 57.4941 14.3001 59.3008 16.709C61.1074 19.1178 62.0107 22.4382 62.0107 26.6699V27.0361ZM54.9551 26.5234C54.9551 24.0658 54.5156 22.1696 53.6367 20.835C52.7741 19.5003 51.5127 18.833 49.8525 18.833C47.639 18.833 46.1172 19.6794 45.2871 21.3721V32.1875C46.1497 33.929 47.6878 34.7998 49.9014 34.7998C53.2705 34.7998 54.9551 32.041 54.9551 26.5234ZM74.8525 7.08984V13.584H79.3691V18.7598H74.8525V31.9434C74.8525 32.9199 75.0397 33.6198 75.4141 34.043C75.7884 34.4661 76.5046 34.6777 77.5625 34.6777C78.3438 34.6777 79.0355 34.6208 79.6377 34.5068V39.8535C78.2542 40.2767 76.8301 40.4883 75.3652 40.4883C70.4173 40.4883 67.8945 37.9899 67.7969 32.9932V18.7598H63.9395V13.584H67.7969V7.08984H74.8525ZM94.8965 25.7422L91.0879 29.8438V40H83.7637V4.45312H91.0879V20.5664L94.3105 16.1475L103.368 4.45312H112.377L99.7549 20.249L112.743 40H104.027L94.8965 25.7422ZM122.484 40H115.404V13.584H122.484V40ZM114.989 6.74805C114.989 5.6901 115.339 4.81934 116.039 4.13574C116.755 3.45215 117.724 3.11035 118.944 3.11035C120.149 3.11035 121.109 3.45215 121.825 4.13574C122.541 4.81934 122.899 5.6901 122.899 6.74805C122.899 7.82227 122.533 8.70117 121.801 9.38477C121.085 10.0684 120.132 10.4102 118.944 10.4102C117.756 10.4102 116.796 10.0684 116.063 9.38477C115.347 8.70117 114.989 7.82227 114.989 6.74805ZM136.767 7.08984V13.584H141.283V18.7598H136.767V31.9434C136.767 32.9199 136.954 33.6198 137.328 34.043C137.702 34.4661 138.419 34.6777 139.477 34.6777C140.258 34.6777 140.95 34.6208 141.552 34.5068V39.8535C140.168 40.2767 138.744 40.4883 137.279 40.4883C132.331 40.4883 129.809 37.9899 129.711 32.9932V18.7598H125.854V13.584H129.711V7.08984H136.767ZM160.521 40C160.196 39.3652 159.96 38.5758 159.813 37.6318C158.104 39.5361 155.883 40.4883 153.148 40.4883C150.561 40.4883 148.412 39.7396 146.703 38.2422C145.01 36.7448 144.164 34.8568 144.164 32.5781C144.164 29.7786 145.198 27.6302 147.265 26.1328C149.348 24.6354 152.351 23.8786 156.273 23.8623H159.521V22.3486C159.521 21.1279 159.203 20.1514 158.568 19.4189C157.95 18.6865 156.965 18.3203 155.614 18.3203C154.426 18.3203 153.49 18.6051 152.807 19.1748C152.139 19.7445 151.806 20.5257 151.806 21.5186H144.75C144.75 19.9886 145.222 18.5726 146.166 17.2705C147.11 15.9684 148.445 14.9512 150.17 14.2188C151.895 13.4701 153.832 13.0957 155.98 13.0957C159.236 13.0957 161.815 13.9176 163.72 15.5615C165.64 17.1891 166.601 19.484 166.601 22.4463V33.8965C166.617 36.403 166.967 38.2992 167.65 39.585V40H160.521ZM154.687 35.0928C155.728 35.0928 156.688 34.8649 157.567 34.4092C158.446 33.9372 159.097 33.3105 159.521 32.5293V27.9883H156.884C153.352 27.9883 151.472 29.209 151.244 31.6504L151.22 32.0654C151.22 32.9443 151.529 33.6686 152.147 34.2383C152.766 34.8079 153.612 35.0928 154.687 35.0928ZM179.467 40H172.387V13.584H179.467V40ZM171.972 6.74805C171.972 5.6901 172.322 4.81934 173.021 4.13574C173.738 3.45215 174.706 3.11035 175.927 3.11035C177.131 3.11035 178.091 3.45215 178.808 4.13574C179.524 4.81934 179.882 5.6901 179.882 6.74805C179.882 7.82227 179.516 8.70117 178.783 9.38477C178.067 10.0684 177.115 10.4102 175.927 10.4102C174.739 10.4102 173.778 10.0684 173.046 9.38477C172.33 8.70117 171.972 7.82227 171.972 6.74805Z" fill="url(#paint0_linear)"/>
</g>
<defs>
<filter id="filter0_d" x="0.0996094" y="0.110352" width="184.782" height="55.0459" filterUnits="userSpaceOnUse" color-interpolation-filters="sRGB">
<feFlood flood-opacity="0" result="BackgroundImageFix"/>
<feColorMatrix in="SourceAlpha" type="matrix" values="0 0 0 0 0 0 0 0 0 0 0 0 0 0 0 0 0 0 127 0"/>
<feOffset dx="1" dy="1"/>
<feGaussianBlur stdDeviation="2"/>
<feColorMatrix type="matrix" values="0 0 0 0 0 0 0 0 0 0 0 0 0 0 0 0 0 0 0.1 0"/>
<feBlend mode="normal" in2="BackgroundImageFix" result="effect1_dropShadow"/>
<feBlend mode="normal" in="SourceGraphic" in2="effect1_dropShadow" result="shape"/>
</filter>
<linearGradient id="paint0_linear" x1="113.764" y1="-148.307" x2="274.04" y2="-68.8847" gradientUnits="userSpaceOnUse">
<stop stop-color="#3C8DFB"/>
<stop offset="1" stop-color="#54BDFD"/>
</linearGradient>
</defs>
</svg>
