<svg width="44" height="27" viewBox="0 0 44 27" fill="none" xmlns="http://www.w3.org/2000/svg">
<path d="M22.1481 23.3589C24.7752 21.0083 26.4345 17.5516 26.4345 13.68C26.4345 9.80847 24.7752 6.42086 22.1481 4.00114C19.8667 1.92709 16.7556 0.613525 13.4371 0.613525C6.24707 0.613525 0.370605 6.48999 0.370605 13.68C0.370605 20.8701 6.24707 26.6774 13.4371 26.6774C16.7556 26.7465 19.8667 25.433 22.1481 23.3589Z" fill="#07A9E2"/>
<path d="M0.370605 13.68C0.370605 20.8701 6.24707 26.6774 13.4371 26.6774C16.8247 26.6774 19.8667 25.433 22.1481 23.2898C24.7752 20.9392 26.4345 17.4824 26.4345 13.6109C26.4345 9.73933 24.7752 6.42086 22.1481 4.00114C19.8667 1.92709 16.7556 0.613525 13.4371 0.613525" fill="#009DDD"/>
<path d="M22.1482 4.00089C19.8667 1.92684 16.7557 0.613281 13.4372 0.613281C13.2298 0.613281 13.0224 0.613281 12.815 0.613281C8.73601 3.58608 6.10889 8.35639 6.10889 13.6798C6.10889 19.0032 8.73601 23.7735 12.7458 26.6771C12.9532 26.6771 13.1606 26.6771 13.3681 26.6771C16.7557 26.6771 19.7976 25.4327 22.0791 23.2895C24.7062 20.9389 26.3654 17.4822 26.3654 13.6106C26.3654 9.73909 24.7753 6.42061 22.1482 4.00089Z" fill="#0284CC"/>
<path d="M30.9281 0.613281C27.5405 0.613281 24.4986 1.85771 22.148 4.00089C21.6641 4.4157 21.2493 4.89965 20.8344 5.38359H23.4616C23.8072 5.7984 24.1529 6.28234 24.4295 6.76629H19.7974C19.5209 7.25023 19.2443 7.66504 19.0369 8.14899H25.1899C25.3974 8.63293 25.6048 9.04774 25.743 9.53168H18.553C18.4147 10.0156 18.2765 10.4304 18.1382 10.9144H26.1578C26.3652 11.8131 26.4344 12.7119 26.4344 13.6798C26.4344 15.1316 26.227 16.5143 25.743 17.8279H18.553C18.6913 18.3118 18.8987 18.7266 19.1061 19.2106H25.2591C25.0517 19.6945 24.7751 20.1785 24.4986 20.5933H19.8666C20.1431 21.0772 20.4888 21.5612 20.8344 21.976H23.4616C23.0468 22.4599 22.632 22.9439 22.148 23.3587C24.4986 25.4327 27.5405 26.7463 30.9281 26.7463C38.1182 26.7463 43.9255 20.9389 43.9255 13.7489C43.9255 6.48975 38.1182 0.613281 30.9281 0.613281Z" fill="#FF2957"/>
<path d="M30.9281 0.613281C27.5405 0.613281 24.4986 1.85771 22.148 4.00089C21.6641 4.4157 21.2493 4.89965 20.8344 5.38359H23.4616C23.8072 5.7984 24.1529 6.28234 24.4295 6.76629H19.7974C19.5209 7.25023 19.2443 7.66504 19.0369 8.14899H25.1899C25.3974 8.63293 25.6048 9.04774 25.743 9.53168H18.553C18.4147 10.0156 18.2765 10.4304 18.1382 10.9144H26.1578C26.3652 11.8131 26.4344 12.7119 26.4344 13.6798C26.4344 15.1316 26.227 16.5143 25.743 17.8279H18.553C18.6913 18.3118 18.8987 18.7266 19.1061 19.2106H25.2591C25.0517 19.6945 24.7751 20.1785 24.4986 20.5933H19.8666C20.1431 21.0772 20.4888 21.5612 20.8344 21.976H23.4616C23.0468 22.4599 22.632 22.9439 22.148 23.3587C24.4986 25.4327 27.5405 26.7463 30.9281 26.7463C38.1182 26.7463 43.9255 20.9389 43.9255 13.7489" fill="#ED1C2E"/>
<path d="M22.1479 23.3588C24.7751 21.0082 26.4343 17.5514 26.4343 13.6799C26.4343 9.80831 24.7751 6.4207 22.1479 4.00098V23.3588Z" fill="#0466B5"/>
<path d="M39.4316 16.5142C39.4316 16.3068 39.639 16.0994 39.8464 16.0994C40.0539 16.0994 40.2613 16.3068 40.2613 16.5142C40.2613 16.7216 40.0539 16.929 39.8464 16.929C39.639 16.929 39.4316 16.7216 39.4316 16.5142ZM39.8464 16.8598C40.0539 16.8598 40.123 16.7216 40.123 16.5142C40.123 16.3068 39.9847 16.2376 39.8464 16.2376C39.639 16.2376 39.5008 16.3759 39.5008 16.5142C39.5008 16.6524 39.7082 16.8598 39.8464 16.8598ZM39.8464 16.6524H39.7773V16.3068H39.9156C39.9847 16.3068 39.9847 16.3068 39.9847 16.3068L40.0539 16.3759C40.0539 16.445 40.0539 16.445 39.9847 16.445L40.0539 16.5833H39.9847L39.9156 16.445H39.8464V16.6524ZM39.8464 16.445C39.9156 16.445 39.9156 16.445 39.9156 16.445C39.9156 16.445 39.9156 16.445 39.9156 16.3759H39.8464V16.445Z" fill="white"/>
<path d="M22.148 4.00099C21.6641 4.4158 21.2493 4.89975 20.8344 5.38369H23.4616C23.8072 5.7985 24.1529 6.28244 24.4295 6.76639H19.7974C19.5209 7.25033 19.2443 7.66514 19.0369 8.14909H25.1899C25.3974 8.63303 25.6048 9.04784 25.743 9.53179H18.553C18.4147 10.0157 18.2765 10.4305 18.1382 10.9145H26.1578C26.3652 11.8132 26.4344 12.712 26.4344 13.6799C26.4344 15.1317 26.227 16.5144 25.743 17.828H18.553C18.6913 18.3119 18.8987 18.7267 19.1061 19.2107H25.2591C25.0517 19.6946 24.7751 20.1786 24.4986 20.5934H19.8666C20.1431 21.0773 20.4888 21.5613 20.8344 21.9761H23.4616C23.0468 22.46 22.632 22.944 22.148 23.3588C24.4986 25.4328 27.5405 26.7464 30.9281 26.7464C31.1355 26.7464 31.343 26.7464 31.5504 26.7464C35.5602 23.8427 38.1873 19.0724 38.1873 13.749C38.1873 8.42563 35.5602 3.65532 31.5504 0.751652C31.343 0.751652 31.1355 0.751652 30.9281 0.751652C27.5405 0.613382 24.4986 1.92695 22.148 4.00099Z" fill="#D1094B"/>
<path d="M11.7778 16.9292H10.1186L11.0865 11.8823L8.87417 16.9292H7.42234L7.1458 11.8823L6.17791 16.9292H4.72607L5.9705 10.2922H8.52849L8.66676 14.4403L10.4643 10.2922H13.0914L11.7778 16.9292Z" fill="white"/>
<path d="M10.1878 14.0255L11.1557 11.8823L10.3952 15.8921C10.4643 16.2378 10.5335 16.6526 10.6717 16.9983H11.7779L13.0223 10.3613H10.6026C10.3261 11.3984 10.1187 12.5736 10.1187 13.7489C10.1878 13.8181 10.1878 13.8872 10.1878 14.0255Z" fill="#DCE5E5"/>
<path d="M29.8914 16.86C29.4075 16.9983 29.1309 17.0674 28.7161 17.0674C27.8865 17.0674 27.4717 16.6526 27.4717 15.8921C27.4717 15.7539 27.4717 15.6156 27.5408 15.4082L27.61 14.8551L27.6791 14.4403L28.4396 10.3613H30.0297L29.8223 11.6058H30.6519L30.4445 12.8502H29.6149L29.2001 15.0625C29.2001 15.1316 29.1309 15.2699 29.1309 15.2699C29.1309 15.5464 29.3383 15.6847 29.684 15.6847C29.8914 15.6847 30.0297 15.6847 30.0988 15.6156L29.8914 16.86Z" fill="#DCE5E5"/>
<path d="M34.6616 11.6058C34.5233 11.5367 34.5233 11.5367 34.4542 11.5367C34.385 11.5367 34.3159 11.5367 34.3159 11.4675C34.2468 11.4675 34.2468 11.4675 34.1085 11.4675C33.5554 11.4675 33.2097 11.6749 32.7258 12.3663L32.8641 11.5367H31.4122L30.4443 16.9292H32.1036C32.6567 13.6107 32.9332 13.0576 33.6937 13.0576C33.7628 13.0576 33.8319 13.0576 33.9011 13.0576L34.1085 13.1268L34.6616 11.6058Z" fill="#DCE5E5"/>
<path d="M23.4616 13.265C23.4616 13.9564 23.8764 14.4403 24.706 14.7169C25.3973 14.9934 25.4665 15.0625 25.4665 15.3391C25.4665 15.6848 25.1899 15.823 24.4986 15.823C24.0147 15.823 23.5307 15.7539 23.0468 15.6156L22.8394 16.8601H22.9085L23.185 16.9292C23.2542 16.9292 23.4616 16.9292 23.5998 16.9292C24.0146 16.9983 24.2912 16.9983 24.4986 16.9983C26.227 16.9983 27.0566 16.4452 27.0566 15.2008C27.0566 14.4403 26.7109 14.0255 25.8813 13.6798C25.1899 13.4033 25.1208 13.3342 25.1208 13.1268C25.1208 12.8502 25.3973 12.712 25.9504 12.712C26.227 12.712 26.7109 12.712 27.1257 12.7811L27.3331 11.5367C26.9183 11.4675 26.2961 11.4675 25.8813 11.4675C24.0838 11.4675 23.4616 12.2971 23.4616 13.265Z" fill="#DCE5E5"/>
<path d="M17.0323 16.9292H15.7188V16.3762C15.304 16.791 14.7509 16.9984 13.9904 16.9984C13.0917 16.9984 12.5386 16.3762 12.5386 15.5465C12.5386 14.233 13.5756 13.4725 15.3731 13.4725C15.5805 13.4725 15.7879 13.4725 16.0645 13.4725C16.1336 13.2651 16.1336 13.1959 16.1336 13.1268C16.1336 12.7811 15.857 12.6429 15.0966 12.6429C14.6126 12.6429 14.1287 12.712 13.783 12.7811L13.5756 12.8503H13.4373L13.6447 11.675C14.4744 11.4676 14.9583 11.3984 15.5805 11.3984C16.9632 11.3984 17.7237 11.9515 17.7237 12.9885C17.7237 13.2651 17.7237 13.4725 17.5854 14.0947L17.2397 16.0305L17.1706 16.3762L17.1015 16.6527V16.8601L17.0323 16.9292ZM15.857 14.5095C15.6496 14.5095 15.5805 14.5095 15.5114 14.5095C14.6126 14.5095 14.1287 14.786 14.1287 15.3391C14.1287 15.6848 14.3361 15.8922 14.6818 15.8922C15.3731 15.8922 15.857 15.3391 15.857 14.5095Z" fill="#DCE5E5"/>
<path d="M22.3553 16.791C21.8022 16.9292 21.2491 16.9984 20.6961 16.9984C18.8986 16.9984 17.9307 16.1687 17.9307 14.5786C17.9307 12.712 19.106 11.3984 20.7652 11.3984C22.0788 11.3984 22.9084 12.1589 22.9084 13.3342C22.9084 13.749 22.8392 14.0947 22.701 14.6478H19.4516C19.4516 14.7169 19.4516 14.786 19.4516 14.8552C19.4516 15.4774 19.9356 15.8231 20.8343 15.8231C21.4565 15.8231 21.9405 15.7539 22.4936 15.4774L22.3553 16.791ZM21.5257 13.6108C21.5257 13.5416 21.5257 13.4033 21.5257 13.3342C21.5257 12.9194 21.2491 12.6429 20.7652 12.6429C20.2813 12.6429 19.8664 12.9885 19.7282 13.6108H21.5257Z" fill="#DCE5E5"/>
<path d="M39.7084 14.5095C39.4319 16.307 38.1874 17.0675 36.5282 17.0675C34.7307 17.0675 33.9702 15.9613 33.9702 14.5786C33.9702 12.712 35.2146 11.3984 37.1504 11.3984C38.8097 11.3984 39.7084 12.5046 39.7084 13.8182C39.7084 14.1638 39.7084 14.1638 39.7084 14.5095ZM37.98 13.8182C37.98 13.2651 37.7726 12.7811 37.0813 12.7811C36.2517 12.7811 35.7677 13.749 35.7677 14.6478C35.7677 15.3391 36.1134 15.8231 36.6665 15.8231C37.0122 15.8231 37.7726 15.3391 37.9109 14.5095C37.98 14.233 37.98 14.0256 37.98 13.8182Z" fill="white"/>
<path d="M34.0392 15.201C34.1083 14.717 34.1774 14.164 34.1774 13.68C34.1774 13.6109 34.1774 13.5417 34.1774 13.5417C34.1083 13.8874 34.0392 14.2331 34.0392 14.6479C33.97 14.7862 33.97 14.9936 34.0392 15.201Z" fill="white"/>
</svg>
