<svg width="19" height="15" viewBox="0 0 19 15" fill="none" xmlns="http://www.w3.org/2000/svg">
<path d="M17.8125 14.0312H1.1875C0.532 14.0312 0 13.4993 0 12.8438V2.15625C0 1.50075 0.532 0.96875 1.1875 0.96875H17.8125C18.468 0.96875 19 1.50075 19 2.15625V12.8438C19 13.4993 18.468 14.0312 17.8125 14.0312Z" fill="#1E88E5"/>
<path d="M17.8125 14.0312H1.1875C0.521313 14.0312 0 13.5099 0 12.8438C0 12.6549 0.09025 12.4768 0.24225 12.3652L9.1485 6.42769C9.253 6.3505 9.3765 6.3125 9.5 6.3125C9.6235 6.3125 9.747 6.3505 9.8515 6.42769L18.7577 12.3652C18.9097 12.4768 19 12.6549 19 12.8438C19 13.5099 18.4787 14.0312 17.8125 14.0312Z" fill="#2196F3"/>
<path d="M17.8125 0.96875H1.1875C0.521313 0.96875 0 1.49006 0 2.15625C0 2.34506 0.09025 2.52319 0.24225 2.63481L9.15325 9.03187C9.35988 9.18031 9.63894 9.18031 9.84556 9.03187L18.7566 2.63481C18.9097 2.52319 19 2.34506 19 2.15625C19 1.49006 18.4787 0.96875 17.8125 0.96875Z" fill="#64B5F6"/>
</svg>
