<svg width="45" height="27" viewBox="0 0 45 27" fill="none" xmlns="http://www.w3.org/2000/svg">
<path d="M44.4885 13.0665C44.4885 20.2565 38.6811 26.133 31.422 26.133C24.2319 26.133 18.3555 20.2565 18.3555 13.0665C18.3555 5.87647 24.1628 0 31.3528 0C38.6811 0 44.4885 5.87647 44.4885 13.0665Z" fill="#FFB600"/>
<path d="M31.422 0C38.612 0 44.4885 5.87647 44.4885 13.0665C44.4885 20.2565 38.6811 26.133 31.422 26.133C24.2319 26.133 18.3555 20.2565 18.3555 13.0665" fill="#F7981D"/>
<path d="M31.4219 0C38.6119 0 44.4884 5.87647 44.4884 13.0665C44.4884 20.2565 38.681 26.133 31.4219 26.133" fill="#FF8500"/>
<path d="M13.8618 0C6.74093 0.0691349 0.933594 5.87647 0.933594 13.0665C0.933594 20.2565 6.74092 26.133 14.0001 26.133C17.3877 26.133 20.4296 24.8194 22.7802 22.7454C23.2642 22.3306 23.679 21.8466 24.0938 21.3627H21.3975C21.0518 20.9479 20.7062 20.4639 20.4296 20.0491H25.0617C25.3382 19.6343 25.6148 19.1504 25.8222 18.6664H19.6692C19.4617 18.2516 19.2543 17.7677 19.1161 17.2837H26.3061C26.7209 15.9702 26.9974 14.5875 26.9974 13.1356C26.9974 12.1677 26.8592 11.269 26.7209 10.3702H18.7013C18.7704 9.88629 18.9087 9.47148 19.0469 8.98754H26.237C26.0987 8.50359 25.8913 8.01965 25.6839 7.60484H19.6C19.8074 7.12089 20.084 6.70608 20.3605 6.22214H24.9925C24.716 5.7382 24.3703 5.25425 23.9555 4.83944H21.3975C21.8123 4.3555 22.2271 3.94069 22.7111 3.52588C20.4296 1.3827 17.3186 0.13827 13.931 0.13827C13.931 -1.33925e-07 13.931 0 13.8618 0Z" fill="#FF5050"/>
<path d="M0.933594 13.0664C0.933594 20.2564 6.74092 26.1329 14.0001 26.1329C17.3877 26.1329 20.4296 24.8193 22.7802 22.7453C23.2642 22.3305 23.679 21.8465 24.0938 21.3626H21.3975C21.0518 20.9478 20.7062 20.4638 20.4296 20.049H25.0617C25.3382 19.6342 25.6148 19.1503 25.8222 18.6663H19.6692C19.4617 18.2515 19.2543 17.7676 19.1161 17.2836H26.3061C26.7209 15.9701 26.9974 14.5874 26.9974 13.1355C26.9974 12.1677 26.8592 11.2689 26.7209 10.3701H18.7013C18.7704 9.8862 18.9087 9.47139 19.0469 8.98745H26.237C26.0987 8.50351 25.8913 8.01956 25.6839 7.60475H19.6C19.8074 7.12081 20.084 6.706 20.3605 6.22205H24.9925C24.716 5.73811 24.3703 5.25417 23.9555 4.83936H21.3975C21.8123 4.35541 22.2271 3.9406 22.7111 3.52579C20.4296 1.38261 17.3186 0.138184 13.931 0.138184H13.8618" fill="#E52836"/>
<path d="M14.0001 26.1329C17.3877 26.1329 20.4296 24.8193 22.7802 22.7453C23.2642 22.3305 23.679 21.8465 24.0938 21.3626H21.3975C21.0518 20.9478 20.7062 20.4638 20.4296 20.049H25.0617C25.3382 19.6342 25.6147 19.1503 25.8222 18.6663H19.6691C19.4617 18.2515 19.2543 17.7676 19.1161 17.2836H26.3061C26.7209 15.9701 26.9974 14.5874 26.9974 13.1355C26.9974 12.1677 26.8592 11.2689 26.7209 10.3701H18.7013C18.7704 9.8862 18.9087 9.47139 19.0469 8.98745H26.237C26.0987 8.50351 25.8913 8.01956 25.6839 7.60475H19.6C19.8074 7.12081 20.084 6.706 20.3605 6.22205H24.9925C24.716 5.73811 24.3703 5.25417 23.9555 4.83936H21.3975C21.8123 4.35541 22.2271 3.9406 22.7111 3.52579C20.4296 1.38261 17.3186 0.138184 13.931 0.138184H13.8618" fill="#CB2026"/>
<path d="M18.6319 16.3849L18.8393 15.2096C18.7701 15.2096 18.6319 15.2787 18.4936 15.2787C18.0097 15.2787 17.9405 15.0022 18.0097 14.8639L18.4245 12.4442H19.1849L19.3923 11.1306H18.701L18.8393 10.301H17.4566C17.4566 10.301 16.627 14.8639 16.627 15.417C16.627 16.2466 17.1109 16.5923 17.7331 16.5923C18.1479 16.5923 18.4936 16.454 18.6319 16.3849Z" fill="white"/>
<path d="M19.1157 14.1726C19.1157 16.1083 20.4293 16.5923 21.5354 16.5923C22.5725 16.5923 22.9873 16.3849 22.9873 16.3849L23.2638 15.0713C23.2638 15.0713 22.5033 15.417 21.812 15.417C20.291 15.417 20.5676 14.3108 20.5676 14.3108H23.4021C23.4021 14.3108 23.6095 13.4121 23.6095 13.0664C23.6095 12.1676 23.1255 11.0615 21.6046 11.0615C20.1527 10.9232 19.1157 12.4442 19.1157 14.1726ZM21.5354 12.1676C22.2959 12.1676 22.1577 13.0664 22.1577 13.1355H20.6367C20.6367 13.0664 20.775 12.1676 21.5354 12.1676Z" fill="white"/>
<path d="M30.3156 16.3848L30.5921 14.8638C30.5921 14.8638 29.9008 15.2095 29.4168 15.2095C28.449 15.2095 28.0342 14.449 28.0342 13.6194C28.0342 11.9602 28.8638 11.0614 29.8317 11.0614C30.523 11.0614 31.0761 11.4762 31.0761 11.4762L31.2835 10.0244C31.2835 10.0244 30.4539 9.67871 29.6934 9.67871C28.1033 9.67871 26.5132 11.0614 26.5132 13.6885C26.5132 15.4169 27.3428 16.5922 29.002 16.5922C29.5551 16.5922 30.3156 16.3848 30.3156 16.3848Z" fill="white"/>
<path d="M11.027 10.9233C10.0591 10.9233 9.36779 11.1999 9.36779 11.1999L9.16039 12.3752C9.16039 12.3752 9.7826 12.0986 10.6814 12.0986C11.1653 12.0986 11.5801 12.1678 11.5801 12.5826C11.5801 12.8591 11.511 12.9283 11.511 12.9283C11.511 12.9283 11.0962 12.9283 10.8888 12.9283C9.71346 12.9283 8.3999 13.4122 8.3999 15.0023C8.3999 16.2467 9.22952 16.5233 9.71346 16.5233C10.6814 16.5233 11.0962 15.9011 11.1653 15.9011L11.0962 16.4541H12.3406L12.8937 12.6517C12.8937 10.9925 11.511 10.9233 11.027 10.9233ZM11.3036 14.0344C11.3036 14.2418 11.1653 15.348 10.3357 15.348C9.92087 15.348 9.7826 15.0023 9.7826 14.7949C9.7826 14.4492 9.99001 13.9653 11.027 13.9653C11.2344 14.0344 11.3036 14.0344 11.3036 14.0344Z" fill="white"/>
<path d="M14.2073 16.5233C14.553 16.5233 16.2813 16.5924 16.2813 14.7258C16.2813 12.9974 14.6221 13.3431 14.6221 12.6518C14.6221 12.3061 14.8986 12.1678 15.3826 12.1678C15.59 12.1678 16.3505 12.2369 16.3505 12.2369L16.5579 10.9925C16.5579 10.9925 16.0739 10.8542 15.2443 10.8542C14.2073 10.8542 13.1703 11.2691 13.1703 12.6518C13.1703 14.2419 14.8986 14.1036 14.8986 14.7258C14.8986 15.1406 14.4147 15.2097 14.069 15.2097C13.4468 15.2097 12.8246 15.0023 12.8246 15.0023L12.6172 16.2468C12.6863 16.385 13.032 16.5233 14.2073 16.5233Z" fill="white"/>
<path d="M41.7922 9.81689L41.5157 11.6835C41.5157 11.6835 40.9626 10.9922 40.2021 10.9922C38.9577 10.9922 37.8516 12.5132 37.8516 14.3107C37.8516 15.4168 38.4046 16.5921 39.5799 16.5921C40.4096 16.5921 40.8935 16.039 40.8935 16.039L40.8244 16.523H42.2071L43.2441 9.88603L41.7922 9.81689ZM41.17 13.481C41.17 14.2415 40.8244 15.2094 40.0639 15.2094C39.5799 15.2094 39.3034 14.7946 39.3034 14.1033C39.3034 12.9971 39.7873 12.3058 40.4096 12.3058C40.8935 12.3058 41.17 12.6514 41.17 13.481Z" fill="white"/>
<path d="M3.4913 16.4538L4.32092 11.4761L4.45919 16.4538H5.42707L7.22458 11.4761L6.4641 16.4538H7.91593L9.02209 9.81689H6.74064L5.35794 13.8959L5.2888 9.81689H3.28389L2.17773 16.4538H3.4913Z" fill="white"/>
<path d="M24.9233 16.454C25.3381 14.1726 25.4073 12.306 26.3751 12.6516C26.5134 11.7529 26.7208 11.4072 26.8591 11.0615C26.8591 11.0615 26.79 11.0615 26.5825 11.0615C25.9603 11.0615 25.4764 11.8911 25.4764 11.8911L25.6147 11.1307H24.3011L23.4023 16.5232H24.9233V16.454Z" fill="white"/>
<path d="M33.4958 10.9233C32.5279 10.9233 31.8365 11.1999 31.8365 11.1999L31.6291 12.3752C31.6291 12.3752 32.2513 12.0986 33.1501 12.0986C33.634 12.0986 34.0489 12.1678 34.0489 12.5826C34.0489 12.8591 33.9797 12.9283 33.9797 12.9283C33.9797 12.9283 33.5649 12.9283 33.3575 12.9283C32.1822 12.9283 30.8687 13.4122 30.8687 15.0023C30.8687 16.2467 31.6983 16.5233 32.1822 16.5233C33.1501 16.5233 33.5649 15.9011 33.634 15.9011L33.5649 16.4541H34.8093L35.3624 12.6517C35.4316 10.9925 33.9797 10.9233 33.4958 10.9233ZM33.8415 14.0344C33.8415 14.2418 33.7032 15.348 32.8736 15.348C32.4588 15.348 32.3205 15.0023 32.3205 14.7949C32.3205 14.4492 32.5279 13.9653 33.5649 13.9653C33.7723 14.0344 33.7723 14.0344 33.8415 14.0344Z" fill="white"/>
<path d="M36.5376 16.454C36.9524 14.1726 37.0215 12.306 37.9894 12.6516C38.1277 11.7529 38.3351 11.4072 38.4733 11.0615C38.4733 11.0615 38.4042 11.0615 38.1968 11.0615C37.5746 11.0615 37.0906 11.8911 37.0906 11.8911L37.2289 11.1307H35.9154L35.0166 16.5232H36.5376V16.454Z" fill="white"/>
<path d="M16.4888 15.417C16.4888 16.2466 16.9727 16.5923 17.5949 16.5923C18.0789 16.5923 18.4937 16.454 18.632 16.3849L18.8394 15.2096C18.7702 15.2096 18.632 15.2787 18.4937 15.2787C18.0097 15.2787 17.9406 15.0022 18.0097 14.8639L18.4245 12.4442H19.185L19.3924 11.1306H18.7011L18.8394 10.301" fill="#DCE5E5"/>
<path d="M19.8071 14.1726C19.8071 16.1083 20.4293 16.5923 21.5355 16.5923C22.5725 16.5923 22.9873 16.3849 22.9873 16.3849L23.2639 15.0713C23.2639 15.0713 22.5034 15.417 21.812 15.417C20.2911 15.417 20.5676 14.3108 20.5676 14.3108H23.4021C23.4021 14.3108 23.6095 13.4121 23.6095 13.0664C23.6095 12.1676 23.1256 11.0615 21.6046 11.0615C20.1528 10.9232 19.8071 12.4442 19.8071 14.1726ZM21.5355 12.1676C22.296 12.1676 22.4343 13.0664 22.4343 13.1355H20.6367C20.6367 13.0664 20.775 12.1676 21.5355 12.1676Z" fill="#DCE5E5"/>
<path d="M30.3157 16.3848L30.5922 14.8638C30.5922 14.8638 29.9009 15.2095 29.4169 15.2095C28.449 15.2095 28.0342 14.449 28.0342 13.6194C28.0342 11.9602 28.8638 11.0614 29.8317 11.0614C30.5231 11.0614 31.0761 11.4762 31.0761 11.4762L31.2835 10.0244C31.2835 10.0244 30.4539 9.67871 29.6934 9.67871C28.1033 9.67871 27.2046 11.0614 27.2046 13.6885C27.2046 15.4169 27.3429 16.5922 29.0021 16.5922C29.5552 16.5922 30.3157 16.3848 30.3157 16.3848Z" fill="#DCE5E5"/>
<path d="M9.16039 12.4442C9.16039 12.4442 9.7826 12.1677 10.6814 12.1677C11.1653 12.1677 11.5801 12.2368 11.5801 12.6516C11.5801 12.9282 11.511 12.9973 11.511 12.9973C11.511 12.9973 11.0962 12.9973 10.8888 12.9973C9.71346 12.9973 8.3999 13.4812 8.3999 15.0713C8.3999 16.3158 9.22952 16.5923 9.71346 16.5923C10.6814 16.5923 11.0962 15.9701 11.1653 15.9701L11.0962 16.5232H12.3406L12.8937 12.7208C12.8937 11.1307 11.511 11.0615 10.9579 11.0615L9.16039 12.4442ZM11.9949 14.0343C11.9949 14.2417 11.1653 15.3479 10.3357 15.3479C9.92087 15.3479 9.7826 15.0022 9.7826 14.7948C9.7826 14.4491 9.99001 13.9652 11.027 13.9652C11.2344 14.0343 11.9949 14.0343 11.9949 14.0343Z" fill="#DCE5E5"/>
<path d="M12.6865 16.385C12.6865 16.385 13.1013 16.5233 14.2766 16.5233C14.6223 16.5233 16.3507 16.5924 16.3507 14.7258C16.3507 12.9974 14.6914 13.3431 14.6914 12.6518C14.6914 12.3061 14.968 12.1678 15.4519 12.1678C15.6593 12.1678 16.4198 12.2369 16.4198 12.2369L16.6272 10.9925C16.6272 10.9925 16.1433 10.8542 15.3136 10.8542C14.2766 10.8542 13.931 11.2691 13.931 12.6518C13.931 14.2419 14.968 14.1036 14.968 14.7258C14.968 15.1406 14.484 15.2097 14.1384 15.2097" fill="#DCE5E5"/>
<path d="M41.5154 11.6837C41.5154 11.6837 40.9623 10.9924 40.2019 10.9924C38.9574 10.9924 38.5426 12.5134 38.5426 14.3109C38.5426 15.417 38.4043 16.5923 39.5796 16.5923C40.4093 16.5923 40.8932 16.0392 40.8932 16.0392L40.8241 16.5232H42.2068L43.2438 9.88623L41.5154 11.6837ZM41.4463 13.4812C41.4463 14.2417 40.8241 15.2096 40.0636 15.2096C39.5796 15.2096 39.3031 14.7948 39.3031 14.1035C39.3031 12.9973 39.787 12.306 40.4093 12.306C40.8932 12.306 41.4463 12.6516 41.4463 13.4812Z" fill="#DCE5E5"/>
<path d="M3.4913 16.4538L4.32092 11.4761L4.45919 16.4538H5.42707L7.22458 11.4761L6.4641 16.4538H7.91593L9.02209 9.81689H7.29372L5.35794 13.8959L5.2888 9.81689H4.52832L2.17773 16.4538H3.4913Z" fill="#DCE5E5"/>
<path d="M23.4717 16.454H24.9235C25.3383 14.1726 25.4075 12.306 26.3753 12.6516C26.5136 11.7529 26.721 11.4072 26.8593 11.0615C26.8593 11.0615 26.7902 11.0615 26.5828 11.0615C25.9605 11.0615 25.4766 11.8911 25.4766 11.8911L25.6149 11.1307" fill="#DCE5E5"/>
<path d="M31.6291 12.4442C31.6291 12.4442 32.2513 12.1677 33.1501 12.1677C33.634 12.1677 34.0489 12.2368 34.0489 12.6516C34.0489 12.9282 33.9797 12.9973 33.9797 12.9973C33.9797 12.9973 33.5649 12.9973 33.3575 12.9973C32.1822 12.9973 30.8687 13.4812 30.8687 15.0713C30.8687 16.3158 31.6983 16.5923 32.1822 16.5923C33.1501 16.5923 33.5649 15.9701 33.634 15.9701L33.5649 16.5232H34.8093L35.3624 12.7208C35.3624 11.1307 33.9797 11.0615 33.4266 11.0615L31.6291 12.4442ZM34.4637 14.0343C34.4637 14.2417 33.634 15.3479 32.8044 15.3479C32.3896 15.3479 32.2514 15.0022 32.2514 14.7948C32.2514 14.4491 32.4588 13.9652 33.4958 13.9652C33.7723 14.0343 34.4637 14.0343 34.4637 14.0343Z" fill="#DCE5E5"/>
<path d="M35.0859 16.454H36.5378C36.9526 14.1726 37.0217 12.306 37.9896 12.6516C38.1279 11.7529 38.3353 11.4072 38.4735 11.0615C38.4735 11.0615 38.4044 11.0615 38.197 11.0615C37.5748 11.0615 37.0908 11.8911 37.0908 11.8911L37.2291 11.1307" fill="#DCE5E5"/>
</svg>
