<svg width="27" height="27" viewBox="0 0 27 27" fill="none" xmlns="http://www.w3.org/2000/svg">
<path d="M13.7077 11.2173C14.9542 11.2128 15.947 10.2115 15.9424 8.9623C15.9379 7.71261 14.943 6.71824 13.696 6.71718C12.4385 6.71584 11.4343 7.72863 11.4439 8.98954C11.4533 10.2342 12.4572 11.2219 13.7077 11.2173Z" fill="#FF7A01"/>
<path d="M13.6954 0.398438C6.48598 0.398438 0.641602 6.24308 0.641602 13.4523C0.641602 20.6615 6.48598 26.5061 13.6954 26.5061C20.9049 26.5061 26.7493 20.6615 26.7493 13.4523C26.7493 6.24308 20.9049 0.398438 13.6954 0.398438ZM13.7141 4.36814C16.2568 4.37508 18.2976 6.45488 18.2845 9.02559C18.2717 11.537 16.1975 13.5725 13.6591 13.5639C11.1466 13.5554 9.08607 11.4724 9.10102 8.95588C9.11518 6.41188 11.1768 4.3612 13.7141 4.36814ZM18.8641 15.3705C18.3019 15.9477 17.6251 16.3654 16.8735 16.6568C16.163 16.9321 15.3845 17.0708 14.6137 17.1632C14.7304 17.2898 14.7852 17.352 14.8578 17.4246C15.9037 18.4762 16.9547 19.5223 17.9971 20.5768C18.3524 20.9363 18.4263 21.3818 18.2308 21.7993C18.0174 22.256 17.5385 22.5562 17.0687 22.5239C16.7712 22.5033 16.5391 22.3556 16.3332 22.1481C15.5437 21.3538 14.7392 20.5736 13.9663 19.7643C13.7406 19.5288 13.6327 19.5736 13.4337 19.7782C12.6396 20.596 11.8325 21.4008 11.0208 22.2012C10.6563 22.5607 10.2225 22.6259 9.79945 22.4202C9.34995 22.2028 9.06417 21.7437 9.08607 21.2819C9.10156 20.9705 9.25486 20.7317 9.46907 20.5186C10.5046 19.4852 11.5368 18.4487 12.5694 17.4129C12.638 17.3443 12.7016 17.2713 12.8012 17.1645C11.3929 17.0173 10.1229 16.6707 9.03559 15.8205C8.90044 15.7148 8.76129 15.6127 8.63843 15.4942C8.16221 15.0372 8.11441 14.5134 8.49073 13.9744C8.8131 13.5129 9.35369 13.3895 9.9159 13.6547C10.0249 13.7057 10.1285 13.7704 10.2279 13.8387C12.254 15.2311 15.0375 15.2693 17.0717 13.901C17.2731 13.7471 17.4886 13.6205 17.7383 13.5567C18.2234 13.4317 18.6763 13.6104 18.9365 14.0351C19.2343 14.5204 19.2308 14.9936 18.8641 15.3705Z" fill="#FF7A01"/>
</svg>
