<svg width="22" height="22" viewBox="0 0 22 22" fill="none" xmlns="http://www.w3.org/2000/svg">
<path d="M0.511082 22C0.387547 22 0.267369 21.9512 0.178242 21.861C0.0607495 21.7422 0.0154309 21.5696 0.0595746 21.4083L1.4898 16.1856C0.599369 14.5755 0.129902 12.754 0.130574 10.905C0.133091 4.89189 5.02649 0 11.0391 0C13.9554 0.00117493 16.6957 1.13716 18.7553 3.19832C20.8147 5.25964 21.9483 7.99974 21.9475 10.9137C21.9448 16.927 17.0514 21.8192 11.0391 21.8192C11.0391 21.8192 11.0346 21.8192 11.0344 21.8192C9.27822 21.8186 7.53714 21.3905 5.98691 20.5798L0.62975 21.9847C0.590474 21.995 0.550526 22 0.511082 22Z" fill="#E5E5E5"/>
<path d="M0.510742 21.5319L1.99182 16.1234C1.07823 14.5404 0.597687 12.7448 0.598358 10.9052C0.600708 5.15021 5.28397 0.468124 11.0388 0.468124C13.8314 0.469299 16.4527 1.55627 18.4238 3.52914C20.3949 5.50201 21.48 8.12445 21.479 10.9136C21.4765 16.6684 16.7925 21.3511 11.0388 21.3511C11.0384 21.3511 11.0389 21.3511 11.0388 21.3511H11.0342C9.28694 21.3504 7.57021 20.9122 6.04532 20.0805L0.510742 21.5319ZM6.30162 18.1911L6.61868 18.3789C7.95071 19.1694 9.47795 19.5875 11.0354 19.5884H11.0388C15.8214 19.5884 19.7141 15.6964 19.7161 10.9129C19.7169 8.59476 18.8153 6.41493 17.1769 4.77524C15.5384 3.13554 13.3599 2.23203 11.0419 2.23102C6.25546 2.23102 2.36293 6.12254 2.36108 10.9058C2.36041 12.545 2.81897 14.1413 3.68774 15.5226L3.8942 15.8509L3.01736 19.0521L6.30162 18.1911Z" fill="white"/>
<path d="M0.874023 21.1675L2.30391 15.9459C1.42171 14.4179 0.957947 12.6842 0.95845 10.9085C0.960632 5.3528 5.48192 0.832855 11.0371 0.832855C13.7334 0.83403 16.2641 1.88341 18.1666 3.78796C20.0696 5.69252 21.117 8.22415 21.116 10.9164C21.1136 16.4723 16.5922 20.9928 11.0376 20.9928C11.0371 20.9928 11.0378 20.9928 11.0376 20.9928H11.0331C9.34642 20.9921 7.68893 20.5688 6.21692 19.7665L0.874023 21.1675Z" fill="#64B161"/>
<path d="M0.510742 21.5319L1.99182 16.1234C1.07823 14.5404 0.597687 12.7448 0.598358 10.9052C0.600708 5.15022 5.28397 0.46814 11.0388 0.46814C13.8314 0.469315 16.4527 1.55629 18.4238 3.52916C20.3949 5.50203 21.48 8.12447 21.479 10.9136C21.4765 16.6684 16.7925 21.3511 11.0388 21.3511C11.0384 21.3511 11.0389 21.3511 11.0388 21.3511H11.0342C9.28694 21.3504 7.57021 20.9122 6.04532 20.0805L0.510742 21.5319ZM6.30162 18.1911L6.61868 18.3789C7.95071 19.1694 9.47795 19.5876 11.0354 19.5884H11.0388C15.8214 19.5884 19.7141 15.6964 19.7161 10.9129C19.7169 8.59477 18.8153 6.41495 17.1769 4.77525C15.5384 3.13556 13.3599 2.23204 11.0419 2.23103C6.25546 2.23103 2.36293 6.12256 2.36108 10.9059C2.36041 12.545 2.81897 14.1413 3.68774 15.5226L3.8942 15.851L3.01736 19.0521L6.30162 18.1911Z" fill="white"/>
<path fill-rule="evenodd" clip-rule="evenodd" d="M8.42918 6.54181C8.23381 6.10742 8.02803 6.0987 7.84205 6.09114C7.68998 6.0846 7.51593 6.08493 7.34221 6.08493C7.16832 6.08493 6.88566 6.15039 6.64665 6.4114C6.40747 6.6724 5.7334 7.3035 5.7334 8.58702C5.7334 9.87071 6.6683 11.1109 6.79872 11.2852C6.92914 11.4592 8.6034 14.1773 11.2549 15.223C13.4585 16.0921 13.9068 15.9192 14.3852 15.8758C14.8636 15.8323 15.9286 15.2447 16.1459 14.6355C16.3634 14.0264 16.3634 13.5044 16.2982 13.3952C16.2329 13.2866 16.059 13.2213 15.7981 13.0909C15.5373 12.9604 14.2548 12.3292 14.0156 12.2422C13.7764 12.1551 13.6025 12.1118 13.4287 12.373C13.2546 12.6338 12.7551 13.2213 12.6028 13.3952C12.4506 13.5696 12.2984 13.5914 12.0375 13.4608C11.7767 13.33 10.9365 13.0548 9.9398 12.166C9.16435 11.4747 8.64067 10.6207 8.48843 10.3595C8.33636 10.0987 8.48591 9.96974 8.60307 9.82724C8.81405 9.57061 9.16804 9.10919 9.25498 8.93531C9.34193 8.76108 9.29846 8.60884 9.23333 8.47826C9.16804 8.34784 8.66098 7.05777 8.42918 6.54181Z" fill="white"/>
</svg>
