<svg width="81" height="78" viewBox="0 0 81 78" fill="none" xmlns="http://www.w3.org/2000/svg">
<path d="M79.6693 18.0705L41.934 0.224045C41.3024 -0.0746817 40.578 -0.0746817 39.9465 0.224045L2.21095 18.0705C1.40271 18.4528 0.880371 19.2776 0.880371 20.1718V25.2983C0.880371 26.6093 1.95025 27.6243 3.20321 27.6243C4.03038 27.6243 4.42754 27.2376 5.88847 26.6003V75.0895C5.88847 76.4401 6.98729 77.5389 8.3379 77.5389H73.5423C74.893 77.5389 75.9918 76.4401 75.9918 75.0895V26.6003L77.6818 27.3996C79.2249 28.1293 80.9999 27.0026 80.9999 25.2983V20.1718C80.9999 19.2776 80.4775 18.453 79.6693 18.0705ZM64.5036 38.398V75.1918H58.3145V71.5841C58.3145 70.9359 57.7892 70.4105 57.1409 70.4105C56.4925 70.4105 55.9672 70.9359 55.9672 71.5841V75.1917H41.257V62.4896H44.7046V66.9841C44.7046 68.0809 45.5969 68.9732 46.6939 68.9732H50.5304C51.6273 68.9732 52.5196 68.0809 52.5196 66.9841V62.4896H55.9672V66.0972C55.9672 66.7453 56.4925 67.2708 57.1409 67.2708C57.7892 67.2708 58.3145 66.7453 58.3145 66.0972V62.3193C58.3145 61.1189 57.3379 60.1423 56.1375 60.1423H49.7857V47.27C49.7857 46.0696 48.8092 45.093 47.6088 45.093H32.5581C31.3577 45.093 30.3811 46.0696 30.3811 47.27V60.1423H24.0294C22.829 60.1423 21.8524 61.1189 21.8524 62.3193V75.1917H17.3765V38.398H64.5036ZM33.1149 62.4897V66.6261H29.9946V62.4897H33.1149ZM41.6435 47.4404V51.5767H38.5232V47.4404H41.6435ZM38.1652 53.924H42.0019C43.0987 53.924 43.9909 53.0317 43.9909 51.9349V47.4404H47.4386V60.1425C45.6504 60.1425 34.5213 60.1425 32.7285 60.1425V47.4404H36.1761V51.9349C36.176 53.0317 37.0683 53.924 38.1652 53.924ZM47.0521 62.4897H50.1723V66.6261H47.0521V62.4897ZM29.6365 68.9733H33.473C34.5698 68.9733 35.4621 68.081 35.4621 66.9843V62.4897H38.9098V75.1918H24.1997V62.4897H27.6473V66.9843C27.6473 68.081 28.5396 68.9733 29.6365 68.9733ZM73.6445 75.0895C73.6445 75.1458 73.5987 75.1917 73.5423 75.1917H66.8508V38.398H68.198C69.3832 38.398 70.3474 37.4338 70.3474 36.2486V32.2258C70.3474 31.0406 69.3832 30.0764 68.198 30.0764H25.7692C25.1211 30.0764 24.5956 30.6019 24.5956 31.25C24.5956 31.8982 25.1211 32.4236 25.7692 32.4236H68.0002V36.0508H13.8801V32.4236H20.2827C20.9309 32.4236 21.4564 31.8982 21.4564 31.25C21.4564 30.6019 20.9309 30.0764 20.2827 30.0764H13.6823C12.4971 30.0764 11.5328 31.0406 11.5328 32.2258V36.2486C11.5328 37.4338 12.4971 38.398 13.6823 38.398H15.0293V75.1918H8.3379C8.28157 75.1918 8.23572 75.146 8.23572 75.0896V25.4902L40.9401 10.023L73.6447 25.4903V75.0895H73.6445ZM78.6526 25.2622L41.934 7.89643C41.618 7.74699 41.2791 7.67234 40.9401 7.67234C40.6012 7.67234 40.2621 7.74699 39.9465 7.89643L3.22762 25.262V20.1862L40.9401 2.3505L78.6526 20.1862V25.2622Z" fill="url(#paint0_linear)"/>
<defs>
<linearGradient id="paint0_linear" x1="0.880371" y1="4.73849" x2="87.492" y2="17.9768" gradientUnits="userSpaceOnUse">
<stop stop-color="#62A4FF"/>
<stop offset="1" stop-color="#9AD9FF"/>
</linearGradient>
</defs>
</svg>
