<svg width="88" height="70" viewBox="0 0 88 70" fill="none" xmlns="http://www.w3.org/2000/svg">
<path fill-rule="evenodd" clip-rule="evenodd" d="M33.9354 2.33628C33.2822 2.33628 32.6832 2.69969 32.3814 3.27908L27.128 13.3657H61.4248L56.1714 3.27908C55.8696 2.69969 55.2706 2.33628 54.6173 2.33628H33.9354ZM64.059 13.3657L58.2435 2.19987C57.5394 0.847957 56.1416 0 54.6173 0H33.9354C32.4112 0 31.0134 0.847957 30.3093 2.19987L24.4938 13.3657H19.9662V10.7713C19.9662 8.51331 18.1357 6.68284 15.8777 6.68284H11.9726C9.71462 6.68284 7.88414 8.51331 7.88414 10.7713V13.3657H5.01133C2.75333 13.3657 0.922852 15.1961 0.922852 17.4542V65.9115C0.922852 68.1695 2.75333 70 5.01133 70H82.9846C85.2426 70 87.073 68.1695 87.073 65.9115V17.4542C87.073 15.1962 85.2426 13.3657 82.9846 13.3657H64.059ZM10.2204 13.3657H17.6299V10.7713C17.6299 9.8036 16.8455 9.01911 15.8777 9.01911H11.9726C11.0049 9.01911 10.2204 9.8036 10.2204 10.7713V13.3657ZM37.4 7.57252C37.4 6.92738 37.923 6.40439 38.5681 6.40439H49.7062C50.3513 6.40439 50.8743 6.92738 50.8743 7.57252C50.8743 8.21767 50.3513 8.74066 49.7062 8.74066H38.5681C37.923 8.74066 37.4 8.21767 37.4 7.57252ZM5.01133 15.702C4.04362 15.702 3.25913 16.4864 3.25913 17.4542V26.7313H28.5439C29.189 26.7313 29.712 27.2543 29.712 27.8995C29.712 28.5446 29.189 29.0676 28.5439 29.0676H3.25913V54.0196H27.7085C28.3537 54.0196 28.8767 54.5426 28.8767 55.1877C28.8767 55.8329 28.3537 56.3559 27.7085 56.3559H3.25913V65.9115C3.25913 66.8792 4.04362 67.6637 5.01133 67.6637H82.9846C83.9523 67.6637 84.7368 66.8792 84.7368 65.9115V56.3559H59.1736C58.5284 56.3559 58.0054 55.8329 58.0054 55.1877C58.0054 54.5426 58.5284 54.0196 59.1736 54.0196H84.7368V29.0676H58.3382C57.6931 29.0676 57.1701 28.5446 57.1701 27.8995C57.1701 27.2543 57.6931 26.7313 58.3382 26.7313H84.7368V17.4542C84.7368 16.4864 83.9523 15.702 82.9846 15.702H5.01133Z" fill="url(#paint0_linear)"/>
<path fill-rule="evenodd" clip-rule="evenodd" d="M73.8774 21.2167C73.8774 20.5716 74.4004 20.0486 75.0456 20.0486H79.5008C80.1459 20.0486 80.6689 20.5716 80.6689 21.2167C80.6689 21.8619 80.1459 22.3849 79.5008 22.3849H75.0456C74.4004 22.3849 73.8774 21.8619 73.8774 21.2167Z" fill="url(#paint1_linear)"/>
<path fill-rule="evenodd" clip-rule="evenodd" d="M72.3149 21.2167C72.3149 21.8619 71.7919 22.3849 71.1468 22.3849H70.5899C69.9448 22.3849 69.4218 21.8619 69.4218 21.2167C69.4218 20.5716 69.9448 20.0486 70.5899 20.0486H71.1468C71.7919 20.0486 72.3149 20.5716 72.3149 21.2167Z" fill="url(#paint2_linear)"/>
<path fill-rule="evenodd" clip-rule="evenodd" d="M43.5804 61.205C54.1315 61.205 62.6849 52.6516 62.6849 42.1005C62.6849 31.5494 54.1315 22.996 43.5804 22.996C33.0293 22.996 24.4759 31.5494 24.4759 42.1005C24.4759 52.6516 33.0293 61.205 43.5804 61.205ZM43.5804 63.5413C55.4218 63.5413 65.0212 53.9419 65.0212 42.1005C65.0212 30.2591 55.4218 20.6598 43.5804 20.6598C31.739 20.6598 22.1396 30.2591 22.1396 42.1005C22.1396 53.9419 31.739 63.5413 43.5804 63.5413Z" fill="url(#paint3_linear)"/>
<path fill-rule="evenodd" clip-rule="evenodd" d="M43.5805 55.0791C50.7483 55.0791 56.559 49.2684 56.559 42.1005C56.559 34.9327 50.7483 29.122 43.5805 29.122C36.4126 29.122 30.6019 34.9327 30.6019 42.1005C30.6019 49.2684 36.4126 55.0791 43.5805 55.0791ZM43.5805 57.4154C52.0386 57.4154 58.8953 50.5587 58.8953 42.1005C58.8953 33.6424 52.0386 26.7857 43.5805 26.7857C35.1223 26.7857 28.2656 33.6424 28.2656 42.1005C28.2656 50.5587 35.1223 57.4154 43.5805 57.4154Z" fill="url(#paint4_linear)"/>
<path fill-rule="evenodd" clip-rule="evenodd" d="M41.3557 32.5404C41.5757 33.1469 41.2623 33.8169 40.6558 34.0368C38.9219 34.6657 37.4369 35.8367 36.421 37.3762C35.4052 38.9157 34.9126 40.7416 35.0164 42.5831C35.0527 43.2272 34.5599 43.7788 33.9158 43.8151C33.2717 43.8514 32.7201 43.3587 32.6838 42.7146C32.5518 40.3715 33.1785 38.0482 34.471 36.0895C35.7636 34.1307 37.6531 32.6407 39.8593 31.8405C40.4658 31.6206 41.1357 31.9339 41.3557 32.5404Z" fill="url(#paint5_linear)"/>
<defs>
<linearGradient id="paint0_linear" x1="0.922851" y1="4.27778" x2="93.1722" y2="21.072" gradientUnits="userSpaceOnUse">
<stop stop-color="#62A4FF"/>
<stop offset="1" stop-color="#9AD9FF"/>
</linearGradient>
<linearGradient id="paint1_linear" x1="73.8774" y1="20.1914" x2="80.2183" y2="22.918" gradientUnits="userSpaceOnUse">
<stop stop-color="#62A4FF"/>
<stop offset="1" stop-color="#9AD9FF"/>
</linearGradient>
<linearGradient id="paint2_linear" x1="72.3149" y1="22.2421" x2="69.2182" y2="21.6748" gradientUnits="userSpaceOnUse">
<stop stop-color="#62A4FF"/>
<stop offset="1" stop-color="#9AD9FF"/>
</linearGradient>
<linearGradient id="paint3_linear" x1="22.1396" y1="23.2803" x2="68.5631" y2="30.1474" gradientUnits="userSpaceOnUse">
<stop stop-color="#62A4FF"/>
<stop offset="1" stop-color="#9AD9FF"/>
</linearGradient>
<linearGradient id="paint4_linear" x1="28.2656" y1="28.6575" x2="61.4252" y2="33.5626" gradientUnits="userSpaceOnUse">
<stop stop-color="#62A4FF"/>
<stop offset="1" stop-color="#9AD9FF"/>
</linearGradient>
<linearGradient id="paint5_linear" x1="32.6665" y1="32.5064" x2="42.2462" y2="33.5368" gradientUnits="userSpaceOnUse">
<stop stop-color="#62A4FF"/>
<stop offset="1" stop-color="#9AD9FF"/>
</linearGradient>
</defs>
</svg>
