<svg width="79" height="79" viewBox="0 0 79 79" fill="none" xmlns="http://www.w3.org/2000/svg">
<path d="M38.5146 45.9908C38.5146 46.5701 38.0661 47.0186 37.4868 47.0186H30.8718C30.5743 47.0226 30.2631 46.916 30.0682 46.6822C29.6759 46.2525 29.7132 45.6171 30.1243 45.2247L35.6555 40.2167C36.5921 39.377 36.691 37.9003 35.9223 36.9157C35.1306 35.902 33.6202 35.7335 32.5896 36.4806C32.1772 36.7796 31.834 37.3181 31.306 37.4098C30.813 37.4952 30.3253 37.191 30.1622 36.7231C29.9024 35.9771 30.5405 35.5307 31.0212 35.0965C31.8621 34.3118 32.9645 33.9379 34.0298 33.9379C35.2444 33.9379 36.4777 34.4425 37.356 35.4142C38.1409 36.2552 38.5146 37.3576 38.5146 38.4229C38.5146 39.6375 38.0101 40.8708 37.0384 41.7491L33.5066 44.9445H37.4868C38.0662 44.9444 38.5146 45.4116 38.5146 45.9908Z" fill="url(#paint0_linear)"/>
<path d="M49.035 43.5428C49.035 44.1221 48.5678 44.5706 47.9886 44.5706H47.8017V45.9907C47.8017 46.57 47.3532 47.0185 46.774 47.0185C46.1947 47.0185 45.7462 46.57 45.7462 45.9907V44.5706H39.8973C39.0293 44.6004 38.5205 43.5845 39.0565 42.9074C39.2946 42.6115 45.8923 34.3882 45.9701 34.3122C46.0347 34.2488 46.1179 34.1651 46.1949 34.1153C46.8693 33.6791 47.802 34.135 47.802 34.9656V42.5151H47.9889C48.5678 42.5151 49.035 42.9821 49.035 43.5428ZM45.746 37.8994L42.0273 42.5151H45.746V37.8994Z" fill="url(#paint1_linear)"/>
<path d="M72.8329 27.1163C70.015 11.2723 55.3697 0 39.4998 0C23.6298 0 8.98517 11.2726 6.16694 27.1161C2.67751 27.6608 0 30.6654 0 34.2798V38.1113C0 39.6038 2.31445 39.6038 2.31445 38.1113V34.2797C2.31445 31.557 4.55345 29.3419 7.30565 29.3419H9.7207V53.3549H7.30565C4.55345 53.3551 2.31445 51.14 2.31445 48.4174V43.9746C2.31445 42.4821 0 42.4821 0 43.9746V48.4174C0 52.4163 3.27727 55.6695 7.30565 55.6695H9.84414C10.9173 59.6765 17.0608 58.8879 17.0608 54.7319V27.9652C17.0608 23.8165 10.9193 23.0137 9.84414 27.0276H8.5391C11.3814 12.511 24.9172 2.31445 39.4998 2.31445C54.0824 2.31445 67.6184 12.5109 70.4607 27.0276H69.1559C68.0827 23.0208 61.9391 23.8094 61.9391 27.9652V54.7319C61.9391 58.8808 68.0809 59.6837 69.1559 55.6695H70.4455C68.3688 66.6666 58.3165 73.8354 47.3929 74.1813C46.901 72.7423 45.5295 71.7038 43.9175 71.7038H35.0825C33.0941 71.7038 31.4124 73.357 31.4124 75.352C31.4124 77.3469 33.0941 79 35.0825 79H43.9175C45.5392 79 46.9177 77.9488 47.4019 76.4962C59.6408 76.1355 70.7325 67.9132 72.811 55.5848C76.3111 55.0496 79 52.0394 79 48.4174V34.2798C79 30.6654 76.3223 27.6608 72.8329 27.1163ZM12.0352 27.9652C12.0352 26.2436 14.7463 26.2425 14.7463 27.9652V54.7319C14.7463 56.4538 12.0352 56.4548 12.0352 54.7319V27.9652ZM43.9175 76.6855H35.0825C33.3394 76.6855 33.3382 74.0182 35.0825 74.0182H43.9175C45.6608 74.0182 45.662 76.6855 43.9175 76.6855ZM66.9648 54.7319C66.9648 56.4538 64.2535 56.4548 64.2535 54.7319V27.9652C64.2535 26.2434 66.9648 26.2425 66.9648 27.9652V54.7319ZM76.6855 48.4174C76.6855 51.1402 74.4464 53.3551 71.694 53.3551H69.2793V29.342H71.694C74.4464 29.342 76.6855 31.5571 76.6855 34.2798V48.4174Z" fill="url(#paint2_linear)"/>
<path d="M45.4827 58.4486L52.4416 61.5145C53.1929 61.8458 54.0653 61.2738 54.0653 60.4556V52.7119C56.9993 49.2888 58.6095 44.9507 58.6095 40.4446C58.6095 36.4767 57.3858 32.677 55.0709 29.4561C54.2003 28.2438 52.3204 29.5949 53.1915 30.8068C55.2218 33.6318 56.2949 36.9645 56.2949 40.4446C56.2949 44.5281 54.7865 48.4553 52.0473 51.5026C51.8564 51.7151 51.7507 51.9907 51.7507 52.2763V58.6813L46.0031 56.1491C45.7336 56.0302 45.4285 56.0189 45.1508 56.117C43.3387 56.7581 41.4375 57.0831 39.4998 57.0831C30.2391 57.0831 22.7049 49.6191 22.7049 40.4446C22.7049 31.2701 30.2392 23.806 39.5 23.806C42.9535 23.806 46.2701 24.8358 49.0912 26.7841C50.3193 27.6321 51.6345 25.7278 50.4063 24.8796C47.1968 22.6632 43.4253 21.4916 39.5 21.4916C28.9631 21.4916 20.3906 29.9938 20.3906 40.4445C20.3906 50.8952 28.9631 59.3974 39.5 59.3974C41.545 59.3974 43.5552 59.0785 45.4827 58.4486Z" fill="url(#paint3_linear)"/>
<defs>
<linearGradient id="paint0_linear" x1="29.7939" y1="34.7373" x2="39.3486" y2="35.6796" gradientUnits="userSpaceOnUse">
<stop stop-color="#62A4FF"/>
<stop offset="1" stop-color="#9AD9FF"/>
</linearGradient>
<linearGradient id="paint1_linear" x1="38.8369" y1="34.7457" x2="49.9707" y2="36.0306" gradientUnits="userSpaceOnUse">
<stop stop-color="#62A4FF"/>
<stop offset="1" stop-color="#9AD9FF"/>
</linearGradient>
<linearGradient id="paint2_linear" x1="-5.23285e-07" y1="4.82778" x2="85.5252" y2="17.479" gradientUnits="userSpaceOnUse">
<stop stop-color="#62A4FF"/>
<stop offset="1" stop-color="#9AD9FF"/>
</linearGradient>
<linearGradient id="paint3_linear" x1="20.3906" y1="23.9433" x2="61.8484" y2="29.7855" gradientUnits="userSpaceOnUse">
<stop stop-color="#62A4FF"/>
<stop offset="1" stop-color="#9AD9FF"/>
</linearGradient>
</defs>
</svg>
