<svg width="69" height="78" viewBox="0 0 69 78" fill="none" xmlns="http://www.w3.org/2000/svg">
<path fill-rule="evenodd" clip-rule="evenodd" d="M22.5082 0C21.8298 0 21.2798 0.549983 21.2798 1.22842V40.768L23.7366 42.1719V2.45685H27.8281C28.5066 2.45685 29.0566 1.90686 29.0566 1.22842C29.0566 0.549983 28.5066 0 27.8281 0H22.5082ZM36.3401 60.6473V63.1042H54.1619C54.8403 63.1042 55.3903 62.5542 55.3903 61.8757C55.3903 61.1973 54.8403 60.6473 54.1619 60.6473H36.3401ZM33.4141 0C32.7356 0 32.1857 0.549983 32.1857 1.22842C32.1857 1.90686 32.7356 2.45685 33.4141 2.45685H54.7247L66.4993 13.9809V60.6473H62.6738C61.9953 60.6473 61.4453 61.1973 61.4453 61.8757C61.4453 62.5542 61.9953 63.1042 62.6738 63.1042H67.7277C68.4061 63.1042 68.9561 62.5542 68.9561 61.8757V13.4643C68.9561 13.1339 68.823 12.8175 68.5869 12.5864L56.0851 0.350507C55.8555 0.125823 55.5471 0 55.2258 0H33.4141Z" fill="url(#paint0_linear)"/>
<path fill-rule="evenodd" clip-rule="evenodd" d="M55.226 0.532013C55.9044 0.532013 56.4544 1.082 56.4544 1.76044V12.5019H67.7278C68.4063 12.5019 68.9563 13.0519 68.9563 13.7303C68.9563 14.4087 68.4063 14.9587 67.7278 14.9587H55.226C54.5475 14.9587 53.9976 14.4087 53.9976 13.7303V1.76044C53.9976 1.082 54.5475 0.532013 55.226 0.532013Z" fill="url(#paint1_linear)"/>
<path fill-rule="evenodd" clip-rule="evenodd" d="M26.0679 18.7842C26.0679 18.1058 26.6179 17.5558 27.2963 17.5558H27.8283C28.5067 17.5558 29.0567 18.1058 29.0567 18.7842C29.0567 19.4627 28.5067 20.0127 27.8283 20.0127H27.2963C26.6179 20.0127 26.0679 19.4627 26.0679 18.7842Z" fill="url(#paint2_linear)"/>
<path fill-rule="evenodd" clip-rule="evenodd" d="M30.856 18.7843C30.856 18.1058 31.4059 17.5558 32.0844 17.5558L62.94 17.5558C63.6185 17.5558 64.1685 18.1058 64.1685 18.7843C64.1685 19.4627 63.6185 20.0127 62.94 20.0127L32.0844 20.0127C31.4059 20.0127 30.856 19.4627 30.856 18.7843Z" fill="url(#paint3_linear)"/>
<path fill-rule="evenodd" clip-rule="evenodd" d="M64.1685 23.5723C64.1685 24.2507 63.6185 24.8007 62.94 24.8007H62.408C61.7296 24.8007 61.1796 24.2507 61.1796 23.5723C61.1796 22.8938 61.7296 22.3438 62.408 22.3438H62.94C63.6185 22.3438 64.1685 22.8938 64.1685 23.5723Z" fill="url(#paint4_linear)"/>
<path fill-rule="evenodd" clip-rule="evenodd" d="M26.0679 23.5722C26.0679 22.8938 26.6179 22.3438 27.2963 22.3438L58.1519 22.3438C58.8304 22.3438 59.3804 22.8938 59.3804 23.5722C59.3804 24.2507 58.8304 24.8007 58.1519 24.8007L27.2963 24.8007C26.6179 24.8007 26.0679 24.2507 26.0679 23.5722Z" fill="url(#paint5_linear)"/>
<path fill-rule="evenodd" clip-rule="evenodd" d="M26.0679 28.3602C26.0679 27.6817 26.6179 27.1317 27.2963 27.1317L50.172 27.1317C50.8505 27.1317 51.4005 27.6817 51.4005 28.3602C51.4005 29.0386 50.8505 29.5886 50.172 29.5886L27.2963 29.5886C26.6179 29.5886 26.0679 29.0386 26.0679 28.3602Z" fill="url(#paint6_linear)"/>
<path fill-rule="evenodd" clip-rule="evenodd" d="M26.0679 33.1481C26.0679 32.4697 26.6179 31.9197 27.2963 31.9197H50.172C50.8505 31.9197 51.4005 32.4697 51.4005 33.1481C51.4005 33.8265 50.8505 34.3765 50.172 34.3765H27.2963C26.6179 34.3765 26.0679 33.8265 26.0679 33.1481Z" fill="url(#paint7_linear)"/>
<path fill-rule="evenodd" clip-rule="evenodd" d="M58.4176 27.6637C58.9219 27.6637 59.375 27.972 59.5602 28.4411L63.5502 38.549C63.6069 38.6926 63.636 38.8456 63.636 39V73.0476C63.636 73.1341 63.6268 73.2204 63.6087 73.305C63.4422 74.0821 63.0095 75.2048 62.215 76.1604C61.399 77.1419 60.1469 78 58.4176 78C56.4724 78 55.1066 77.2495 54.2582 76.1654C53.4525 75.1358 53.1992 73.918 53.1992 73.0476V39C53.1992 38.8456 53.2283 38.6926 53.285 38.549L57.275 28.4411C57.4602 27.972 57.9133 27.6637 58.4176 27.6637ZM55.6561 41.1696V67.5632H57.1892V42.0895L55.6561 41.1696ZM59.646 42.0895V67.5632H61.1791V41.1696L59.646 42.0895ZM60.8826 38.4824L58.4176 39.9614L55.9526 38.4824L58.4176 32.2378L60.8826 38.4824ZM61.1791 70.0201H55.6561V73.0476C55.6561 73.5072 55.8018 74.1514 56.193 74.6513C56.5416 75.0967 57.1708 75.5432 58.4176 75.5432C59.2418 75.5432 59.8518 75.1599 60.3258 74.5897C60.782 74.0411 61.0602 73.3711 61.1791 72.906V70.0201Z" fill="url(#paint8_linear)"/>
<path fill-rule="evenodd" clip-rule="evenodd" d="M17.6251 37.9438C18.006 37.7176 18.4791 37.714 18.8634 37.9344L36.9512 48.3083C37.333 48.5273 37.5684 48.9338 37.5684 49.3739V66.6637C37.5684 67.1031 37.3338 67.5091 36.953 67.7283L19.3972 77.8362C19.0221 78.0521 18.561 78.0548 18.1835 77.8431L0.627717 68.0012C0.24005 67.7839 0 67.3741 0 66.9297V49.1079C0 48.6744 0.228503 48.273 0.601265 48.0517L17.6251 37.9438ZM18.263 40.4223L15.3155 42.1723L30.7684 51.0137L33.824 49.347L18.263 40.4223ZM35.1116 51.4432L31.9825 53.15V58.4178C31.9825 58.8654 31.7391 59.2775 31.3472 59.4936L25.0747 62.9515C24.6942 63.1613 24.2311 63.1545 23.857 62.9335C23.4828 62.7125 23.2532 62.3103 23.2532 61.8758V57.9114L20.0126 59.679V74.6468L35.1116 65.9535V51.4432ZM17.5558 74.6747V59.6694L2.45684 51.2049V66.2101L17.5558 74.6747ZM3.68601 49.0774L18.7924 57.5461L21.9577 55.8195L6.82756 47.2121L3.68601 49.0774ZM9.25873 45.7686L25.0891 54.7744C25.473 54.9928 25.7101 55.4004 25.7101 55.8421V59.7958L29.5257 57.6923V53.1332L12.8878 43.6138L9.25873 45.7686Z" fill="url(#paint9_linear)"/>
<defs>
<linearGradient id="paint0_linear" x1="21.2798" y1="3.85636" x2="73.3728" y2="9.67823" gradientUnits="userSpaceOnUse">
<stop stop-color="#62A4FF"/>
<stop offset="1" stop-color="#9AD9FF"/>
</linearGradient>
<linearGradient id="paint1_linear" x1="53.9976" y1="1.41364" x2="70.1658" y2="3.89351" gradientUnits="userSpaceOnUse">
<stop stop-color="#62A4FF"/>
<stop offset="1" stop-color="#9AD9FF"/>
</linearGradient>
<linearGradient id="paint2_linear" x1="26.0679" y1="17.706" x2="29.2707" y2="18.2823" gradientUnits="userSpaceOnUse">
<stop stop-color="#62A4FF"/>
<stop offset="1" stop-color="#9AD9FF"/>
</linearGradient>
<linearGradient id="paint3_linear" x1="30.856" y1="17.706" x2="38.193" y2="32.422" gradientUnits="userSpaceOnUse">
<stop stop-color="#62A4FF"/>
<stop offset="1" stop-color="#9AD9FF"/>
</linearGradient>
<linearGradient id="paint4_linear" x1="64.1685" y1="24.6505" x2="60.9657" y2="24.0742" gradientUnits="userSpaceOnUse">
<stop stop-color="#62A4FF"/>
<stop offset="1" stop-color="#9AD9FF"/>
</linearGradient>
<linearGradient id="paint5_linear" x1="26.0679" y1="22.494" x2="33.405" y2="37.21" gradientUnits="userSpaceOnUse">
<stop stop-color="#62A4FF"/>
<stop offset="1" stop-color="#9AD9FF"/>
</linearGradient>
<linearGradient id="paint6_linear" x1="26.0679" y1="27.2819" x2="34.493" y2="40.1323" gradientUnits="userSpaceOnUse">
<stop stop-color="#62A4FF"/>
<stop offset="1" stop-color="#9AD9FF"/>
</linearGradient>
<linearGradient id="paint7_linear" x1="26.0679" y1="32.0698" x2="34.493" y2="44.9202" gradientUnits="userSpaceOnUse">
<stop stop-color="#62A4FF"/>
<stop offset="1" stop-color="#9AD9FF"/>
</linearGradient>
<linearGradient id="paint8_linear" x1="53.1992" y1="30.7398" x2="64.7344" y2="31.0936" gradientUnits="userSpaceOnUse">
<stop stop-color="#62A4FF"/>
<stop offset="1" stop-color="#9AD9FF"/>
</linearGradient>
<linearGradient id="paint9_linear" x1="-2.48848e-07" y1="40.23" x2="40.7832" y2="45.8639" gradientUnits="userSpaceOnUse">
<stop stop-color="#62A4FF"/>
<stop offset="1" stop-color="#9AD9FF"/>
</linearGradient>
</defs>
</svg>
