<svg width="75" height="65" viewBox="0 0 75 65" fill="none" xmlns="http://www.w3.org/2000/svg">
<path d="M73.9101 46.4193C73.3963 44.5468 71.8261 43.1533 69.9057 42.8652V14.717H72.3585C73.0358 14.717 73.5849 14.1678 73.5849 13.4906V1.22641C73.5849 0.548533 73.0358 0 72.3585 0H18.3962C17.7189 0 17.1698 0.548533 17.1698 1.22641V13.4906C17.1698 14.1678 17.7189 14.717 18.3962 14.717H20.8491V39.2453H19.6226C16.5788 39.2381 13.5972 40.1106 11.0377 41.758V35.566C11.0377 34.8882 10.4886 34.3396 9.81132 34.3396H1.22642C0.549132 34.3396 0 34.8882 0 35.566V63.7736C0 64.4509 0.549132 65 1.22642 65H9.81132C10.4886 65 11.0377 64.4509 11.0377 63.7736V57.5822C13.5978 59.2284 16.5788 60.1009 19.6226 60.0943H39.7603C41.1556 60.0919 42.5443 59.9087 43.8922 59.5494L70.4452 52.4364C73.0579 51.7244 74.6059 49.0368 73.9101 46.4193ZM19.6226 2.45283H71.1321V12.2642H19.6226V2.45283ZM23.3019 14.717H67.4528V43.076L53.2191 46.893C52.6328 45.4953 51.437 44.4456 49.9752 44.0449L33.4504 39.613C32.5198 39.368 31.5616 39.2441 30.5993 39.2453H23.3019V14.717ZM8.5849 62.5472H2.45283V36.7925H8.5849V62.5472ZM69.8086 50.0668L43.2605 57.1798C42.1185 57.4846 40.9424 57.6397 39.7603 57.6415H19.6226C16.7027 57.6481 13.86 56.7007 11.5282 54.9432L11.0377 54.5755V44.7641L11.5282 44.3959C13.86 42.6383 16.7027 41.6903 19.6226 41.6981H30.5993C31.3484 41.6975 32.0952 41.7945 32.8204 41.9862L49.3399 46.4145C50.316 46.6834 51.0304 47.52 51.1417 48.5266C51.1549 48.5769 51.1711 48.6266 51.1909 48.6751C51.1765 48.7278 51.1657 48.7811 51.1585 48.8356C51.1597 49.035 51.1328 49.2339 51.0777 49.4255C50.789 50.4944 49.8207 51.2376 48.7135 51.2394C48.4973 51.2412 48.2829 51.2136 48.0745 51.1585L37.65 48.3631C37.2224 48.2362 36.7595 48.3512 36.4409 48.6638C36.123 48.9764 35.999 49.4369 36.1182 49.8668C36.2373 50.2962 36.5805 50.6279 37.0146 50.7315L47.4391 53.5281C47.8553 53.6377 48.2847 53.6928 48.7159 53.6922C50.9208 53.691 52.8532 52.2161 53.4359 50.089C53.5042 49.8429 53.5503 49.5914 53.5748 49.3375L68.5259 45.3283C68.6325 45.3013 68.7481 45.2738 68.8571 45.2558C70.0781 45.0983 71.2261 45.8702 71.5417 47.0595C71.5968 47.2667 71.6243 47.4805 71.6225 47.6948C71.6243 48.8051 70.8806 49.7776 69.8086 50.0668Z" fill="url(#paint0_linear)"/>
<path d="M39.2455 19.6225H51.5096C52.1869 19.6225 52.736 19.0734 52.736 18.3961C52.736 17.7182 52.1869 17.1697 51.5096 17.1697H39.2455C38.5682 17.1697 38.019 17.7182 38.019 18.3961C38.019 19.0734 38.5682 19.6225 39.2455 19.6225Z" fill="url(#paint1_linear)"/>
<defs>
<linearGradient id="paint0_linear" x1="-4.90674e-07" y1="3.97222" x2="79.6853" y2="17.4056" gradientUnits="userSpaceOnUse">
<stop stop-color="#FFA755"/>
<stop offset="0.9997" stop-color="#FFC794"/>
<stop offset="0.9998" stop-color="#FFC794"/>
<stop offset="0.9999" stop-color="#FFC794"/>
<stop offset="1" stop-color="#FFC895"/>
</linearGradient>
<linearGradient id="paint1_linear" x1="38.019" y1="17.3196" x2="47.1262" y2="25.4026" gradientUnits="userSpaceOnUse">
<stop stop-color="#FFA755"/>
<stop offset="0.9997" stop-color="#FFC794"/>
<stop offset="0.9998" stop-color="#FFC794"/>
<stop offset="0.9999" stop-color="#FFC794"/>
<stop offset="1" stop-color="#FFC895"/>
</linearGradient>
</defs>
</svg>
