<svg width="83" height="70" viewBox="0 0 83 70" fill="none" xmlns="http://www.w3.org/2000/svg">
<path d="M77.6559 0H5.0993C2.28741 0 0 2.2874 0 5.09914V54.3341C0 57.1459 2.28741 59.4333 5.0993 59.4333H29.6391L28.6465 67.374H24.534C23.8644 67.374 23.3218 67.9168 23.3218 68.5863C23.3218 69.2558 23.8644 69.7985 24.534 69.7985H58.2212C58.8908 69.7985 59.4334 69.2558 59.4334 68.5863C59.4334 67.9168 58.8908 67.374 58.2212 67.374H54.1088L53.1161 59.4333H77.6559C80.4676 59.4333 82.7552 57.1459 82.7552 54.3341V5.09914C82.7552 2.2874 80.4678 0 77.6559 0ZM31.0899 67.374L32.0827 59.4333H36.5442L36.9819 61.1837C37.4871 63.2046 39.2948 64.6158 41.3778 64.6158C43.4607 64.6158 45.2684 63.2046 45.7736 61.1837L46.2113 59.4333H50.6728L51.6653 67.374H31.0899ZM39.0432 59.4333H43.7119L43.4213 60.5957C43.1864 61.5353 42.3461 62.1913 41.3774 62.1913C40.4088 62.1913 39.5686 61.5351 39.3336 60.5957L39.0432 59.4333ZM80.3307 54.3341C80.3307 55.809 79.1308 57.0088 77.6559 57.0088H5.0993C3.62442 57.0088 2.42447 55.809 2.42447 54.3341V5.09914C2.42447 3.62426 3.62442 2.42447 5.0993 2.42447H77.6559C79.1308 2.42447 80.3307 3.62426 80.3307 5.09914V54.3341Z" fill="url(#paint0_linear)"/>
<path d="M68.5863 5.18286H6.39485C5.72521 5.18286 5.18262 5.72546 5.18262 6.3951V53.0386C5.18262 53.7083 5.72521 54.2509 6.39485 54.2509H8.98628C9.65592 54.2509 10.1985 53.7083 10.1985 53.0386C10.1987 52.3692 9.65592 51.8264 8.98645 51.8264H7.60725V7.60733H68.5863C69.256 7.60733 69.7986 7.06457 69.7986 6.3951C69.7986 5.72546 69.256 5.18286 68.5863 5.18286Z" fill="url(#paint1_linear)"/>
<path d="M76.3603 5.18286H73.7688C73.0992 5.18286 72.5566 5.72546 72.5566 6.3951C72.5566 7.06457 73.0992 7.60733 73.7688 7.60733H75.148V51.8264H14.1688C13.4991 51.8264 12.9565 52.3692 12.9565 53.0386C12.9565 53.7083 13.4991 54.2509 14.1688 54.2509H76.3601C77.0297 54.2509 77.5723 53.7083 77.5723 53.0386V6.3951C77.5725 5.72546 77.0297 5.18286 76.3603 5.18286Z" fill="url(#paint2_linear)"/>
<path d="M57.8801 18.6042C57.6622 18.3257 57.3336 18.1563 56.9806 18.1403L28.4763 16.8445C28.454 16.8435 28.4321 16.843 28.4097 16.8434C28.2409 16.2895 27.8844 15.8091 27.4017 15.4871L23.911 13.16C23.354 12.7887 22.6013 12.9392 22.23 13.4963C21.8588 14.0535 22.0092 14.806 22.5662 15.1773L26.0568 17.5041C26.0733 17.5151 26.0854 17.5318 26.0909 17.5508L30.5372 33.1128C30.6759 33.5981 30.9041 34.0341 31.1972 34.4107L29.5704 37.6644C29.1787 38.4475 29.2198 39.3596 29.6801 40.1044C29.8471 40.3745 30.0588 40.6045 30.3021 40.7887C29.9836 41.3446 29.8005 41.9875 29.8005 42.6728C29.8005 44.7702 31.5069 46.4764 33.604 46.4764C35.7012 46.4764 37.4075 44.77 37.4075 42.6728C37.4075 42.1865 37.3148 41.7216 37.1476 41.2938H48.1995C48.0324 41.7216 47.9396 42.1865 47.9396 42.6728C47.9396 44.7702 49.6459 46.4764 51.7431 46.4764C53.8403 46.4764 55.5466 44.77 55.5466 42.6728C55.5466 42.0645 55.4023 41.4895 55.1472 40.9791C55.3919 40.7574 55.5466 40.438 55.5466 40.0816C55.5466 39.4121 55.004 38.8693 54.3344 38.8693H31.813C31.7957 38.8693 31.7664 38.8693 31.742 38.8297C31.7176 38.7903 31.7307 38.7643 31.7385 38.7486L33.2371 35.7515C33.5421 35.8299 33.8599 35.8722 34.1851 35.8722C34.3349 35.8722 34.4862 35.8633 34.6385 35.8455L51.6721 33.8416C53.8721 33.5827 55.6421 31.9496 56.0766 29.7773L58.1141 19.589C58.1834 19.2423 58.0979 18.8827 57.8801 18.6042ZM51.7428 41.2941C52.5032 41.2941 53.1218 41.9129 53.1218 42.6732C53.1218 43.4336 52.5032 44.0522 51.7428 44.0522C50.9823 44.0522 50.3637 43.4336 50.3637 42.6732C50.3637 41.9127 50.9823 41.2941 51.7428 41.2941ZM33.6037 41.2941C34.3642 41.2941 34.9827 41.9127 34.9827 42.6732C34.9827 43.4336 34.3642 44.0522 33.6037 44.0522C32.8432 44.0522 32.2247 43.4336 32.2247 42.6732C32.2247 41.9127 32.8432 41.2941 33.6037 41.2941ZM30.631 24.6173L29.1118 19.3005L33.9583 19.5208L34.7986 24.6173H30.631ZM34.3553 33.4377C33.6793 33.5172 33.0546 33.1004 32.8681 32.4469L31.3237 27.0418H35.1984L36.2168 33.2187L34.3553 33.4377ZM41.4611 32.6018L38.6274 32.9352L37.6558 27.042H41.4611V32.6018ZM41.4611 24.6173H37.2559L36.4342 19.6334L41.4611 19.862V24.6173ZM47.6002 31.8794L43.8855 32.3165V27.0418H48.038L47.6002 31.8794ZM48.2575 24.6173H43.8855V19.9721L48.6584 20.189L48.2575 24.6173ZM53.699 29.3021C53.4711 30.4412 52.5427 31.298 51.3888 31.4338L50.0607 31.5901L50.4723 27.042H54.1509L53.699 29.3021ZM54.636 24.6173H50.692L51.0828 20.2992L55.4598 20.4982L54.636 24.6173Z" fill="url(#paint3_linear)"/>
<defs>
<linearGradient id="paint0_linear" x1="-5.48159e-07" y1="4.26546" x2="88.8189" y2="19.8428" gradientUnits="userSpaceOnUse">
<stop stop-color="#FFA755"/>
<stop offset="0.9997" stop-color="#FFC794"/>
<stop offset="0.9998" stop-color="#FFC794"/>
<stop offset="0.9999" stop-color="#FFC794"/>
<stop offset="1" stop-color="#FFC895"/>
</linearGradient>
<linearGradient id="paint1_linear" x1="5.18262" y1="8.18146" x2="74.053" y2="21.5971" gradientUnits="userSpaceOnUse">
<stop stop-color="#FFA755"/>
<stop offset="0.9997" stop-color="#FFC794"/>
<stop offset="0.9998" stop-color="#FFC794"/>
<stop offset="0.9999" stop-color="#FFC794"/>
<stop offset="1" stop-color="#FFC895"/>
</linearGradient>
<linearGradient id="paint2_linear" x1="12.9565" y1="8.18146" x2="81.8268" y2="21.5971" gradientUnits="userSpaceOnUse">
<stop stop-color="#FFA755"/>
<stop offset="0.9997" stop-color="#FFC794"/>
<stop offset="0.9998" stop-color="#FFC794"/>
<stop offset="0.9999" stop-color="#FFC794"/>
<stop offset="1" stop-color="#FFC895"/>
</linearGradient>
<linearGradient id="paint3_linear" x1="22.0264" y1="15.0047" x2="60.9864" y2="21.2134" gradientUnits="userSpaceOnUse">
<stop stop-color="#FFA755"/>
<stop offset="0.9997" stop-color="#FFC794"/>
<stop offset="0.9998" stop-color="#FFC794"/>
<stop offset="0.9999" stop-color="#FFC794"/>
<stop offset="1" stop-color="#FFC895"/>
</linearGradient>
</defs>
</svg>
