<svg width="87" height="70" viewBox="0 0 87 70" fill="none" xmlns="http://www.w3.org/2000/svg">
<path fill-rule="evenodd" clip-rule="evenodd" d="M33.0126 2.33628C32.3593 2.33628 31.7603 2.69969 31.4585 3.27908L26.2051 13.3657H60.502L55.2486 3.27908C54.9468 2.69969 54.3478 2.33628 53.6945 2.33628H33.0126ZM63.1362 13.3657L57.3206 2.19987C56.6165 0.847957 55.2188 0 53.6945 0H33.0126C31.4883 0 30.0906 0.847957 29.3865 2.19987L23.5709 13.3657H19.0434V10.7713C19.0434 8.51331 17.2129 6.68284 14.9549 6.68284H11.0498C8.79177 6.68284 6.96129 8.51331 6.96129 10.7713V13.3657H4.08848C1.83048 13.3657 0 15.1961 0 17.4542V65.9115C0 68.1695 1.83048 70 4.08848 70H82.0617C84.3197 70 86.1502 68.1695 86.1502 65.9115V17.4542C86.1502 15.1962 84.3197 13.3657 82.0617 13.3657H63.1362ZM9.29756 13.3657H16.7071V10.7713C16.7071 9.8036 15.9226 9.01911 14.9549 9.01911H11.0498C10.0821 9.01911 9.29756 9.8036 9.29756 10.7713V13.3657ZM36.4771 7.57252C36.4771 6.92738 37.0001 6.40439 37.6453 6.40439H48.7833C49.4285 6.40439 49.9515 6.92738 49.9515 7.57252C49.9515 8.21767 49.4285 8.74066 48.7833 8.74066H37.6453C37.0001 8.74066 36.4771 8.21767 36.4771 7.57252ZM4.08848 15.702C3.12077 15.702 2.33628 16.4864 2.33628 17.4542V26.7313H27.621C28.2662 26.7313 28.7892 27.2543 28.7892 27.8995C28.7892 28.5446 28.2662 29.0676 27.621 29.0676H2.33628V54.0196H26.7857C27.4308 54.0196 27.9538 54.5426 27.9538 55.1877C27.9538 55.8329 27.4308 56.3559 26.7857 56.3559H2.33628V65.9115C2.33628 66.8792 3.12077 67.6637 4.08848 67.6637H82.0617C83.0294 67.6637 83.8139 66.8792 83.8139 65.9115V56.3559H58.2507C57.6056 56.3559 57.0826 55.8329 57.0826 55.1877C57.0826 54.5426 57.6056 54.0196 58.2507 54.0196H83.8139V29.0676H57.4153C56.7702 29.0676 56.2472 28.5446 56.2472 27.8995C56.2472 27.2543 56.7702 26.7313 57.4153 26.7313H83.8139V17.4542C83.8139 16.4864 83.0294 15.702 82.0617 15.702H4.08848Z" fill="url(#paint0_linear)"/>
<path fill-rule="evenodd" clip-rule="evenodd" d="M72.9546 21.2167C72.9546 20.5716 73.4776 20.0486 74.1227 20.0486H78.578C79.2231 20.0486 79.7461 20.5716 79.7461 21.2167C79.7461 21.8619 79.2231 22.3849 78.578 22.3849H74.1227C73.4776 22.3849 72.9546 21.8619 72.9546 21.2167Z" fill="url(#paint1_linear)"/>
<path fill-rule="evenodd" clip-rule="evenodd" d="M71.3921 21.2167C71.3921 21.8619 70.8691 22.3849 70.224 22.3849H69.667C69.0219 22.3849 68.4989 21.8619 68.4989 21.2167C68.4989 20.5716 69.0219 20.0486 69.667 20.0486H70.224C70.8691 20.0486 71.3921 20.5716 71.3921 21.2167Z" fill="url(#paint2_linear)"/>
<path fill-rule="evenodd" clip-rule="evenodd" d="M42.6576 61.205C53.2087 61.205 61.7621 52.6517 61.7621 42.1006C61.7621 31.5494 53.2087 22.9961 42.6576 22.9961C32.1064 22.9961 23.5531 31.5494 23.5531 42.1006C23.5531 52.6517 32.1064 61.205 42.6576 61.205ZM42.6576 63.5413C54.499 63.5413 64.0983 53.942 64.0983 42.1006C64.0983 30.2591 54.499 20.6598 42.6576 20.6598C30.8162 20.6598 21.2168 30.2591 21.2168 42.1006C21.2168 53.942 30.8162 63.5413 42.6576 63.5413Z" fill="url(#paint3_linear)"/>
<path fill-rule="evenodd" clip-rule="evenodd" d="M42.6576 55.079C49.8255 55.079 55.6362 49.2683 55.6362 42.1005C55.6362 34.9326 49.8255 29.1219 42.6576 29.1219C35.4897 29.1219 29.679 34.9326 29.679 42.1005C29.679 49.2683 35.4897 55.079 42.6576 55.079ZM42.6576 57.4153C51.1158 57.4153 57.9724 50.5586 57.9724 42.1005C57.9724 33.6423 51.1158 26.7856 42.6576 26.7856C34.1995 26.7856 27.3428 33.6423 27.3428 42.1005C27.3428 50.5586 34.1995 57.4153 42.6576 57.4153Z" fill="url(#paint4_linear)"/>
<path fill-rule="evenodd" clip-rule="evenodd" d="M40.4328 32.5404C40.6528 33.1469 40.3395 33.8169 39.733 34.0369C37.9991 34.6657 36.514 35.8368 35.4982 37.3762C34.4823 38.9157 33.9897 40.7416 34.0935 42.5831C34.1298 43.2273 33.6371 43.7789 32.993 43.8152C32.3488 43.8515 31.7972 43.3587 31.7609 42.7146C31.6289 40.3715 32.2556 38.0483 33.5482 36.0895C34.8407 34.1307 36.7302 32.6407 38.9364 31.8406C39.5429 31.6206 40.2129 31.9339 40.4328 32.5404Z" fill="url(#paint5_linear)"/>
<defs>
<linearGradient id="paint0_linear" x1="-5.70647e-07" y1="4.27778" x2="92.2493" y2="21.072" gradientUnits="userSpaceOnUse">
<stop stop-color="#FFA755"/>
<stop offset="0.9997" stop-color="#FFC794"/>
<stop offset="0.9998" stop-color="#FFC794"/>
<stop offset="0.9999" stop-color="#FFC794"/>
<stop offset="1" stop-color="#FFC895"/>
</linearGradient>
<linearGradient id="paint1_linear" x1="72.9546" y1="20.1914" x2="79.2954" y2="22.918" gradientUnits="userSpaceOnUse">
<stop stop-color="#FFA755"/>
<stop offset="0.9997" stop-color="#FFC794"/>
<stop offset="0.9998" stop-color="#FFC794"/>
<stop offset="0.9999" stop-color="#FFC794"/>
<stop offset="1" stop-color="#FFC895"/>
</linearGradient>
<linearGradient id="paint2_linear" x1="71.3921" y1="22.2421" x2="68.2953" y2="21.6748" gradientUnits="userSpaceOnUse">
<stop stop-color="#FFA755"/>
<stop offset="0.9997" stop-color="#FFC794"/>
<stop offset="0.9998" stop-color="#FFC794"/>
<stop offset="0.9999" stop-color="#FFC794"/>
<stop offset="1" stop-color="#FFC895"/>
</linearGradient>
<linearGradient id="paint3_linear" x1="21.2168" y1="23.2803" x2="67.6402" y2="30.1475" gradientUnits="userSpaceOnUse">
<stop stop-color="#FFA755"/>
<stop offset="0.9997" stop-color="#FFC794"/>
<stop offset="0.9998" stop-color="#FFC794"/>
<stop offset="0.9999" stop-color="#FFC794"/>
<stop offset="1" stop-color="#FFC895"/>
</linearGradient>
<linearGradient id="paint4_linear" x1="27.3428" y1="28.6575" x2="60.5024" y2="33.5626" gradientUnits="userSpaceOnUse">
<stop stop-color="#FFA755"/>
<stop offset="0.9997" stop-color="#FFC794"/>
<stop offset="0.9998" stop-color="#FFC794"/>
<stop offset="0.9999" stop-color="#FFC794"/>
<stop offset="1" stop-color="#FFC895"/>
</linearGradient>
<linearGradient id="paint5_linear" x1="31.7437" y1="32.5065" x2="41.3233" y2="33.5368" gradientUnits="userSpaceOnUse">
<stop stop-color="#FFA755"/>
<stop offset="0.9997" stop-color="#FFC794"/>
<stop offset="0.9998" stop-color="#FFC794"/>
<stop offset="0.9999" stop-color="#FFC794"/>
<stop offset="1" stop-color="#FFC895"/>
</linearGradient>
</defs>
</svg>
