<svg width="70" height="70" viewBox="0 0 70 70" fill="none" xmlns="http://www.w3.org/2000/svg">
<path d="M35.9717 68.2897C35.9717 69.0658 36.6008 69.6949 37.3768 69.6949H68.2899C69.0659 69.6949 69.695 69.0658 69.695 68.2897V44.1213C69.695 43.3453 69.0659 42.7162 68.2899 42.7162H37.3768C36.6008 42.7162 35.9717 43.3453 35.9717 44.1213V68.2897ZM49.461 44.9644H56.2057V45.8075C56.2057 46.5835 55.5766 47.2126 54.8006 47.2126H50.8662C50.0901 47.2126 49.461 46.5835 49.461 45.8075V44.9644ZM38.2199 46.3695C38.2199 45.5935 38.849 44.9644 39.625 44.9644H47.2128V48.0557C47.2128 48.8318 47.8419 49.4609 48.6179 49.4609H57.0488C57.8248 49.4609 58.4539 48.8318 58.4539 48.0557V44.9644H66.0417C66.8177 44.9644 67.4468 45.5935 67.4468 46.3695V66.0415C67.4468 66.8175 66.8177 67.4466 66.0417 67.4466H39.625C38.849 67.4466 38.2199 66.8175 38.2199 66.0415V46.3695Z" fill="url(#paint0_linear)"/>
<path d="M62.9502 64.0744C62.9502 63.4536 63.4535 62.9503 64.0743 62.9503C64.6951 62.9503 65.1984 63.4536 65.1984 64.0744C65.1984 64.6953 64.6951 65.1985 64.0743 65.1985C63.4535 65.1985 62.9502 64.6953 62.9502 64.0744Z" fill="url(#paint1_linear)"/>
<path d="M58.4536 64.0744C58.4536 63.4536 58.9569 62.9503 59.5777 62.9503C60.1986 62.9503 60.7018 63.4536 60.7018 64.0744C60.7018 64.6953 60.1986 65.1985 59.5777 65.1985C58.9569 65.1985 58.4536 64.6953 58.4536 64.0744Z" fill="url(#paint2_linear)"/>
<path d="M53.9575 64.0744C53.9575 63.4536 54.4608 62.9503 55.0816 62.9503C55.7025 62.9503 56.2057 63.4536 56.2057 64.0744C56.2057 64.6953 55.7025 65.1985 55.0816 65.1985C54.4608 65.1985 53.9575 64.6953 53.9575 64.0744Z" fill="url(#paint3_linear)"/>
<path d="M67.4467 22.4822H65.1985V1.40514C65.1985 0.629103 64.5694 0 63.7933 0H37.3767C36.6007 0 35.9716 0.629103 35.9716 1.40514V22.4822H33.7234V1.40514C33.7234 0.629103 33.0942 0 32.3182 0H5.90159C5.12555 0 4.49645 0.629103 4.49645 1.40514V22.4822H2.24822C1.00833 22.4822 0 23.4906 0 24.7305V26.9787C0 28.2186 1.00833 29.2269 2.24822 29.2269H8.16442C7.97782 29.9475 7.86878 30.6972 7.86878 31.4751C7.86878 34.6002 9.47289 37.3554 11.8987 38.9673C5.01579 41.0919 0 47.5106 0 55.0815C0 57.3803 1.39053 59.3554 3.37234 60.2254V69.6949H33.7234V55.0815C33.7234 47.5106 28.7076 41.0919 21.8246 38.9673C24.2505 37.3554 25.8546 34.6002 25.8546 31.4751C25.8546 30.6972 25.7455 29.9475 25.5589 29.2269H67.4467C68.6866 29.2269 69.6949 28.2186 69.6949 26.9787V24.7305C69.6949 23.4906 68.6866 22.4822 67.4467 22.4822ZM47.2127 2.24822H53.9574V3.09131C53.9574 3.86734 53.3283 4.49645 52.5522 4.49645H48.6178C47.8418 4.49645 47.2127 3.86734 47.2127 3.09131V2.24822ZM38.2198 3.65336C38.2198 2.87733 38.8489 2.24822 39.6249 2.24822H44.9645V5.33953C44.9645 6.11557 45.5936 6.74467 46.3696 6.74467H54.8004C55.5765 6.74467 56.2056 6.11557 56.2056 5.33953V2.24822H61.5451C62.3212 2.24822 62.9503 2.87733 62.9503 3.65336V22.4822H56.2056V19.3909C56.2056 18.6149 55.5765 17.9858 54.8004 17.9858H46.3696C45.5936 17.9858 44.9645 18.6149 44.9645 19.3909V22.4822H38.2198V3.65336ZM53.9574 22.4822H47.2127V21.6392C47.2127 20.8631 47.8418 20.234 48.6178 20.234H52.5522C53.3283 20.234 53.9574 20.8631 53.9574 21.6392V22.4822ZM15.7376 2.24822H22.4822V3.09131C22.4822 3.86734 21.8531 4.49645 21.0771 4.49645H17.1427C16.3667 4.49645 15.7376 3.86734 15.7376 3.09131V2.24822ZM6.74467 3.65336C6.74467 2.87733 7.37377 2.24822 8.14981 2.24822H13.4893V5.33953C13.4893 6.11557 14.1184 6.74467 14.8945 6.74467H23.3253C24.1014 6.74467 24.7305 6.11557 24.7305 5.33953V2.24822H30.07C30.846 2.24822 31.4751 2.87733 31.4751 3.65336V22.4822H24.7305V19.3909C24.7305 18.6149 24.1014 17.9858 23.3253 17.9858H14.8945C14.1184 17.9858 13.4893 18.6149 13.4893 19.3909V22.4822H6.74467V3.65336ZM15.7376 22.4822V21.6392C15.7376 20.8631 16.3667 20.234 17.1427 20.234H21.0771C21.8531 20.234 22.4822 20.8631 22.4822 21.6392V22.4822H15.7376ZM2.24822 26.9787V24.7305H10.9331C10.2024 25.3735 9.57743 26.1322 9.08507 26.9787H2.24822ZM5.62056 60.702H10.117V67.4467H5.62056V60.702ZM16.2996 52.8333H12.3652V47.2127H20.234V52.8333H25.8546V67.4467H12.3652V60.702H16.2996C18.4692 60.702 20.234 58.9372 20.234 56.7676C20.234 54.5981 18.4692 52.8333 16.2996 52.8333ZM22.4822 48.8022L24.2651 50.585H22.4822V48.8022ZM31.4751 55.0815V67.4467H28.1028V51.2438L21.8235 44.9645H10.117V52.8333H6.74467V55.0815H16.2996C17.2293 55.0815 17.9858 55.838 17.9858 56.7676C17.9858 57.6973 17.2293 58.4538 16.2996 58.4538H5.62056C3.76128 58.4538 2.24822 56.9408 2.24822 55.0815C2.24822 47.0238 8.80404 40.468 16.8617 40.468C24.9193 40.468 31.4751 47.0238 31.4751 55.0815ZM16.8617 38.2198C13.142 38.2198 10.117 35.1948 10.117 31.4751C10.117 27.7554 13.142 24.7305 16.8617 24.7305C20.5814 24.7305 23.6063 27.7554 23.6063 31.4751C23.6063 35.1948 20.5814 38.2198 16.8617 38.2198ZM67.4467 26.9787H24.6383C24.147 26.1322 23.5209 25.3735 22.7902 24.7305H67.4467V26.9787Z" fill="url(#paint4_linear)"/>
<path d="M53.9575 59.5778C53.9575 58.957 54.4608 58.4537 55.0816 58.4537H64.0745C64.6954 58.4537 65.1986 58.957 65.1986 59.5778C65.1986 60.1987 64.6954 60.702 64.0745 60.702H55.0816C54.4608 60.702 53.9575 60.1987 53.9575 59.5778Z" fill="url(#paint5_linear)"/>
<defs>
<linearGradient id="paint0_linear" x1="35.9717" y1="44.3649" x2="72.046" y2="51.0352" gradientUnits="userSpaceOnUse">
<stop stop-color="#FFA755"/>
<stop offset="0.9997" stop-color="#FFC794"/>
<stop offset="0.9998" stop-color="#FFC794"/>
<stop offset="0.9999" stop-color="#FFC794"/>
<stop offset="1" stop-color="#FFC895"/>
</linearGradient>
<linearGradient id="paint1_linear" x1="62.9502" y1="63.0877" x2="65.3841" y2="63.4477" gradientUnits="userSpaceOnUse">
<stop stop-color="#FFA755"/>
<stop offset="0.9997" stop-color="#FFC794"/>
<stop offset="0.9998" stop-color="#FFC794"/>
<stop offset="0.9999" stop-color="#FFC794"/>
<stop offset="1" stop-color="#FFC895"/>
</linearGradient>
<linearGradient id="paint2_linear" x1="58.4536" y1="63.0877" x2="60.8875" y2="63.4477" gradientUnits="userSpaceOnUse">
<stop stop-color="#FFA755"/>
<stop offset="0.9997" stop-color="#FFC794"/>
<stop offset="0.9998" stop-color="#FFC794"/>
<stop offset="0.9999" stop-color="#FFC794"/>
<stop offset="1" stop-color="#FFC895"/>
</linearGradient>
<linearGradient id="paint3_linear" x1="53.9575" y1="63.0877" x2="56.3914" y2="63.4477" gradientUnits="userSpaceOnUse">
<stop stop-color="#FFA755"/>
<stop offset="0.9997" stop-color="#FFC794"/>
<stop offset="0.9998" stop-color="#FFC794"/>
<stop offset="0.9999" stop-color="#FFC794"/>
<stop offset="1" stop-color="#FFC895"/>
</linearGradient>
<linearGradient id="paint4_linear" x1="-4.6165e-07" y1="4.25913" x2="75.4515" y2="15.4202" gradientUnits="userSpaceOnUse">
<stop stop-color="#FFA755"/>
<stop offset="0.9997" stop-color="#FFC794"/>
<stop offset="0.9998" stop-color="#FFC794"/>
<stop offset="0.9999" stop-color="#FFC794"/>
<stop offset="1" stop-color="#FFC895"/>
</linearGradient>
<linearGradient id="paint5_linear" x1="53.9575" y1="58.5911" x2="61.996" y2="64.5366" gradientUnits="userSpaceOnUse">
<stop stop-color="#FFA755"/>
<stop offset="0.9997" stop-color="#FFC794"/>
<stop offset="0.9998" stop-color="#FFC794"/>
<stop offset="0.9999" stop-color="#FFC794"/>
<stop offset="1" stop-color="#FFC895"/>
</linearGradient>
</defs>
</svg>
