<svg width="58" height="19" viewBox="0 0 58 19" fill="none" xmlns="http://www.w3.org/2000/svg">
<path d="M23.32 0.907471L20.4567 18.7253H25.0333L27.8948 0.907471H23.32ZM37.1245 8.16544C35.5252 7.37567 34.5448 6.84263 34.5448 6.03486C34.5644 5.30042 35.3739 4.54799 37.1816 4.54799C38.6685 4.51065 39.7614 4.86007 40.5904 5.20774L41.0058 5.39311L41.628 1.66518C40.724 1.31575 39.2907 0.930739 37.5203 0.930739C33.0008 0.930739 29.8185 3.28052 29.7987 6.64122C29.7614 9.12123 32.0771 10.4974 33.8102 11.323C35.5806 12.1699 36.1832 12.7189 36.1832 13.4714C36.1637 14.6266 34.7517 15.1596 33.4341 15.1596C31.6086 15.1596 30.628 14.8851 29.1394 14.2414L28.5367 13.9669L27.8967 17.841C28.9718 18.3189 30.9489 18.7395 33.001 18.7611C37.804 18.7611 40.9293 16.4469 40.9686 12.8652C40.9843 10.9004 39.7631 9.39557 37.1245 8.16544ZM53.3608 0.962612H49.82C48.7289 0.962612 47.8998 1.27645 47.4274 2.3961L40.6294 18.7253H45.4323L46.7552 15.1899H52.1287L52.8151 18.7395H57.0512L53.3608 0.962612ZM48.0872 11.6222C48.1799 11.6312 49.9307 5.85106 49.9307 5.85106L51.3249 11.6222C51.3249 11.6222 48.9911 11.6222 48.0872 11.6222ZM16.6326 0.907471L12.1487 13.013L11.6602 10.6257C10.8311 7.87116 8.23186 4.87787 5.33105 3.391L9.43696 18.7075H14.2793L21.4749 0.909425H16.6326V0.907471Z" fill="#2394BC"/>
<path d="M10.1515 3.20582C9.80212 1.84722 8.68775 0.930931 7.17428 0.911377H0.0731312L0 1.24105C5.53939 2.60669 10.1889 6.8088 11.6973 10.7614L10.1515 3.20582Z" fill="#EFC75E"/>
</svg>
