<svg width="27" height="27" viewBox="0 0 27 27" fill="none" xmlns="http://www.w3.org/2000/svg">
<path d="M13.0538 26.5061C20.2633 26.5061 26.1077 20.6617 26.1077 13.4523C26.1077 6.24284 20.2633 0.398438 13.0538 0.398438C5.8444 0.398438 0 6.24284 0 13.4523C0 20.6617 5.8444 26.5061 13.0538 26.5061Z" fill="#4D76A1"/>
<path fill-rule="evenodd" clip-rule="evenodd" d="M12.5606 19.1778H13.5852C13.5852 19.1778 13.8946 19.1438 14.0526 18.9734C14.1981 18.8171 14.1934 18.5234 14.1934 18.5234C14.1934 18.5234 14.1734 17.1486 14.8115 16.9462C15.4405 16.7468 16.2481 18.2749 17.1042 18.8624C17.7516 19.3071 18.2435 19.2096 18.2435 19.2096L20.5326 19.1778C20.5326 19.1778 21.73 19.104 21.1622 18.1625C21.1157 18.0855 20.8316 17.466 19.4603 16.1932C18.025 14.861 18.2172 15.0765 19.9462 12.7721C20.9991 11.3687 21.4201 10.5119 21.2886 10.1449C21.1632 9.79541 20.3888 9.88779 20.3888 9.88779L17.8114 9.90385C17.8114 9.90385 17.6204 9.87778 17.4786 9.96249C17.3402 10.0456 17.2511 10.2392 17.2511 10.2392C17.2511 10.2392 16.8432 11.3252 16.2991 12.2487C15.1514 14.1976 14.6926 14.3004 14.505 14.1794C14.0687 13.8974 14.1776 13.0464 14.1776 12.4419C14.1776 10.5533 14.4641 9.76586 13.6198 9.56201C13.3397 9.4943 13.1335 9.44962 12.417 9.44241C11.4974 9.43287 10.719 9.4452 10.2783 9.66114C9.9851 9.80472 9.75892 10.1247 9.89668 10.1431C10.067 10.1659 10.4528 10.2471 10.6574 10.5256C10.9215 10.8849 10.9122 11.6919 10.9122 11.6919C10.9122 11.6919 11.0639 13.9151 10.5578 14.1913C10.2104 14.3807 9.73379 13.994 8.71062 12.2259C8.18635 11.3203 7.79054 10.3192 7.79054 10.3192C7.79054 10.3192 7.71421 10.1321 7.57809 10.0321C7.41287 9.91083 7.18203 9.8722 7.18203 9.8722L4.7329 9.88825C4.7329 9.88825 4.36524 9.89849 4.23027 10.0584C4.1102 10.2005 4.22073 10.4947 4.22073 10.4947C4.22073 10.4947 6.13816 14.9806 8.30922 17.2412C10.2999 19.3139 12.5606 19.1778 12.5606 19.1778Z" fill="white"/>
</svg>
