<svg width="30" height="20" viewBox="0 0 30 20" fill="none" xmlns="http://www.w3.org/2000/svg">
<path d="M27.7532 0H2.24678C1.00588 0 0 1.00588 0 2.24678V17.4085C0 18.6493 1.00588 19.6553 2.24678 19.6553H27.7532C28.9941 19.6553 30 18.6494 30 17.4085V2.24678C30 1.00588 28.9941 0 27.7532 0Z" fill="#FF4B55"/>
<path d="M4.9812 3.07356L5.47433 4.55212L7.03292 4.56419C7.23472 4.56571 7.31839 4.82329 7.15603 4.94311L5.90224 5.86895L6.37233 7.35501C6.43315 7.54743 6.21413 7.70651 6.04995 7.58921L4.78198 6.68282L3.51401 7.58915C3.34983 7.70651 3.13081 7.54731 3.19163 7.35495L3.66173 5.86889L2.40794 4.94311C2.24558 4.82323 2.32925 4.56571 2.53104 4.56419L4.08964 4.55212L4.58276 3.07356C4.64663 2.88214 4.91739 2.88214 4.9812 3.07356Z" fill="#FFE15A"/>
<path d="M10.6406 3.43787L10.9942 3.91998L11.5648 3.7415C11.6387 3.71842 11.6995 3.80268 11.6543 3.86543L11.3049 4.35064L11.651 4.8382C11.6958 4.90131 11.6345 4.98516 11.5607 4.96154L10.9913 4.77926L10.6345 5.25908C10.5883 5.32119 10.4896 5.28873 10.4893 5.21139L10.4867 4.61344L9.92006 4.42236C9.8467 4.39758 9.84705 4.29375 9.92058 4.26949L10.4884 4.08223L10.495 3.48434C10.4959 3.40717 10.5948 3.37547 10.6406 3.43787Z" fill="#FFE15A"/>
<path d="M8.48795 2.0006L9.08232 2.06517L9.33592 1.5237C9.36879 1.45362 9.47197 1.46564 9.48773 1.5414L9.60996 2.12663L10.2033 2.20046C10.2801 2.21001 10.3005 2.31185 10.2333 2.35034L9.71449 2.64741L9.82764 3.23452C9.84228 3.31058 9.75176 3.36144 9.69439 3.30946L9.25148 2.9078L8.72812 3.19679C8.66039 3.23423 8.58392 3.1638 8.61568 3.09319L8.86078 2.5478L8.42414 2.13929C8.36771 2.08667 8.41101 1.99228 8.48795 2.0006Z" fill="#FFE15A"/>
<path d="M9.42759 7.79519L9.07403 8.27742L8.50339 8.09894C8.4295 8.07585 8.36874 8.16005 8.41397 8.22287L8.76331 8.70808L8.41726 9.19564C8.37243 9.25875 8.43378 9.34259 8.50749 9.31898L9.07691 9.13669L9.43368 9.61652C9.47985 9.67863 9.57858 9.64617 9.57888 9.56882L9.58151 8.97087L10.1481 8.7798C10.2215 8.75502 10.2211 8.65119 10.1476 8.62693L9.57981 8.43966L9.57314 7.84177C9.5722 7.76449 9.47335 7.73273 9.42759 7.79519Z" fill="#FFE15A"/>
<path d="M11.5801 6.44444L10.9856 6.50902L10.732 5.96755C10.6992 5.89747 10.596 5.90948 10.5802 5.98525L10.4579 6.57048L9.86462 6.64431C9.78781 6.65386 9.76736 6.75569 9.83456 6.79419L10.3534 7.09126L10.2403 7.67837C10.2256 7.75443 10.3161 7.80528 10.3735 7.75331L10.8164 7.35165L11.3398 7.64064C11.4075 7.67808 11.484 7.60765 11.4522 7.53704L11.2071 6.99165L11.6438 6.58314C11.7004 6.53052 11.6571 6.43612 11.5801 6.44444Z" fill="#FFE15A"/>
</svg>
