<svg width="80" height="80" viewBox="0 0 80 80" fill="none" xmlns="http://www.w3.org/2000/svg">
<g clip-path="url(#clip0)">
<path d="M45.7001 80H34.2999L29.7125 70.3125L25.8423 68.7073L15.7477 72.3151L7.68494 64.2523L11.2927 54.1577L9.6875 50.2875L0 45.7001V34.2999L9.6875 29.7125L11.2927 25.8423L7.68494 15.7477L15.7477 7.68494L25.8478 11.2952L29.7101 9.69482L34.2999 0H45.7001L50.2899 9.69482L54.1522 11.2952L64.2523 7.68494L72.3151 15.7477L68.7073 25.8423L70.3125 29.7125L80 34.2999V45.7001L70.3125 50.2875L68.7073 54.1577L72.3151 64.2523L64.2523 72.3151L54.1577 68.7073L50.2875 70.3125L45.7001 80Z" fill="#F8D440"/>
<path d="M39.9997 30C45.5228 30 49.9997 34.4769 49.9997 40H54.9997C55.0022 32.1301 48.9225 25.5963 41.0727 25.0336C33.223 24.4708 26.2729 30.0696 25.1523 37.8595C24.0323 45.6488 29.122 52.9804 36.8125 54.6527L33.2321 58.2324L36.7673 61.7676L45.5423 52.9926L39.7495 41.3824L35.275 43.6176L38.3847 49.8352C33.2498 48.9984 29.6189 44.3579 30.0406 39.1724C30.463 33.9868 34.7971 29.9951 39.9997 30Z" fill="white"/>
</g>
<defs>
<clipPath id="clip0">
<rect width="80" height="80" fill="white"/>
</clipPath>
</defs>
</svg>
