<svg width="16" height="16" viewBox="0 0 16 16" fill="none" xmlns="http://www.w3.org/2000/svg">
<g clip-path="url(#clip0)">
<path d="M14.7307 2.26904C13.9025 1.37073 12.766 0.875977 11.5304 0.875977C10.6068 0.875977 9.76099 1.16797 9.01636 1.74377C8.64062 2.03442 8.30017 2.39001 8 2.80505C7.69995 2.39014 7.35938 2.03442 6.98352 1.74377C6.23901 1.16797 5.39319 0.875977 4.4696 0.875977C3.23401 0.875977 2.09741 1.37073 1.26917 2.26904C0.450806 3.15686 0 4.36975 0 5.68445C0 7.0376 0.504272 8.27625 1.58691 9.58264C2.55542 10.7512 3.94739 11.9375 5.55933 13.3112C6.10974 13.7803 6.73364 14.312 7.38147 14.8784C7.55261 15.0283 7.77222 15.1108 8 15.1108C8.22766 15.1108 8.44739 15.0283 8.61829 14.8787C9.26611 14.3121 9.89038 13.7802 10.441 13.3108C12.0527 11.9374 13.4447 10.7512 14.4132 9.58252C15.4958 8.27625 16 7.0376 16 5.68433C16 4.36975 15.5492 3.15686 14.7307 2.26904Z" fill="#EB5757"/>
</g>
<defs>
<clipPath id="clip0">
<rect width="16" height="16" fill="white"/>
</clipPath>
</defs>
</svg>
