<svg width="24" height="23" viewBox="0 0 24 23" fill="none" xmlns="http://www.w3.org/2000/svg">
<g clip-path="url(#clip0)">
<circle cx="11.5771" cy="11.5" r="11.5" fill="#2A2A2A"/>
<g clip-path="url(#clip1)">
<path d="M14.4825 6.27295H9.36822C7.70373 6.27295 6.34961 7.62707 6.34961 9.29156V14.4059C6.34961 16.0703 7.70373 17.4244 9.36822 17.4244H14.4826C16.147 17.4244 17.5011 16.0703 17.5011 14.4059V9.29156C17.5011 7.62707 16.147 6.27295 14.4825 6.27295V6.27295ZM11.9254 14.8978C10.244 14.8978 8.8762 13.53 8.8762 11.8487C8.8762 10.1674 10.244 8.79954 11.9254 8.79954C13.6067 8.79954 14.9745 10.1674 14.9745 11.8487C14.9745 13.53 13.6067 14.8978 11.9254 14.8978ZM15.0474 9.51863C14.5506 9.51863 14.1464 9.11451 14.1464 8.61765C14.1464 8.12078 14.5506 7.71657 15.0474 7.71657C15.5443 7.71657 15.9485 8.12078 15.9485 8.61765C15.9485 9.11451 15.5443 9.51863 15.0474 9.51863Z" fill="#F8D440"/>
<path d="M11.9254 9.45312C10.6047 9.45312 9.53003 10.5277 9.53003 11.8485C9.53003 13.1693 10.6047 14.2439 11.9254 14.2439C13.2463 14.2439 14.3208 13.1693 14.3208 11.8485C14.3208 10.5277 13.2463 9.45312 11.9254 9.45312Z" fill="#F8D440"/>
<path d="M15.0478 8.37061C14.9115 8.37061 14.8005 8.48155 14.8005 8.61785C14.8005 8.75414 14.9115 8.86509 15.0478 8.86509C15.1842 8.86509 15.2951 8.75423 15.2951 8.61785C15.2951 8.48146 15.1842 8.37061 15.0478 8.37061Z" fill="#F8D440"/>
</g>
</g>
<defs>
<clipPath id="clip0">
<rect x="0.0771484" width="23" height="23" fill="white"/>
</clipPath>
<clipPath id="clip1">
<rect x="6.34961" y="6.27295" width="11.1515" height="11.1515" fill="white"/>
</clipPath>
</defs>
</svg>
