<svg width="166" height="63" viewBox="0 0 166 63" fill="none" xmlns="http://www.w3.org/2000/svg">
<g clip-path="url(#clip0)">
<path d="M47.7634 36.353C47.2328 36.3268 47.2537 35.9028 47.2537 35.9028L48.2323 16.0607C48.2398 15.9441 48.2069 15.8285 48.1391 15.7336C48.1391 15.7336 45.0675 13.4568 44.0507 12.5052C43.6817 12.1572 43.1079 12.2681 43.0827 12.7799L41.9134 36.4896C41.8774 37.2207 41.5631 37.3884 41.284 37.4333L7.81768 41.1768C7.71256 41.187 7.6126 41.2276 7.52993 41.2937C7.44726 41.3598 7.38543 41.4487 7.35192 41.5494C7.31842 41.6502 7.31469 41.7585 7.34118 41.8613C7.36767 41.9641 7.42324 42.057 7.50116 42.1286L10.3104 44.2606C10.365 44.3136 10.4304 44.3541 10.5022 44.3791C10.5739 44.4042 10.6502 44.4132 10.7258 44.4057L41.4036 41.3601C41.4594 41.349 41.5169 41.3512 41.5715 41.3666C41.6262 41.3819 41.6766 41.4098 41.7186 41.4482C41.7606 41.4866 41.7931 41.5344 41.8135 41.5877C41.8338 41.641 41.8415 41.6983 41.8359 41.7552L41.7894 42.6983C41.7692 43.1077 42.1984 43.2681 42.6011 43.2293L47.5957 42.5596C47.7568 42.543 47.9067 42.4688 48.0181 42.3506C48.1295 42.2324 48.1952 42.0779 48.2031 41.9153L48.4425 37.0607C48.4472 36.9686 48.4331 36.8765 48.401 36.7901C48.3689 36.7037 48.3194 36.6249 48.2558 36.5585C48.1921 36.4922 48.1155 36.4397 48.0308 36.4043C47.9461 36.369 47.8551 36.3515 47.7634 36.353Z" fill="#F9CD15"/>
<path d="M38.5263 23.6213L39.2596 8.75069C39.2636 8.6578 39.2483 8.56511 39.2149 8.47846C39.1815 8.3918 39.1305 8.31306 39.0653 8.2472C39.0001 8.18133 38.9221 8.12977 38.8361 8.09575C38.7501 8.06173 38.658 8.046 38.5656 8.04954L7.09891 11.2834C6.93976 11.3001 6.79179 11.3735 6.68177 11.4904C6.57176 11.6074 6.50698 11.76 6.49918 11.9208L6.04091 21.2131C6.0327 21.3653 6.07606 21.5157 6.1639 21.6399C6.25174 21.764 6.37887 21.8545 6.5245 21.8965L13.8726 24.0325C13.9855 24.0658 14.0877 24.1284 14.1688 24.2141C14.25 24.2998 14.3072 24.4055 14.3348 24.5206C14.3623 24.6356 14.3593 24.756 14.3259 24.8695C14.2925 24.983 14.2299 25.0857 14.1445 25.1672L1.99252 36.8217C1.89288 36.9186 1.82558 37.0442 1.7999 37.1812C1.77421 37.3181 1.79141 37.4597 1.84911 37.5864C1.90682 37.7131 2.00219 37.8186 2.12208 37.8885C2.24196 37.9583 2.38045 37.9889 2.51845 37.9762L14.0062 36.8352C14.1549 36.8194 14.294 36.754 14.4015 36.6495L24.06 27.2465C24.1435 27.1652 24.2466 27.107 24.3592 27.0779C24.4717 27.0488 24.5899 27.0496 24.702 27.0803L28.6704 28.1628C28.8182 28.2022 28.9478 28.2919 29.0372 28.4165C29.1267 28.5412 29.1705 28.6931 29.1613 28.8466L28.8887 34.3738C28.8838 34.4708 28.8999 34.5677 28.9358 34.6579C28.9717 34.748 29.0265 34.8293 29.0966 34.8961C29.1667 34.9629 29.2503 35.0137 29.3417 35.0449C29.4332 35.0762 29.5303 35.0871 29.6263 35.0771L37.453 34.3051C37.614 34.2885 37.7639 34.2144 37.8753 34.0961C37.9868 33.9779 38.0524 33.8235 38.0603 33.6608L38.1959 30.9118L38.5263 23.6213ZM28.7428 20.7863L15.8846 17.2133C15.7383 17.1715 15.6102 17.0812 15.5211 16.9572C15.4321 16.8331 15.3872 16.6824 15.3938 16.5295C15.4019 16.3677 15.4677 16.2142 15.5792 16.0972C15.6907 15.9802 15.8404 15.9075 16.0008 15.8925L29.1274 14.6124C29.2198 14.6089 29.3118 14.6246 29.3978 14.6586C29.4838 14.6926 29.5619 14.7442 29.6271 14.8101C29.6923 14.8759 29.7432 14.9547 29.7767 15.0413C29.8101 15.128 29.8253 15.2207 29.8214 15.3136L29.5816 20.1754C29.577 20.2753 29.5499 20.3729 29.5026 20.461C29.4553 20.549 29.3889 20.6252 29.3083 20.6839C29.2277 20.7426 29.135 20.7822 29.0371 20.8C28.9392 20.8177 28.8386 20.813 28.7428 20.7863Z" fill="white"/>
<path d="M107.929 18.345L112.842 17.8544L121.417 16.9801C121.577 16.9651 121.727 16.8924 121.838 16.7754C121.95 16.6584 122.016 16.505 122.024 16.3431L122.236 12.0369C122.241 11.9399 122.225 11.843 122.189 11.7528C122.153 11.6627 122.098 11.5814 122.028 11.5146C121.958 11.4478 121.875 11.397 121.783 11.3658C121.692 11.3345 121.595 11.3236 121.499 11.3336L90.444 14.4852C90.2836 14.5003 90.1339 14.5729 90.0224 14.6899C89.9109 14.8069 89.8451 14.9604 89.837 15.1222L89.7584 16.716L88.7301 37.5671C88.7296 37.6611 88.7487 37.7542 88.7861 37.8403C88.8235 37.9265 88.8785 38.0037 88.9474 38.0672C89.0163 38.1307 89.0977 38.1789 89.1863 38.2088C89.2749 38.2387 89.3688 38.2496 89.4619 38.2408L120.543 35.2884C120.704 35.2734 120.853 35.2007 120.965 35.0837C121.076 34.9667 121.142 34.8132 121.15 34.6514L121.267 32.2753C121.272 32.1783 121.256 32.0814 121.22 31.9912C121.184 31.901 121.129 31.8198 121.059 31.7529C120.989 31.6861 120.906 31.6354 120.814 31.6041C120.723 31.5729 120.626 31.5619 120.53 31.572L112.154 32.3975L107.445 32.8981C107.348 32.9095 107.251 32.8994 107.159 32.8687C107.067 32.8379 106.982 32.7872 106.912 32.7201C106.842 32.653 106.787 32.5712 106.751 32.4805C106.716 32.3897 106.701 32.2922 106.707 32.1948L107.359 18.9765C107.367 18.8213 107.428 18.6735 107.532 18.5584C107.636 18.4433 107.776 18.3679 107.929 18.345Z" fill="white"/>
<path d="M135.034 24.0789L157.139 21.8711C157.298 21.8544 157.446 21.781 157.556 21.6641C157.666 21.5471 157.731 21.3945 157.738 21.2337L158.376 8.31515C158.38 8.22367 158.366 8.1322 158.335 8.04635C158.303 7.9605 158.254 7.88207 158.191 7.81585C158.128 7.74964 158.053 7.69703 157.969 7.66125C157.885 7.62547 157.795 7.60727 157.704 7.60777L126.61 10.6622C126.45 10.6772 126.3 10.7499 126.189 10.8669C126.077 10.9839 126.011 11.1373 126.003 11.2992L124.894 33.7879C124.89 33.8805 124.905 33.9729 124.939 34.0592C124.972 34.1455 125.023 34.2238 125.089 34.2891C125.154 34.3544 125.232 34.4053 125.318 34.4385C125.404 34.4716 125.496 34.4864 125.588 34.4817L156.658 31.3308C156.817 31.3142 156.965 31.2407 157.075 31.1238C157.185 31.0069 157.25 30.8542 157.257 30.6935L157.363 28.5587C157.366 28.469 157.352 28.3796 157.321 28.2957C157.289 28.2117 157.241 28.1349 157.18 28.0697C157.119 28.0046 157.045 27.9524 156.964 27.9163C156.882 27.8801 156.794 27.8608 156.705 27.8593L148.286 28.6827L134.964 29.9385C134.868 29.9474 134.772 29.9356 134.681 29.9039C134.591 29.8722 134.508 29.8213 134.439 29.7547C134.37 29.688 134.315 29.6072 134.28 29.5176C134.244 29.4281 134.229 29.3319 134.233 29.2355L134.453 24.7831C134.444 24.6138 134.498 24.4471 134.606 24.3166C134.714 24.186 134.867 24.1011 135.034 24.0789ZM134.86 16.0819C134.868 15.9212 134.933 15.7685 135.043 15.6516C135.153 15.5347 135.301 15.4613 135.46 15.4446L148.208 14.1531C148.304 14.1431 148.401 14.154 148.493 14.1853C148.584 14.2165 148.668 14.2673 148.738 14.3341C148.808 14.4009 148.863 14.4822 148.899 14.5723C148.934 14.6625 148.951 14.7594 148.946 14.8564L148.891 15.9677C148.883 16.1276 148.818 16.2793 148.708 16.395C148.598 16.5107 148.45 16.5827 148.292 16.5978L135.557 17.9045C135.461 17.9147 135.365 17.9038 135.273 17.8726C135.182 17.8413 135.099 17.7904 135.03 17.7235C134.96 17.6566 134.906 17.5753 134.871 17.4851C134.836 17.395 134.821 17.2982 134.827 17.2016L134.86 16.0819Z" fill="white"/>
<path d="M84.8227 15.0068L53.7288 18.0685C53.5696 18.0851 53.4217 18.1586 53.3117 18.2755C53.2016 18.3924 53.1369 18.5451 53.1291 18.7058L52.0204 41.1872C52.0164 41.2801 52.0317 41.3728 52.0651 41.4595C52.0985 41.5461 52.1495 41.6249 52.2147 41.6907C52.2799 41.7566 52.3579 41.8082 52.4439 41.8422C52.5299 41.8762 52.622 41.8919 52.7144 41.8884L83.7636 38.8464C83.9247 38.8281 84.0739 38.7522 84.1841 38.6325C84.2943 38.5129 84.3582 38.3574 84.3641 38.1945L84.6111 33.1864C84.6183 33.0699 84.5976 32.9534 84.551 32.8465C84.5043 32.7397 84.4328 32.6456 84.3426 32.5722L76.4729 28.1606C76.3638 28.0995 76.2738 28.009 76.2132 27.8991C76.1526 27.7893 76.1237 27.6646 76.1299 27.5391C76.1361 27.4136 76.1771 27.2923 76.2482 27.1889C76.3193 27.0856 76.4178 27.0043 76.5324 26.9543L84.8027 23.2434C84.9161 23.1936 85.0132 23.1126 85.0827 23.0096C85.1523 22.9067 85.1914 22.7861 85.1957 22.6618L85.5378 15.7236C85.5443 15.6276 85.5302 15.5312 85.4965 15.4412C85.4629 15.3511 85.4104 15.2693 85.3426 15.2014C85.2748 15.1334 85.1934 15.0809 85.1037 15.0473C85.014 15.0138 84.9182 14.9999 84.8227 15.0068ZM74.8748 36.0409L62.1261 37.3396C62.0298 37.351 61.9322 37.3409 61.8402 37.3102C61.7482 37.2794 61.664 37.2287 61.5937 37.1616C61.5233 37.0945 61.4685 37.0127 61.433 36.9219C61.3976 36.8312 61.3824 36.7337 61.3885 36.6363L61.5944 32.4617C61.6007 32.3005 61.665 32.147 61.7753 32.0298C61.8856 31.9126 62.0344 31.8396 62.1941 31.8244L69.6607 31.1153C69.8031 31.1028 69.9461 31.1328 70.0717 31.2015L75.1851 34.0334C75.2895 34.0957 75.375 34.1853 75.4326 34.2927C75.4902 34.4001 75.5176 34.5213 75.5121 34.6432L75.476 35.3743C75.4751 35.5404 75.4132 35.7003 75.3023 35.8233C75.1913 35.9464 75.0391 36.0238 74.8748 36.0409ZM75.6938 23.571C75.6938 23.571 71.7919 24.3899 71.7189 24.3937L62.72 25.2984C62.6237 25.3097 62.526 25.2997 62.434 25.2689C62.342 25.2381 62.2579 25.1874 62.1875 25.1203C62.1172 25.0533 62.0623 24.9714 62.0269 24.8807C61.9914 24.7899 61.9762 24.6924 61.9824 24.5951L62.0296 23.6373C62.0374 23.4766 62.1022 23.3239 62.2122 23.207C62.3222 23.0901 62.4702 23.0166 62.6293 23L75.4071 21.7027C75.5031 21.6926 75.6002 21.7036 75.6917 21.7348C75.7831 21.766 75.8667 21.8168 75.9368 21.8836C76.0069 21.9504 76.0617 22.0317 76.0976 22.1218C76.1335 22.212 76.1496 22.3089 76.1447 22.406L76.1155 22.9982C76.1072 23.1242 76.063 23.2453 75.9883 23.3468C75.9135 23.4484 75.8113 23.5262 75.6938 23.571Z" fill="white"/>
<path d="M72.7208 39.9802L65.8753 40.6539L72.7208 39.9802Z" fill="white"/>
</g>
<g opacity="0.5">
<path d="M2.02646 56.387L5.97606 56.0429L6.45781 61.5724L5.24133 61.6784L4.85524 57.2469L3.2596 57.3859L3.29608 57.8046C3.39013 58.8841 3.39726 59.7272 3.31745 60.3337C3.2429 60.9398 3.09174 61.3669 2.86396 61.6149C2.63618 61.8629 2.30111 62.0062 1.85876 62.0447C1.61125 62.0663 1.39591 62.0611 1.21273 62.0294L1.20432 61.0193C1.27896 61.0234 1.34261 61.0231 1.39528 61.0185C1.57432 61.003 1.71593 60.9535 1.8201 60.8701C1.92907 60.781 2.02086 60.6165 2.09546 60.3765C2.17533 60.1361 2.21637 59.785 2.21859 59.3231C2.22034 58.8561 2.18956 58.2591 2.12624 57.5324L2.02646 56.387Z" fill="white"/>
<path d="M9.8939 58.6465L10.9742 55.6075L12.2934 55.4925L10.5408 59.9511C10.3451 60.4457 10.1117 60.811 9.84037 61.0469C9.57435 61.2823 9.24386 61.4172 8.8489 61.4516C8.43288 61.4879 8.02588 61.4145 7.6279 61.2317L8.02409 60.2978C8.23476 60.4014 8.45858 60.443 8.69555 60.4223C8.96939 60.3985 9.18826 60.2308 9.35215 59.9194L6.77975 55.9729L8.13841 55.8545L9.8939 58.6465Z" fill="white"/>
<path d="M16.7909 60.6721L16.6113 58.6104C16.0769 58.9329 15.6017 59.1123 15.1857 59.1485C14.6117 59.1985 14.1453 59.0826 13.7864 58.8008C13.4276 58.519 13.2213 58.0701 13.1677 57.4539L12.9915 55.4317L14.208 55.3257L14.3532 56.9925C14.4156 57.7087 14.7443 58.0408 15.3394 57.989C15.8397 57.9454 16.2322 57.7918 16.517 57.5282L16.3092 55.1427L17.5256 55.0367L18.0074 60.5661L16.7909 60.6721Z" fill="white"/>
<path d="M26.4402 54.26L26.922 59.7895L19.3308 60.4508L18.8491 54.9214L20.0655 54.8154L20.4516 59.2469L22.4185 59.0755L22.0324 54.644L23.2489 54.5381L23.635 58.9695L25.6098 58.7975L25.2237 54.366L26.4402 54.26Z" fill="white"/>
<path d="M27.7743 59.7152L29.6589 53.9398L30.7806 53.8421L33.6356 59.2046L32.3638 59.3154L31.7502 58.1192L29.412 58.3229L29.0145 59.6072L27.7743 59.7152ZM29.7529 57.2108L31.2221 57.0828L30.3313 55.3537L29.7529 57.2108Z" fill="white"/>
<path d="M38.3834 53.2195L38.8651 58.7489L37.6487 58.8549L37.4945 57.0855L36.5387 57.1688L35.508 59.0414L34.0861 59.1653L35.2648 57.0728C34.4492 56.8467 34.004 56.3045 33.9292 55.4461C33.8797 54.8774 34.0252 54.4163 34.3659 54.063C34.7113 53.7039 35.2079 53.4962 35.8556 53.4397L38.3834 53.2195ZM36.1686 56.1186L37.4009 56.0112L37.2626 54.4235L36.054 54.5288C35.7538 54.5549 35.5254 54.6438 35.3689 54.7954C35.2123 54.947 35.1454 55.1545 35.1684 55.4178C35.189 55.6547 35.2872 55.8372 35.4628 55.9652C35.6437 56.0927 35.879 56.1438 36.1686 56.1186Z" fill="white"/>
<path d="M42.5656 58.4266L42.0839 52.8971L46.697 52.4952L47.1788 58.0246L45.9623 58.1306L45.5762 53.6992L43.396 53.8891L43.7821 58.3206L42.5656 58.4266Z" fill="white"/>
<path d="M48.7583 52.3156L52.7079 51.9715L53.1897 57.5009L51.9732 57.6069L51.5871 53.1755L49.9915 53.3145L50.028 53.7331C50.122 54.8127 50.1291 55.6558 50.0493 56.2623C49.9748 56.8684 49.8236 57.2954 49.5958 57.5434C49.3681 57.7915 49.033 57.9347 48.5906 57.9733C48.3431 57.9948 48.1278 57.9897 47.9446 57.9579L47.9362 56.9478C48.0108 56.9519 48.0745 56.9517 48.1272 56.9471C48.3062 56.9315 48.4478 56.882 48.552 56.7987C48.6609 56.7096 48.7527 56.5451 48.8273 56.3051C48.9072 56.0647 48.9483 55.7135 48.9505 55.2517C48.9522 54.7846 48.9214 54.1877 48.8581 53.461L48.7583 52.3156Z" fill="white"/>
<path d="M54.0408 57.4268L55.9253 51.6514L57.047 51.5537L59.902 56.9161L58.6302 57.027L58.0166 55.8308L55.6784 56.0345L55.2809 57.3188L54.0408 57.4268ZM56.0193 54.9224L57.4886 54.7944L56.5977 53.0653L56.0193 54.9224Z" fill="white"/>
<path d="M62.043 56.7296L61.659 52.3219L59.9764 52.4684L59.8787 51.3468L64.4602 50.9476L64.558 52.0693L62.8754 52.2159L63.2595 56.6236L62.043 56.7296Z" fill="white"/>
<path d="M69.1413 51.9247L69.376 54.6183C69.8236 54.5793 70.1711 54.427 70.4186 54.1613C70.6709 53.89 70.7791 53.5489 70.7433 53.1381C70.708 52.7327 70.5429 52.4207 70.2479 52.2023C69.9578 51.9782 69.5889 51.8857 69.1413 51.9247ZM69.5226 56.3008L68.3061 56.4068L68.2538 55.8065C67.4164 55.8794 66.7303 55.7084 66.1954 55.2934C65.66 54.8731 65.3611 54.3048 65.2987 53.5886C65.2372 52.883 65.4345 52.2848 65.8905 51.794C66.3465 51.3033 66.9932 51.0214 67.8305 50.9485L67.7865 50.4429L69.003 50.3369L69.047 50.8425C69.8791 50.77 70.5623 50.9386 71.0968 51.3484C71.6361 51.7524 71.9365 52.3073 71.9979 53.0129C72.0599 53.7239 71.8635 54.3326 71.4089 54.8391C70.9538 55.3404 70.3076 55.6275 69.4703 55.7005L69.5226 56.3008ZM68.1595 54.7243L67.9248 52.0306C67.4772 52.0696 67.1272 52.2248 66.875 52.4962C66.6222 52.7623 66.5135 53.0981 66.5489 53.5036C66.5846 53.9143 66.7502 54.2316 67.0456 54.4552C67.3406 54.6736 67.7119 54.7633 68.1595 54.7243Z" fill="white"/>
<path d="M77.9597 54.6027C77.4497 55.2043 76.7734 55.5418 75.9308 55.6152C75.0882 55.6886 74.3637 55.4731 73.7573 54.9688C73.1562 54.4641 72.8208 53.8114 72.751 53.011C72.6818 52.2158 72.9021 51.5174 73.4122 50.9158C73.927 50.3085 74.6057 49.9682 75.4483 49.8948C76.2909 49.8214 77.0127 50.037 77.6139 50.5418C78.2202 51.0461 78.5583 51.6985 78.628 52.499C78.6973 53.2942 78.4745 53.9954 77.9597 54.6027ZM74.6041 54.0912C74.9494 54.4007 75.3644 54.5343 75.8488 54.4921C76.3333 54.4499 76.7165 54.2494 76.9983 53.8905C77.2796 53.5264 77.3989 53.0995 77.3563 52.6098C77.3141 52.1253 77.1203 51.7283 76.775 51.4188C76.4296 51.1093 76.0147 50.9756 75.5302 51.0178C75.0458 51.06 74.6628 51.2632 74.3815 51.6273C74.0997 51.9861 73.9801 52.4104 74.0228 52.9002C74.065 53.3847 74.2588 53.7817 74.6041 54.0912Z" fill="white"/>
<path d="M79.948 55.1697L79.4663 49.6402L81.7255 49.4434C82.3784 49.3865 82.9099 49.518 83.3198 49.8378C83.7297 50.1576 83.9599 50.6071 84.0104 51.1864C84.064 51.8025 83.8951 52.3001 83.5037 52.6791C83.1117 53.0528 82.5919 53.2679 81.9442 53.3243L81.02 53.4049L81.1645 55.0637L79.948 55.1697ZM80.9257 52.3227L81.8894 52.2387C82.1896 52.2125 82.417 52.1131 82.5718 51.9405C82.7318 51.7673 82.8008 51.5544 82.7788 51.3016C82.7554 51.0331 82.6506 50.8352 82.4644 50.7082C82.2778 50.5759 82.0291 50.5233 81.7184 50.5503L80.7784 50.6322L80.9257 52.3227Z" fill="white"/>
<path d="M85.2245 54.71L84.7427 49.1805L86.054 49.0663L87.7111 51.2778L88.9609 48.813L90.2722 48.6988L90.7539 54.2282L89.5453 54.3335L89.2308 50.7236L87.8804 53.221L87.8488 53.2238L86.1048 51.0198L86.4172 54.6061L85.2245 54.71Z" fill="white"/>
<path d="M91.6083 54.1538L93.4929 48.3784L94.6146 48.2807L97.4695 53.6431L96.1978 53.7539L95.5842 52.5578L93.246 52.7615L92.8485 54.0457L91.6083 54.1538ZM93.5869 51.6494L95.0561 51.5214L94.1653 49.7922L93.5869 51.6494Z" fill="white"/>
<path d="M102.168 47.5669C102.758 47.5155 103.249 47.6133 103.642 47.8603C104.04 48.1068 104.258 48.446 104.296 48.8778C104.347 49.4676 104.087 49.9174 103.514 50.2273C104.223 50.3884 104.606 50.7928 104.663 51.4405C104.705 51.925 104.547 52.3394 104.19 52.6836C103.838 53.0273 103.343 53.2269 102.706 53.2824C102.142 53.3315 101.662 53.2965 101.264 53.1772C100.872 53.0576 100.506 52.8559 100.169 52.5723L100.743 51.6706C101.263 52.0976 101.87 52.2807 102.566 52.2202C102.834 52.1968 103.05 52.1196 103.214 51.9886C103.382 51.8519 103.458 51.6808 103.44 51.4754C103.421 51.2543 103.306 51.0997 103.097 51.0118C102.893 50.9235 102.622 50.894 102.285 50.9234L101.646 50.9791L101.557 49.968L102.182 49.9136C102.84 49.8563 103.15 49.6143 103.113 49.1878C103.097 48.9982 103.002 48.8552 102.829 48.7589C102.656 48.6625 102.435 48.626 102.167 48.6494C101.567 48.7017 101.087 48.9478 100.727 49.3877L100.02 48.6693C100.546 48.0133 101.262 47.6458 102.168 47.5669Z" fill="white"/>
<path d="M105.386 52.9535L107.27 47.1781L108.392 47.0803L111.247 52.4428L109.975 52.5536L109.362 51.3575L107.023 51.5612L106.626 52.8454L105.386 52.9535ZM107.364 50.449L108.833 50.321L107.943 48.5919L107.364 50.449Z" fill="white"/>
<path d="M112.1 52.3685L111.619 46.839L112.835 46.733L113.046 49.1502L115.078 46.5376L116.548 46.4096L114.501 48.9518L117.132 51.9301L115.671 52.0574L113.752 49.8528L113.169 50.572L113.317 52.2625L112.1 52.3685Z" fill="white"/>
<path d="M117.396 51.907L119.281 46.1316L120.403 46.0339L123.258 51.3964L121.986 51.5072L121.372 50.3111L119.034 50.5148L118.637 51.799L117.396 51.907ZM119.375 49.4026L120.844 49.2746L119.953 47.5455L119.375 49.4026Z" fill="white"/>
<path d="M125.588 45.5264C126.178 45.4751 126.669 45.5729 127.062 45.8198C127.46 46.0664 127.678 46.4055 127.716 46.8374C127.767 47.4272 127.507 47.877 126.934 48.1869C127.643 48.348 128.026 48.7524 128.082 49.4001C128.125 49.8846 127.967 50.299 127.61 50.6431C127.258 50.9869 126.763 51.1865 126.126 51.242C125.562 51.2911 125.082 51.2561 124.684 51.1368C124.291 51.0171 123.926 50.8155 123.589 50.5319L124.163 49.6302C124.683 50.0571 125.29 50.2403 125.985 50.1798C126.254 50.1564 126.47 50.0792 126.634 49.9482C126.802 49.8114 126.878 49.6404 126.86 49.435C126.84 49.2138 126.726 49.0593 126.517 48.9714C126.313 48.8831 126.042 48.8536 125.705 48.8829L125.066 48.9387L124.977 47.9276L125.601 47.8732C126.26 47.8159 126.57 47.5739 126.533 47.1474C126.517 46.9578 126.422 46.8148 126.249 46.7184C126.076 46.6221 125.855 46.5856 125.587 46.609C124.986 46.6613 124.506 46.9074 124.147 47.3473L123.44 46.6289C123.966 45.9728 124.682 45.6054 125.588 45.5264Z" fill="white"/>
<path d="M128.806 50.913L130.69 45.1376L131.812 45.0399L134.667 50.4024L133.395 50.5132L132.781 49.3171L130.443 49.5208L130.046 50.805L128.806 50.913ZM130.784 48.4086L132.253 48.2806L131.363 46.5515L130.784 48.4086Z" fill="white"/>
<path d="M140 47.3113L141.08 44.2722L142.399 44.1573L140.646 48.6159C140.451 49.1105 140.217 49.4758 139.946 49.7116C139.68 49.9471 139.349 50.082 138.955 50.1164C138.538 50.1526 138.131 50.0793 137.734 49.8964L138.13 48.9625C138.34 49.0662 138.564 49.1077 138.801 49.0871C139.075 49.0632 139.294 48.8956 139.458 48.5842L136.885 44.6377L138.244 44.5193L140 47.3113Z" fill="white"/>
<path d="M146.289 49.4854C145.478 49.556 144.777 49.3411 144.187 48.8407C143.602 48.3346 143.274 47.6786 143.204 46.8729C143.134 46.0725 143.346 45.3721 143.84 44.7719C144.335 44.1717 145 43.8352 145.838 43.7622C146.317 43.7205 146.727 43.7644 147.067 43.8939C147.407 44.0182 147.737 44.2123 148.057 44.4762L147.403 45.3768C147.147 45.1816 146.91 45.0457 146.691 44.9693C146.477 44.8871 146.222 44.8589 145.928 44.8846C145.464 44.925 145.094 45.127 144.818 45.4906C144.547 45.8485 144.433 46.2724 144.475 46.7621C144.518 47.2466 144.704 47.6443 145.033 47.9552C145.368 48.2656 145.767 48.4006 146.23 48.3602C146.525 48.3345 146.776 48.2596 146.983 48.1355C147.19 48.0114 147.404 47.8282 147.627 47.5859L148.474 48.3478C148.202 48.6952 147.896 48.9607 147.556 49.1441C147.222 49.3271 146.799 49.4409 146.289 49.4854Z" fill="white"/>
<path d="M149.774 43.5148L153.724 43.1707L154.206 48.7001L152.989 48.8061L152.603 44.3746L151.007 44.5137L151.044 44.9323C151.138 46.0119 151.145 46.8549 151.065 47.4615C150.991 48.0676 150.839 48.4946 150.612 48.7426C150.384 48.9906 150.049 49.1339 149.606 49.1724C149.359 49.194 149.144 49.1889 148.96 49.1571L148.952 48.147C149.027 48.1511 149.09 48.1509 149.143 48.1463C149.322 48.1307 149.464 48.0812 149.568 47.9978C149.677 47.9088 149.769 47.7442 149.843 47.5043C149.923 47.2638 149.964 46.9127 149.966 46.4509C149.968 45.9838 149.937 45.3869 149.874 44.6602L149.774 43.5148Z" fill="white"/>
<path d="M157.642 45.7742L158.722 42.7352L160.041 42.6203L158.289 47.0789C158.093 47.5735 157.859 47.9387 157.588 48.1746C157.322 48.41 156.992 48.5449 156.597 48.5793C156.181 48.6156 155.774 48.5423 155.376 48.3594L155.772 47.4255C155.982 47.5292 156.206 47.5707 156.443 47.5501C156.717 47.5262 156.936 47.3586 157.1 47.0471L154.527 43.1006L155.886 42.9823L157.642 45.7742Z" fill="white"/>
<path d="M162.162 43.5418L162.548 47.9733L161.332 48.0793L160.85 42.5498L164.713 42.2133L164.808 43.3113L162.162 43.5418Z" fill="white"/>
</g>
<defs>
<clipPath id="clip0">
<rect x="3.61865" y="0.00878906" width="155" height="44" transform="rotate(2.82335 3.61865 0.00878906)" fill="white"/>
</clipPath>
</defs>
</svg>
