<svg width="19" height="19" viewBox="0 0 19 19" fill="none" xmlns="http://www.w3.org/2000/svg">
<circle cx="9.5" cy="9.5" r="9.5" fill="#2A2A2A"/>
<path d="M8.64823 10.327C8.64823 9.94567 8.73256 9.63033 8.90123 9.381C9.07723 9.13167 9.33023 8.85667 9.66023 8.556C9.90223 8.336 10.0782 8.15267 10.1882 8.006C10.3056 7.852 10.3642 7.67967 10.3642 7.489C10.3642 7.21767 10.2542 7.005 10.0342 6.851C9.82156 6.68967 9.53556 6.609 9.17623 6.609C8.83156 6.609 8.52356 6.68233 8.25223 6.829C7.98823 6.96833 7.76456 7.16633 7.58123 7.423L6.25023 6.642C6.55823 6.17267 6.97256 5.80967 7.49323 5.553C8.02123 5.29633 8.64456 5.168 9.36323 5.168C10.2066 5.168 10.8812 5.34767 11.3872 5.707C11.9006 6.06633 12.1572 6.565 12.1572 7.203C12.1572 7.50367 12.1059 7.76767 12.0032 7.995C11.9079 8.22233 11.7869 8.41667 11.6402 8.578C11.5009 8.732 11.3176 8.91167 11.0902 9.117C10.8189 9.359 10.6209 9.56433 10.4962 9.733C10.3716 9.89433 10.3092 10.0923 10.3092 10.327H8.64823ZM9.48423 13.088C9.18356 13.088 8.93056 12.9927 8.72523 12.802C8.52723 12.604 8.42823 12.3657 8.42823 12.087C8.42823 11.8083 8.52723 11.5773 8.72523 11.394C8.92323 11.2033 9.17623 11.108 9.48423 11.108C9.79223 11.108 10.0452 11.2033 10.2432 11.394C10.4412 11.5773 10.5402 11.8083 10.5402 12.087C10.5402 12.3657 10.4376 12.604 10.2322 12.802C10.0342 12.9927 9.7849 13.088 9.48423 13.088Z" fill="#F8D440"/>
</svg>
