<svg width="30" height="30" viewBox="0 0 30 30" fill="none" xmlns="http://www.w3.org/2000/svg">
<g clip-path="url(#clip0)">
<path d="M13.8076 5C8.95121 5 5 8.95121 5 13.8076C5 18.6642 8.95121 22.6152 13.8076 22.6152C18.6642 22.6152 22.6152 18.6642 22.6152 13.8076C22.6152 8.95121 18.6642 5 13.8076 5ZM13.8076 20.9892C9.8477 20.9892 6.62602 17.7675 6.62602 13.8076C6.62602 9.84773 9.8477 6.62602 13.8076 6.62602C17.7675 6.62602 20.9891 9.8477 20.9891 13.8076C20.9891 17.7675 17.7675 20.9892 13.8076 20.9892Z" fill="white"/>
<path d="M24.762 23.6123L20.1007 18.9511C19.7831 18.6335 19.2687 18.6335 18.9511 18.9511C18.6335 19.2684 18.6335 19.7834 18.9511 20.1007L23.6124 24.762C23.7711 24.9207 23.979 25.0002 24.1872 25.0002C24.395 25.0002 24.6031 24.9207 24.762 24.762C25.0796 24.4446 25.0796 23.9297 24.762 23.6123Z" fill="white"/>
</g>
<defs>
<clipPath id="clip0">
<rect x="5" y="5" width="20" height="20" fill="white"/>
</clipPath>
</defs>
</svg>
