<svg width="98" height="28" viewBox="0 0 98 28" fill="none" xmlns="http://www.w3.org/2000/svg">
<path d="M28.5456 21.5636C28.225 21.5176 28.2617 21.2614 28.2617 21.2614L29.9794 9.27101C29.9905 9.20065 29.9771 9.12862 29.9413 9.06718C29.9413 9.06718 28.2055 7.51102 27.6421 6.87574C27.4378 6.64359 27.0832 6.67845 27.0389 6.98771L24.9864 21.3152C24.9231 21.757 24.7229 21.841 24.5509 21.8525L4.02211 22.2299C3.95771 22.2301 3.89473 22.2491 3.8408 22.2846C3.78687 22.3201 3.7443 22.3705 3.71826 22.4298C3.69221 22.489 3.68381 22.5546 3.69407 22.6185C3.70433 22.6824 3.73281 22.7419 3.77606 22.7898L5.36073 24.2432C5.3909 24.2785 5.42834 24.3067 5.47047 24.326C5.5126 24.3453 5.55841 24.3551 5.60472 24.3548L24.4011 24.2431C24.4356 24.2396 24.4704 24.2442 24.5027 24.2566C24.535 24.269 24.564 24.2888 24.5874 24.3145C24.6107 24.3402 24.6277 24.371 24.637 24.4045C24.6464 24.438 24.6478 24.4733 24.6412 24.5074L24.5595 25.0774C24.5241 25.3248 24.7756 25.4465 25.0222 25.4457L28.0923 25.322C28.1911 25.321 28.2862 25.2845 28.3606 25.219C28.4349 25.1536 28.4835 25.0635 28.4975 24.9652L28.9178 22.0317C28.9259 21.976 28.9225 21.9193 28.9079 21.865C28.8933 21.8108 28.8677 21.7601 28.8328 21.7162C28.7979 21.6723 28.7544 21.6361 28.705 21.6099C28.6556 21.5836 28.6013 21.5678 28.5456 21.5636V21.5636Z" fill="#F9CD15"/>
<path d="M23.659 13.3116L24.9463 4.32542C24.954 4.26925 24.95 4.21212 24.9346 4.15762C24.9192 4.10312 24.8927 4.05243 24.8569 4.00876C24.821 3.96508 24.7766 3.92935 24.7263 3.90383C24.676 3.87831 24.621 3.86354 24.5647 3.86046L5.27869 4.04177C5.18114 4.04288 5.08714 4.07908 5.01374 4.14383C4.94033 4.20858 4.89236 4.29758 4.87852 4.39473L4.0741 10.01C4.0605 10.1019 4.0783 10.1957 4.1246 10.276C4.17089 10.3564 4.24295 10.4185 4.32898 10.4523L8.6689 12.1651C8.73557 12.1917 8.79405 12.2355 8.83845 12.2921C8.88286 12.3487 8.91163 12.4161 8.92185 12.4876C8.93207 12.559 8.92339 12.6319 8.89668 12.6989C8.86997 12.7659 8.82618 12.8247 8.76971 12.8693L0.732503 19.2564C0.666528 19.3096 0.618557 19.382 0.595206 19.4637C0.571856 19.5454 0.574277 19.6324 0.602136 19.7126C0.629994 19.7927 0.681917 19.8622 0.750744 19.9114C0.81957 19.9605 0.901908 19.987 0.986402 19.9871L8.02503 19.9449C8.11617 19.9437 8.20435 19.9119 8.27553 19.8546L14.6715 14.6932C14.7268 14.6485 14.7927 14.6191 14.8627 14.6077C14.9326 14.5964 15.0043 14.6036 15.0707 14.6286L17.4185 15.5105C17.506 15.5428 17.5796 15.6046 17.6268 15.6853C17.6741 15.766 17.6921 15.8608 17.6778 15.9534L17.1993 19.2934C17.1909 19.352 17.1951 19.4118 17.2118 19.4686C17.2285 19.5253 17.2572 19.5778 17.2959 19.6223C17.3347 19.6668 17.3826 19.7024 17.4363 19.7265C17.4901 19.7507 17.5484 19.7628 17.6073 19.7621L22.4024 19.7367C22.5011 19.7358 22.5963 19.6992 22.6706 19.6338C22.745 19.5683 22.7936 19.4783 22.8076 19.38L23.0456 17.7188L23.659 13.3116ZM17.8802 11.0364L10.2765 8.13922C10.19 8.10554 10.1174 8.04351 10.0704 7.96315C10.0233 7.88278 10.0046 7.78877 10.0173 7.6963C10.0314 7.59852 10.08 7.50907 10.1543 7.44436C10.2286 7.37964 10.3236 7.344 10.4218 7.34397L18.4633 7.31018C18.5195 7.31326 18.5746 7.32803 18.6248 7.35355C18.6751 7.37907 18.7196 7.4148 18.7554 7.45847C18.7913 7.50215 18.8177 7.55283 18.8331 7.60733C18.8485 7.66183 18.8525 7.71897 18.8449 7.77514L18.424 10.7131C18.4155 10.7735 18.3936 10.8312 18.3599 10.882C18.3262 10.9327 18.2815 10.9752 18.2293 11.0063C18.177 11.0374 18.1185 11.0562 18.0581 11.0614C17.9976 11.0666 17.9368 11.0581 17.8802 11.0364Z" fill="white"/>
<path d="M66.0909 14.0384L69.1013 14.0188L74.3564 13.9736C74.4546 13.9736 74.5496 13.938 74.6239 13.8732C74.6982 13.8085 74.7469 13.7191 74.761 13.6213L75.1338 11.0191C75.1422 10.9605 75.138 10.9007 75.1213 10.844C75.1046 10.7872 75.0759 10.7347 75.0371 10.6902C74.9984 10.6457 74.9505 10.6101 74.8967 10.586C74.843 10.5619 74.7847 10.5497 74.7258 10.5504L55.6946 10.7051C55.5964 10.7051 55.5014 10.7407 55.4271 10.8055C55.3528 10.8702 55.3041 10.9596 55.2901 11.0574L55.1521 12.0205L53.347 24.6206C53.3414 24.6776 53.3477 24.7352 53.3656 24.7896C53.3834 24.844 53.4124 24.8941 53.4507 24.9365C53.4889 24.9789 53.5356 25.0128 53.5877 25.036C53.6398 25.0591 53.6962 25.0711 53.7532 25.071L72.7892 25.0387C72.8874 25.0387 72.9824 25.0031 73.0567 24.9384C73.131 24.8736 73.1797 24.7842 73.1938 24.6864L73.3995 23.2506C73.4079 23.1919 73.4036 23.1322 73.387 23.0754C73.3703 23.0187 73.3416 22.9662 73.3028 22.9217C73.2641 22.8772 73.2162 22.8416 73.1624 22.8175C73.1087 22.7933 73.0504 22.7812 72.9915 22.7818L67.86 22.8087L64.9726 22.8459C64.9135 22.8474 64.8548 22.8357 64.8007 22.8118C64.7466 22.788 64.6984 22.7524 64.6595 22.7077C64.6206 22.663 64.5919 22.6102 64.5755 22.5531C64.5591 22.496 64.5554 22.4359 64.5647 22.3772L65.7089 14.3895C65.7226 14.2957 65.7681 14.2095 65.8377 14.1455C65.9074 14.0815 65.9968 14.0437 66.0909 14.0384V14.0384Z" fill="white"/>
<path d="M82.221 19.0544L95.7655 18.9658C95.8631 18.9647 95.9571 18.9285 96.0305 18.8638C96.1039 18.799 96.1518 18.71 96.1657 18.6129L97.284 10.8063C97.292 10.751 97.2887 10.6947 97.2743 10.6408C97.26 10.5869 97.2348 10.5365 97.2003 10.4927C97.1659 10.449 97.123 10.4128 97.0741 10.3863C97.0253 10.3598 96.9715 10.3437 96.9162 10.3388L77.8669 10.4323C77.7687 10.4323 77.6737 10.468 77.5994 10.5327C77.5251 10.5974 77.4764 10.6868 77.4623 10.7846L75.5155 24.3743C75.5078 24.4303 75.5119 24.4873 75.5273 24.5416C75.5428 24.5959 75.5694 24.6463 75.6054 24.6896C75.6413 24.733 75.6859 24.7683 75.7363 24.7933C75.7866 24.8183 75.8416 24.8324 75.8978 24.8348L94.9378 24.6814C95.0353 24.6803 95.1293 24.6441 95.2027 24.5793C95.2761 24.5146 95.3241 24.4256 95.3379 24.3285L95.5227 23.0384C95.5299 22.9842 95.5263 22.9291 95.512 22.8763C95.4978 22.8236 95.4731 22.7743 95.4396 22.7312C95.4061 22.6882 95.3644 22.6524 95.3169 22.6258C95.2694 22.5993 95.2171 22.5825 95.1631 22.5766L90.0052 22.5997L81.8465 22.6076C81.788 22.6076 81.7303 22.595 81.6771 22.5707C81.624 22.5463 81.5766 22.5107 81.5384 22.4663C81.5001 22.4219 81.4718 22.3698 81.4553 22.3134C81.4389 22.257 81.4346 22.1977 81.4429 22.1395L81.8283 19.449C81.8324 19.3456 81.8751 19.2476 81.9479 19.1744C82.0207 19.1013 82.1183 19.0584 82.221 19.0544ZM82.5683 14.1897C82.5822 14.0926 82.6301 14.0036 82.7035 13.9388C82.7769 13.8741 82.8709 13.8379 82.9685 13.8367L90.7809 13.7747C90.8398 13.774 90.8981 13.7861 90.9519 13.8103C91.0056 13.8344 91.0535 13.87 91.0922 13.9145C91.131 13.959 91.1597 14.0115 91.1764 14.0682C91.1931 14.125 91.1973 14.1848 91.1889 14.2434L91.0927 14.9149C91.0788 15.0115 91.0307 15.0999 90.9574 15.1639C90.884 15.228 90.7902 15.2633 90.6931 15.2635L82.8882 15.3356C82.8295 15.3364 82.7714 15.3243 82.7179 15.3002C82.6644 15.276 82.6168 15.2405 82.5783 15.1959C82.5399 15.1513 82.5116 15.0989 82.4955 15.0422C82.4793 14.9855 82.4756 14.9259 82.4847 14.8675L82.5683 14.1897Z" fill="white"/>
<path d="M52.2524 10.7034L33.2025 10.8013C33.1049 10.8024 33.0109 10.8386 32.9375 10.9034C32.8641 10.9681 32.8161 11.0571 32.8023 11.1543L30.8561 24.7395C30.8485 24.7957 30.8525 24.8528 30.8679 24.9073C30.8833 24.9618 30.9097 25.0125 30.9456 25.0562C30.9814 25.0999 31.0259 25.1356 31.0762 25.1611C31.1265 25.1867 31.1815 25.2014 31.2377 25.2045L50.2594 25.1161C50.3583 25.114 50.4531 25.0764 50.5268 25.01C50.6005 24.9436 50.6481 24.8529 50.6609 24.7543L51.0944 21.728C51.1054 21.6576 51.0995 21.5857 51.0772 21.5182C51.0549 21.4507 51.0168 21.3896 50.9662 21.3399L46.4385 18.216C46.3757 18.1728 46.3262 18.1127 46.2956 18.0426C46.2651 17.9725 46.2546 17.8951 46.2655 17.8193C46.2763 17.7434 46.3081 17.6721 46.3571 17.6134C46.4061 17.5547 46.4705 17.5109 46.5429 17.4871L51.7738 15.7026C51.8455 15.6788 51.909 15.6351 51.9571 15.5765C52.0051 15.518 52.0357 15.447 52.0453 15.3718L52.6459 11.1791C52.6553 11.1212 52.6522 11.0619 52.6369 11.0053C52.6215 10.9487 52.5943 10.8961 52.557 10.851C52.5197 10.8059 52.4732 10.7694 52.4207 10.744C52.3681 10.7185 52.3108 10.7047 52.2524 10.7034V10.7034ZM45.0221 22.9095L37.209 22.976C37.1499 22.9775 37.0912 22.9658 37.0371 22.9419C36.983 22.9181 36.9348 22.8825 36.8959 22.8378C36.857 22.7931 36.8283 22.7403 36.8119 22.6832C36.7956 22.6261 36.7918 22.566 36.8011 22.5073L37.1625 19.9846C37.1754 19.8871 37.2231 19.7976 37.2967 19.7326C37.3703 19.6677 37.4648 19.6318 37.5626 19.6317L42.1356 19.624C42.2228 19.6245 42.3079 19.6508 42.3802 19.6996L45.3241 21.7084C45.384 21.7521 45.4308 21.8114 45.4597 21.8798C45.4886 21.9483 45.4984 22.0234 45.4881 22.0971L45.4248 22.5389C45.4148 22.6396 45.3682 22.7332 45.2939 22.8016C45.2196 22.87 45.1228 22.9085 45.0221 22.9095V22.9095ZM46.2254 15.3856C46.2254 15.3856 43.8103 15.6619 43.7657 15.66L38.2514 15.6996C38.1923 15.7011 38.1336 15.6894 38.0795 15.6655C38.0254 15.6416 37.9772 15.6061 37.9383 15.5614C37.8994 15.5167 37.8707 15.4639 37.8543 15.4068C37.8379 15.3497 37.8342 15.2896 37.8435 15.2309L37.9264 14.6521C37.9402 14.555 37.9882 14.466 38.0616 14.4012C38.135 14.3365 38.229 14.3003 38.3266 14.2992L46.1572 14.2352C46.2161 14.2345 46.2744 14.2467 46.3281 14.2708C46.3818 14.2949 46.4297 14.3305 46.4685 14.375C46.5072 14.4195 46.5359 14.472 46.5526 14.5288C46.5693 14.5855 46.5736 14.6453 46.5651 14.7039L46.5139 15.0618C46.5017 15.1378 46.468 15.2088 46.4169 15.2662C46.3657 15.3237 46.2993 15.3651 46.2254 15.3856Z" fill="white"/>
</svg>
