<svg width="744" height="531" viewBox="0 0 744 531" fill="none" xmlns="http://www.w3.org/2000/svg">
<path d="M381.224 30.6074H220.299C217.868 30.6074 215.897 32.5773 215.897 35.0073V128.666C215.897 131.096 217.868 133.065 220.299 133.065H381.224C383.656 133.065 385.627 131.096 385.627 128.666V35.0073C385.627 32.5773 383.656 30.6074 381.224 30.6074Z" stroke="#C0CCD8" stroke-miterlimit="10"/>
<path d="M215.897 49.166H385.627" stroke="#C0CCD8" stroke-miterlimit="10"/>
<path d="M226.855 42.7111C228.355 42.7111 229.571 41.496 229.571 39.9971C229.571 38.4983 228.355 37.2832 226.855 37.2832C225.355 37.2832 224.139 38.4983 224.139 39.9971C224.139 41.496 225.355 42.7111 226.855 42.7111Z" stroke="#C0CCD8" stroke-miterlimit="10"/>
<path d="M240.722 39.9972C240.722 40.5394 240.561 41.0694 240.26 41.5202C239.958 41.971 239.53 42.3224 239.028 42.5299C238.527 42.7374 237.976 42.7917 237.444 42.6859C236.911 42.5801 236.423 42.319 236.039 41.9356C235.655 41.5523 235.394 41.0638 235.288 40.532C235.182 40.0003 235.237 39.4491 235.444 38.9481C235.652 38.4472 236.004 38.0191 236.455 37.7179C236.906 37.4166 237.436 37.2559 237.979 37.2559C238.706 37.2559 239.404 37.5447 239.918 38.0588C240.433 38.5729 240.722 39.2702 240.722 39.9972Z" stroke="#C0CCD8" stroke-miterlimit="10"/>
<path d="M251.886 39.9972C251.886 40.5394 251.725 41.0694 251.424 41.5202C251.122 41.971 250.694 42.3224 250.193 42.5299C249.692 42.7374 249.14 42.7917 248.608 42.6859C248.076 42.5801 247.587 42.319 247.203 41.9356C246.82 41.5523 246.558 41.0638 246.453 40.532C246.347 40.0003 246.401 39.4491 246.609 38.9481C246.816 38.4472 247.168 38.0191 247.619 37.7179C248.07 37.4166 248.6 37.2559 249.143 37.2559C249.871 37.2559 250.568 37.5447 251.083 38.0588C251.597 38.5729 251.886 39.2702 251.886 39.9972Z" stroke="#C0CCD8" stroke-miterlimit="10"/>
<path d="M166.987 89.6426H126.855C122.977 89.6426 119.833 92.7846 119.833 96.6604V136.766C119.833 140.642 122.977 143.784 126.855 143.784H166.987C170.865 143.784 174.009 140.642 174.009 136.766V96.6604C174.009 92.7846 170.865 89.6426 166.987 89.6426Z" stroke="#C0CCD8" stroke-linejoin="round"/>
<path d="M146.921 132.216C155.488 132.216 162.433 125.275 162.433 116.713C162.433 108.152 155.488 101.211 146.921 101.211C138.354 101.211 131.409 108.152 131.409 116.713C131.409 125.275 138.354 132.216 146.921 132.216Z" stroke="#C0CCD8" stroke-width="3" stroke-miterlimit="10"/>
<path d="M157.4 105.762L135.482 127.651" stroke="#C0CCD8" stroke-width="3" stroke-miterlimit="10"/>
<path d="M533.192 131.462L521.959 119.825H349.02C345.135 119.825 341.409 118.282 338.662 115.537C335.915 112.792 334.372 109.068 334.372 105.186V15.3244C334.372 11.4419 335.915 7.71847 338.662 4.97316C341.409 2.22785 345.135 0.685547 349.02 0.685547H522.741C526.626 0.685547 530.352 2.22785 533.099 4.97316C535.846 7.71847 537.389 11.4419 537.389 15.3244V129.776C537.387 130.261 537.241 130.735 536.968 131.136C536.695 131.538 536.309 131.849 535.858 132.03C535.408 132.211 534.913 132.254 534.439 132.152C533.964 132.051 533.53 131.811 533.192 131.462Z" fill="white" stroke="#C0CCD8" stroke-linejoin="round"/>
<path d="M403.882 79.6503H396.448V92.7265H378.426V79.6503H351.489V66.2588L379.578 25.207H396.448V66.0258H403.882V79.6503ZM378.426 66.0258V58.1855C378.426 56.7052 378.426 54.7177 378.59 52.1957C378.605 50.8764 378.688 49.5589 378.837 48.2481H378.33C377.317 50.5556 376.129 52.7826 374.778 54.9096L367.289 66.0258H378.426Z" fill="#F76652"/>
<path d="M460.184 59.0633C460.184 70.9973 458.182 79.7468 454.177 85.3117C450.172 90.8767 444.041 93.6546 435.784 93.6454C427.72 93.6454 421.634 90.7442 417.529 84.9416C413.423 79.1391 411.375 70.513 411.384 59.0633C411.384 47.0561 413.387 38.2518 417.392 32.6503C421.397 27.0488 427.527 24.2435 435.784 24.2344C443.822 24.2344 449.897 27.1539 454.012 32.993C458.127 38.8321 460.184 47.5222 460.184 59.0633ZM429.544 59.0633C429.544 66.6934 430.024 71.9431 430.984 74.8123C431.944 77.6816 433.544 79.1117 435.784 79.1026C438.061 79.1026 439.679 77.6222 440.612 74.6753C441.545 71.7283 441.984 66.4512 441.984 59.0633C441.984 51.6753 441.504 46.3434 440.612 43.3416C439.721 40.3398 438.047 38.8321 435.798 38.8321C433.549 38.8321 431.944 40.285 430.997 43.1771C430.051 46.0693 429.544 51.3601 429.544 59.0633Z" fill="#F76652"/>
<path d="M520.272 79.6503H512.838V92.7265H494.816V79.6503H467.879V66.2588L495.968 25.207H512.838V66.0258H520.272V79.6503ZM494.816 66.0258V58.1855C494.816 56.7052 494.816 54.7177 494.98 52.1957C494.995 50.8764 495.078 49.5589 495.227 48.2481H494.72C493.707 50.5556 492.519 52.7826 491.168 54.9096L483.679 66.0258H494.816Z" fill="#F76652"/>
<path d="M736.278 247.283H696.146C692.268 247.283 689.124 250.425 689.124 254.301V294.407C689.124 298.283 692.268 301.425 696.146 301.425H736.278C740.156 301.425 743.3 298.283 743.3 294.407V254.301C743.3 250.425 740.156 247.283 736.278 247.283Z" stroke="#C0CCD8" stroke-linejoin="round"/>
<path d="M733.686 289.556C733.476 289.635 733.252 289.672 733.028 289.666H699.411C699.063 289.668 698.721 289.578 698.42 289.404C698.119 289.231 697.869 288.981 697.696 288.679C697.521 288.382 697.429 288.044 697.429 287.699C697.429 287.354 697.521 287.016 697.696 286.719L714.498 257.688C714.673 257.388 714.923 257.14 715.224 256.966C715.524 256.793 715.865 256.702 716.212 256.701C716.558 256.701 716.897 256.793 717.195 256.966C717.494 257.139 717.742 257.388 717.913 257.688L734.742 286.788C734.91 287.089 734.998 287.429 734.998 287.774C734.998 288.12 734.91 288.459 734.742 288.761C734.492 289.14 734.119 289.42 733.686 289.556ZM700.33 287.171H732.109L716.212 259.676L700.33 287.171Z" fill="#C0CCD8"/>
<path d="M716.212 281.387C715.909 281.387 715.617 281.27 715.397 281.061C715.177 280.852 715.047 280.566 715.033 280.263L714.347 268.804C714.334 268.552 714.372 268.3 714.46 268.063C714.549 267.826 714.684 267.61 714.859 267.428C715.034 267.246 715.244 267.101 715.477 267.003C715.709 266.905 715.96 266.855 716.212 266.857C716.464 266.857 716.714 266.908 716.946 267.007C717.178 267.106 717.387 267.25 717.561 267.432C717.736 267.614 717.871 267.829 717.96 268.065C718.049 268.301 718.089 268.552 718.078 268.804L717.406 280.249C717.395 280.557 717.264 280.848 717.041 281.061C716.818 281.273 716.521 281.39 716.212 281.387Z" fill="#C0CCD8"/>
<path d="M717.433 284.156C717.436 284.397 717.367 284.635 717.234 284.837C717.102 285.039 716.912 285.198 716.689 285.292C716.466 285.387 716.221 285.413 715.983 285.367C715.745 285.322 715.526 285.207 715.354 285.037C715.182 284.867 715.065 284.649 715.016 284.412C714.968 284.175 714.992 283.929 715.083 283.706C715.175 283.482 715.332 283.291 715.533 283.156C715.734 283.021 715.97 282.949 716.212 282.949C716.372 282.947 716.531 282.977 716.679 283.037C716.827 283.097 716.961 283.186 717.075 283.298C717.188 283.41 717.278 283.543 717.34 283.691C717.401 283.838 717.433 283.996 717.433 284.156Z" fill="#C0CCD8"/>
<path d="M6.85786 204.684C6.85786 205.288 6.67848 205.879 6.3424 206.382C6.00632 206.884 5.52863 207.276 4.96975 207.508C4.41087 207.739 3.7959 207.799 3.20259 207.681C2.60929 207.564 2.06431 207.272 1.63656 206.845C1.20881 206.417 0.917509 205.873 0.799494 205.28C0.681478 204.687 0.742048 204.072 0.973544 203.514C1.20504 202.955 1.59706 202.478 2.10004 202.142C2.60302 201.806 3.19436 201.627 3.79929 201.627C4.20146 201.625 4.6 201.703 4.9719 201.856C5.3438 202.009 5.6817 202.234 5.96607 202.518C6.25045 202.802 6.47567 203.14 6.62874 203.512C6.7818 203.883 6.85967 204.282 6.85786 204.684Z" stroke="#C0CCD8" stroke-linecap="round" stroke-linejoin="round"/>
<path d="M520.272 367.533C520.272 368.138 520.093 368.729 519.757 369.231C519.42 369.734 518.943 370.126 518.384 370.357C517.825 370.588 517.21 370.649 516.617 370.531C516.023 370.413 515.479 370.122 515.051 369.695C514.623 369.267 514.332 368.722 514.214 368.129C514.096 367.537 514.156 366.922 514.388 366.363C514.619 365.805 515.011 365.328 515.514 364.992C516.017 364.656 516.609 364.477 517.213 364.477C518.025 364.477 518.803 364.799 519.376 365.372C519.95 365.945 520.272 366.723 520.272 367.533V367.533Z" stroke="#C0CCD8" stroke-linecap="round" stroke-linejoin="round"/>
<path d="M730.298 116.713C730.298 117.317 730.119 117.908 729.783 118.411C729.447 118.914 728.969 119.305 728.41 119.537C727.851 119.768 727.236 119.829 726.643 119.711C726.05 119.593 725.505 119.302 725.077 118.874C724.649 118.447 724.358 117.902 724.24 117.309C724.122 116.716 724.182 116.102 724.414 115.543C724.645 114.985 725.038 114.507 725.54 114.171C726.043 113.836 726.635 113.656 727.24 113.656C728.051 113.656 728.829 113.978 729.402 114.552C729.976 115.125 730.298 115.902 730.298 116.713Z" stroke="#C0CCD8" stroke-linecap="round" stroke-linejoin="round"/>
<path d="M565.328 22.2468C565.327 22.8543 565.146 23.4479 564.807 23.9519C564.468 24.4559 563.986 24.8475 563.423 25.0767C562.86 25.3059 562.242 25.3623 561.647 25.2387C561.052 25.1151 560.507 24.8171 560.082 24.3828C559.657 23.9484 559.371 23.3974 559.261 22.8C559.151 22.2027 559.221 21.586 559.463 21.0288C559.705 20.4717 560.108 19.9992 560.62 19.6717C561.132 19.3442 561.73 19.1766 562.338 19.1902C563.137 19.2081 563.897 19.5381 564.456 20.1094C565.015 20.6807 565.328 21.4479 565.328 22.2468V22.2468Z" stroke="#C0CCD8" stroke-linecap="round" stroke-linejoin="round"/>
<path d="M724.181 216.607V226.065" stroke="#C0CCD8" stroke-linecap="round" stroke-linejoin="round"/>
<path d="M728.913 221.338H719.449" stroke="#C0CCD8" stroke-linecap="round" stroke-linejoin="round"/>
<path d="M476.78 398.812V408.27" stroke="#C0CCD8" stroke-linecap="round" stroke-linejoin="round"/>
<path d="M481.512 403.541H472.035" stroke="#C0CCD8" stroke-linecap="round" stroke-linejoin="round"/>
<path d="M276.615 4.79688V14.2545" stroke="#C0CCD8" stroke-linecap="round" stroke-linejoin="round"/>
<path d="M281.347 9.52734H271.883" stroke="#C0CCD8" stroke-linecap="round" stroke-linejoin="round"/>
<path d="M64.7512 96.2227V105.68" stroke="#C0CCD8" stroke-linecap="round" stroke-linejoin="round"/>
<path d="M69.4833 100.951H60.0195" stroke="#C0CCD8" stroke-linecap="round" stroke-linejoin="round"/>
<path d="M49.3486 313.98V323.438" stroke="#C0CCD8" stroke-linecap="round" stroke-linejoin="round"/>
<path d="M54.0807 318.709H44.6169" stroke="#C0CCD8" stroke-linecap="round" stroke-linejoin="round"/>
<path d="M585.832 58.3496V67.8073" stroke="#C0CCD8" stroke-linecap="round" stroke-linejoin="round"/>
<path d="M590.564 63.0781H581.101" stroke="#C0CCD8" stroke-linecap="round" stroke-linejoin="round"/>
<path d="M119.764 260.127H25.127C24.7332 260.128 24.3429 260.052 23.9786 259.903C23.6142 259.754 23.283 259.534 23.0039 259.256C22.7248 258.979 22.5033 258.649 22.3522 258.285C22.2011 257.922 22.1233 257.532 22.1233 257.139C22.1233 256.745 22.2011 256.355 22.3522 255.992C22.5033 255.628 22.7248 255.298 23.0039 255.021C23.283 254.743 23.6142 254.523 23.9786 254.374C24.3429 254.225 24.7332 254.149 25.127 254.15H119.764C120.557 254.15 121.318 254.465 121.879 255.026C122.439 255.586 122.754 256.346 122.754 257.139V257.139C122.754 257.931 122.439 258.691 121.879 259.251C121.318 259.812 120.557 260.127 119.764 260.127Z" stroke="#C0CCD8" stroke-miterlimit="10"/>
<path d="M677.384 184.548H582.678C582.284 184.55 581.895 184.474 581.531 184.325C581.168 184.175 580.837 183.955 580.559 183.677C580.281 183.399 580.061 183.069 579.912 182.706C579.762 182.343 579.686 181.953 579.688 181.56V181.56C579.686 181.167 579.762 180.778 579.912 180.415C580.061 180.051 580.281 179.721 580.559 179.443C580.837 179.166 581.168 178.946 581.531 178.796C581.895 178.647 582.284 178.57 582.678 178.572H677.384C677.777 178.57 678.166 178.647 678.53 178.796C678.894 178.946 679.224 179.166 679.502 179.443C679.78 179.721 680 180.051 680.15 180.415C680.299 180.778 680.375 181.167 680.374 181.56V181.56C680.375 181.953 680.299 182.343 680.15 182.706C680 183.069 679.78 183.399 679.502 183.677C679.224 183.955 678.894 184.175 678.53 184.325C678.166 184.474 677.777 184.55 677.384 184.548Z" stroke="#C0CCD8" stroke-miterlimit="10"/>
<path d="M691.264 204.683H656.234C656.037 204.683 655.841 204.644 655.659 204.568C655.477 204.492 655.311 204.381 655.172 204.241C655.033 204.101 654.923 203.934 654.849 203.752C654.775 203.569 654.738 203.373 654.739 203.176C654.739 202.779 654.897 202.399 655.177 202.119C655.458 201.839 655.838 201.682 656.234 201.682H691.264C691.66 201.682 692.041 201.839 692.321 202.119C692.601 202.399 692.759 202.779 692.759 203.176C692.761 203.373 692.723 203.569 692.649 203.752C692.575 203.934 692.465 204.101 692.326 204.241C692.187 204.381 692.021 204.492 691.839 204.568C691.657 204.644 691.461 204.683 691.264 204.683Z" fill="#C0CCD8"/>
<path d="M598.601 133.353H563.599C563.402 133.355 563.206 133.318 563.023 133.244C562.84 133.169 562.674 133.06 562.533 132.921C562.393 132.782 562.282 132.616 562.206 132.434C562.13 132.252 562.091 132.057 562.091 131.859C562.091 131.662 562.13 131.467 562.206 131.284C562.282 131.102 562.393 130.937 562.533 130.798C562.674 130.659 562.84 130.549 563.023 130.475C563.206 130.401 563.402 130.363 563.599 130.365H598.601C598.998 130.365 599.378 130.523 599.658 130.803C599.939 131.083 600.096 131.463 600.096 131.859C600.096 132.256 599.939 132.636 599.658 132.916C599.378 133.196 598.998 133.353 598.601 133.353Z" fill="#C0CCD8"/>
<path d="M84.5566 233.674H57.7838C57.5829 233.681 57.3826 233.648 57.1948 233.576C57.0071 233.504 56.8357 233.395 56.691 233.256C56.5464 233.116 56.4313 232.949 56.3528 232.764C56.2742 232.579 56.2338 232.381 56.234 232.18C56.2321 231.983 56.2695 231.788 56.344 231.606C56.4185 231.424 56.5286 231.258 56.6677 231.119C56.8069 230.98 56.9725 230.87 57.1547 230.796C57.3369 230.721 57.5321 230.684 57.7289 230.686H84.5566C84.754 230.684 84.9499 230.721 85.1329 230.795C85.3159 230.87 85.4823 230.979 85.6226 231.118C85.7628 231.257 85.8742 231.423 85.9502 231.605C86.0262 231.787 86.0653 231.982 86.0653 232.18C86.0653 232.377 86.0262 232.572 85.9502 232.755C85.8742 232.937 85.7628 233.102 85.6226 233.241C85.4823 233.38 85.3159 233.49 85.1329 233.564C84.9499 233.638 84.754 233.675 84.5566 233.674Z" fill="#C0CCD8"/>
<path d="M625.1 101.566H654.095C656.897 101.566 659.169 99.2958 659.169 96.4949V67.5188C659.169 64.7179 656.897 62.4473 654.095 62.4473L625.1 62.4473C622.297 62.4473 620.025 64.7179 620.025 67.5188V96.4949C620.025 99.2958 622.297 101.566 625.1 101.566Z" stroke="#C0CCD8" stroke-linejoin="round"/>
<path d="M645.152 80.3626L644.466 83.7207H648.21V86.7088H643.904L642.779 92.589H639.597L640.722 86.7088H636.607L635.51 92.589H632.396L633.466 86.7088H630.01V83.7207H634.029L634.714 80.3626H631.066V77.3334H635.249L636.36 71.4395H639.542L638.418 77.3334H642.532L643.657 71.4395H646.77L645.646 77.3334H649.116V80.3626H645.152ZM637.169 83.7207H641.284L641.956 80.3626H637.841L637.169 83.7207Z" fill="#C0CCD8"/>
<path d="M309.971 372.193L282.54 191.963H158.689L188.369 382.953C189.301 389.176 192.469 394.846 197.28 398.905C202.091 402.964 208.216 405.133 214.511 405.007H422.713L424.249 387.504H328.076C323.71 387.593 319.462 386.087 316.128 383.268C312.795 380.449 310.605 376.511 309.971 372.193Z" fill="#475577"/>
<path d="M192.772 372.195L166.301 198.64C166.024 196.758 165.071 195.043 163.619 193.814C162.167 192.585 160.317 191.927 158.415 191.964H158.168C156.819 191.981 155.488 192.282 154.264 192.847C153.039 193.413 151.947 194.23 151.059 195.245C150.171 196.26 149.508 197.451 149.111 198.739C148.715 200.028 148.595 201.386 148.759 202.724L176.78 382.954C177.713 389.189 180.891 394.869 185.716 398.93C190.542 402.99 196.684 405.151 202.99 405.009H337.115L338.651 387.505H210.849C206.488 387.588 202.246 386.079 198.918 383.26C195.591 380.442 193.405 376.508 192.772 372.195Z" fill="#717A91"/>
<path d="M276.615 405.008V503.381" stroke="#544943" stroke-width="1.5" stroke-miterlimit="10"/>
<path d="M221.424 512.071C221.424 509.766 222.34 507.556 223.971 505.926C225.601 504.296 227.813 503.381 230.119 503.381H323.097C325.403 503.381 327.615 504.296 329.246 505.926C330.877 507.556 331.793 509.766 331.793 512.071V512.071" stroke="#544943" stroke-width="1.5" stroke-miterlimit="10"/>
<path d="M267.097 512.071C267.097 509.766 268.013 507.556 269.644 505.926C271.275 504.296 273.486 503.381 275.793 503.381" stroke="#544943" stroke-width="1.5" stroke-miterlimit="10"/>
<path d="M230.202 520.856C230.202 522.591 229.687 524.287 228.723 525.73C227.758 527.173 226.387 528.297 224.783 528.961C223.179 529.625 221.414 529.799 219.711 529.46C218.009 529.122 216.445 528.286 215.217 527.059C213.989 525.832 213.153 524.269 212.815 522.568C212.476 520.866 212.65 519.102 213.314 517.499C213.979 515.896 215.104 514.526 216.547 513.562C217.991 512.598 219.688 512.084 221.424 512.084C223.752 512.084 225.985 513.008 227.631 514.653C229.277 516.298 230.202 518.53 230.202 520.856Z" fill="#717A91"/>
<g opacity="0.45">
<path opacity="0.45" d="M224.647 520.858C224.647 521.495 224.458 522.118 224.104 522.647C223.75 523.177 223.246 523.59 222.657 523.834C222.068 524.078 221.42 524.141 220.795 524.017C220.17 523.893 219.596 523.586 219.145 523.136C218.694 522.685 218.387 522.111 218.263 521.486C218.138 520.861 218.202 520.214 218.446 519.625C218.69 519.037 219.103 518.534 219.633 518.18C220.163 517.826 220.786 517.637 221.424 517.637C222.278 517.64 223.095 517.981 223.699 518.584C224.303 519.187 224.643 520.005 224.647 520.858Z" fill="#8E9DB2"/>
</g>
<path d="M275.875 520.856C275.875 522.591 275.36 524.287 274.395 525.73C273.431 527.173 272.06 528.297 270.456 528.961C268.852 529.625 267.087 529.799 265.384 529.46C263.681 529.122 262.117 528.286 260.89 527.059C259.662 525.832 258.826 524.269 258.487 522.568C258.149 520.866 258.322 519.102 258.987 517.499C259.651 515.896 260.776 514.526 262.22 513.562C263.663 512.598 265.36 512.084 267.097 512.084C269.425 512.084 271.657 513.008 273.304 514.653C274.95 516.298 275.875 518.53 275.875 520.856Z" fill="#717A91"/>
<g opacity="0.45">
<path opacity="0.45" d="M270.32 520.858C270.32 521.495 270.131 522.118 269.777 522.647C269.422 523.177 268.919 523.59 268.33 523.834C267.741 524.078 267.093 524.141 266.468 524.017C265.843 523.893 265.268 523.586 264.818 523.136C264.367 522.685 264.06 522.111 263.935 521.486C263.811 520.861 263.875 520.214 264.119 519.625C264.363 519.037 264.776 518.534 265.306 518.18C265.836 517.826 266.459 517.637 267.097 517.637C267.95 517.64 268.768 517.981 269.372 518.584C269.975 519.187 270.316 520.005 270.32 520.858Z" fill="#8E9DB2"/>
</g>
<path d="M340.571 520.856C340.571 522.591 340.056 524.287 339.092 525.73C338.127 527.173 336.756 528.297 335.152 528.961C333.548 529.625 331.783 529.799 330.081 529.46C328.378 529.122 326.814 528.286 325.586 527.059C324.359 525.832 323.523 524.269 323.184 522.568C322.845 520.866 323.019 519.102 323.683 517.499C324.348 515.896 325.473 514.526 326.916 513.562C328.36 512.598 330.057 512.084 331.793 512.084C334.121 512.084 336.354 513.008 338 514.653C339.646 516.298 340.571 518.53 340.571 520.856Z" fill="#717A91"/>
<g opacity="0.45">
<path opacity="0.45" d="M335.016 520.858C335.016 521.495 334.827 522.118 334.473 522.647C334.119 523.177 333.615 523.59 333.026 523.834C332.437 524.078 331.789 524.141 331.164 524.017C330.539 523.893 329.965 523.586 329.514 523.136C329.063 522.685 328.756 522.111 328.632 521.486C328.507 520.861 328.571 520.214 328.815 519.625C329.059 519.037 329.472 518.534 330.002 518.18C330.532 517.826 331.156 517.637 331.793 517.637C332.647 517.64 333.464 517.981 334.068 518.584C334.672 519.187 335.013 520.005 335.016 520.858Z" fill="#8E9DB2"/>
</g>
<path d="M373.406 211.303L404.801 164.48L414.525 166.509C407.091 191.524 402.181 201.42 402.181 201.42" fill="#FFCBBB"/>
<path d="M409.519 174.227L414.525 166.469C414.525 166.469 423.838 164.318 427.226 162.604C430.24 161.022 432.579 158.402 433.809 155.23C434.522 153.242 434.221 147.431 433.37 147.335C431.368 147.116 427.377 154.572 425.498 155.011C423.618 155.449 417.57 155.011 414.237 155.436C412.527 155.732 410.912 156.43 409.525 157.471C408.137 158.512 407.016 159.867 406.255 161.425L401.125 170.719" fill="#FFCBBB"/>
<path d="M393.924 178.161L399.438 170.184L413.688 176.571L409.162 188.701" fill="#E6E8EF"/>
<path d="M279.399 161.452C279.399 161.452 302.634 150.774 323.111 168.977C343.588 187.179 357.4 204.08 364.957 209.549L395.79 174.076L413.016 182.149C408.476 207.835 395.735 248.777 364.532 252.999C330.778 257.563 281.292 215.991 281.292 215.991" fill="#B9B5B2"/>
<path d="M354.945 221.337L364.957 209.549" stroke="#846A6A" stroke-miterlimit="10"/>
<path d="M404.252 514.799L401.646 524.819C401.5 525.386 401.486 525.98 401.604 526.554C401.722 527.128 401.97 527.668 402.328 528.132C402.687 528.596 403.146 528.972 403.672 529.231C404.198 529.491 404.777 529.627 405.363 529.63H435.729C436.604 529.63 437.442 529.283 438.062 528.667C438.681 528.05 439.031 527.214 439.035 526.34C439.036 525.642 438.815 524.961 438.403 524.397C437.991 523.832 437.41 523.414 436.744 523.201L415.979 514.826" fill="#2A2A2A"/>
<path d="M386.778 358.35C381.937 409.27 404.279 514.799 404.279 514.799C404.279 514.799 409.587 521.213 416.006 514.799C416.006 514.799 421.396 414.191 427.075 368.945" fill="#FFCBBB"/>
<path d="M314.319 298.711L349.157 316.968V317.325C349.157 317.325 420.286 312.555 431.039 337.885C447.881 377.634 450.748 506.848 450.748 506.848H398.698C398.698 506.848 379.317 398.304 372.638 391.711C365.958 385.118 338.706 385.584 288.493 385.584C232.081 385.584 259.608 312.939 280.62 306.661" fill="#F8D440"/>
<path d="M402.305 506.89C402.305 506.89 386.779 394.892 375.463 386.668C361.583 376.648 296.023 383.2 296.023 383.2" stroke="#CE680D" stroke-miterlimit="10"/>
<path d="M295.104 514.799L292.498 524.819C292.351 525.39 292.337 525.987 292.458 526.564C292.578 527.141 292.829 527.683 293.193 528.148C293.556 528.613 294.021 528.988 294.552 529.245C295.083 529.502 295.666 529.634 296.256 529.63H326.622C327.058 529.63 327.488 529.544 327.89 529.377C328.292 529.21 328.657 528.965 328.964 528.657C329.272 528.349 329.515 527.983 329.68 527.581C329.845 527.179 329.93 526.748 329.928 526.313C329.929 525.614 329.707 524.933 329.296 524.369C328.884 523.805 328.303 523.386 327.637 523.174L306.872 514.799" fill="#2A2A2A"/>
<path d="M300.165 358.35C295.31 409.27 295.104 514.799 295.104 514.799C295.104 514.799 300.412 521.213 306.831 514.799C306.831 514.799 325.1 414.191 330.778 368.945" fill="#FFCBBB"/>
<path d="M252.846 314.694C252.846 314.694 344.26 316.175 356.22 343.849C370.923 377.896 346.619 506.959 346.619 506.959H291.579V391.548C291.597 390.467 291.189 389.422 290.442 388.639C289.695 387.857 288.669 387.4 287.588 387.368C279.962 387.573 262.9 387.573 241.311 387.573C184.899 387.573 212.44 299.85 233.439 293.6" fill="#F8D440"/>
<path d="M252.846 314.693C252.846 314.693 344.26 316.174 356.22 343.848C360.198 353.072 362.269 368.78 361.213 387.504" stroke="#CE680D" stroke-miterlimit="10"/>
<path d="M299.26 506.891C299.26 506.891 299.822 391.041 297.161 384.9C293.458 376.306 280.826 380.528 251.53 380.528C195.117 380.528 218.091 299.823 239.103 293.586" stroke="#ED841B" stroke-miterlimit="10"/>
<path d="M217.721 328.798C217.721 328.798 246.688 329.497 251.077 325.124C255.466 320.752 251.077 300.85 251.077 300.85" stroke="#ED841B" stroke-miterlimit="10"/>
<path d="M217.008 332.69C217.008 332.69 250.076 333.389 255.082 328.99C260.088 324.59 255.082 304.701 255.082 304.701" stroke="#ED841B" stroke-miterlimit="10" stroke-dasharray="3 2"/>
<path d="M211.425 194.103C211.425 194.103 204.485 317.326 214.991 317.326C225.497 317.326 342.313 316.97 349.157 316.97C356.001 316.97 339.981 211.592 316.912 189.333C316.912 189.333 282.691 152.228 267.618 155.778C252.545 159.329 211.425 194.103 211.425 194.103Z" fill="#B9B5B2"/>
<path d="M341.75 250.149L327.239 190.73" stroke="#846A6A" stroke-miterlimit="10"/>
<path d="M152.339 216.416L120.944 169.553L111.219 171.581C118.653 196.596 123.563 206.492 123.563 206.492" fill="#FFCBBB"/>
<path d="M116.226 179.339L111.22 171.581C111.22 171.581 101.907 169.429 98.5189 167.702C95.4952 166.139 93.1414 163.534 91.8943 160.369C91.1811 158.381 91.4966 152.556 92.3332 152.473C94.3357 152.254 98.3406 159.711 100.206 160.149C102.071 160.588 108.134 160.149 111.466 160.574C113.176 160.871 114.791 161.568 116.179 162.609C117.566 163.651 118.687 165.006 119.449 166.564L124.592 175.857" fill="#FFCBBB"/>
<path d="M131.82 183.274L126.307 175.297L112.056 181.684L116.582 193.815" fill="#E6E8EF"/>
<path d="M254.602 162.166C254.602 162.166 231.628 145.841 207.969 165.894C185.859 184.576 171.143 222.283 166.191 222.283C162.762 222.283 141.503 195.172 128.789 178.573L113.702 186.646C123.22 215.691 143.972 265.103 175.024 265.103C199.397 265.103 249.417 208.07 249.417 208.07" fill="#B9B5B2"/>
<path d="M209.423 246.86L246.455 216.006" stroke="#846A6A" stroke-miterlimit="10"/>
<path d="M256.81 165.07L278.878 188.7L281.772 161.383" fill="#E6E8EF"/>
<path d="M256.81 165.07L278.878 188.7L281.772 161.383" stroke="#846A6A" stroke-linejoin="round"/>
<path d="M274.531 141.181L280.744 154.791C280.744 154.791 283.24 162.577 272.898 166.113C269.789 167.277 266.41 167.522 263.165 166.817C259.92 166.112 256.947 164.488 254.602 162.138L252.956 140.797" fill="#FFCBBB"/>
<path d="M253.998 154.393C253.998 154.393 262.228 164.618 272.898 166.139L265.108 177.68C258.785 174.075 251.077 160.369 251.077 160.369L253.998 154.393Z" fill="white"/>
<path d="M280.099 152.939C278.964 157.919 276.472 162.488 272.898 166.139L281.772 172.842C283.816 167.825 283.569 160.012 283.569 160.012L280.099 152.939Z" fill="white"/>
<path d="M283.734 119.25C283.734 119.25 289.59 141.688 280.799 147.349C272.007 153.01 256.687 144.402 255.809 141.578C254.931 138.755 250.926 114.823 256.673 113.027C266.877 109.833 280.744 109.655 283.734 119.25Z" fill="#FFCBBB"/>
<path d="M283.542 126.526C283.576 126.672 283.581 126.823 283.557 126.971C283.533 127.119 283.479 127.261 283.4 127.388C283.322 127.515 283.218 127.626 283.097 127.713C282.975 127.8 282.837 127.863 282.691 127.897C282.545 127.931 282.394 127.936 282.246 127.912C282.098 127.888 281.957 127.835 281.829 127.756C281.702 127.677 281.591 127.574 281.504 127.452C281.417 127.331 281.354 127.193 281.32 127.047C281.285 126.901 281.28 126.75 281.305 126.603C281.329 126.455 281.382 126.313 281.461 126.186C281.54 126.059 281.643 125.948 281.765 125.861C281.886 125.773 282.024 125.711 282.17 125.677C282.316 125.642 282.467 125.637 282.615 125.661C282.763 125.686 282.905 125.739 283.032 125.818C283.159 125.897 283.27 126 283.357 126.121C283.445 126.243 283.507 126.381 283.542 126.526Z" fill="#173789"/>
<path d="M281.58 119.852C281.978 119.852 283.693 120.085 283.336 120.935C283.171 121.305 282.568 121.305 282.239 121.278C281.894 121.215 281.541 121.215 281.196 121.278C281.285 121.386 281.359 121.506 281.416 121.634C281.512 121.881 280.661 121.908 280.565 121.908C279.568 121.773 278.554 121.96 277.671 122.443C277.943 121.639 278.474 120.948 279.182 120.479C279.89 120.01 280.734 119.789 281.58 119.852Z" fill="#173789"/>
<path d="M269.442 129.638C269.449 129.789 269.486 129.936 269.551 130.071C269.616 130.207 269.707 130.328 269.82 130.428C269.932 130.528 270.064 130.604 270.206 130.652C270.348 130.7 270.499 130.719 270.649 130.708C270.952 130.69 271.236 130.553 271.439 130.327C271.642 130.101 271.748 129.805 271.733 129.501C271.689 129.218 271.541 128.96 271.318 128.779C271.095 128.599 270.812 128.508 270.525 128.525C270.238 128.543 269.968 128.666 269.768 128.872C269.567 129.078 269.451 129.351 269.442 129.638Z" fill="#173789"/>
<path d="M266.082 125.102C265.245 125.554 264.56 126.157 264.71 126.842C264.861 127.528 265.396 127.24 265.725 126.979C266.289 126.54 266.925 126.202 267.604 125.979C267.454 126.103 267.334 126.26 267.256 126.439C267.177 126.618 267.142 126.812 267.152 127.007C268.222 126.876 269.218 126.392 269.983 125.633C270.748 124.873 271.238 123.881 271.376 122.812C270.893 123.246 270.359 123.619 269.785 123.923C268.592 124.471 267.248 124.457 266.082 125.102Z" fill="#173789"/>
<path d="M277.85 127.871C277.85 127.871 280.963 135.698 279.797 136.424C278.631 137.151 274.764 137.014 274.764 137.014" stroke="#EF977F" stroke-miterlimit="10"/>
<path d="M277.96 148.65C275.158 149.608 272.164 149.859 269.242 149.381C266.32 148.903 263.562 147.71 261.213 145.908" stroke="#EF977F" stroke-miterlimit="10"/>
<path d="M272.939 143.386C272.939 143.386 273.735 139.918 279.441 139.918" stroke="#EF977F" stroke-miterlimit="10"/>
<path d="M288.699 107.214C288.71 106.138 288.358 105.09 287.698 104.24C287.23 103.84 286.687 103.538 286.1 103.352C285.513 103.166 284.895 103.099 284.283 103.157C279.946 103.14 275.714 104.488 272.185 107.008L275.066 104.514C275.82 103.856 277.521 102.814 276.698 101.594C275.875 100.374 273.955 101.128 272.899 101.114C267.988 101.114 263.298 102.8 258.73 104.527C256.475 105.314 254.303 106.32 252.243 107.529C250.175 108.758 248.511 110.563 247.456 112.724C246.691 114.677 246.35 116.77 246.455 118.865C246.577 122.622 246.98 126.366 247.662 130.063C248.307 134.175 249.267 142.098 254.712 142.577C255.759 142.797 256.849 142.631 257.784 142.111C258.168 141.762 258.477 141.34 258.694 140.869C258.911 140.398 259.03 139.888 259.046 139.37C259.25 137.674 259.143 135.956 258.73 134.298C259.745 134.86 260.719 135.779 261.858 135.669C262.048 135.656 262.232 135.592 262.389 135.484C262.546 135.375 262.67 135.226 262.749 135.052C262.811 134.814 262.811 134.564 262.749 134.326C262.324 130.447 262.091 126.595 261.844 122.703C267.412 121.524 273.013 120.509 278.645 119.66C281.142 119.29 283.775 118.878 285.709 117.261C288.534 114.876 289.001 110.805 288.699 107.214Z" fill="black"/>
<path d="M259.923 135.793C259.004 133.504 257.386 130.763 254.862 132.312C253.963 133.027 253.346 134.037 253.12 135.163C251.955 138.919 254.657 144.758 258.36 144.196C260.17 143.935 261.103 141.797 261.898 140.084" fill="#FFCBBB"/>
<path d="M596.174 380.664C596.139 371.477 598.941 362.503 604.199 354.967C609.457 347.431 616.914 341.7 625.553 338.557C628.735 337.378 644 336.227 644 336.227C644 336.227 642.217 347.864 639.172 353.73C632.095 367.437 618.078 378.909 596.174 380.664Z" fill="#8EBCA2"/>
<path d="M641.051 415.398C646.628 408.567 654.455 403.941 663.132 402.349C671.809 400.757 680.77 402.302 688.411 406.708C688.542 406.763 688.66 406.843 688.759 406.944C688.858 407.046 688.935 407.166 688.987 407.298C689.001 407.466 688.974 407.636 688.907 407.791C688.84 407.947 688.735 408.083 688.603 408.188C685.013 412.14 680.554 415.204 675.577 417.141C670.601 419.077 665.242 419.832 659.924 419.346C653.541 418.517 647.231 417.198 641.051 415.398Z" fill="#A2CCB6"/>
<path d="M653.313 396.839C653.313 386.189 656.865 376.635 663.119 370.385C666.346 367.249 670.249 364.894 674.529 363.502C678.809 362.109 683.352 361.716 687.807 362.353C688.151 362.361 688.479 362.498 688.726 362.737C688.971 363.093 689.073 363.528 689.014 363.957C688.466 376.772 682.047 387.381 672.24 391.644C666.125 394.003 659.789 395.744 653.326 396.839" fill="#8EBCA2"/>
<path d="M669.854 377.799C674.083 370.995 679.203 364.785 685.078 359.336C687.386 357.099 689.966 355.16 692.759 353.566C701.935 348.631 713.264 350.167 723.125 353.497C719.202 360.94 714.087 368.232 706.557 372.002C703.171 373.561 699.605 374.698 695.941 375.387C688.713 376.991 677.192 376.84 669.881 377.799" fill="#A2CCB6"/>
<path d="M664.614 360.022C646.263 350.428 643.547 330.375 643.081 323.014C642.793 318.367 643.081 313.2 646.962 309.855C669.716 317.86 675.518 333.239 664.614 360.077" fill="#8EBCA2"/>
<path d="M585.517 357.13C586.888 347.371 588.26 336.885 583.816 328.072C582.151 324.944 580.019 322.088 577.493 319.601C571.527 313.46 563.709 308.402 555.151 308.402C553.596 317.64 555.421 327.129 560.292 335.132C565.163 343.136 572.754 349.12 581.677 351.99" fill="#8EBCA2"/>
<path d="M638.898 420.963C633.764 419.247 629.036 416.499 625.006 412.888C620.975 409.277 617.726 404.88 615.459 399.968C613.193 395.055 611.957 389.731 611.827 384.322C611.697 378.914 612.676 373.537 614.704 368.521C614.763 368.288 614.873 368.071 615.024 367.884C615.176 367.697 615.366 367.545 615.581 367.438C615.804 367.404 616.032 367.414 616.251 367.468C616.47 367.522 616.676 367.619 616.857 367.753C632.698 376.855 643.52 403.309 638.898 420.963Z" fill="#A2CCB6"/>
<path d="M595.872 367.054C592.879 358.432 593.026 349.03 596.287 340.505C599.549 331.98 605.716 324.879 613.702 320.451C616.912 318.67 620.423 317.326 623.303 314.969C624.274 319.26 624.925 323.617 625.251 328.004C625.721 332.337 625.442 336.718 624.428 340.957C621.438 351.799 611.439 359.159 601.4 364.258" fill="#A2CCB6"/>
<path d="M582.609 365.41C566.15 367.411 545.838 360.763 537.032 345.247C565.204 330.923 582.609 352.827 582.609 365.41Z" fill="#A2CCB6"/>
<path d="M592.237 402.171C588.534 389.52 578.81 379.144 567.097 375.347C561.178 373.515 554.885 373.243 548.829 374.556C542.774 375.87 537.16 378.725 532.534 382.845C532.307 382.998 532.118 383.201 531.983 383.439C531.847 383.676 531.768 383.942 531.752 384.215C531.796 384.538 531.929 384.841 532.136 385.093C538.431 394.194 548.485 399.567 558.758 401.829C569.031 404.09 579.647 403.556 590.112 402.774" fill="#A2CCB6"/>
<path d="M571.047 334.719C579.592 343.245 584.927 354.087 588.877 365.354C592.916 377.07 596.101 389.063 598.41 401.238C603.471 426.828 604.801 452.734 607.75 478.585C607.75 478.955 608.353 478.969 608.34 478.585C607.342 452.095 604.265 425.725 599.136 399.716C596.7 387.034 593.222 374.574 588.74 362.461C584.763 352.072 579.427 342.162 571.294 334.431C571.116 334.253 570.828 334.541 571.02 334.719H571.047Z" fill="#597F6E"/>
<path d="M601.358 412.78C595.022 402.541 584.529 396.483 573.639 392.055C561.46 387.107 547.648 384.009 534.427 384.9C534.361 384.9 534.298 384.926 534.252 384.973C534.206 385.019 534.18 385.082 534.18 385.147C534.18 385.213 534.206 385.275 534.252 385.322C534.298 385.368 534.361 385.394 534.427 385.394C558.47 386.477 585.983 392.247 600.769 413.123C601.015 413.465 601.578 413.123 601.358 412.78Z" fill="#597F6E"/>
<path d="M596.366 388.724C596.256 379.129 595.255 369.411 597.148 359.857C598.877 351.096 602.505 342.82 607.777 335.61C607.813 335.563 607.83 335.503 607.822 335.444C607.814 335.385 607.783 335.331 607.736 335.295C607.689 335.258 607.629 335.242 607.57 335.25C607.511 335.258 607.457 335.289 607.42 335.336C594.514 349.824 594.363 370.548 596.05 388.792C596.06 388.826 596.081 388.856 596.11 388.877C596.138 388.898 596.173 388.91 596.208 388.91C596.244 388.91 596.278 388.898 596.306 388.877C596.335 388.856 596.356 388.826 596.366 388.792V388.724Z" fill="#597F6E"/>
<path d="M558.113 350.537C565.163 351.415 571.404 356.157 576.725 360.53C582.047 364.902 586.779 369.891 592.073 374.236C592.292 374.415 592.594 374.127 592.388 373.921C587.031 368.545 581.341 363.509 575.354 358.844C570.334 354.978 564.601 351.017 558.113 350.414C558.031 350.414 558.031 350.537 558.113 350.551V350.537Z" fill="#597F6E"/>
<path d="M632.479 445.1C636.333 425.047 644.412 406.721 657.798 391.136C664.252 383.625 671.678 377.006 679.88 371.453C688.48 365.614 697.71 361.639 707.311 357.993C707.709 357.843 707.558 357.24 707.146 357.349C687.67 362.421 669.744 375.867 656.893 390.999C644.041 406.132 634.344 425.266 631.958 445.086C631.958 445.36 632.41 445.429 632.465 445.155L632.479 445.1Z" fill="#597F6E"/>
<path d="M654.767 325.329C664.368 345.615 667.989 368.615 658.223 389.491C658.031 389.902 658.593 390.258 658.84 389.861C670.567 370.356 664.875 344.121 655.261 325.042C655.096 324.713 654.616 325.042 654.767 325.329Z" fill="#597F6E"/>
<path d="M667.33 431.764V447.828C667.33 511.496 650.542 529.616 650.542 529.616H598.602C598.602 529.616 581.827 511.496 581.827 447.828V431.764H667.33Z" fill="#F2F5F9"/>
<path d="M109.546 529.629L153.587 318.559" stroke="#544943" stroke-width="1.5" stroke-miterlimit="10"/>
<path d="M197.641 529.629L153.587 318.559" stroke="#544943" stroke-width="1.5" stroke-miterlimit="10"/>
<path d="M554.438 529.629L598.492 318.559" stroke="#544943" stroke-width="1.5" stroke-miterlimit="10"/>
<path d="M642.532 529.629L598.492 318.559" stroke="#544943" stroke-width="1.5" stroke-miterlimit="10"/>
<path d="M637.129 305.922H110.973V318.546H637.129V305.922Z" fill="#E7EAF2"/>
<path d="M611.714 281.852H425.827C425.048 281.854 424.279 281.686 423.573 281.358C422.867 281.03 422.241 280.55 421.741 279.954C421.241 279.357 420.879 278.658 420.679 277.906C420.48 277.154 420.449 276.367 420.587 275.602L441.942 155.503C442.274 153.661 443.243 151.995 444.679 150.794C446.116 149.594 447.929 148.937 449.802 148.938H635.73C636.509 148.936 637.278 149.104 637.985 149.432C638.691 149.76 639.317 150.239 639.818 150.835C640.319 151.431 640.683 152.13 640.884 152.882C641.086 153.634 641.119 154.421 640.983 155.188L619.614 275.286C619.286 277.138 618.313 278.813 616.867 280.015C615.42 281.217 613.595 281.868 611.714 281.852Z" fill="#475577"/>
<path d="M616.089 281.852H430.147C429.368 281.854 428.599 281.686 427.893 281.358C427.187 281.03 426.562 280.55 426.062 279.954C425.562 279.357 425.199 278.658 425 277.906C424.8 277.154 424.769 276.367 424.908 275.602L446.263 155.503C446.594 153.661 447.563 151.995 449 150.794C450.436 149.594 452.249 148.937 454.122 148.938H640.05C640.829 148.936 641.599 149.104 642.305 149.432C643.012 149.76 643.638 150.239 644.139 150.835C644.64 151.431 645.004 152.13 645.205 152.882C645.406 153.634 645.439 154.421 645.303 155.188L623.934 275.286C623.608 277.128 622.643 278.796 621.208 279.997C619.773 281.198 617.96 281.855 616.089 281.852Z" fill="#C0CCD8"/>
<path opacity="0.45" d="M581.882 281.852H474.558C474.109 281.853 473.665 281.755 473.257 281.566C472.85 281.376 472.489 281.1 472.2 280.757C471.911 280.413 471.701 280.01 471.585 279.576C471.468 279.143 471.449 278.689 471.527 278.247L483.871 208.877C484.063 207.813 484.623 206.851 485.453 206.157C486.282 205.463 487.329 205.082 488.411 205.08H595.804C596.253 205.081 596.698 205.181 597.105 205.372C597.512 205.562 597.873 205.84 598.162 206.184C598.45 206.529 598.66 206.933 598.777 207.367C598.893 207.801 598.913 208.256 598.835 208.699L586.491 278.055C586.304 279.134 585.736 280.11 584.891 280.807C584.045 281.504 582.978 281.874 581.882 281.852Z" fill="#8E9DB2"/>
<path d="M584.447 281.852H477.054C476.606 281.85 476.163 281.751 475.757 281.561C475.351 281.371 474.991 281.095 474.702 280.752C474.414 280.409 474.203 280.007 474.086 279.574C473.969 279.142 473.947 278.689 474.023 278.247L486.367 208.877C486.56 207.813 487.119 206.851 487.949 206.157C488.779 205.463 489.825 205.082 490.907 205.08H598.3C598.75 205.081 599.194 205.181 599.601 205.372C600.008 205.562 600.369 205.84 600.658 206.184C600.947 206.529 601.157 206.933 601.273 207.367C601.389 207.801 601.409 208.256 601.331 208.699L588.987 278.055C588.797 279.12 588.238 280.084 587.408 280.778C586.578 281.472 585.529 281.852 584.447 281.852Z" fill="#C6D2E0"/>
<path d="M560.651 241.061H517.063V281.852H560.651V241.061Z" fill="#8E9DB2"/>
<path d="M558.223 241.061H517.076V252.78L528.295 299.301H571.938L558.223 241.061ZM547.676 286.896C542.793 286.896 537.622 281.194 536.141 274.176C534.66 267.158 537.403 261.456 542.285 261.456C547.168 261.456 552.339 267.158 553.82 274.176C555.301 281.194 552.49 286.896 547.607 286.896H547.676Z" fill="#475577"/>
<path d="M493.019 299.301H590.66V305.921H486.422C486.422 304.17 487.116 302.49 488.353 301.25C489.589 300.009 491.267 299.308 493.019 299.301Z" fill="#475577"/>
<path d="M590.66 299.301H512.605V305.921H590.66V299.301Z" fill="#C0CCD8"/>
<path d="M560.678 241.061H517.076L530.792 299.301H574.407L560.678 241.061ZM549.993 286.896C545.111 286.896 539.94 281.194 538.459 274.176C536.977 267.158 539.734 261.456 544.617 261.456C549.5 261.456 554.657 267.158 556.152 274.176C557.647 281.194 554.849 286.896 549.993 286.896Z" fill="#C0CCD8"/>
<g opacity="0.65">
<path opacity="0.65" d="M458.84 160.754L456.248 175.283H458.84L461.419 160.754H458.84Z" fill="#8E9DB2"/>
<path opacity="0.65" d="M466.315 160.754L463.723 175.283H466.315L468.894 160.754H466.315Z" fill="#8E9DB2"/>
<path opacity="0.65" d="M473.79 160.754L471.198 175.283H473.79L476.368 160.754H473.79Z" fill="#8E9DB2"/>
<path opacity="0.65" d="M481.251 160.754L478.673 175.283H481.251L483.844 160.754H481.251Z" fill="#8E9DB2"/>
<path opacity="0.65" d="M488.726 160.754L486.148 175.283H488.726L491.318 160.754H488.726Z" fill="#8E9DB2"/>
</g>
<g opacity="0.65">
<path opacity="0.65" d="M556.934 160.754L554.355 175.283H556.934L559.526 160.754H556.934Z" fill="#8E9DB2"/>
<path opacity="0.65" d="M564.793 160.754L562.214 175.283H564.793L567.385 160.754H564.793Z" fill="#8E9DB2"/>
<path opacity="0.65" d="M572.652 160.754L570.073 175.283H572.652L575.23 160.754H572.652Z" fill="#8E9DB2"/>
<path opacity="0.65" d="M580.511 160.754L577.919 175.283H580.511L583.089 160.754H580.511Z" fill="#8E9DB2"/>
<path opacity="0.65" d="M588.356 160.754L585.778 175.283H588.356L590.948 160.754H588.356Z" fill="#8E9DB2"/>
<path opacity="0.65" d="M596.215 160.754L593.637 175.283H596.215L598.794 160.754H596.215Z" fill="#8E9DB2"/>
<path opacity="0.65" d="M604.074 160.754L601.496 175.283H604.074L606.653 160.754H604.074Z" fill="#8E9DB2"/>
<path opacity="0.65" d="M611.919 160.754L609.341 175.283H611.919L614.512 160.754H611.919Z" fill="#8E9DB2"/>
<path opacity="0.65" d="M619.778 160.754L617.2 175.283H619.778L622.357 160.754H619.778Z" fill="#8E9DB2"/>
<path opacity="0.65" d="M627.637 160.754L625.059 175.283H627.637L630.216 160.754H627.637Z" fill="#8E9DB2"/>
</g>
<g opacity="0.55">
<path opacity="0.55" d="M259.224 273.025C259.873 272.903 260.467 272.582 260.925 272.107C261.94 270.736 260.253 269.201 259.155 268.502C257.784 267.597 255.809 267.295 255.123 265.568C254.355 263.608 255.685 261.456 257.304 260.387C258.72 259.587 260.219 258.943 261.775 258.468C263.519 257.87 265.028 256.732 266.082 255.22C267.316 253.246 267.069 250.683 267.234 248.449C267.865 239.704 276.835 235.372 284.351 235.194C288.123 235.098 293.883 236.455 296.393 239.306C297.249 240.283 297.839 241.463 298.107 242.733C298.256 243.68 298.182 244.648 297.892 245.562C297.601 246.475 297.102 247.309 296.434 247.996C295.002 249.295 293.505 250.521 291.949 251.67C290.482 253.04 291.524 254.493 291.195 256.138C290.866 257.783 289.604 258.742 288.013 259.62C284.666 261.484 280.73 261.95 277.04 262.964C275.893 263.2 274.806 263.667 273.845 264.335C272.778 265.417 271.856 266.634 271.102 267.953C269.436 270.211 266.993 271.774 264.244 272.34" fill="url(#paint0_linear)"/>
</g>
<path d="M280.14 295.038H272.939V291.639H280.085C281.194 291.635 282.256 291.193 283.039 290.41C283.823 289.627 284.265 288.566 284.269 287.458V281.592C284.265 280.484 283.823 279.423 283.039 278.639C282.256 277.856 281.194 277.415 280.085 277.411H272.939V274.012H280.085C282.098 274.012 284.029 274.81 285.453 276.231C286.878 277.652 287.68 279.58 287.684 281.592V287.458C287.68 289.46 286.886 291.38 285.473 292.799C284.06 294.219 282.143 295.023 280.14 295.038Z" fill="#E8EAEF"/>
<path d="M249.5 269.174H278.302V295.614C278.302 297.839 277.418 299.973 275.844 301.546C274.27 303.119 272.135 304.003 269.908 304.003H257.852C255.626 304.003 253.491 303.119 251.917 301.546C250.343 299.973 249.458 297.839 249.458 295.614V269.174H249.5Z" fill="#E8EAEF"/>
<path d="M244.836 299.15C244.836 299.15 245.111 305.922 255.658 305.922H272.199C282.746 305.922 283.02 299.15 283.02 299.15H244.836Z" fill="#C6D2E0"/>
<path d="M476.684 303.221H324.057V305.935H476.684V303.221Z" fill="#475577"/>
<path d="M340.2 301.027H329.269V303.207H340.2V301.027Z" fill="#475577"/>
<path d="M356.755 301.027H345.824V303.207H356.755V301.027Z" fill="#475577"/>
<path d="M373.31 301.027H362.379V303.207H373.31V301.027Z" fill="#475577"/>
<path d="M389.865 301.027H378.933V303.207H389.865V301.027Z" fill="#475577"/>
<path d="M406.433 301.027H395.502V303.207H406.433V301.027Z" fill="#475577"/>
<path d="M422.988 301.027H412.056V303.207H422.988V301.027Z" fill="#475577"/>
<path d="M439.542 301.027H428.611V303.207H439.542V301.027Z" fill="#475577"/>
<path d="M456.097 301.027H445.166V303.207H456.097V301.027Z" fill="#475577"/>
<path d="M472.652 301.027H461.72V303.207H472.652V301.027Z" fill="#475577"/>
<path d="M478.673 303.221H326.046V305.935H478.673V303.221Z" fill="#C0CCD8"/>
<path d="M342.203 301.027H331.272V303.207H342.203V301.027Z" fill="#C0CCD8"/>
<path d="M358.758 301.027H347.826V303.207H358.758V301.027Z" fill="#C0CCD8"/>
<path d="M375.312 301.027H364.381V303.207H375.312V301.027Z" fill="#C0CCD8"/>
<path d="M391.867 301.027H380.936V303.207H391.867V301.027Z" fill="#C0CCD8"/>
<path d="M408.422 301.027H397.49V303.207H408.422V301.027Z" fill="#C0CCD8"/>
<path d="M424.976 301.027H414.045V303.207H424.976V301.027Z" fill="#C0CCD8"/>
<path d="M441.531 301.027H430.6V303.207H441.531V301.027Z" fill="#C0CCD8"/>
<path d="M458.099 301.027H447.168V303.207H458.099V301.027Z" fill="#C0CCD8"/>
<path d="M474.654 301.027H463.723V303.207H474.654V301.027Z" fill="#C0CCD8"/>
<path d="M108.874 408.243C110.788 400.642 109.959 392.611 106.532 385.561C103.105 378.511 97.3004 372.894 90.1389 369.7C87.2449 368.411 84.1452 367.52 81.5255 365.738C81.0181 369.486 80.7844 373.265 80.826 377.046C80.7653 380.769 81.3309 384.476 82.4993 388.012C85.8459 397.072 94.953 402.637 103.923 406.228" fill="#8EBCA2"/>
<path d="M109.971 432.531C110.246 415 110.479 394.989 96.681 381.94C96.6366 381.9 96.5787 381.879 96.5193 381.881C96.4598 381.883 96.4033 381.907 96.3613 381.949C96.3192 381.991 96.2948 382.048 96.2931 382.107C96.2913 382.166 96.3123 382.224 96.3518 382.269C102.703 389.385 106.87 398.179 108.353 407.599C109.505 415.823 109.052 424.225 109.725 432.531C109.735 432.565 109.755 432.595 109.784 432.616C109.812 432.637 109.847 432.649 109.882 432.649C109.918 432.649 109.952 432.637 109.981 432.616C110.009 432.595 110.03 432.565 110.04 432.531H109.971Z" fill="#597F6E"/>
<path d="M87.5463 455.518C86.8577 450.307 85.1226 445.288 82.4452 440.763C79.7678 436.239 76.2032 432.301 71.9654 429.187C67.7573 426.152 62.9809 423.993 57.9207 422.841C55.0816 422.197 41.9558 422.841 41.9558 422.841C41.9558 422.841 44.6989 432.573 47.9632 437.233C55.4931 448.116 68.6874 456.423 87.5463 455.49" fill="#8EBCA2"/>
<path d="M76.0667 422.018C75.7437 415.721 74.6097 409.493 72.6927 403.486C71.966 401.087 70.948 398.785 69.6616 396.633C65.3274 389.779 57.2078 386.531 49.4037 385.119C49.3077 391.753 50.0757 398.744 53.7241 404.199C55.4123 406.543 57.3789 408.674 59.5806 410.545C63.8187 414.383 71.568 418.632 76.1216 422.059" fill="#A2CCB6"/>
<path d="M120.368 399.087C119.147 390.698 118.022 381.693 121.835 374.127C123.286 371.442 125.136 368.993 127.321 366.862C132.451 361.585 139.158 357.268 146.523 357.268C147.827 365.206 146.261 373.349 142.107 380.24C137.992 387.094 128.007 396.688 120.423 399.142" fill="#A2CCB6"/>
<path d="M106.899 447.801C110.813 448.612 114.852 448.614 118.766 447.806C122.681 446.998 126.388 445.397 129.66 443.102C132.932 440.807 135.699 437.867 137.79 434.462C139.881 431.058 141.252 427.261 141.819 423.307C141.892 423.146 141.918 422.969 141.894 422.794C141.87 422.62 141.797 422.455 141.684 422.321C141.571 422.186 141.421 422.086 141.253 422.032C141.085 421.979 140.906 421.974 140.735 422.018C127.239 421.95 110.561 434.82 106.899 447.801Z" fill="#A2CCB6"/>
<path d="M79.1524 417.481C90.262 411.203 97.3804 398.716 97.6135 385.16C89.5899 384.721 83.5551 389.656 80.0576 393.905C75.1886 399.826 74.7771 410.216 79.1524 417.535" fill="#A2CCB6"/>
<path d="M87.2171 439.453C85.7278 435.74 85.1694 431.719 85.5907 427.741C86.0119 423.764 87.4 419.949 89.634 416.63C91.868 413.311 94.8801 410.588 98.408 408.698C101.936 406.809 105.873 405.81 109.875 405.789C110.039 405.764 110.207 405.779 110.364 405.832C110.521 405.884 110.664 405.973 110.78 406.09C110.874 406.263 110.921 406.456 110.918 406.652C111.219 413.506 108.174 420.126 103.909 425.431C99.6434 430.735 94.0612 434.875 88.5064 438.836" fill="#A2CCB6"/>
<path d="M132.547 379.581C117.748 393.631 112.564 416.165 108.641 435.423C104.144 457.83 101.493 480.568 100.713 503.408C100.713 503.806 101.248 503.778 101.303 503.408C103.95 481.217 105.006 458.943 109.354 436.944C113.249 417.33 118.228 394.535 132.835 379.855C133.013 379.677 132.739 379.403 132.547 379.581Z" fill="#597F6E"/>
<path d="M87.2034 451.2C87.1364 444.748 87.9438 438.316 89.6037 432.079C89.6037 431.819 89.2882 431.627 89.1511 431.888C86.4079 437.274 85.5576 445.361 86.5451 451.283C86.5451 451.666 87.2172 451.57 87.2034 451.2Z" fill="#597F6E"/>
<path d="M88.1364 394.508C79.2487 402.554 76.9856 419.427 80.6065 430.392C80.6211 430.448 80.6574 430.497 80.7076 430.526C80.7577 430.556 80.8176 430.564 80.874 430.55C80.9304 430.535 80.9786 430.499 81.0082 430.449C81.0378 430.399 81.0462 430.339 81.0317 430.282C78.412 418.878 79.2761 403.376 88.2324 394.645C88.2396 394.639 88.2455 394.631 88.2497 394.622C88.254 394.614 88.2565 394.604 88.2571 394.595C88.2577 394.585 88.2565 394.576 88.2534 394.567C88.2504 394.558 88.2455 394.549 88.2392 394.542C88.2329 394.535 88.2253 394.529 88.2167 394.525C88.2081 394.521 88.1988 394.518 88.1892 394.517C88.1797 394.517 88.1701 394.518 88.161 394.521C88.1519 394.524 88.1436 394.529 88.1364 394.535V394.508Z" fill="#597F6E"/>
<path d="M91.373 489.826C91.645 474.087 89.5081 458.399 85.0365 443.305C80.8395 428.68 74.064 412.821 62.9407 402.089C62.6252 401.774 62.2001 402.226 62.4744 402.555C67.5456 408.522 71.99 414.993 75.7373 421.868C79.4399 429.1 82.3904 436.692 84.5427 444.525C88.7534 459.424 89.9329 474.461 90.8518 489.826C90.8518 489.895 90.8793 489.961 90.9282 490.01C90.977 490.059 91.0433 490.086 91.1124 490.086C91.1816 490.086 91.2478 490.059 91.2967 490.01C91.3456 489.961 91.373 489.895 91.373 489.826Z" fill="#597F6E"/>
<path d="M136.744 462.877V473.842C136.744 517.279 122.343 529.643 122.343 529.643H77.7124C77.7124 529.643 63.311 517.306 63.311 473.842V462.877H136.744Z" fill="#F2F5F9"/>
<path d="M38.8013 529.629H738.911" stroke="#475577" stroke-width="2" stroke-miterlimit="10"/>
<defs>
<linearGradient id="paint0_linear" x1="276.56" y1="273.025" x2="276.56" y2="235.18" gradientUnits="userSpaceOnUse">
<stop stop-color="white" stop-opacity="0.1"/>
<stop offset="1" stop-color="white" stop-opacity="0.4"/>
</linearGradient>
</defs>
</svg>
