<svg width="100" height="100" viewBox="0 0 100 100" fill="none" xmlns="http://www.w3.org/2000/svg">
<path d="M83.9373 6.73853H15.9651C8.8583 6.73853 3.07617 12.5195 3.07617 19.6274V61.225C3.07617 68.3169 8.83312 74.0887 15.9193 74.1139V91.0762C15.9193 91.884 16.8274 92.3584 17.4905 91.8971L43.047 74.1139H83.9373C91.044 74.1139 96.8262 68.3318 96.8262 61.225V19.6274C96.8262 12.5195 91.044 6.73853 83.9373 6.73853ZM91.333 61.225C91.333 65.3025 88.0154 68.6207 83.9373 68.6207H41.3235L21.4125 82.4761V68.6207H15.9651C11.887 68.6207 8.56934 65.3025 8.56934 61.225V19.6274C8.56934 15.5488 11.887 12.2317 15.9651 12.2317H83.9373C88.0154 12.2317 91.333 15.5488 91.333 19.6274V61.225Z" fill="#E0E0E0"/>
<path d="M28.168 27.1482C28.168 26.5959 28.6157 26.1482 29.168 26.1482H70.7345C71.2868 26.1482 71.7345 26.5959 71.7345 27.1482V30.6413C71.7345 31.1936 71.2868 31.6413 70.7345 31.6413H29.168C28.6157 31.6413 28.168 31.1936 28.168 30.6413V27.1482Z" fill="#E0E0E0"/>
<path d="M28.168 38.8669C28.168 38.3147 28.6157 37.8669 29.168 37.8669H70.7345C71.2868 37.8669 71.7345 38.3147 71.7345 38.8669V42.3601C71.7345 42.9124 71.2868 43.3601 70.7345 43.3601H29.168C28.6157 43.3601 28.168 42.9124 28.168 42.3601V38.8669Z" fill="#E0E0E0"/>
<path d="M28.168 50.5857C28.168 50.0334 28.6157 49.5857 29.168 49.5857H70.7345C71.2868 49.5857 71.7345 50.0334 71.7345 50.5857V54.0789C71.7345 54.6311 71.2868 55.0789 70.7345 55.0789H29.168C28.6157 55.0789 28.168 54.6311 28.168 54.0789V50.5857Z" fill="#E0E0E0"/>
</svg>
