<svg width="96" height="86" viewBox="0 0 96 86" fill="none" xmlns="http://www.w3.org/2000/svg">
<path d="M86.501 8.43365C84.1819 6.10877 81.4261 4.26516 78.3921 3.0088C75.3581 1.75244 72.1057 1.1081 68.8219 1.11282C61.9135 1.11282 55.6552 3.91699 51.1302 8.44615L48.101 11.5128L45.076 8.43365C40.551 3.90865 34.301 1.11282 27.3969 1.11282C20.4927 1.11282 14.2427 3.91282 9.71771 8.43365L8.36771 9.78365C3.84271 14.3087 1.04688 20.5587 1.04688 27.4628C1.04688 34.367 3.84687 40.617 8.36771 45.142L43.9885 80.7628L48.0094 84.9753L48.1052 84.8795L48.2094 84.9836L51.976 81.0086L87.8427 45.142C92.3594 40.6128 95.1552 34.367 95.1552 27.4628C95.1552 20.5587 92.3635 14.3128 87.8427 9.78365L86.501 8.43365ZM83.4302 40.717L48.1094 76.0378L12.7885 40.717C9.39688 37.3253 7.29688 32.6378 7.29688 27.4587C7.29688 22.2795 9.39688 17.592 12.7885 14.2003L14.1385 12.8503C15.8777 11.1066 17.9444 9.72384 20.2197 8.7814C22.495 7.83896 24.9341 7.35545 27.3969 7.35865C29.8575 7.35636 32.2945 7.83951 34.5681 8.78043C36.8417 9.72134 38.9074 11.1015 40.6469 12.842L48.0885 20.417L55.5635 12.8503C58.9552 9.45865 63.6427 7.35865 68.8219 7.35865C74.001 7.35865 78.6885 9.45865 82.0802 12.8503L83.4302 14.2003C86.8177 17.5962 88.9135 22.2837 88.9135 27.4587C88.9135 32.6337 86.8177 37.3211 83.4302 40.717Z" fill="#E0E0E0"/>
</svg>
