<svg width="101" height="96" viewBox="0 0 101 96" fill="none" xmlns="http://www.w3.org/2000/svg">
<path d="M39.6273 44.5591C37.8936 47.4801 36.4571 50.6983 35.615 54.1145C22.2903 55.2532 9.41148 61.4915 9.41148 64.3631V69.8092H35.6645C36.5066 73.1759 37.8936 76.3445 39.6273 79.2161H0V64.3631C0 51.1934 26.4017 44.5591 39.6273 44.5591ZM39.6273 0C44.8822 0 49.9218 2.08649 53.6376 5.80046C57.3534 9.51444 59.4409 14.5517 59.4409 19.804C59.4409 24.3094 57.9054 28.4683 55.3791 31.835C51.1192 33.4193 47.3051 35.9443 44.1349 39.1129L39.6273 39.608C34.3724 39.608 29.3327 37.5216 25.6169 33.8076C21.9011 30.0936 19.8136 25.0564 19.8136 19.804C19.8136 14.5517 21.9011 9.51444 25.6169 5.80046C29.3327 2.08649 34.3724 0 39.6273 0ZM39.6273 9.40691C36.8684 9.40691 34.2226 10.5023 32.2718 12.4522C30.321 14.402 29.2251 17.0465 29.2251 19.804C29.2251 22.5615 30.321 25.2061 32.2718 27.1559C34.2226 29.1057 36.8684 30.2011 39.6273 30.2011C42.3861 30.2011 45.0319 29.1057 46.9827 27.1559C48.9335 25.2061 50.0294 22.5615 50.0294 19.804C50.0294 17.0465 48.9335 14.402 46.9827 12.4522C45.0319 10.5023 42.3861 9.40691 39.6273 9.40691ZM66.871 39.608C79.2545 39.608 89.1614 49.5101 89.1614 61.8876C89.1614 66.2445 87.923 70.3538 85.7435 73.77L101 89.1181L94.1148 96L78.6601 80.8004C75.2423 82.9293 71.1805 84.1671 66.871 84.1671C54.4875 84.1671 44.5807 74.2651 44.5807 61.8876C44.5807 49.5101 54.4875 39.608 66.871 39.608ZM66.871 49.5101C63.5867 49.5101 60.4369 50.8141 58.1145 53.1353C55.7922 55.4566 54.4875 58.6049 54.4875 61.8876C54.4875 65.1703 55.7922 68.3186 58.1145 70.6398C60.4369 72.961 63.5867 74.2651 66.871 74.2651C70.1553 74.2651 73.3051 72.961 75.6275 70.6398C77.9498 68.3186 79.2545 65.1703 79.2545 61.8876C79.2545 58.6049 77.9498 55.4566 75.6275 53.1353C73.3051 50.8141 70.1553 49.5101 66.871 49.5101Z" fill="#E0E0E0"/>
</svg>
