<svg width="10" height="10" viewBox="0 0 10 10" fill="none" xmlns="http://www.w3.org/2000/svg">
<path d="M6.62089 4.12584C7.84698 4.12584 8.82786 5.1573 8.82786 6.44662C8.82786 6.90046 8.70525 7.32852 8.48946 7.68437L10 9.28314L9.31829 10L7.78813 8.41671C7.44973 8.63847 7.04757 8.76741 6.62089 8.76741C5.3948 8.76741 4.41393 7.73595 4.41393 6.44662C4.41393 5.1573 5.3948 4.12584 6.62089 4.12584ZM6.62089 5.1573C6.29571 5.1573 5.98385 5.29314 5.75392 5.53493C5.52398 5.77673 5.3948 6.10467 5.3948 6.44662C5.3948 6.78857 5.52398 7.11652 5.75392 7.35831C5.98385 7.60011 6.29571 7.73595 6.62089 7.73595C6.94607 7.73595 7.25793 7.60011 7.48787 7.35831C7.71781 7.11652 7.84698 6.78857 7.84698 6.44662C7.84698 6.10467 7.71781 5.77673 7.48787 5.53493C7.25793 5.29314 6.94607 5.1573 6.62089 5.1573ZM3.92349 0C4.44378 0 4.94276 0.217343 5.31066 0.604215C5.67855 0.991087 5.88524 1.5158 5.88524 2.06292C5.88524 2.53223 5.7332 2.96545 5.48308 3.31614C5.0613 3.48118 4.68367 3.7442 4.36979 4.07427L3.92349 4.12584C3.4032 4.12584 2.90423 3.9085 2.53633 3.52162C2.16843 3.13475 1.96175 2.61004 1.96175 2.06292C1.96175 1.5158 2.16843 0.991087 2.53633 0.604215C2.90423 0.217343 3.4032 0 3.92349 0ZM0 8.25168V7.22022C0 6.12687 1.62334 5.2295 3.67827 5.1573C3.52133 5.55957 3.43306 5.99278 3.43306 6.44662C3.43306 7.11191 3.61942 7.73595 3.92349 8.25168H0Z" fill="black"/>
</svg>
