<svg width="20" height="16" viewBox="0 0 20 16" fill="none" xmlns="http://www.w3.org/2000/svg">
<path d="M18.1336 3.09766C17.7742 2.72568 17.2781 2.50588 16.7134 2.50588H13.8731V2.47206C13.8731 2.04935 13.702 1.64356 13.4111 1.37303C13.1203 1.08559 12.7267 0.916504 12.299 0.916504H7.16588C6.72101 0.916504 6.32748 1.08559 6.0366 1.37303C5.74573 1.66047 5.57463 2.04935 5.57463 2.47206V2.50588H2.75143C2.18679 2.50588 1.6906 2.72568 1.33128 3.09766C0.971966 3.45274 0.732422 3.95998 0.732422 4.50104V12.9213C0.732422 13.4793 0.954855 13.9696 1.33128 14.3247C1.6906 14.6798 2.2039 14.9165 2.75143 14.9165H16.7134C17.2781 14.9165 17.7742 14.6967 18.1336 14.3247C18.4929 13.9696 18.7324 13.4624 18.7324 12.9213V4.50104C18.7324 3.94307 18.51 3.45274 18.1336 3.09766ZM17.8427 12.9213H17.8256C17.8256 13.2257 17.7058 13.4962 17.5005 13.6991C17.2952 13.902 17.0214 14.0204 16.7134 14.0204H2.75143C2.44345 14.0204 2.16968 13.902 1.96436 13.6991C1.75904 13.4962 1.63927 13.2257 1.63927 12.9213V4.50104C1.63927 4.1967 1.75904 3.92617 1.96436 3.72327C2.16968 3.52037 2.44345 3.40201 2.75143 3.40201H6.05372C6.31037 3.40201 6.51569 3.19911 6.51569 2.94549V2.45515C6.51569 2.26916 6.58413 2.10008 6.70391 1.98172C6.82368 1.86336 6.99478 1.79573 7.18299 1.79573H12.299C12.4872 1.79573 12.6583 1.86336 12.7781 1.98172C12.8978 2.10008 12.9663 2.26916 12.9663 2.45515V2.94549C12.9663 3.19911 13.1716 3.40201 13.4282 3.40201H16.7305C17.0385 3.40201 17.3123 3.52037 17.5176 3.72327C17.7229 3.92617 17.8427 4.1967 17.8427 4.50104V12.9213Z" fill="white"/>
<path d="M9.73256 4.59521C8.56907 4.59521 7.50823 5.0743 6.75538 5.82715C5.98542 6.59712 5.52344 7.64084 5.52344 8.80434C5.52344 9.96784 6.00253 11.0287 6.75538 11.7815C7.52534 12.5515 8.56907 13.0135 9.73256 13.0135C10.8961 13.0135 11.9569 12.5344 12.7098 11.7815C13.4797 11.0116 13.9417 9.96784 13.9417 8.80434C13.9417 7.64084 13.4626 6.58001 12.7098 5.82715C11.9569 5.0743 10.8961 4.59521 9.73256 4.59521ZM12.0596 11.1484C11.4607 11.7302 10.6394 12.1066 9.73256 12.1066C8.82572 12.1066 8.00443 11.7302 7.40557 11.1484C6.80671 10.5496 6.44739 9.72829 6.44739 8.82145C6.44739 7.91461 6.82382 7.09331 7.40557 6.49445C8.00443 5.89559 8.82572 5.53628 9.73256 5.53628C10.6394 5.53628 11.4607 5.9127 12.0596 6.49445C12.6584 7.09331 13.0177 7.91461 13.0177 8.82145C13.0348 9.72829 12.6584 10.5496 12.0596 11.1484Z" fill="white"/>
<path d="M15.8228 6.25493C16.2858 6.25493 16.6612 5.87957 16.6612 5.41653C16.6612 4.95349 16.2858 4.57812 15.8228 4.57812C15.3597 4.57812 14.9844 4.95349 14.9844 5.41653C14.9844 5.87957 15.3597 6.25493 15.8228 6.25493Z" fill="white"/>
</svg>
