<svg width="24" height="24" viewBox="0 0 24 24" fill="none" xmlns="http://www.w3.org/2000/svg">
<g clip-path="url(#clip0)">
<path d="M1.49971 1.63329C-0.386289 3.59229 -0.00028903 5.67329 -0.00028903 11.9953C-0.00028903 17.2453 -0.916289 22.5083 3.87771 23.7473C5.37471 24.1323 18.6387 24.1323 20.1337 23.7453C22.1297 23.2303 23.7537 21.6113 23.9757 18.7883C24.0067 18.3943 24.0067 5.60329 23.9747 5.20129C23.7387 2.19429 21.8877 0.461291 19.4487 0.110291C18.8897 0.0292906 18.7777 0.00529055 15.9097 0.000290543C5.73671 0.00529055 3.50671 -0.44771 1.49971 1.63329Z" fill="url(#paint0_linear)"/>
<path d="M11.865 3.00855C8.234 3.00855 4.786 2.68555 3.469 6.06555C2.925 7.46155 3.004 9.27455 3.004 11.8706C3.004 14.1486 2.931 16.2896 3.469 17.6746C4.783 21.0566 8.259 20.7326 11.863 20.7326C15.34 20.7326 18.925 21.0946 20.258 17.6746C20.803 16.2646 20.723 14.4786 20.723 11.8706C20.723 8.40855 20.914 6.17355 19.235 4.49555C17.535 2.79555 15.236 3.00855 11.861 3.00855H11.865ZM11.071 4.60555C18.645 4.59355 19.609 3.75155 19.077 15.4486C18.888 19.5856 15.738 19.1316 11.866 19.1316C4.806 19.1316 4.603 18.9296 4.603 11.8666C4.603 4.72155 5.163 4.60955 11.071 4.60355V4.60555ZM16.595 6.07655C16.008 6.07655 15.532 6.55255 15.532 7.13955C15.532 7.72655 16.008 8.20255 16.595 8.20255C17.182 8.20255 17.658 7.72655 17.658 7.13955C17.658 6.55255 17.182 6.07655 16.595 6.07655ZM11.865 7.31955C9.352 7.31955 7.315 9.35755 7.315 11.8706C7.315 14.3836 9.352 16.4206 11.865 16.4206C14.378 16.4206 16.414 14.3836 16.414 11.8706C16.414 9.35755 14.378 7.31955 11.865 7.31955ZM11.865 8.91655C15.77 8.91655 15.775 14.8246 11.865 14.8246C7.961 14.8246 7.955 8.91655 11.865 8.91655Z" fill="white"/>
</g>
<defs>
<linearGradient id="paint0_linear" x1="1.54573" y1="22.4674" x2="23.8512" y2="3.16227" gradientUnits="userSpaceOnUse">
<stop stop-color="#FFDD55"/>
<stop offset="0.5" stop-color="#FF543E"/>
<stop offset="1" stop-color="#C837AB"/>
</linearGradient>
<clipPath id="clip0">
<rect width="24" height="24" fill="white"/>
</clipPath>
</defs>
</svg>
