<svg width="20" height="20" viewBox="0 0 20 20" fill="none" xmlns="http://www.w3.org/2000/svg">
<g clip-path="url(#clip0)">
<path d="M1.24513 18.6389C-0.320977 17.0064 -0.000447098 15.2723 -0.000447098 10.0039C-0.000447098 5.62892 -0.761083 1.24309 3.2198 0.210587C4.46289 -0.110247 15.4772 -0.110247 16.7186 0.212252C18.376 0.641418 19.7246 1.99059 19.9089 4.34309C19.9347 4.67142 19.9347 15.3306 19.9081 15.6656C19.7121 18.1714 18.1751 19.6156 16.1498 19.9081C15.6856 19.9756 15.5926 19.9956 13.211 19.9998C4.76349 19.9956 2.91172 20.3731 1.24513 18.6389Z" fill="url(#paint0_linear)"/>
<path d="M9.96295 17.384C6.94781 17.384 4.08464 17.6532 2.99102 14.8365C2.53928 13.6732 2.60489 12.1623 2.60489 9.99899C2.60489 8.10065 2.54427 6.31649 2.99102 5.16232C4.08215 2.34399 6.96857 2.61399 9.96129 2.61399C12.8485 2.61399 15.8255 2.31232 16.9324 5.16232C17.385 6.33732 17.3185 7.82565 17.3185 9.99899C17.3185 12.884 17.4771 14.7465 16.0829 16.1448C14.6713 17.5615 12.7622 17.384 9.95963 17.384H9.96295ZM9.30362 16.0532C15.593 16.0632 16.3935 16.7648 15.9517 7.01732C15.7948 3.56982 13.179 3.94815 9.96378 3.94815C4.10124 3.94815 3.93268 4.11649 3.93268 10.0023C3.93268 15.9565 4.39769 16.0498 9.30362 16.0548V16.0532ZM13.8907 14.8273C13.4032 14.8273 13.008 14.4307 13.008 13.9415C13.008 13.4523 13.4032 13.0557 13.8907 13.0557C14.3781 13.0557 14.7734 13.4523 14.7734 13.9415C14.7734 14.4307 14.3781 14.8273 13.8907 14.8273ZM9.96295 13.7915C7.87619 13.7915 6.18469 12.0932 6.18469 9.99899C6.18469 7.90482 7.87619 6.20732 9.96295 6.20732C12.0497 6.20732 13.7404 7.90482 13.7404 9.99899C13.7404 12.0932 12.0497 13.7915 9.96295 13.7915ZM9.96295 12.4607C13.2056 12.4607 13.2098 7.53732 9.96295 7.53732C6.72112 7.53732 6.71614 12.4607 9.96295 12.4607Z" fill="white"/>
</g>
<defs>
<linearGradient id="paint0_linear" x1="1.28335" y1="1.27718" x2="19.8617" y2="17.2997" gradientUnits="userSpaceOnUse">
<stop stop-color="#FFDD55"/>
<stop offset="0.5" stop-color="#FF543E"/>
<stop offset="1" stop-color="#C837AB"/>
</linearGradient>
<clipPath id="clip0">
<rect width="19.9293" height="20" transform="matrix(1 0 0 -1 0 20)" fill="white"/>
</clipPath>
</defs>
</svg>
