<svg width="20" height="20" viewBox="0 0 20 20" fill="none" xmlns="http://www.w3.org/2000/svg">
<path d="M10 20C15.5228 20 20 15.5228 20 10C20 4.47715 15.5228 0 10 0C4.47715 0 0 4.47715 0 10C0 15.5228 4.47715 20 10 20Z" fill="#039BE5"/>
<path d="M5.73753 9.3027L13.4235 6.03993C13.7802 5.89804 14.0917 6.13575 13.9761 6.72964L13.9768 6.72891L12.6681 13.517C12.5712 13.9983 12.3114 14.1153 11.948 13.8886L9.95515 12.2714L8.99391 13.291C8.88763 13.408 8.79795 13.5068 8.59202 13.5068L8.73351 11.2738L12.427 7.6C12.5878 7.44422 12.3911 7.35645 12.1792 7.51151L7.61483 10.6755L5.64718 9.99972C5.22004 9.85052 5.21074 9.52943 5.73753 9.3027Z" fill="white"/>
</svg>
