<svg width="52" height="42" viewBox="0 0 52 42" fill="none" xmlns="http://www.w3.org/2000/svg">
<path d="M5.33073 0C3.96044 0 2.64628 0.544343 1.67734 1.51328C0.708406 2.48222 0.164063 3.79638 0.164062 5.16667V18.0833H15.9999C17.1882 13.5367 21.2957 10.3333 25.9974 10.3333C28.2858 10.3395 30.5078 11.1031 32.3164 12.5052C34.125 13.9072 35.4185 15.8687 35.9949 18.0833H51.8307V5.16667C51.8307 3.79638 51.2864 2.48222 50.3174 1.51328C49.3485 0.544343 48.0343 0 46.6641 0H5.33073ZM25.9974 15.5C24.6271 15.5 23.3129 16.0443 22.344 17.0133C21.3751 17.9822 20.8307 19.2964 20.8307 20.6667C20.8307 22.037 21.3751 23.3511 22.344 24.32C23.3129 25.289 24.6271 25.8333 25.9974 25.8333C27.3677 25.8333 28.6818 25.289 29.6508 24.32C30.6197 23.3511 31.1641 22.037 31.1641 20.6667C31.1641 19.2964 30.6197 17.9822 29.6508 17.0133C28.6818 16.0443 27.3677 15.5 25.9974 15.5ZM0.164062 23.25V36.1667C0.164063 37.5369 0.708406 38.8511 1.67734 39.82C2.64628 40.789 3.96044 41.3333 5.33073 41.3333H46.6641C48.0343 41.3333 49.3485 40.789 50.3174 39.82C51.2864 38.8511 51.8307 37.5369 51.8307 36.1667V23.25H35.9949C35.4185 25.4646 34.125 27.4261 32.3164 28.8281C30.5078 30.2302 28.2858 30.9939 25.9974 31C23.709 30.9939 21.487 30.2302 19.6784 28.8281C17.8697 27.4261 16.5763 25.4646 15.9999 23.25H0.164062Z" fill="#E0E0E0"/>
</svg>
