<svg width="20" height="20" viewBox="0 0 20 20" fill="none" xmlns="http://www.w3.org/2000/svg">
<mask id="mask0" mask-type="alpha" maskUnits="userSpaceOnUse" x="0" y="0" width="20" height="20">
<circle cx="10" cy="10" r="10" fill="#C4C4C4"/>
</mask>
<g mask="url(#mask0)">
<rect width="20" height="20" fill="#7D3DAF"/>
<path d="M18.9475 1.05273H1.05273V18.9475H18.9475V1.05273Z" fill="#7D3DAF"/>
<path d="M14.5309 7.45418L14.528 7.44286C14.2992 6.51759 13.2673 5.52473 12.3197 5.31817L12.309 5.31597C10.7763 5.02358 9.22229 5.02358 7.68992 5.31597L7.67891 5.31817C6.73164 5.52473 5.69979 6.51759 5.47059 7.44286L5.46808 7.45418C5.18512 8.74635 5.18512 10.0568 5.46808 11.3489L5.47059 11.3602C5.69001 12.246 6.64502 13.1933 7.55724 13.4538V14.4866C7.55724 14.8604 8.0128 15.0441 8.27186 14.7743L9.31833 13.6865C9.5453 13.6992 9.77239 13.7063 9.99947 13.7063C10.771 13.7063 11.5428 13.6334 12.309 13.4872L12.3197 13.485C13.2673 13.2784 14.2992 12.2855 14.528 11.3603L14.5309 11.349C14.8138 10.0568 14.8138 8.74635 14.5309 7.45418ZM13.7028 11.1615C13.55 11.7652 12.7665 12.5156 12.144 12.6543C11.329 12.8093 10.5076 12.8755 9.68706 12.8528C9.67074 12.8523 9.65505 12.8587 9.64367 12.8703C9.52722 12.9899 8.87959 13.6547 8.87959 13.6547L8.06688 14.4888C8.00746 14.5507 7.90308 14.5086 7.90308 14.4231V12.7121C7.90308 12.6838 7.88289 12.6598 7.85513 12.6544C7.85497 12.6543 7.85482 12.6543 7.85466 12.6543C7.23216 12.5156 6.44899 11.7652 6.29588 11.1615C6.04122 9.99353 6.04122 8.80951 6.29588 7.64153C6.44899 7.03789 7.23216 6.28742 7.85466 6.14878C9.27793 5.87808 10.721 5.87808 12.144 6.14878C12.7668 6.28742 13.55 7.03789 13.7028 7.64153C13.9577 8.80954 13.9577 9.99356 13.7028 11.1615Z" fill="white"/>
<path d="M11.3532 11.9515C11.2574 11.9225 11.1662 11.903 11.0815 11.8678C10.2039 11.5037 9.39613 11.0339 8.7563 10.3138C8.39245 9.90428 8.10767 9.44197 7.86693 8.9527C7.75278 8.72068 7.65657 8.47957 7.55851 8.24003C7.4691 8.02159 7.6008 7.79591 7.73948 7.63133C7.86961 7.47686 8.03705 7.35865 8.2184 7.27153C8.35994 7.20353 8.49956 7.24273 8.60294 7.36271C8.82641 7.62208 9.03168 7.89473 9.1979 8.19538C9.30011 8.38031 9.27207 8.60636 9.08682 8.73222C9.0418 8.76281 9.00077 8.79871 8.95883 8.83326C8.92205 8.86354 8.88743 8.89413 8.86222 8.93513C8.81613 9.01014 8.81393 9.09861 8.84361 9.18017C9.07205 9.80795 9.45709 10.2961 10.089 10.559C10.1901 10.6011 10.2916 10.6501 10.4081 10.6365C10.6032 10.6137 10.6664 10.3997 10.8031 10.2879C10.9367 10.1787 11.1074 10.1772 11.2513 10.2683C11.3953 10.3594 11.5349 10.4572 11.6736 10.5561C11.8097 10.6531 11.9453 10.748 12.0709 10.8586C12.1917 10.965 12.2333 11.1045 12.1653 11.2489C12.0408 11.5132 11.8596 11.7331 11.5983 11.8735C11.5245 11.9131 11.4364 11.9259 11.3532 11.9515C11.2574 11.9225 11.4364 11.9259 11.3532 11.9515Z" fill="white"/>
<path d="M10.0019 6.96923C11.1499 7.00139 12.0928 7.76327 12.2949 8.89824C12.3293 9.09162 12.3416 9.28935 12.3569 9.48563C12.3633 9.56819 12.3166 9.64663 12.2275 9.6477C12.1355 9.6488 12.094 9.5718 12.0881 9.48927C12.0763 9.32591 12.068 9.16183 12.0455 8.99982C11.9267 8.14463 11.2448 7.43711 10.3935 7.28529C10.2655 7.26243 10.1344 7.25643 10.0046 7.24282C9.92257 7.2342 9.81514 7.22923 9.79697 7.12727C9.78172 7.04179 9.85388 6.97372 9.93528 6.96935C9.95741 6.96813 9.97967 6.96913 10.0019 6.96923C11.1499 7.00139 9.97967 6.96913 10.0019 6.96923Z" fill="white"/>
<path d="M11.7466 9.23059C11.7447 9.24493 11.7437 9.27863 11.7353 9.31038C11.7049 9.42564 11.5301 9.44007 11.4899 9.32374C11.478 9.28922 11.4762 9.24996 11.4761 9.21279C11.4757 8.96964 11.4229 8.72674 11.3002 8.51518C11.1742 8.29774 10.9816 8.11495 10.7558 8.00435C10.6192 7.93748 10.4715 7.89591 10.3218 7.87114C10.2564 7.86032 10.1903 7.85375 10.1245 7.8446C10.0449 7.83354 10.0023 7.78276 10.0061 7.70426C10.0096 7.63069 10.0634 7.57777 10.1435 7.5823C10.407 7.59727 10.6615 7.6542 10.8957 7.77823C11.372 8.03047 11.6441 8.42863 11.7235 8.96027C11.7271 8.98435 11.7329 9.00822 11.7347 9.03239C11.7392 9.0921 11.742 9.15186 11.7466 9.23059C11.7447 9.24493 11.742 9.15186 11.7466 9.23059Z" fill="white"/>
<path d="M11.032 9.20277C10.936 9.2045 10.8845 9.15134 10.8746 9.06328C10.8678 9.00188 10.8623 8.93966 10.8477 8.87992C10.8188 8.76228 10.7563 8.65324 10.6573 8.58115C10.6106 8.5471 10.5576 8.5223 10.5022 8.50629C10.4317 8.48595 10.3586 8.49155 10.2883 8.47432C10.2119 8.45561 10.1697 8.3938 10.1817 8.32219C10.1926 8.25701 10.256 8.20614 10.3272 8.2113C10.7723 8.24343 11.0904 8.47353 11.1358 8.99751C11.1391 9.03448 11.1428 9.07356 11.1346 9.10893C11.1206 9.16948 11.0757 9.19982 11.032 9.20277C10.936 9.2045 11.0757 9.19982 11.032 9.20277Z" fill="white"/>
</g>
</svg>
